<?xml version="1.0" encoding="UTF-8"?>
<svg width="28px" height="27px" viewBox="0 0 28 27" version="1.1" xmlns="http://www.w3.org/2000/svg" xmlns:xlink="http://www.w3.org/1999/xlink">
    <!-- Generator: Sketch 54.1 (76490) - https://sketchapp.com -->
    <title>Group 6</title>
    <desc>Created with Sketch.</desc>
    <g id="Website" stroke="none" stroke-width="1" fill="none" fill-rule="evenodd">
        <g id="Desktop-HD" transform="translate(-1394.000000, -15.000000)" fill-rule="nonzero">
            <g id="Group-6" transform="translate(1394.000000, 15.000000)">
                <g id="Group-11">
                    <path d="M26.4660013,13.8997799 C27.4334179,12.9273229 27.7448231,11.3716187 27.2324929,10.1137792 C26.8243462,9.11181944 26.0984974,8.44233333 25.0864308,8.07184653 C24.9313006,8.01511042 24.9003891,7.93114097 24.8963821,7.78703125 C24.8843609,7.38250278 24.8809263,6.9751375 24.8322692,6.57401319 C24.7000365,5.48184306 24.2775788,4.49747153 23.6101186,3.6254375 C22.5385186,2.22519028 21.1217397,1.38265903 19.3626442,1.11599931 C18.3746199,0.966215972 17.4009064,1.03032778 16.4495179,1.32932708 C16.230275,1.39854514 16.0682756,1.37471597 15.8759372,1.26294583 C14.7144647,0.588920833 13.4556782,0.258149306 12.2764603,0.25020625 C10.9569955,0.253610417 9.86020833,0.502681944 8.83440321,1.02011528 C7.21498205,1.83768264 6.04435064,3.07850139 5.34254423,4.74313889 C5.26927244,4.91561667 5.16222692,4.9939125 4.98362692,5.02284792 C3.90057821,5.19986458 2.99841923,5.70311389 2.25539744,6.50252569 C0.848922436,8.01567778 0.568428846,10.3747653 1.59881346,12.1647896 C1.69898974,12.3384021 1.68124423,12.4405271 1.54214231,12.5818 C0.627389744,13.5117049 0.100748718,14.6220306 0.0131660256,15.925259 C-0.0686923077,17.1490569 0.222105128,18.2747014 0.932498077,19.2846042 C1.74879167,20.4448576 2.86790385,21.1466833 4.26350256,21.4229882 C4.39859744,21.4496542 4.45526859,21.5194396 4.46442756,21.6578757 C4.48045577,21.8938979 4.5016359,22.1310549 4.54685833,22.3631056 C4.80846154,23.6912979 5.44443782,24.8095667 6.49829231,25.6776292 C7.92423013,26.8514993 9.73713462,27.2038306 11.3748737,26.8532014 C12.1573936,26.6858299 12.8820974,26.3783201 13.5134942,25.8813118 C13.6234019,25.7950729 13.7023981,25.7769174 13.8157404,25.8688299 C14.4368333,26.3720792 15.1397846,26.6915035 15.94005,26.7970326 C17.4924962,27.0012826 18.7736077,26.5003028 19.7948333,25.3377799 C20.1663442,24.9145285 20.4199333,24.4209243 20.5830776,23.8819312 C20.6157064,23.7735653 20.6454731,23.658391 20.8028929,23.6561215 C21.9283019,23.6396681 22.5940449,23.4768354 23.1659083,23.2425153 C25.3251365,22.3568646 26.6394494,20.7739271 27.0493135,18.4868944 C27.3000404,17.0872146 27.0596173,15.7544833 26.3807083,14.5011826 C26.1723417,14.1165118 26.1545962,14.2123958 26.4660013,13.8997799 Z" id="Shape" fill="#FFD240"></path>
                    <path d="M21.0679308,19.9813236 C20.7015718,20.0930938 20.1714962,20.1685528 19.9259212,20.1640139 C19.15485,20.1566382 18.3935103,20.0545132 17.6911314,19.7373583 C16.7574885,19.3152417 16.1936391,18.5754028 15.9663821,17.5791167 C15.7912167,16.8114771 16.0236256,16.1209986 16.3464795,15.4464063 C16.9481096,14.1879993 17.5600436,12.9346986 18.1588115,11.6751569 C18.3837788,11.2025451 18.8388654,10.3282417 18.3729026,10.0814396 C17.828516,9.79322014 17.4478462,10.4161826 17.1576212,10.9761681 C16.4437936,12.3537208 15.7414147,13.7369472 15.0333115,15.1173368 C14.7058782,15.7561854 14.3893212,16.4007076 14.042425,17.0293438 C13.7224333,17.6086194 13.2404423,17.9751347 12.5403532,17.9348521 C11.47505,17.8741444 11.1762385,17.1785597 11.586675,16.1584444 C12.1075917,14.8654285 12.6307981,13.5735472 13.1448455,12.2782618 C13.2810853,11.9350083 13.4327808,11.5900528 13.3640885,11.2014104 C13.3039827,10.8643979 13.1173686,10.6465313 12.8225641,10.5886604 C12.5764167,10.5404347 12.1957468,10.7219903 12.0732455,10.9863806 C11.8711756,11.4221139 11.689141,11.866925 11.5093962,12.3123035 C10.7337455,14.2396292 9.96897115,16.1709264 9.1835891,18.0942806 C8.96720833,18.6247632 8.64149231,19.1126938 8.07020128,19.3072986 C6.47768462,19.8513979 4.57548013,18.8386583 4.74205897,16.9368639 C4.79415064,16.3434042 6.13479551,12.1704632 6.22123333,11.9032361 C6.61735897,10.6737646 6.99802885,9.43635 7.5824859,8.27779861 C7.98261859,7.48349306 8.67583846,7.04151875 9.51159487,6.78904306 C10.2059596,6.57968681 10.8425083,6.73854792 11.4624564,7.06024167 C11.7887449,7.22931528 12.1287718,7.37172292 12.4579224,7.53512292 C12.7012077,7.65597083 12.9462103,7.65370139 13.158584,7.50562014 C13.4585404,7.29569653 13.7487654,7.06761736 14.0155205,6.81854583 C14.6102814,6.26423403 15.5215994,6.17175417 16.0877385,6.48437014 C16.4031506,6.65855 16.6630365,6.93485486 16.9418128,7.17144444 C17.2154372,7.40349514 17.3339314,7.43186319 17.6338878,7.23782569 C18.2000269,6.87131042 18.829134,6.89570694 19.4565237,6.93258542 C21.0994147,7.02846944 21.6174692,8.54559306 21.3655974,9.64457153 C21.1125808,10.7486563 20.6036853,11.7534528 20.1634821,12.78605 C19.7971231,13.6450347 19.4256122,14.50175 19.0850128,15.3709472 C18.8852327,15.8810049 18.753,16.4165938 18.7472756,16.9703382 C18.7409788,17.5620958 19.0157481,17.8888958 19.6065019,17.9989639 C20.2882731,18.1260528 20.6712327,18.1351306 21.1034218,18.3093104 C21.4943955,18.4670368 21.6523878,18.7836243 21.6455186,19.1813444 C21.6392218,19.5699868 21.4434487,19.8667167 21.0679308,19.9813236 Z" id="Shape" fill="#FFFFFF"></path>
                </g>
            </g>
        </g>
    </g>
</svg>