<?xml version="1.0" encoding="UTF-8"?>
<svg width="160px" height="131px" viewBox="0 0 160 131" version="1.1" xmlns="http://www.w3.org/2000/svg" xmlns:xlink="http://www.w3.org/1999/xlink">
    <!-- Generator: Sketch 55.2 (78181) - https://sketchapp.com -->
    <title>Group 39</title>
    <desc>Created with Sketch.</desc>
    <defs>
        <polygon id="path-1" points="0.000488817052 12.8061856 29.329512 12.8061856 29.329512 0.0704340207 0.000488817052 0.0704340207 0.000488817052 12.8061856"></polygon>
        <polygon id="path-3" points="24.1837349 16.1212825 24.1837349 0.304639199 0.475508372 0.304639199 0.475508372 16.1212825 24.1837349 16.1212825"></polygon>
        <polygon id="path-5" points="0.000533449067 14.9722498 32.0074775 14.9722498 32.0074775 0.885911129 0.000533449067 0.885911129 0.000533449067 14.9722498"></polygon>
    </defs>
    <g id="Website-" stroke="none" stroke-width="1" fill="none" fill-rule="evenodd">
        <g id="Desktop-HD" transform="translate(-672.000000, -2740.000000)">
            <g id="Group-39" transform="translate(672.000000, 2740.000000)">
                <g id="Group-44" transform="translate(0.000000, 9.571429)">
                    <g id="Group-2" transform="translate(75.200000, -0.000000)">
                        <g id="shadow-copy" transform="translate(0.000000, 110.330214)">
                            <ellipse id="Oval-Copy" fill="#F7F9FA" cx="42.0382665" cy="4.92545599" rx="42.0382665" ry="4.92545599"></ellipse>
                            <ellipse id="Oval" fill="#E9EAEC" cx="41.5494495" cy="4.92545599" rx="17.1085968" ry="1.9701824"></ellipse>
                        </g>
                        <g id="Person-7" transform="translate(14.664512, 0.000000)">
                            <path d="M52.7922417,26.5975609 C52.7922417,41.2872408 40.9746006,53.1950232 26.3961208,53.1950232 C11.8176411,53.1950232 0,41.2872408 0,26.5975609 C0,11.9078809 11.8176411,9.85091199e-05 26.3961208,9.85091199e-05 C40.9746006,9.85091199e-05 52.7922417,11.9078809 52.7922417,26.5975609" id="Fill-1" fill="#0E0F0E"></path>
                            <path d="M50.8369735,39.1379689 C50.8369735,41.5859205 48.8670407,43.5708793 46.43762,43.5708793 C44.0081992,43.5708793 42.0382665,41.5859205 42.0382665,39.1379689 C42.0382665,36.6900172 44.0081992,34.7050585 46.43762,34.7050585 C48.8670407,34.7050585 50.8369735,36.6900172 50.8369735,39.1379689" id="Fill-3" fill="#8C7052"></path>
                            <path d="M10.7539752,39.1379689 C10.7539752,41.5859205 8.78404243,43.5708793 6.35462168,43.5708793 C3.92520093,43.5708793 1.95526821,41.5859205 1.95526821,39.1379689 C1.95526821,36.6900172 3.92520093,34.7050585 6.35462168,34.7050585 C8.78404243,34.7050585 10.7539752,36.6900172 10.7539752,39.1379689" id="Fill-5" fill="#FDCC85"></path>
                            <path d="M19.5526821,69.6263444 C9.29436744,69.6263444 0.977634105,78.0065153 0.977634105,88.3430772 L0.977634105,97.208898 C0.977634105,99.3849645 2.72857679,101.149263 4.88817052,101.149263 L47.9040711,101.149263 C50.0636649,101.149263 51.8146076,99.3849645 51.8146076,97.208898 L51.8146076,88.3430772 C51.8146076,78.0065153 43.4978742,69.6263444 33.2395596,69.6263444 L19.5526821,69.6263444 Z" id="Fill-7" fill="#AAABAE"></path>
                            <path d="M33.4849457,69.6388551 L34.2171937,78.4918697 L28.781548,78.257418 L26.3961208,84.4024169 L24.0106936,78.257418 L20.5303162,78.4918697 L20.5303162,69.6260489 L19.5526821,69.6260489 C9.29436744,69.6260489 0.977634105,78.0062197 0.977634105,88.3427817 L0.977634105,97.2086025 C0.977634105,99.3846689 2.72857679,101.148967 4.88817052,101.148967 L47.9040711,101.148967 C50.0636649,101.148967 51.8146076,99.3846689 51.8146076,97.2086025 L51.8146076,88.3427817 C51.8146076,78.0899525 43.6288772,69.7728275 33.4849457,69.6388551" id="Fill-9" fill="#F1F2F1"></path>
                            <g id="Group-13" transform="translate(11.731609, 101.079223)">
                                <mask id="mask-2" fill="white">
                                    <use xlink:href="#path-1"></use>
                                </mask>
                                <g id="Clip-12"></g>
                                <path d="M11.2080862,11.3635195 L0.000488817052,0.0704340207 L29.329512,0.0704340207 L18.120937,11.3635195 C16.2116175,13.2874026 13.1174056,13.2874026 11.2080862,11.3635195" id="Fill-11" fill="#F1F2F1" mask="url(#mask-2)"></path>
                            </g>
                            <path d="M26.3961208,78.4921652 L26.3961208,78.4921652 C23.1562414,78.4921652 20.5303162,75.8462103 20.5303162,72.581618 L20.5303162,58.7903413 L32.2619255,58.7903413 L32.2619255,72.581618 C32.2619255,75.8462103 29.6360003,78.4921652 26.3961208,78.4921652" id="Fill-14" fill="#B68F65"></path>
                            <path d="M32.2619255,66.6710709 C32.2619255,66.6710709 27.8831023,67.656162 26.3961208,67.656162 C24.9091394,67.656162 20.5303162,66.6710709 20.5303162,66.6710709 L20.5303162,64.7008885 C20.5303162,64.7008885 24.9091394,65.6859797 26.3961208,65.6859797 C27.8831023,65.6859797 32.2619255,64.7008885 32.2619255,64.7008885 L32.2619255,66.6710709 Z" id="Fill-16" fill="#292929" opacity="0.200000003"></path>
                            <path d="M10.2651581,93.7613743 C9.45469943,93.7613743 8.79870694,94.4233556 8.79870694,95.2390111 L8.79870694,101.149558 L11.7316093,101.149558 L11.7316093,95.2390111 C11.7316093,94.4233556 11.0756168,93.7613743 10.2651581,93.7613743" id="Fill-18" fill="#292929" opacity="0.200000003"></path>
                            <path d="M42.5270836,93.7613743 C41.7166249,93.7613743 41.0606324,94.4233556 41.0606324,95.2390111 L41.0606324,101.149558 L43.9935347,101.149558 L43.9935347,95.2390111 C43.9935347,94.4233556 43.3375422,93.7613743 42.5270836,93.7613743" id="Fill-20" fill="#292929" opacity="0.200000003"></path>
                            <path d="M26.3948499,53.3139238 C23.1315073,53.3139238 20.4615885,56.0042078 20.4615885,59.2924422 L20.4615885,59.7682413 C20.4615885,56.4800069 23.1315073,53.7897228 26.3948499,53.7897228 C29.6581926,53.7897228 32.3281113,56.4800069 32.3281113,59.7682413 L32.3281113,59.2924422 C32.3281113,56.0042078 29.6581926,53.3139238 26.3948499,53.3139238" id="Fill-22" fill="#373535"></path>
                            <path d="M26.3961208,65.6859797 L26.3961208,65.6859797 C14.5178665,65.6859797 4.88817052,55.9828313 4.88817052,44.0139733 L4.88817052,25.2972405 C4.88817052,13.3283824 14.5178665,3.62523412 26.3961208,3.62523412 L26.3961208,3.62523412 C38.2743752,3.62523412 47.9040711,13.3283824 47.9040711,25.2972405 L47.9040711,44.0139733 C47.9040711,55.9828313 38.2743752,65.6859797 26.3961208,65.6859797" id="Fill-24" fill="#B68F65"></path>
                            <path d="M28.7186862,44.9504995 C27.9795948,45.1652494 27.1984651,45.280505 26.3909394,45.280505 C25.5853689,45.280505 24.8071721,45.1662345 24.0710136,44.9534548" id="Fill-26" fill="#FDCC85"></path>
                            <path d="M26.3907438,46.2658918 C25.5108732,46.2658918 24.6398012,46.1427554 23.8009911,45.8994378 C23.2818674,45.749704 22.9817337,45.2039634 23.1313117,44.68088 C23.2799121,44.1577966 23.8215214,43.8583289 24.3406451,44.0060925 C25.6692499,44.3912632 27.1161484,44.3912632 28.447686,44.0041224 C28.9677873,43.8553736 29.5093966,44.1548413 29.657997,44.6789098 C29.807575,45.2010082 29.508419,45.7477338 28.9892953,45.8974676 C28.1465747,46.1417703 27.2725698,46.2658918 26.3907438,46.2658918" id="Fill-28" fill="#997862"></path>
                            <path d="M31.6077905,51.3437414 C33.0664206,51.3437414 34.0460099,52.8420651 33.5044006,54.2064164 C32.3762109,57.0484045 29.6183051,59.0560204 26.3950454,59.0560204 C23.1717858,59.0560204 20.41388,57.0484045 19.2856902,54.2064164 C18.7440809,52.8420651 19.7236703,51.3437414 21.1823004,51.3437414 L31.6077905,51.3437414 Z" id="Fill-30" fill="#524758"></path>
                            <path d="M42.0899834,48.5805605 C42.0899834,49.2996771 40.9324646,49.8828511 39.5051188,49.8828511 C38.077773,49.8828511 36.9212318,49.2996771 36.9212318,48.5805605 C36.9212318,47.861444 38.077773,47.27827 39.5051188,47.27827 C40.9324646,47.27827 42.0899834,47.861444 42.0899834,48.5805605" id="Fill-32" fill="#997862"></path>
                            <path d="M15.054001,48.5805605 C15.054001,49.2996771 13.8964822,49.8828511 12.4691364,49.8828511 C11.0417906,49.8828511 9.88524949,49.2996771 9.88524949,48.5805605 C9.88524949,47.861444 11.0417906,47.27827 12.4691364,47.27827 C13.8964822,47.27827 15.054001,47.861444 15.054001,48.5805605" id="Fill-34" fill="#997862"></path>
                            <path d="M29.8423788,53.9829977 L22.991119,53.9829977 C21.8228463,53.9829977 20.8755188,53.0284443 20.8755188,51.8522454 L20.8755188,51.3439384 L31.9570014,51.3439384 L31.9570014,51.8522454 C31.9570014,53.0284443 31.0106516,53.9829977 29.8423788,53.9829977" id="Fill-36" fill="#FEFEFE"></path>
                            <path d="M26.3961208,56.1995514 C24.9062065,56.1995514 23.5922662,56.9797436 22.8258011,58.1520022 C23.8933775,58.7213849 25.1036885,59.0563159 26.3961208,59.0563159 C27.6885531,59.0563159 28.8988641,58.7213849 29.9664406,58.1520022 C29.1999754,56.9797436 27.8860352,56.1995514 26.3961208,56.1995514" id="Fill-38" fill="#F37F65"></path>
                            <path d="M36.7537631,43.783659 C33.8247713,43.783659 31.4412994,41.3820066 31.4412994,38.4306734 C31.4412994,35.4783551 33.8247713,33.0767027 36.7537631,33.0767027 C39.6827549,33.0767027 42.0662268,35.4783551 42.0662268,38.4306734 C42.0662268,41.3820066 39.6827549,43.783659 36.7537631,43.783659 M16.0885334,43.783659 C13.158564,43.783659 10.7760697,41.3820066 10.7760697,38.4306734 C10.7760697,35.4783551 13.158564,33.0767027 16.0885334,33.0767027 C19.0175252,33.0767027 21.4009971,35.4783551 21.4009971,38.4306734 C21.4009971,41.3820066 19.0175252,43.783659 16.0885334,43.783659 M36.7537631,31.1104607 C33.8101068,31.1104607 31.2760792,32.885595 30.1361579,35.4271303 L29.4635456,35.2320823 C27.6783857,34.7129392 25.7895966,34.7129392 24.0034591,35.2320823 L22.7823941,35.5867151 C21.6786452,32.9584918 19.0937806,31.1104607 16.0885334,31.1104607 C12.0821888,31.1104607 8.82373438,34.3937696 8.82373438,38.4306734 C8.82373438,42.466592 12.0821888,45.7508861 16.0885334,45.7508861 C20.094878,45.7508861 23.3533324,42.466592 23.3533324,38.4306734 C23.3533324,38.1105187 23.3259587,37.7972597 23.2858757,37.486956 L24.5450684,37.1214872 C25.9763247,36.7047936 27.49068,36.7047936 28.9229139,37.1214872 L29.582817,37.31358 C29.5270918,37.6790488 29.4889641,38.0494431 29.4889641,38.4306734 C29.4889641,42.466592 32.7474186,45.7508861 36.7537631,45.7508861 C40.7601077,45.7508861 44.0185622,42.466592 44.0185622,38.4306734 C44.0185622,34.3937696 40.7601077,31.1104607 36.7537631,31.1104607" id="Fill-40" fill="#2D2D2D"></path>
                            <path d="M38.1527575,38.5959717 C38.1527575,39.4116272 37.4957874,40.0736085 36.6863064,40.0736085 C35.8768253,40.0736085 35.2198552,39.4116272 35.2198552,38.5959717 C35.2198552,37.7803162 35.8768253,37.1183349 36.6863064,37.1183349 C37.4957874,37.1183349 38.1527575,37.7803162 38.1527575,38.5959717" id="Fill-42" fill="#2D2D2D"></path>
                            <path d="M17.6224413,38.5959717 C17.6224413,39.4116272 16.9654712,40.0736085 16.1559902,40.0736085 C15.3465091,40.0736085 14.689539,39.4116272 14.689539,38.5959717 C14.689539,37.7803162 15.3465091,37.1183349 16.1559902,37.1183349 C16.9654712,37.1183349 17.6224413,37.7803162 17.6224413,38.5959717" id="Fill-44" fill="#2D2D2D"></path>
                            <g id="Group-48" transform="translate(29.329023, 4.540285)">
                                <mask id="mask-4" fill="white">
                                    <use xlink:href="#path-3"></use>
                                </mask>
                                <g id="Clip-47"></g>
                                <path d="M23.971686,4.73474234 C25.112585,9.99020388 21.5843035,14.1571397 15.1788449,15.5697604 C6.74577309,17.4286275 1.73148776,14.4132634 0.589611129,9.15780182 C-0.394866415,4.61948667 5.07890694,-3.04058249 13.6175632,1.91147096 C20.5685417,5.94443433 22.830787,-0.520719208 23.971686,4.73474234" id="Fill-46" fill="#4D4C4E" mask="url(#mask-4)"></path>
                            </g>
                            <path d="M33.3849338,27.2674229 C38.6563369,27.2674229 43.6246734,25.5661704 47.7199826,22.5005666 C47.6251521,21.7578078 47.4931715,21.0268701 47.3250185,20.3087387 C43.4232807,23.5093 38.5644392,25.2972405 33.3849338,25.2972405 C23.5743755,25.2972405 15.0973102,18.7956386 12.2475068,9.65399226 C11.720562,10.1839713 11.2239239,10.7444882 10.7536819,11.3266771 C14.1714907,20.6998199 23.1012006,27.2674229 33.3849338,27.2674229" id="Fill-49" fill="#292929" opacity="0.200000003"></path>
                            <path d="M26.1488772,0.0760490406 C19.7659041,0.0760490406 13.914764,2.36638608 9.35703378,6.17474865 C10.780469,17.6865244 20.5186824,26.5976594 32.3285023,26.5976594 C39.8787705,26.5976594 46.5833852,22.9547921 50.8106751,17.3200705 C47.0770905,7.24849806 37.4454393,0.0760490406 26.1488772,0.0760490406" id="Fill-51" fill="#4D4C4E"></path>
                            <path d="M8.24614815,8.27456905 C4.00908194,12.7390024 1.2990802,18.6879681 0.977438578,25.2733028 C1.87197378,25.5639047 2.8241894,25.7254596 3.81453275,25.7254596 C8.90996171,25.7254596 13.0404658,21.5624642 13.0404658,16.4281689 C13.0404658,12.9123784 11.102795,9.85465534 8.24614815,8.27456905" id="Fill-53" fill="#4D4C4E"></path>
                            <path d="M9.0903352,31.5398619 C9.37287145,31.5398619 9.65247481,31.4177106 9.84604636,31.1812887 C10.9028688,29.8858938 12.7603736,28.5520803 17.7922564,29.7272941 C18.3172459,29.8533858 18.8451683,29.5214101 18.9663949,28.991431 C19.0885992,28.4614519 18.7610918,27.9314729 18.2351246,27.8093216 C13.5551902,26.7129151 10.4120965,27.3886876 8.3365793,29.9282527 C7.99342973,30.3488867 8.05306541,30.9694941 8.46953754,31.3152611 C8.65235512,31.4669652 8.87134516,31.5398619 9.0903352,31.5398619" id="Fill-55" fill="#4D4C4E"></path>
                            <path d="M34.1823899,29.7274911 C39.2123174,28.5512923 41.0717774,29.8860908 42.1285999,31.1814858 C42.3221715,31.4179076 42.6017748,31.540059 42.8843111,31.540059 C43.1033011,31.540059 43.3232688,31.4671622 43.5051087,31.3154582 C43.9215809,30.9696911 43.9812165,30.3490837 43.6390446,29.9284498 C41.5635274,27.3869145 38.4194561,26.7101568 33.7395216,27.8095186 C33.2145321,27.9316699 32.8870247,28.461649 33.009229,28.991628 C33.1304556,29.5216071 33.6603333,29.8545679 34.1823899,29.7274911" id="Fill-57" fill="#4D4C4E"></path>
                            <path d="M20.5303162,72.6734285 L20.5303162,68.6414503 C19.5917875,69.1901461 18.2524287,69.7871113 17.5974139,70.6116327 C16.4799781,72.0173578 15.6421457,73.315708 15.6421457,75.5370887 C15.6421457,77.3752688 16.8016197,79.54838 17.8584422,81.147183 C18.655214,82.3529347 20.3641184,82.4780412 21.308513,81.3855751 L24.0106936,78.2569255 C24.0106936,78.2569255 20.5303162,76.5221799 20.5303162,72.6734285" id="Fill-59" fill="#AAABAE"></path>
                            <path d="M32.2619255,72.6734285 L32.2619255,68.6414503 C33.2004542,69.1901461 34.5398129,69.7871113 35.1948278,70.6116327 C36.3122636,72.0173578 37.150096,73.315708 37.150096,75.5370887 C37.150096,77.3752688 35.9906219,79.54838 34.9337995,81.147183 C34.1370277,82.3529347 32.4281233,82.4780412 31.4837287,81.3855751 L28.781548,78.2569255 C28.781548,78.2569255 32.2619255,76.5221799 32.2619255,72.6734285" id="Fill-61" fill="#AAABAE"></path>
                            <path d="M27.3737549,84.5457477 C27.3737549,85.089518 26.9357749,85.5308389 26.3961208,85.5308389 C25.8564668,85.5308389 25.4184867,85.089518 25.4184867,84.5457477 C25.4184867,84.0019773 25.8564668,83.5606565 26.3961208,83.5606565 C26.9357749,83.5606565 27.3737549,84.0019773 27.3737549,84.5457477" id="Fill-63" fill="#AAABAE"></path>
                            <path d="M27.3737549,89.3281684 C27.3737549,89.8719388 26.9357749,90.3132596 26.3961208,90.3132596 C25.8564668,90.3132596 25.4184867,89.8719388 25.4184867,89.3281684 C25.4184867,88.7843981 25.8564668,88.3430772 26.3961208,88.3430772 C26.9357749,88.3430772 27.3737549,88.7843981 27.3737549,89.3281684" id="Fill-65" fill="#AAABAE"></path>
                        </g>
                    </g>
                    <g id="girl_1" transform="translate(0.000000, -0.000000)">
                        <path d="M29.2165586,0.674352509 L29.2165586,0.674352509 C28.5871084,0.674352509 27.9647081,0.7026909 27.3463363,0.743174317 C24.8043647,0.911180495 22.3520269,1.41924737 20.0316219,2.22081902 C15.8883291,3.65291987 12.1660127,6.0161393 9.12652374,9.06960099 C6.01250792,12.197957 3.61858307,16.0459057 2.20357912,20.3330995 C1.27602136,23.147709 0.765411393,26.1485423 0.765411393,29.2657654 L0.765411393,47.8871248 C0.765411393,105.057805 13.5679241,93.4370408 29.2165586,93.4370408 L29.2165586,86.0245272 C44.864186,86.0245272 57.6677058,105.057805 57.6677058,47.8871248 L57.6677058,29.2657654 C57.6677058,13.5399822 44.864186,0.674352509 29.2165586,0.674352509" id="Fill-60" fill="#F2BA28"></path>
                        <path d="M10.5856396,104.722502 L10.5856396,104.722502 L11.2896166,104.722502 C11.0519362,104.722502 10.8182843,104.706308 10.5856396,104.687079 L10.5856396,104.722502 Z" id="Fill-62" fill="#0EA9A1"></path>
                        <path d="M14.310776,98.650394 C14.310776,97.8123872 13.6349983,97.1322658 12.8000956,97.1322658 C11.9651929,97.1322658 11.2894152,97.8123872 11.2894152,98.650394 L11.2894152,104.722906 L11.2894152,104.722906 L14.6229832,104.722906 C14.4255877,103.907166 14.310776,103.068147 14.310776,102.214959 L14.310776,98.650394 Z" id="Fill-64" fill="#0EA9A1"></path>
                        <path d="M48.3395565,104.722603 L48.3395565,104.722603 L48.3395565,104.682119 C48.0766982,104.707422 47.8098113,104.722603 47.5399031,104.722603 L48.3395565,104.722603 Z" id="Fill-66" fill="#0EA9A1"></path>
                        <path d="M47.5398023,98.650394 C47.5398023,97.8184597 46.8680531,97.1433988 46.0402003,97.1433988 C45.2113403,97.1433988 44.5395911,97.8184597 44.5395911,98.650394 L44.5395911,102.107678 C44.5395911,102.998313 44.4167224,103.873767 44.2052272,104.722906 L47.5398023,104.722906 L47.5398023,104.722906 L47.5398023,98.650394 Z" id="Fill-68" fill="#0EA9A1"></path>
                        <path d="M41.6476453,75.646401 C44.1966667,81.4203483 42.1089064,87.9128762 36.7812402,91.2649031 C35.1789119,92.2729402 33.4386081,92.9854483 31.737582,93.3396782 L29.5863731,88.2296589 C29.3094151,87.6942658 28.5601176,87.6588428 28.2338106,88.1658976 L26.3706382,93.3801616 C25.5155931,93.2151917 24.6655836,92.958122 23.8377307,92.6170492 C17.1836872,89.8712615 14.1895187,82.234065 17.0829752,75.6170506 C8.67251393,79.2099538 2.93394272,86.3876635 2.93394272,94.6594376 L2.93394272,96.3263422 C2.93394272,100.724865 6.30175286,104.326877 10.5860424,104.68718 C10.8176801,104.706409 11.051332,104.722603 11.2890124,104.722603 L11.2890124,104.722603 L11.2890124,98.6500903 C11.2890124,97.8120836 11.9657972,97.1319622 12.7996927,97.1319622 C13.6345954,97.1319622 14.3103731,97.8120836 14.3103731,98.6500903 L14.3103731,102.214655 C14.3103731,103.067843 14.4251848,103.906862 14.6235875,104.722603 C15.096934,106.671879 16.1040543,108.467319 17.5734427,109.876142 C24.1741089,116.207748 34.5534902,116.23305 41.1853771,109.933831 C42.6819578,108.510838 43.7132489,106.696169 44.2057307,104.722603 C44.417226,103.873463 44.5390876,102.998009 44.5390876,102.107374 L44.5390876,98.6500903 C44.5390876,97.8181561 45.2118439,97.1430951 46.0396967,97.1430951 C46.8675496,97.1430951 47.5392988,97.8181561 47.5392988,98.6500903 L47.5392988,104.722603 L47.5403059,104.722603 C47.8102141,104.722603 48.0760939,104.707422 48.3399594,104.682119 C52.4842592,104.277285 55.7251722,100.768385 55.7251722,96.4963726 L55.7251722,94.6594376 C55.7251722,86.4109415 50.019836,79.2494251 41.6476453,75.646401" id="Fill-70" fill="#4FC2C3"></path>
                        <path d="M23.8381336,92.6170492 C24.6649793,92.958122 25.5149888,93.2151917 26.3700339,93.3801616 L28.2342135,88.1658976 C28.5595133,87.6588428 29.3088108,87.6942658 29.586776,88.2296589 L31.7379848,93.3396782 C33.439011,92.9854483 35.1793148,92.2729402 36.7816431,91.2649031 C42.1093092,87.9128762 44.1970695,81.4203483 41.6480481,75.646401 C41.6480481,75.646401 36.1703211,73.1637555 29.3148535,73.1637555 C22.4593859,73.1637555 17.0863994,75.6089539 17.0863994,75.6089539 C17.0853923,75.6119901 17.0843851,75.6140143 17.083378,75.6170506 C14.1889144,82.234065 17.1830829,89.8712615 23.8381336,92.6170492" id="Fill-72" fill="#0EA9A1"></path>
                        <path d="M29.3298596,56.9194811 C25.9680922,56.9194811 23.2176468,59.6834863 23.2176468,63.0618274 L23.2176468,63.5506647 C23.2176468,60.1723236 25.9680922,57.4083183 29.3298596,57.4083183 C32.691627,57.4083183 35.4420724,60.1723236 35.4420724,63.5506647 L35.4420724,63.0618274 C35.4420724,59.6834863 32.691627,56.9194811 29.3298596,56.9194811" id="Fill-74" fill="#231F20"></path>
                        <path d="M23.2174454,72.581098 L23.2174454,73.7379116 L23.2174454,74.2267488 L23.2174454,76.9654519 C23.2174454,79.1434598 25.7584098,82.1392326 27.5631693,83.992361 C28.5360474,84.9912893 30.1242761,84.9912893 31.0971542,83.992361 C32.9019137,82.1392326 35.4428781,79.1434598 35.4428781,76.9654519 L35.4428781,74.2267488 L35.4428781,73.7379116 L35.4428781,72.581098 C33.5001432,73.1417933 31.4516606,74.1275645 29.3296582,74.1275645 C27.2086629,74.1275645 25.1591732,73.1417933 23.2174454,72.581098" id="Fill-76" fill="#FFE1AD"></path>
                        <path d="M52.8229538,37.8713252 C52.7172062,36.482744 52.0323644,35.285447 51.032294,34.4747665 L51.032294,42.0188512 C52.2297599,41.0502855 52.9488438,39.5270969 52.8229538,37.8713252" id="Fill-78" fill="#FCCA80"></path>
                        <path d="M4.99763284,38.6109572 C5.10338046,39.9995384 5.78822224,41.1968354 6.78829265,42.0075158 L6.78829265,34.4634312 C5.59082667,35.4319969 4.87174281,36.9551855 4.99763284,38.6109572" id="Fill-80" fill="#FCCA80"></path>
                        <path d="M23.2174454,69.4717692 L23.2174454,72.5808955 C25.1591732,73.1415909 27.2086629,74.127362 29.3296582,74.127362 C31.4516606,74.127362 33.5001432,73.1415909 35.4428781,72.5808955 L35.4428781,69.1408172 C33.3772745,70.0233557 31.1847737,70.5192776 28.9106962,70.5192776 C26.9417761,70.5192776 25.0342903,70.144806 23.2174454,69.4717692" id="Fill-82" fill="#D7B48A"></path>
                        <path d="M51.0325961,26.3665455 C51.0325961,14.0889374 41.1285755,26.7268479 28.9101926,26.7268479 C24.3942654,26.7268479 20.1945739,22.5590802 16.694831,22.497343 C16.6344038,22.4963309 16.5749837,22.4953188 16.5155636,22.4953188 C11.1173991,22.4720408 6.78778909,27.0061835 6.78778909,32.4309613 L6.78778909,34.4632288 L6.78778909,42.0073134 L6.78778909,43.7501245 L6.79383181,43.7501245 C6.79282469,43.827043 6.78778909,43.9019373 6.78778909,43.9788558 C6.78778909,54.2778369 13.7590755,65.9694476 23.2169418,69.4722752 C25.0337867,70.1442999 26.9412725,70.5197836 28.9101926,70.5197836 C31.1842701,70.5197836 33.377778,70.0238617 35.4423746,69.1403112 C44.4712076,65.2771812 51.0325961,53.9711751 51.0325961,43.9788558 C51.0325961,43.9019373 51.0275605,43.827043 51.0265534,43.7501245 L51.0325961,43.7501245 L51.0325961,42.0194584 L51.0325961,34.4753738 L51.0325961,26.3665455 Z" id="Fill-84" fill="#FFE1AD"></path>
                        <path d="M22.3168784,32.7165718 C22.229259,32.7165718 22.1396253,32.707463 22.0499916,32.6882334 C18.6811743,31.9595319 15.1240256,31.7601511 13.4028571,32.2085049 C12.7280865,32.3846078 12.0422376,31.9767373 11.8690129,31.3006643 C11.6957882,30.6245912 12.0996434,29.9333369 12.7734069,29.7592582 C15.3586846,29.0852093 19.6731878,29.5851795 22.5807439,30.2146966 C23.2605501,30.3624611 23.6926047,31.0344858 23.5465723,31.7176435 C23.418668,32.3117376 22.8969797,32.7165718 22.3168784,32.7165718" id="Fill-86" fill="#BC7455"></path>
                        <path d="M35.427167,32.7165718 C34.8470658,32.7165718 34.3253775,32.3117376 34.1974732,31.7176435 C34.0514408,31.0344858 34.4834954,30.3624611 35.1633015,30.2146966 C38.0718648,29.5841674 42.386368,29.0852093 44.9716457,29.7592582 C45.644402,29.9333369 46.0492644,30.6235791 45.8760397,31.3006643 C45.7018079,31.9767373 45.015959,32.3846078 44.3421955,32.2085049 C42.6190128,31.7601511 39.0628712,31.9595319 35.6940539,32.6882334 C35.6044202,32.707463 35.5147865,32.7165718 35.427167,32.7165718" id="Fill-88" fill="#BC7455"></path>
                        <path d="M29.3524191,61.2476643 C27.7994397,61.2476643 23.1223732,60.2497481 23.1223732,58.7761517 C23.1223732,58.5079491 23.2341636,58.2478432 23.422495,58.0585832 C23.8041936,57.6760149 24.4829927,57.6942324 24.8415275,58.0434019 C25.3138669,58.305532 27.3059507,59.2234935 29.3524191,59.2234935 C31.4995995,59.2234935 33.6931074,58.2761816 34.1906248,58.0201239 C34.5531881,57.6911962 35.2108376,57.6841116 35.582465,58.0575711 C35.7718036,58.2478432 35.8825868,58.506937 35.8825868,58.7761517 C35.8825868,60.2497481 30.9809326,61.2476643 29.3524191,61.2476643" id="Fill-90" fill="#F05B3D"></path>
                        <path d="M45.569573,54.8298283 C45.569573,57.0078361 43.8131553,58.7729131 41.6458325,58.7729131 C39.4795168,58.7729131 37.722092,57.0078361 37.722092,54.8298283 C37.722092,52.6518205 39.4795168,50.8867436 41.6458325,50.8867436 C43.8131553,50.8867436 45.569573,52.6518205 45.569573,54.8298283" id="Fill-92" fill="#FBC39C"></path>
                        <path d="M21.0383393,54.8298283 C21.0383393,57.0078361 19.2819215,58.7729131 17.1145988,58.7729131 C14.9482831,58.7729131 13.1908582,57.0078361 13.1908582,54.8298283 C13.1908582,52.6518205 14.9482831,50.8867436 17.1145988,50.8867436 C19.2819215,50.8867436 21.0383393,52.6518205 21.0383393,54.8298283" id="Fill-94" fill="#FBC39C"></path>
                        <path d="M40.0423963,47.3245065 C37.0200284,47.3245065 34.5606408,44.852994 34.5606408,41.8157256 C34.5606408,38.7774452 37.0200284,36.3059327 40.0423963,36.3059327 C43.0647642,36.3059327 45.5241519,38.7774452 45.5241519,41.8157256 C45.5241519,44.852994 43.0647642,47.3245065 40.0423963,47.3245065 M18.7186392,47.3245065 C15.6952642,47.3245065 13.2358765,44.852994 13.2358765,41.8157256 C13.2358765,38.7774452 15.6952642,36.3059327 18.7186392,36.3059327 C21.7410071,36.3059327 24.2003947,38.7774452 24.2003947,41.8157256 C24.2003947,44.852994 21.7410071,47.3245065 18.7186392,47.3245065 M40.0423963,34.2817619 C37.0049216,34.2817619 34.3904375,36.1095881 33.2131139,38.7248168 L32.5202151,38.5234118 C30.6771851,37.9900428 28.7284074,37.9900428 26.8863844,38.5234118 L25.6254699,38.8887746 C24.487424,36.1844824 21.8195624,34.2817619 18.7186392,34.2817619 C14.5844105,34.2817619 11.221636,37.661115 11.221636,41.8157256 C11.221636,45.9693242 14.5844105,49.3486774 18.7186392,49.3486774 C22.8518607,49.3486774 26.2146352,45.9693242 26.2146352,41.8157256 C26.2146352,41.4857858 26.1864359,41.1629306 26.1451439,40.8451357 L27.4443291,40.46864 C28.9217745,40.0395158 30.483818,40.0395158 31.9622705,40.46864 L32.6430838,40.6659966 C32.5846708,41.0414803 32.5464003,41.4240486 32.5464003,41.8157256 C32.5464003,45.9693242 35.9091748,49.3486774 40.0423963,49.3486774 C44.1756179,49.3486774 47.5383924,45.9693242 47.5383924,41.8157256 C47.5383924,37.661115 44.1756179,34.2817619 40.0423963,34.2817619" id="Fill-96" fill="#5B5255"></path>
                        <path d="M41.6460339,41.9465883 C41.6460339,42.8362114 40.9279572,43.5578283 40.0426985,43.5578283 C39.1574398,43.5578283 38.439363,42.8362114 38.439363,41.9465883 C38.439363,41.0569652 39.1574398,40.3353483 40.0426985,40.3353483 C40.9279572,40.3353483 41.6460339,41.0569652 41.6460339,41.9465883" id="Fill-98" fill="#404042"></path>
                        <path d="M20.3217732,41.9465883 C20.3217732,42.8362114 19.6036965,43.5578283 18.7184378,43.5578283 C17.8331791,43.5578283 17.1151023,42.8362114 17.1151023,41.9465883 C17.1151023,41.0569652 17.8331791,40.3353483 18.7184378,40.3353483 C19.6036965,40.3353483 20.3217732,41.0569652 20.3217732,41.9465883" id="Fill-100" fill="#404042"></path>
                        <path d="M26.8327049,53.2617032 C26.7702635,53.2971262 27.720985,53.8173381 28.6999059,53.8173381 C29.7150831,53.8173381 30.7493956,53.2617032 30.6748687,53.2617032" id="Fill-102" fill="#FCCA80"></path>
                        <path d="M31.5561996,53.8421342 C31.693168,53.6710917 31.7797803,53.472723 31.7797803,53.2389313 C31.7797803,52.9656682 31.6700042,52.7035381 31.4786514,52.5102298 C31.4041245,52.4363475 31.3144908,52.3857433 31.2228428,52.3401994 L31.2268713,52.335139 C31.2188144,52.3300786 31.2097503,52.3300786 31.2016933,52.3260302 C31.1674512,52.3098369 31.1342163,52.3007281 31.098967,52.2885831 C30.7646031,52.158024 30.4000256,52.2136887 30.1230675,52.4231904 C29.8944512,52.536544 29.31435,52.7561665 28.7916545,52.7693236 C28.2689591,52.7561665 27.689865,52.536544 27.4602416,52.4231904 C27.1842906,52.2136887 26.8197131,52.158024 26.4853492,52.2885831 C26.4501,52.3007281 26.4158579,52.3098369 26.3826229,52.3260302 C26.3745659,52.3300786 26.3655018,52.3300786 26.3574449,52.335139 L26.3614734,52.3391873 C26.2698254,52.3847312 26.1791846,52.4363475 26.1056648,52.5102298 C25.9133049,52.7035381 25.8035287,52.9656682 25.8035287,53.2389313 C25.8035287,53.472723 25.8911482,53.6710917 26.0271094,53.8421342 C26.0291237,53.8441583 26.0301308,53.8461825 26.032145,53.8482067 C26.1117075,53.947391 26.207384,54.0374666 26.3181672,54.1174214 C26.3423381,54.1346268 26.3685232,54.1508202 26.3937012,54.1670136 C26.4662139,54.2145816 26.5417479,54.2581013 26.6213104,54.2995968 C27.3514726,54.6852013 28.3736996,54.8299295 28.745327,54.8299295 C28.7473413,54.8299295 28.7644623,54.8289174 28.7916545,54.8279054 C28.8188468,54.8289174 28.8359678,54.8299295 28.8379821,54.8299295 C29.2096094,54.8299295 30.2318365,54.6852013 30.9619987,54.2995968 C31.0425683,54.2581013 31.1181023,54.2145816 31.1896079,54.1670136 C31.2147859,54.1508202 31.240971,54.1346268 31.2651419,54.1174214 C31.3759251,54.0374666 31.4716015,53.947391 31.551164,53.8482067 C31.5531783,53.8461825 31.5541854,53.8441583 31.5561996,53.8421342" id="Fill-104" fill="#FCCA80"></path>
                        <path d="M32.7328182,106.125859 C32.1214962,106.125859 31.6259931,105.627913 31.6259931,105.013577 C31.6259931,104.400254 32.1214962,103.902308 32.7328182,103.902308 C33.3441402,103.902308 33.8396434,104.400254 33.8396434,105.013577 C33.8396434,105.627913 33.3441402,106.125859 32.7328182,106.125859 L32.7328182,106.125859 Z M27.1855999,106.125859 C26.575285,106.125859 26.0797818,105.627913 26.0797818,105.013577 C26.0797818,104.400254 26.575285,103.902308 27.1855999,103.902308 C27.7969219,103.902308 28.292425,104.400254 28.292425,105.013577 C28.292425,105.627913 27.7969219,106.125859 27.1855999,106.125859 L27.1855999,106.125859 Z M36.5548396,99.2568355 C36.7290714,99.0382251 36.6938222,98.7204303 36.4762842,98.5453395 C36.2587462,98.3722729 35.9435176,98.4076959 35.7682787,98.6242821 L34.137751,100.667683 C33.8668356,100.438951 33.584842,100.222365 33.2816988,100.037153 C32.2383222,99.3985275 31.013664,99.0311405 29.7023934,99.0311405 C27.9963317,99.0311405 26.4383166,99.6576214 25.2348079,100.689948 L23.6365081,98.6242821 C23.4632834,98.4066838 23.1460405,98.3712608 22.9285026,98.5453395 C22.7119717,98.7204303 22.6767225,99.0382251 22.8499472,99.2568355 L24.5137098,101.407517 C23.4552265,102.626068 22.8096624,104.215042 22.8096624,105.958865 C22.8096624,110.528431 36.5961315,110.338159 36.5961315,105.958865 C36.5961315,104.199861 35.9344535,102.60279 34.8598562,101.381203 L36.5548396,99.2568355 Z" id="Fill-106" fill="#FEFEFE"></path>
                        <path d="M37.7224948,24.8675458 C37.7224948,24.8675458 43.7259387,31.4511614 57.5547069,26.7267467 L56.8245447,21.3171502 L44.6565178,21.3171502 L37.7224948,24.8675458 Z" id="Fill-108" fill="#D39B29"></path>
                        <path d="M60.5879517,17.7983316 C60.5879517,23.32533 56.1264089,26.7269491 49.3716534,26.7269491 C40.4787815,26.7269491 36.0917657,22.590556 36.0917657,17.0635576 C36.0917657,12.2915749 43.2745474,5.81422827 50.7846431,12.6741432 C56.8988702,18.2598426 60.5879517,12.2713332 60.5879517,17.7983316" id="Fill-110" fill="#F2BA28"></path>
                    </g>
                </g>
                <g id="Group-12" transform="translate(44.800000, 0.000000)">
                    <g id="Group-3" transform="translate(0.000000, 0.251198)">
                        <g id="Group-2" transform="translate(1.598825, 80.982055)">
                            <path d="M20.5537733,1.13861381 C9.35881112,1.13861381 0.282708691,10.4074759 0.282708691,21.8401983 L0.282708691,31.646212 C0.282708691,34.0530436 2.19352325,36.0044403 4.55030123,36.0044403 L51.4938192,36.0044403 C53.8505971,36.0044403 55.7614117,34.0530436 55.7614117,31.646212 L55.7614117,21.8401983 C55.7614117,10.4074759 46.6853093,1.13861381 35.4903471,1.13861381 L20.5537733,1.13861381 Z" id="Fill-7" fill="#336093"></path>
                            <path d="M35.7581386,1.15245119 L36.5572453,10.9443006 L30.6252916,10.6849861 L28.0220602,17.4816431 L25.4188287,10.6849861 L21.6206714,10.9443006 L21.6206714,1.13828695 L20.5537733,1.13828695 C9.35881112,1.13828695 0.282708691,10.407149 0.282708691,21.8398714 L0.282708691,31.6458851 C0.282708691,34.0527167 2.19352325,36.0041134 4.55030123,36.0041134 L51.4938192,36.0041134 C53.8505971,36.0041134 55.7614117,34.0527167 55.7614117,31.6458851 L55.7614117,21.8398714 C55.7614117,10.4997614 46.8282736,1.30063095 35.7581386,1.15245119" id="Fill-9" fill="#366EAE"></path>
                            <g id="Group-13" transform="translate(12.018588, 35.118965)">
                                <path d="M12.2314537,12.5607721 L0.000533449067,0.0700897377 L32.0074775,0.0700897377 L19.7754904,12.5607721 C17.6918383,14.688677 14.3151057,14.688677 12.2314537,12.5607721" id="Fill-11" fill="#366EAE"></path>
                                <mask id="mask-6" fill="white">
                                    <use xlink:href="#path-5"></use>
                                </mask>
                                <g id="Clip-12"></g>
                            </g>
                            <path d="M10.418241,27.8330891 C9.53378242,27.8330891 8.81789377,28.5652714 8.81789377,29.4674247 L8.81789377,36.0047672 L12.0185882,36.0047672 L12.0185882,29.4674247 C12.0185882,28.5652714 11.3026995,27.8330891 10.418241,27.8330891" id="Fill-18" fill="#292929" opacity="0.200000003"></path>
                            <path d="M45.6258794,27.8330891 C44.7414209,27.8330891 44.0255322,28.5652714 44.0255322,29.4674247 L44.0255322,36.0047672 L47.2262266,36.0047672 L47.2262266,29.4674247 C47.2262266,28.5652714 46.510338,27.8330891 45.6258794,27.8330891" id="Fill-20" fill="#292929" opacity="0.200000003"></path>
                            <path d="M21.6206714,4.50883176 L21.6206714,0.0492746472 C20.5964492,0.656157939 19.1347987,1.31642953 18.419977,2.2283888 C17.2005124,3.78318675 16.2861807,5.21922298 16.2861807,7.67617419 C16.2861807,9.70928769 17.5515219,12.1128506 18.7048388,13.8812017 C19.5743608,15.2148196 21.4392987,15.3531934 22.4699223,14.1448746 L25.4188287,10.6844413 C25.4188287,10.6844413 21.6206714,8.76573126 21.6206714,4.50883176" id="Fill-59" fill="#336093"></path>
                            <path d="M34.423449,4.50883176 L34.423449,0.0492746472 C35.4476712,0.656157939 36.9093217,1.31642953 37.6241434,2.2283888 C38.843608,3.78318675 39.7579397,5.21922298 39.7579397,7.67617419 C39.7579397,9.70928769 38.4925985,12.1128506 37.3392816,13.8812017 C36.4697596,15.2148196 34.6048217,15.3531934 33.5741981,14.1448746 L30.6252916,10.6844413 C30.6252916,10.6844413 34.423449,8.76573126 34.423449,4.50883176" id="Fill-61" fill="#336093"></path>
                            <path d="M29.0889583,17.6401737 C29.0889583,18.2416092 28.610988,18.7297307 28.0220602,18.7297307 C27.4331324,18.7297307 26.9551621,18.2416092 26.9551621,17.6401737 C26.9551621,17.0387382 27.4331324,16.5506166 28.0220602,16.5506166 C28.610988,16.5506166 29.0889583,17.0387382 29.0889583,17.6401737" id="Fill-63" fill="#336093"></path>
                            <path d="M29.0889583,22.9297554 C29.0889583,23.5311909 28.610988,24.0193124 28.0220602,24.0193124 C27.4331324,24.0193124 26.9551621,23.5311909 26.9551621,22.9297554 C26.9551621,22.3283199 27.4331324,21.8401983 28.0220602,21.8401983 C28.610988,21.8401983 29.0889583,22.3283199 29.0889583,22.9297554" id="Fill-65" fill="#336093"></path>
                        </g>
                        <path d="M21.466725,80.0125548 C21.355762,80.0403674 21.2513909,80.07708 21.1404279,80.1060051 C21.2480949,80.0804175 21.3590579,80.061505 21.466725,80.0381424 L21.466725,80.0125548 Z" id="Fill-5" fill="#D0D2D3"></path>
                        <path d="M38.2433409,80.0125548 L38.2433409,80.0270174 C38.3070622,80.0414799 38.3729808,80.0537175 38.4367022,80.06818 C38.3707835,80.0514924 38.3092595,80.0292424 38.2433409,80.0125548" id="Fill-9" fill="#D0D2D3"></path>
                        <path d="M29.854978,61.1344949 C26.187706,61.1344949 23.1873106,64.1727401 23.1873106,67.8862744 L23.1873106,68.4236132 C23.1873106,64.7100789 26.187706,61.6718338 29.854978,61.6718338 C33.52225,61.6718338 36.5226454,64.7100789 36.5226454,68.4236132 L36.5226454,67.8862744 C36.5226454,64.1727401 33.52225,61.1344949 29.854978,61.1344949" id="Fill-17" fill="#231F20"></path>
                        <path d="M23.1870909,78.3499194 L23.1870909,79.6215101 L23.1870909,80.158849 L23.1870909,83.1692815 C23.1870909,86.8828159 26.1874863,89.921061 29.8547583,89.921061 C33.5220303,89.921061 36.5235244,86.8828159 36.5235244,83.1692815 L36.5235244,80.158849 L36.5235244,79.6215101 L36.5235244,78.3499194 C34.404241,78.966246 32.1696002,79.3022218 29.8547583,79.3022218 C27.5410151,79.3022218 25.3052755,78.966246 23.1870909,78.3499194" id="Fill-19" fill="#FFE1AD"></path>
                        <path d="M23.1870909,74.9755872 L23.1870909,78.3498082 C25.3052755,78.9661347 27.5410151,79.3021106 29.8547583,79.3021106 C32.1696002,79.3021106 34.404241,78.9661347 36.5235244,78.3498082 L36.5235244,74.711924 C34.2702065,75.4161383 31.877361,75.7966143 29.3977226,75.7966143 C27.2498745,75.7966143 25.1690437,75.508476 23.1870909,74.9755872" id="Fill-21" fill="#D7B48A"></path>
                        <path d="M53.5298666,35.2973963 L53.5298666,45.908448 C53.6649998,45.908448 53.7946397,45.928473 53.9308715,45.9184605 C56.8301917,45.6937349 59.0011112,43.131641 58.7791853,40.1968586 C58.5671471,37.3989141 56.2556011,35.2973963 53.5298666,35.2973963" id="Fill-23" fill="#FCCA80"></path>
                        <path d="M4.86314547,35.287495 C1.96382526,35.5122206 -0.205995657,38.073202 0.0159303308,41.0090969 C0.226869883,43.8070414 2.53951446,45.9085592 5.26415035,45.9085592 L5.26415035,35.2975076 C5.13011584,35.2975076 4.99937726,35.27637 4.86314547,35.287495" id="Fill-25" fill="#FCCA80"></path>
                        <path d="M51.1316292,36.6243246 C55.8865583,31.3332613 56.959933,23.3399287 53.2388275,16.8139873 C52.124803,14.8604324 49.6572497,14.1907057 47.7280317,15.3187836 L44.7375241,17.067638 C48.7047257,21.4219739 51.1316292,27.239251 51.1316292,33.6316921 L51.1316292,36.6243246 Z" id="Fill-27" fill="#8F6C47"></path>
                        <path d="M13.4900238,13.6312932 L12.7462422,13.1963046 C10.8170242,12.0682267 8.3494709,12.7379534 7.23544638,14.6915083 L7.23544638,14.6915083 C4.89094115,18.8033186 4.45697696,23.4958554 5.63911737,27.7300411 C6.61141687,22.1463895 9.45360762,17.2191147 13.4900238,13.6312932" id="Fill-29" fill="#8F6C47"></path>
                        <path d="M53.5298666,34.9926818 L53.5298666,32.0000493 C53.5298666,25.6076082 51.1029631,19.7903311 47.1357614,15.4359952 C42.7258064,10.596608 36.4119022,7.56281291 29.3970634,7.56281291 C23.3017892,7.56281291 17.7382585,9.85679367 13.4898041,13.6315157 C9.45338789,17.2193372 6.61119715,22.146612 5.63889765,27.7302636 C5.39719607,29.1175545 5.26426021,30.5426706 5.26426021,32.0000493 L5.26426021,35.2975076 L5.26426021,45.9085592 L5.26426021,51.1083973 L5.27085207,51.1083973 C5.26975343,51.1929475 5.26426021,51.2752727 5.26426021,51.3587104 C5.26426021,62.6806513 12.8690705,72.2003377 23.1875303,74.9760322 C25.1694832,75.508921 27.2492154,75.7959468 29.3970634,75.7959468 C31.8778004,75.7959468 34.270646,75.4165833 36.5228652,74.712369 C46.3722042,71.6340738 53.5298666,62.343563 53.5298666,51.3587104 C53.5298666,51.2752727 53.5243734,51.1929475 53.5232747,51.1083973 L53.5298666,51.1083973 L53.5298666,45.9085592 L53.5298666,35.2975076 L53.5298666,34.9926818 Z" id="Fill-31" fill="#FFE1AD"></path>
                        <path d="M14.1180085,40.9710493 C13.5214451,40.9710493 12.9732219,40.5749983 12.7985376,39.9664593 C12.5886967,39.2277574 13.0094772,38.456793 13.7378778,38.244305 C16.2383904,37.5167281 18.9707168,37.5145031 21.4690322,38.2409675 C22.1974328,38.452343 22.6193119,39.2233074 22.409471,39.9620093 C22.1996301,40.6995986 21.4360729,41.1256872 20.7098695,40.9131992 C18.7037465,40.3302477 16.5042622,40.3313602 14.4992378,40.9165367 C14.3717951,40.9532493 14.2443525,40.9710493 14.1180085,40.9710493" id="Fill-33" fill="#BC7455"></path>
                        <path d="M32.4665635,51.6893462 C31.635989,51.9318718 30.7581728,52.0620347 29.8506933,52.0620347 C28.9454111,52.0620347 28.0708908,51.9329843 27.2436123,51.6926837" id="Fill-35" fill="#FCCA80"></path>
                        <path d="M29.8503637,53.1748712 C28.8615846,53.1748712 27.8826932,53.0358084 26.9400571,52.7610202 C26.3566774,52.5919197 26.0193938,51.9755932 26.1874863,51.3848542 C26.3544801,50.7941152 26.9631286,50.4559144 27.5465083,50.6227898 C29.0395648,51.0577784 30.6655572,51.0577784 32.1619096,50.6205648 C32.746388,50.4525769 33.3550365,50.7907777 33.5220303,51.3826292 C33.6901228,51.9722557 33.3539378,52.5896947 32.7705581,52.7587952 C31.8235274,53.0346959 30.8413402,53.1748712 29.8503637,53.1748712" id="Fill-37" fill="#FCCA80"></path>
                        <path d="M38.0741498,40.9710493 C37.4775864,40.9710493 36.9293633,40.5749983 36.7546789,39.9664593 C36.544838,39.2277574 36.9656185,38.456793 37.6940191,38.244305 C40.1923345,37.5156156 42.9246609,37.5122781 45.4251735,38.2409675 C46.1546728,38.452343 46.5754532,39.2233074 46.3656123,39.9620093 C46.15687,40.6995986 45.3933128,41.1256872 44.6671095,40.9131992 C42.6587891,40.3302477 40.4593048,40.3313602 38.4553791,40.9165367 C38.3279364,40.9532493 38.2004938,40.9710493 38.0741498,40.9710493" id="Fill-39" fill="#BC7455"></path>
                        <path d="M39.9176736,45.1187935 C39.4584406,45.1187935 39.1497218,44.6448673 39.3200115,44.2121037 C39.675972,43.3120889 40.544999,42.6757373 41.5601456,42.6757373 C42.5763909,42.6757373 43.4454179,43.3120889 43.8013784,44.2121037 C43.9716681,44.6448673 43.6629493,45.1187935 43.2037163,45.1187935 L39.9176736,45.1187935 Z" id="Fill-41" fill="#473A4F"></path>
                        <path d="M16.1155621,45.1187935 C15.58272,45.1187935 15.1959975,44.5558671 15.425614,44.0697033 C15.8134351,43.2453388 16.642911,42.6757373 17.604224,42.6757373 C18.5655371,42.6757373 19.395013,43.2453388 19.7828341,44.0697033 C20.0124506,44.5558671 19.6257281,45.1187935 19.092886,45.1187935 L16.1155621,45.1187935 Z" id="Fill-43" fill="#473A4F"></path>
                        <rect id="Rectangle-6" fill="#8F6C47" x="17.5870739" y="54.8757706" width="24.781786" height="15.5006064" rx="7.75030321"></rect>
                        <path d="M35.7131649,58.9094894 C37.352341,58.9094894 38.4531818,60.6016061 37.8445333,62.1424225 C36.5766987,65.351993 33.4774254,67.6192737 29.8551977,67.6192737 C26.2329701,67.6192737 23.1336968,65.351993 21.8658622,62.1424225 C21.2572137,60.6016061 22.3580545,58.9094894 23.9972306,58.9094894 L35.7131649,58.9094894 Z" id="Fill-45" fill="#473A4F"></path>
                        <path d="M44.6088814,49.9482794 C44.6088814,50.7604064 43.3080874,51.419008 41.7040679,51.419008 C40.1000484,51.419008 38.8003532,50.7604064 38.8003532,49.9482794 C38.8003532,49.1361523 40.1000484,48.4775507 41.7040679,48.4775507 C43.3080874,48.4775507 44.6088814,49.1361523 44.6088814,49.9482794" id="Fill-47" fill="#FBC39C"></path>
                        <path d="M19.994323,49.9482794 C19.994323,50.7604064 18.6935291,51.419008 17.0895096,51.419008 C15.48549,51.419008 14.1857948,50.7604064 14.1857948,49.9482794 C14.1857948,49.1361523 15.48549,48.4775507 17.0895096,48.4775507 C18.6935291,48.4775507 19.994323,49.1361523 19.994323,49.9482794" id="Fill-49" fill="#FBC39C"></path>
                        <path d="M33.7292345,61.8901068 L26.0299408,61.8901068 C24.7170618,61.8901068 23.6524763,60.8120916 23.6524763,59.4837633 L23.6524763,58.9097119 L36.1056004,58.9097119 L36.1056004,59.4837633 C36.1056004,60.8120916 35.0421135,61.8901068 33.7292345,61.8901068" id="Fill-51" fill="#FEFEFE"></path>
                        <path d="M29.8564063,64.3932381 C28.1820736,64.3932381 26.7054967,65.2743403 25.8441602,66.5982187 C27.0438789,67.2412453 28.4039995,67.6194962 29.8564063,67.6194962 C31.308813,67.6194962 32.6689336,67.2412453 33.8686523,66.5982187 C33.0073158,65.2743403 31.530739,64.3932381 29.8564063,64.3932381" id="Fill-53" fill="#F3795D"></path>
                        <g id="Group-4-Copy" transform="translate(30.860047, 19.000000) scale(-1, 1) translate(-30.860047, -19.000000) translate(7.360047, 0.000000)">
                            <path d="M46.19319,17.1020634 C46.19319,27.5473521 37.8259211,33.9753932 25.1574629,33.9753932 C8.4800545,33.9753932 0.252313301,26.1589486 0.252313301,15.7136599 C0.252313301,6.69571224 13.7238799,-5.545156 27.807391,7.41883906 C39.2750319,17.9742656 46.19319,6.65677464 46.19319,17.1020634" id="Fill-57" fill="#6C5338" transform="translate(23.222752, 17.878585) scale(1, -1) translate(-23.222752, -17.878585) "></path>
                            <path d="M25.9568753,37.2902071 C9.27946695,37.2902071 1.05172575,29.4737625 1.05172575,19.0284737 C1.05172575,-7.21976179 14.5232924,-2.23034215 28.6068035,10.7336529 C40.0744443,21.2890794 46.9926025,9.97158849 46.9926025,20.4168772 C46.9926025,30.862166 38.6253336,37.2902071 25.9568753,37.2902071 Z" id="Fill-57" fill="#8F6C47" transform="translate(24.022164, 18.720170) scale(1, -1) translate(-24.022164, -18.720170) "></path>
                        </g>
                        <path d="M53.3776868,53.7160529 C49.628436,63.6757363 44.5142287,68.6555779 38.0350646,68.6555779 C31.5559006,68.6555779 28.8892978,69.1354794 30.0352561,70.0952825 L30.0352561,76.1283881 C39.0157788,75.4928538 44.9247509,73.0019171 47.7621724,68.6555779 C50.5995939,64.3092388 52.4714321,59.3293971 53.3776868,53.7160529 Z" id="Path-3" fill="#8F6C47"></path>
                        <path d="M5.57778945,53.8664722 C9.32704021,63.8261555 14.4412476,68.8059972 20.9204116,68.8059972 C27.3995756,68.8059972 30.0661785,69.2858987 28.9202201,70.2457017 L28.9202201,76.2788073 C19.9396974,75.6432731 14.0307253,73.1523364 11.1933038,68.8059972 C8.35588233,64.459658 6.4840442,59.4798164 5.57778945,53.8664722 Z" id="Path-3" fill="#8F6C47"></path>
                        <polygon id="Rectangle" fill="#8F6C47" points="26.3806109 69.5605557 31.976498 69.5605557 31.976498 76.0871268 26.3806109 76.0871268"></polygon>
                    </g>
                </g>
            </g>
        </g>
    </g>
</svg>