<?xml version="1.0" encoding="UTF-8"?>
<svg width="194px" height="147px" viewBox="0 0 194 147" version="1.1" xmlns="http://www.w3.org/2000/svg" xmlns:xlink="http://www.w3.org/1999/xlink">
    <!-- Generator: Sketch 55.2 (78181) - https://sketchapp.com -->
    <title>Group 68</title>
    <desc>Created with Sketch.</desc>
    <defs>
        <polygon id="path-1" points="0.918472199 16.6596728 32.2585154 16.6596728 32.2585154 0.000312368865 0.918472199 0.000312368865 0.918472199 16.6596728"></polygon>
        <path d="M13.1054087,33.4291953 C12.0804882,32.9481673 11.0791389,32.3835337 10.1102979,31.733553 C-0.172370238,24.8354072 -2.89790933,10.9349927 4.02301688,0.685129044 L24.3658389,19.4959821 C30.0801735,23.3297893 36.9248389,24.1898449 43.0674874,22.4426617 C42.561868,23.5474063 41.9632732,24.6261201 41.2612562,25.6663084 C38.9069976,29.1529559 35.7398138,31.7679077 32.180399,33.4291953 L13.1054077,33.4291953 L13.1054087,33.4291953 Z" id="path-3"></path>
        <path d="M20.810514,39.0594359 C16.5452483,38.7448859 13.0216176,37.4663931 11.1800381,35.6308752 C1.27658443,25.7589778 -3.51844218,12.1303243 4.30089859,0.549769202 L27.2867309,21.8033468 C33.7438245,26.1338205 41.4764578,27.1063289 48.4172327,25.1311164 C42.6004961,34.570051 33.1140012,38.4857473 24.9987286,39.0594359 L20.810514,39.0594359 L20.810514,39.0594359 Z" id="path-5"></path>
        <path d="M2.70607871,39.1228467 C1.55028574,35.9880426 0.919307934,32.6004783 0.919307934,29.0659229 C0.919307934,14.1564363 12.1479192,1.86095391 26.6354848,0.12207349 L26.6354848,39.1228467 L2.70607871,39.1228467 L2.70607871,39.1228467 Z" id="path-7"></path>
        <path d="M41.6952358,42.255588 C43.6780317,38.3232877 44.7943237,33.8820504 44.7943237,29.1807644 C44.7943237,13.0791906 31.6983644,0.0263369827 15.5436168,0.0263369827 C9.93349478,0.0263369827 4.69218178,1.60070367 0.240169198,4.33037328 L0.240169198,42.255588 L41.6952358,42.255588 L41.6952358,42.255588 Z" id="path-9"></path>
    </defs>
    <g id="Website-" stroke="none" stroke-width="1" fill="none" fill-rule="evenodd">
        <g id="Desktop-HD" transform="translate(-281.000000, -2727.000000)">
            <g id="Group-68" transform="translate(281.000000, 2727.000000)">
                <g id="Group-28" transform="translate(67.000000, 0.000000)" fill-rule="nonzero">
                    <g id="sun-fog-43" transform="translate(45.936170, 0.000000)" fill="#FFD240">
                        <ellipse id="Oval" cx="34.2269504" cy="46.4693878" rx="26.4730188" ry="26.2653061"></ellipse>
                        <path d="M5.30987056,19.7996054 C4.78884205,19.7996054 4.26781353,19.6023 3.87008208,19.2076889 L1.01934035,16.3803014 C0.223877041,15.5910795 0.223877041,14.3125399 1.01934035,13.523318 C1.81281492,12.734096 3.10345421,12.734096 3.89891751,13.523318 L6.74965905,16.3507056 C7.54512235,17.1399276 7.54512235,18.4184671 6.74965905,19.2076891 C6.35292176,19.6022998 5.83089908,19.7996054 5.30987056,19.7996054 Z" id="Path"></path>
                        <path d="M34.2269504,8.08163265 C33.1023641,8.08163265 32.1905643,7.17797358 32.1905643,6.06122449 L32.1905643,2.02040816 C32.1905643,0.903659069 33.1023641,0 34.2269504,0 C35.3515366,0 36.2633364,0.903659069 36.2633364,2.02040816 L36.2633364,6.06122449 C36.2633364,7.17797358 35.3515366,8.08163265 34.2269504,8.08163265 Z" id="Path"></path>
                        <path d="M63.1440301,19.7996054 C62.6230016,19.7996054 62.1019731,19.6023 61.7042417,19.2076889 C60.9087784,18.4184669 60.9087784,17.1399274 61.7042417,16.3507054 L64.5549832,13.5233178 C65.3504465,12.7340958 66.6390971,12.7340958 67.4345604,13.5233178 C68.2300237,14.3125397 68.2300237,15.5910792 67.4345604,16.3803012 L64.5838188,19.2076889 C64.1860872,19.6022998 63.6650587,19.7996054 63.1440301,19.7996054 Z" id="Path"></path>
                        <path d="M79.0274437,48.4897959 L74.9546716,48.4897959 C73.8300853,48.4897959 72.9182855,47.5861368 72.9182855,46.4693878 C72.9182855,45.3526387 73.8300853,44.4489796 74.9546716,44.4489796 L79.0274437,44.4489796 C80.15203,44.4489796 81.0638298,45.3526387 81.0638298,46.4693878 C81.0638298,47.5861368 80.15203,48.4897959 79.0274437,48.4897959 Z" id="Path"></path>
                        <path d="M65.9947719,80.0073741 C65.4737434,80.0073741 64.9527148,79.8100687 64.5549834,79.4154575 L61.7042419,76.5880699 C60.9087786,75.7988479 60.9087786,74.5203084 61.7042419,73.7310864 C62.4977164,72.9418645 63.7883557,72.9418645 64.583819,73.7310864 L67.4345606,76.5584741 C68.2300239,77.3476961 68.2300239,78.6262356 67.4345606,79.4154575 C67.0378231,79.8100685 66.5158002,80.0073741 65.9947719,80.0073741 Z" id="Path"></path>
                    </g>
                    <g id="library" transform="translate(0.000000, 49.387755)">
                        <path d="M9.0070922,82.6122449 C8.01270922,82.6122449 7.20567376,81.8076735 7.20567376,80.8163265 L7.20567376,73.6326531 C7.20567376,72.6413061 8.01270922,71.8367347 9.0070922,71.8367347 C10.0014752,71.8367347 10.8085106,72.6413061 10.8085106,73.6326531 L10.8085106,80.8163265 C10.8085106,81.8076735 10.0014752,82.6122449 9.0070922,82.6122449 Z" id="Path" fill="#B3B3B3"></path>
                        <path d="M73.858156,82.6122449 C72.863773,82.6122449 72.0567376,81.8076735 72.0567376,80.8163265 L72.0567376,73.6326531 C72.0567376,72.6413061 72.863773,71.8367347 73.858156,71.8367347 C74.852539,71.8367347 75.6595745,72.6413061 75.6595745,73.6326531 L75.6595745,80.8163265 C75.6595745,81.8076735 74.852539,82.6122449 73.858156,82.6122449 Z" id="Path" fill="#B3B3B3"></path>
                        <path d="M81.0638298,75.4285714 L1.80141844,75.4285714 C0.807035461,75.4285714 0,74.624 0,73.6326531 L0,1.79591837 C0,0.804571429 0.807035461,0 1.80141844,0 L81.0638298,0 C82.0582128,0 82.8652482,0.804571429 82.8652482,1.79591837 L82.8652482,73.6326531 C82.8652482,74.624 82.0582128,75.4285714 81.0638298,75.4285714 Z" id="Path" fill="#A67C52"></path>
                        <rect id="Rectangle" fill="#5E4027" x="3.60283688" y="3.59183673" width="75.6595745" height="32.3265306"></rect>
                        <rect id="Rectangle" fill="#5E4027" x="3.60283688" y="39.5102041" width="75.6595745" height="32.3265306"></rect>
                        <path d="M43.2340426,35.9183673 L41.4326241,35.9183673 C40.4382411,35.9183673 39.6312057,35.1137959 39.6312057,34.122449 L39.6312057,12.5714286 C39.6312057,11.5800816 40.4382411,10.7755102 41.4326241,10.7755102 L43.2340426,10.7755102 C44.2284255,10.7755102 45.035461,11.5800816 45.035461,12.5714286 L45.035461,34.122449 C45.035461,35.1137959 44.2284255,35.9183673 43.2340426,35.9183673 Z" id="Path" fill="#BFDEE0"></path>
                        <path d="M25.2198582,71.8367347 L23.4184397,71.8367347 C22.4240567,71.8367347 21.6170213,71.0321633 21.6170213,70.0408163 L21.6170213,48.4897959 C21.6170213,47.498449 22.4240567,46.6938776 23.4184397,46.6938776 L25.2198582,46.6938776 C26.2142411,46.6938776 27.0212766,47.498449 27.0212766,48.4897959 L27.0212766,70.0408163 C27.0212766,71.0321633 26.2142411,71.8367347 25.2198582,71.8367347 Z" id="Path" fill="#E86C60"></path>
                        <path d="M16.212766,71.8367347 L14.4113475,71.8367347 C13.4169645,71.8367347 12.6099291,71.0321633 12.6099291,70.0408163 L12.6099291,48.4897959 C12.6099291,47.498449 13.4169645,46.6938776 14.4113475,46.6938776 L16.212766,46.6938776 C17.2071489,46.6938776 18.0141844,47.498449 18.0141844,48.4897959 L18.0141844,70.0408163 C18.0141844,71.0321633 17.2071489,71.8367347 16.212766,71.8367347 Z" id="Path" fill="#BFDEE0"></path>
                        <path d="M43.2340426,71.8367347 L41.4326241,71.8367347 C40.4382411,71.8367347 39.6312057,71.0321633 39.6312057,70.0408163 L39.6312057,48.4897959 C39.6312057,47.498449 40.4382411,46.6938776 41.4326241,46.6938776 L43.2340426,46.6938776 C44.2284255,46.6938776 45.035461,47.498449 45.035461,48.4897959 L45.035461,70.0408163 C45.035461,71.0321633 44.2284255,71.8367347 43.2340426,71.8367347 Z" id="Path" fill="#72C472"></path>
                        <path d="M34.2269504,71.8367347 L32.4255319,71.8367347 C31.4311489,71.8367347 30.6241135,71.0321633 30.6241135,70.0408163 L30.6241135,48.4897959 C30.6241135,47.498449 31.4311489,46.6938776 32.4255319,46.6938776 L34.2269504,46.6938776 C35.2213333,46.6938776 36.0283688,47.498449 36.0283688,48.4897959 L36.0283688,70.0408163 C36.0283688,71.0321633 35.2213333,71.8367347 34.2269504,71.8367347 Z" id="Path" fill="#E6E6E6"></path>
                        <path d="M36.0283688,32.3265306 L36.0283688,34.122449 C36.0283688,35.1137959 35.2213333,35.9183673 34.2269504,35.9183673 L14.4113475,35.9183673 C13.4169645,35.9183673 12.6099291,35.1137959 12.6099291,34.122449 L12.6099291,32.3265306 C12.6099291,31.3351837 13.4169645,30.5306122 14.4113475,30.5306122 L34.2269504,30.5306122 C35.2213333,30.5306122 36.0283688,31.3351837 36.0283688,32.3265306 Z" id="Path" fill="#E6E6E6"></path>
                        <path d="M72.0567376,68.244898 L72.0567376,70.0408163 C72.0567376,71.0321633 71.2497021,71.8367347 70.2553191,71.8367347 L50.4397163,71.8367347 C49.4453333,71.8367347 48.6382979,71.0321633 48.6382979,70.0408163 L48.6382979,68.244898 C48.6382979,67.253551 49.4453333,66.4489796 50.4397163,66.4489796 L70.2553191,66.4489796 C71.2497021,66.4489796 72.0567376,67.253551 72.0567376,68.244898 Z" id="Path" fill="#EAD8C5"></path>
                        <path d="M52.2411348,35.9183673 L50.4397163,35.9183673 C49.4453333,35.9183673 48.6382979,35.1137959 48.6382979,34.122449 L48.6382979,12.5714286 C48.6382979,11.5800816 49.4453333,10.7755102 50.4397163,10.7755102 L52.2411348,10.7755102 C53.2355177,10.7755102 54.0425532,11.5800816 54.0425532,12.5714286 L54.0425532,34.122449 C54.0425532,35.1137959 53.2355177,35.9183673 52.2411348,35.9183673 Z" id="Path" fill="#EAD8C5"></path>
                        <path d="M61.248227,35.9183673 L59.4468085,35.9183673 C58.4524255,35.9183673 57.6453901,35.1137959 57.6453901,34.122449 L57.6453901,12.5714286 C57.6453901,11.5800816 58.4524255,10.7755102 59.4468085,10.7755102 L61.248227,10.7755102 C62.2426099,10.7755102 63.0496454,11.5800816 63.0496454,12.5714286 L63.0496454,34.122449 C63.0496454,35.1137959 62.2426099,35.9183673 61.248227,35.9183673 Z" id="Path" fill="#72C472"></path>
                        <path d="M70.2553191,35.9183673 L68.4539007,35.9183673 C67.4595177,35.9183673 66.6524823,35.1137959 66.6524823,34.122449 L66.6524823,12.5714286 C66.6524823,11.5800816 67.4595177,10.7755102 68.4539007,10.7755102 L70.2553191,10.7755102 C71.2497021,10.7755102 72.0567376,11.5800816 72.0567376,12.5714286 L72.0567376,34.122449 C72.0567376,35.1137959 71.2497021,35.9183673 70.2553191,35.9183673 Z" id="Path" fill="#E86C60"></path>
                    </g>
                </g>
                <g id="Group" transform="translate(0.000000, 5.000000)">
                    <g id="shadow" transform="translate(0.000000, 131.010484)">
                        <ellipse id="Oval-Copy" fill="#F7F9FA" cx="44.7064583" cy="5.00290474" rx="44.7064583" ry="5.00290474"></ellipse>
                        <ellipse id="Oval" fill="#E9EAEC" cx="44.1866158" cy="5.00290474" rx="18.1944888" ry="2.0011619"></ellipse>
                    </g>
                    <g id="Person-6" transform="translate(14.994536, 0.000000)">
                        <g id="Group-48" transform="translate(0.000000, 5.320989)">
                            <path d="M59.4198862,24.1047764 L22.6298095,17.9958827 L0.918472199,24.1047764 L0.918472199,46.3100378 C0.918472199,67.5542443 18.196238,84.7751398 39.5106014,84.7751398 L56.1970851,85.3811354 C48.6598047,59.7773008 58.7084672,34.4410622 58.7084672,34.4410622 L59.4198862,24.1047764 Z" id="Fill-1" fill="#F1BC38"></path>
                            <path d="M32.2585154,67.6799207 L28.079843,67.6799207 C14.2327672,67.6799207 3.00780841,78.8679322 3.00780841,92.6694299 L3.00780841,94.751889 C3.00780841,98.2025237 5.81378695,100.999266 9.27581705,100.999266 L51.0625413,100.999266 C54.5245714,100.999266 57.33055,98.2025237 57.33055,94.751889 L57.33055,92.6694299 C57.33055,78.8679322 46.1055911,67.6799207 32.2585154,67.6799207" id="Fill-3" fill="#F4CE9F"></path>
                            <path d="M30.1691792,76.0097571 L30.1691792,76.0097571 C26.7071491,76.0097571 23.9011705,73.2130146 23.9011705,69.7623798 L23.9011705,55.1851661 L36.4371878,55.1851661 L36.4371878,69.7623798 C36.4371878,73.2130146 33.6312093,76.0097571 30.1691792,76.0097571" id="Fill-5" fill="#F4CE9F"></path>
                            <path d="M39.3227701,68.6926206 C39.4794703,69.3725435 39.5714011,70.0764147 39.5714011,70.8031929 C39.5714011,75.979145 35.3613886,80.1742588 30.1693881,80.1742588 C24.976343,80.1742588 20.7673752,75.979145 20.7673752,70.8031929 C20.7673752,70.0764147 20.8582613,69.3725435 21.0160062,68.6926206 C10.6100672,71.7340521 3.00801735,81.3144052 3.00801735,92.6690134 L3.00801735,94.7514725 C3.00801735,98.2021073 5.81399588,100.99885 9.27602599,100.99885 L51.0627502,100.99885 C54.5247804,100.99885 57.3307589,98.2021073 57.3307589,94.7514725 L57.3307589,92.6690134 C57.3307589,81.3144052 49.7287091,71.7340521 39.3227701,68.6926206" id="Fill-7" fill="#F06168"></path>
                            <path d="M12.9321554,93.1904612 C12.0661256,93.1904612 11.3651533,93.8901674 11.3651533,94.7523055 L11.3651533,100.999683 L14.4991576,100.999683 L14.4991576,94.7523055 C14.4991576,93.8901674 13.7981853,93.1904612 12.9321554,93.1904612" id="Fill-9" fill="#292929" opacity="0.200000003"></path>
                            <path d="M47.4062029,93.1904612 C46.5401731,93.1904612 45.8392008,93.8901674 45.8392008,94.7523055 L45.8392008,100.999683 L48.9732051,100.999683 L48.9732051,94.7523055 C48.9732051,93.8901674 48.2722328,93.1904612 47.4062029,93.1904612" id="Fill-11" fill="#292929" opacity="0.200000003"></path>
                            <g id="Group-15" transform="translate(13.580685, 95.793119)">
                                <mask id="mask-2" fill="white">
                                    <use xlink:href="#path-1"></use>
                                </mask>
                                <g id="Clip-14"></g>
                                <path d="M32.2585154,4.87951404 C32.2585154,11.3851163 25.2425244,16.6599852 16.5884938,16.6599852 C7.9344632,16.6599852 0.918472199,11.3851163 0.918472199,4.87951404 C0.918472199,-1.62608819 32.2585154,-1.62608819 32.2585154,4.87951404" id="Fill-13" fill="#F06168" mask="url(#mask-2)"></path>
                            </g>
                            <path d="M36.4371878,66.6386912 C36.4371878,66.6386912 31.7581194,67.6799207 30.1691792,67.6799207 C28.580239,67.6799207 23.9011705,66.6386912 23.9011705,66.6386912 L23.9011705,64.5562321 C23.9011705,64.5562321 28.580239,65.5974616 30.1691792,65.5974616 C31.7581194,65.5974616 36.4371878,64.5562321 36.4371878,64.5562321 L36.4371878,66.6386912 Z" id="Fill-16" fill="#292929" opacity="0.200000003"></path>
                            <path d="M36.4371878,64.5562321 C36.4371878,64.5562321 31.7581194,65.5974616 30.1691792,65.5974616 C28.580239,65.5974616 23.9011705,64.5562321 23.9011705,64.5562321 L23.9011705,62.473773 C23.9011705,62.473773 28.580239,63.5150025 30.1691792,63.5150025 C31.7581194,63.5150025 36.4371878,62.473773 36.4371878,62.473773 L36.4371878,64.5562321 Z" id="Fill-18" fill="#292929"></path>
                            <path d="M30.1691792,65.5974616 L30.1691792,65.5974616 C17.4764617,65.5974616 7.18648084,55.3413506 7.18648084,42.6904115 L7.18648084,22.9070501 C7.18648084,10.2561111 17.4764617,0 30.1691792,0 L30.1691792,0 C42.8618967,0 53.1518775,10.2561111 53.1518775,22.9070501 L53.1518775,42.6904115 C53.1518775,55.3413506 42.8618967,65.5974616 30.1691792,65.5974616" id="Fill-20" fill="#F4CE9F"></path>
                            <path d="M57.0628015,36.0582999 C56.8893866,33.8019555 55.2283643,32.0339477 53.1160454,31.5820541 L53.1160454,41.2956846 C55.5281841,40.7813172 57.2560651,38.5780754 57.0628015,36.0582999" id="Fill-22" fill="#FDCC85"></path>
                            <path d="M8.12020519,31.4697054 C8.04081042,31.4717879 7.96454964,31.4582519 7.88515487,31.4644993 C5.12827573,31.6737864 3.06505622,34.0717381 3.27607918,36.8195428 C3.44844942,39.0758873 5.10947171,40.8428538 7.22179062,41.2947474 L7.22179062,36.6852242 C7.22179062,35.1358747 7.53728039,33.2887334 8.12020519,31.4697054" id="Fill-24" fill="#FDCC85"></path>
                            <path d="M36.6193779,56.1960959 C35.6593279,58.5878002 33.3694155,60.1329848 30.7838619,60.1329848 C28.1972637,60.1329848 25.9073512,58.5878002 24.9483459,56.1960959 C24.7467249,55.6921408 24.9076038,55.1434128 25.3609898,54.7998071 C26.6281722,53.837711 34.9374623,53.8387522 36.2056894,54.7987658 C36.6590753,55.1423716 36.8209989,55.6910996 36.6193779,56.1960959" id="Fill-26" fill="#F4CE9F"></path>
                            <path d="M30.9776478,49.2863925 C29.2132034,49.2863925 27.0893931,48.2076787 27.3505602,47.401767 C27.8948322,45.723305 28.713852,47.7245482 30.7854289,47.7245482 C32.805817,47.7245482 33.6718469,45.723305 34.216119,47.401767 C34.4783307,48.2076787 32.7420923,49.2863925 30.9776478,49.2863925" id="Fill-28" fill="#F4CE9F"></path>
                            <path d="M14.3458003,46.1631203 C14.0010598,47.6624909 14.8336603,49.132707 16.2063542,49.4461171 C17.5800928,49.7595272 18.9726353,48.7984723 19.3173758,47.2991018 C19.6621163,45.7997312 18.8284712,44.3305563 17.4557773,44.016105 C16.0830834,43.7026949 14.6905408,44.6637498 14.3458003,46.1631203" id="Fill-30" fill="#F1B08E"></path>
                            <path d="M45.9925581,46.1631203 C46.3372985,47.6624909 45.5046981,49.132707 44.1320042,49.4461171 C42.7582656,49.7595272 41.365723,48.7984723 41.0209825,47.2991018 C40.6762421,45.7997312 41.5098872,44.3305563 42.8825811,44.016105 C44.255275,43.7026949 45.6478176,44.6637498 45.9925581,46.1631203" id="Fill-32" fill="#F1B08E"></path>
                            <path d="M30.7857423,47.7245482 C28.7141654,47.7245482 27.8951456,45.723305 27.3508736,47.401767 C27.0886619,48.2076787 29.2135168,49.2863925 30.9779612,49.2863925 C32.7424057,49.2863925 34.4775994,48.2076787 34.2164324,47.401767 C33.6721603,45.723305 32.8061304,47.7245482 30.7857423,47.7245482" id="Fill-34" fill="#F1B08E"></path>
                            <path d="M27.3826315,56.3221888 C28.1577752,57.3956965 29.4082429,58.0506299 30.7840708,58.0506299 C32.1588541,58.0506299 33.4093218,57.3956965 34.1844655,56.3221888 C32.5088179,56.1087367 29.0593238,56.1087367 27.3826315,56.3221888" id="Fill-36" fill="#FEFEFE"></path>
                            <path d="M30.7839664,58.050734 C29.4091831,58.050734 28.1576707,57.3958006 27.382527,56.3222929 C29.060264,56.1088409 32.5087134,56.1088409 34.184361,56.3222929 C33.4092173,57.3958006 32.1587496,58.050734 30.7839664,58.050734 M25.3610942,54.8000153 C24.9077083,55.1436211 24.7468294,55.6913078 24.9484503,56.1963041 C25.9074556,58.5880084 28.1973681,60.1331931 30.7839664,60.1331931 C33.3695199,60.1331931 35.6594324,58.5880084 36.6194824,56.1963041 C36.8211034,55.6902666 36.6591798,55.1425798 36.2057938,54.7989741 C34.9375668,53.8389604 26.627232,53.8379192 25.3610942,54.8000153" id="Fill-38" fill="#F0644B"></path>
                            <path d="M21.8118343,37.4842638 C21.8118343,36.3337051 20.8768564,35.4018047 19.7224981,35.4018047 C18.5681399,35.4018047 17.6331619,36.3337051 17.6331619,37.4842638 C17.6331619,38.6348224 18.5681399,39.5667229 19.7224981,39.5667229 C20.8768564,39.5667229 21.8118343,38.6348224 21.8118343,37.4842638" id="Fill-40" fill="#2D2D2D"></path>
                            <path d="M42.7051965,37.4842638 C42.7051965,36.3337051 41.7702185,35.4018047 40.6158602,35.4018047 C39.461502,35.4018047 38.526524,36.3337051 38.526524,37.4842638 C38.526524,38.6348224 39.461502,39.5667229 40.6158602,39.5667229 C41.7702185,39.5667229 42.7051965,38.6348224 42.7051965,37.4842638" id="Fill-42" fill="#2D2D2D"></path>
                            <path d="M14.4715783,34.9558461 C14.2730914,34.9558461 14.0725151,34.8808775 13.9210383,34.7298993 C13.6128612,34.4258602 13.6107718,33.9323174 13.9147702,33.6261959 C15.5695245,31.9591874 19.2812303,30.8388244 22.6220789,31.8436109 C23.0357675,31.9675173 23.2708178,32.4037924 23.1454576,32.8161193 C23.0211421,33.2294875 22.5865602,33.4668878 22.168693,33.3377754 C19.5131466,32.5412347 16.3331769,33.4106614 15.0283864,34.7236519 C14.8758649,34.8787951 14.6731993,34.9558461 14.4715783,34.9558461" id="Fill-44" fill="#BE7A5E"></path>
                            <path d="M45.86678,34.9558461 C45.6651591,34.9558461 45.4624935,34.8787951 45.3099719,34.7236519 C44.0051815,33.4096202 40.8241671,32.5412347 38.1696654,33.3377754 C37.7507535,33.4658466 37.3172162,33.2284462 37.1929007,32.8161193 C37.0675406,32.4037924 37.3025909,31.9675173 37.7162795,31.8436109 C41.0581727,30.8377832 44.7698785,31.9591874 46.4235881,33.6261959 C46.7275865,33.9323174 46.7254972,34.4258602 46.4173201,34.7298993 C46.2658432,34.8808775 46.065267,34.9558461 45.86678,34.9558461" id="Fill-46" fill="#BE7A5E"></path>
                        </g>
                        <g id="Group-51" transform="translate(22.982698, 1.156071)">
                            <mask id="mask-4" fill="white">
                                <use xlink:href="#path-3"></use>
                            </mask>
                            <g id="Clip-50"></g>
                            <path d="M52.3945976,5.78142707 C52.3945976,21.0510584 39.9755832,33.4291953 24.6555254,33.4291953 C9.33651227,33.4291953 -3.08250218,21.0510584 -3.08250218,5.78142707 C-3.08250218,-9.48820427 9.33651227,-21.8663412 24.6555254,-21.8663412 C39.9755832,-21.8663412 52.3945976,-9.48820427 52.3945976,5.78142707" id="Fill-49" fill="#F1BC38" mask="url(#mask-4)"></path>
                        </g>
                        <path d="M46.6375361,40.1340827 C35.7186651,40.1340827 26.3270988,33.4931207 22.3155733,24.0502099 L18.2747971,25.1872326 C22.804478,36.3773265 33.8069225,44.2990009 46.6375361,44.2990009 C50.8088959,44.2990009 54.2134693,43.4837182 57.8395123,41.9687292 C58.3305063,40.362112 58.6637554,39.4770669 58.6637554,39.4770669 L59.4200951,36.8167254 C55.6289945,38.9200091 51.2758625,40.1340827 46.6375361,40.1340827" id="Fill-52" fill="#373535" opacity="0.200000003"></path>
                        <g id="Group-56" transform="translate(22.982698, 3.238530)">
                            <mask id="mask-6" fill="white">
                                <use xlink:href="#path-5"></use>
                            </mask>
                            <g id="Clip-55"></g>
                            <path d="M53.4623529,8.56702849 C53.4623529,25.4078752 39.7657093,39.0594359 22.8692474,39.0594359 C5.97278543,39.0594359 -7.72385811,25.4078752 -7.72385811,8.56702849 C-7.72385811,-8.27381825 5.97278543,-21.9253789 22.8692474,-21.9253789 C39.7657093,-21.9253789 53.4623529,-8.27381825 53.4623529,8.56702849" id="Fill-54" fill="#F1BC38" mask="url(#mask-6)"></path>
                        </g>
                        <g id="Group-63">
                            <g id="Group-59" transform="translate(0.000000, 0.114841)">
                                <mask id="mask-8" fill="white">
                                    <use xlink:href="#path-7"></use>
                                </mask>
                                <g id="Clip-58"></g>
                                <path d="M26.6354848,17.519416 C26.6354848,29.4508654 16.9315628,39.1228467 4.96071097,39.1228467 C-7.01014086,39.1228467 -16.7151076,29.4508654 -16.7151076,17.519416 C-16.7151076,5.58796662 -7.01014086,-4.08401466 4.96071097,-4.08401466 C16.9315628,-4.08401466 26.6354848,5.58796662 26.6354848,17.519416" id="Fill-57" fill="#F1BC38" mask="url(#mask-8)"></path>
                            </g>
                            <g id="Group-62" transform="translate(14.625353, 0.000000)">
                                <mask id="mask-10" fill="white">
                                    <use xlink:href="#path-9"></use>
                                </mask>
                                <g id="Clip-61"></g>
                                <path d="M62.3686708,11.2935861 C62.3686708,28.393699 48.4610043,42.255588 31.30442,42.255588 C14.1478357,42.255588 0.240169198,28.393699 0.240169198,11.2935861 C0.240169198,-5.80652683 14.1478357,-19.6684158 31.30442,-19.6684158 C48.4610043,-19.6684158 62.3686708,-5.80652683 62.3686708,11.2935861" id="Fill-60" fill="#F1BC38" mask="url(#mask-10)"></path>
                            </g>
                        </g>
                    </g>
                </g>
            </g>
        </g>
    </g>
</svg>