<?xml version="1.0" encoding="UTF-8"?>
<svg width="191px" height="166px" viewBox="0 0 191 166" version="1.1" xmlns="http://www.w3.org/2000/svg" xmlns:xlink="http://www.w3.org/1999/xlink">
    <!-- Generator: Sketch 55.2 (78181) - https://sketchapp.com -->
    <title>Group 110</title>
    <desc>Created with Sketch.</desc>
    <g id="Website-" stroke="none" stroke-width="1" fill="none" fill-rule="evenodd">
        <g id="Group-110" transform="translate(0.000000, -1.000000)">
            <g id="Group-14">
                <g id="Group-16">
                    <g id="Group-10">
                        <g id="Group-3" transform="translate(0.000000, 41.239807)">
                            <g id="Group-2">
                                <g id="Group-8" fill="#000000" fill-rule="nonzero">
                                    <g id="Group-7">
                                        <g id="Group-9">
                                            <path d="M44.012378,53.4769739 C44.8922888,51.7171523 47.7834244,50.962943 49.0404398,53.8540785 C49.6689476,55.2367955 49.9203507,56.7452141 49.9203507,58.0022295 C49.9203507,65.2929192 43.1324672,72.5836088 38.6072116,75.9775505 C33.4534482,79.6228954 27.7968787,81.1313139 22.3917122,81.1313139 C18.2435612,81.1313139 14.4725148,80.2514031 11.3299762,78.4915815 C5.42200355,75.3490428 0.268240184,67.4298454 0.0168370927,57.1223187 C-0.485969089,31.7306065 22.0146076,8.97862678 36.2188822,2.56784795 C39.4871224,1.3108325 43.0067657,0.43092168 46.1493043,0.43092168 C49.2918429,0.43092168 52.1829785,1.3108325 54.3199048,3.07065414 C58.5937573,6.8417005 61.8619975,11.7440608 61.8619975,16.6464211 C61.8619975,18.9090489 61.3591913,21.4230798 60.1021759,23.9371107 C57.9652496,28.2109632 56.2054279,32.4848158 55.3255171,35.2502498 C54.6970094,37.3871761 52.9371878,38.6441915 50.4231568,37.135773 C47.9091259,35.5016529 46.1493043,32.7362189 46.1493043,29.0908741 C46.1493043,27.5824555 46.4007074,26.074037 46.9035136,24.4399169 C47.4063198,22.5543937 48.2862306,20.543169 49.0404398,18.6576458 C50.8002615,14.2580917 52.30868,10.2356422 50.8002615,8.60152214 C47.7834244,5.33328196 29.9338049,16.2693164 19.5005766,33.1133235 C13.9697086,42.0381333 11.5813793,52.34566 11.5813793,59.8877527 C11.5813793,70.6980856 16.358038,75.4747444 20.8832937,75.4747444 C27.7968787,75.4747444 36.7216884,67.4298454 44.012378,53.4769739 Z M98.4411472,53.3512723 C97.5612364,54.3568847 96.5556241,54.8596909 95.1729071,55.111094 C92.5331746,65.5443223 84.4882757,77.8630737 74.9349582,81.1313139 C73.8036443,81.5084185 72.2952258,81.8855232 70.4097026,81.8855232 C66.2615516,81.8855232 61.6105944,80.1257015 58.0909511,75.4747444 C55.7026218,72.3322057 54.5713079,68.5611594 54.5713079,64.5387099 C54.5713079,59.0078419 56.5825326,52.8484662 59.8507728,46.9404935 C65.5073423,36.8843699 73.4265397,30.5992926 81.7228417,30.5992926 C85.3681865,30.5992926 87.6308143,31.9820096 90.0191437,35.2502498 C93.538787,39.3984008 97.0584302,40.2783116 95.9271163,50.962943 C99.1953565,50.962943 99.4467596,52.0942569 98.4411472,53.3512723 Z M86.4995004,48.4489121 C87.7565159,45.5577765 88.2593221,42.5409394 88.2593221,40.9068193 C88.2593221,39.0212962 87.2537097,38.2670869 86.3737989,38.2670869 C85.6195896,38.2670869 84.4882757,39.2726992 84.4882757,41.283924 C84.4882757,43.5465518 85.1167834,46.814792 86.4995004,48.4489121 Z M64.3760284,70.1952794 C64.3760284,73.9663258 65.5073423,75.4747444 67.3928655,75.4747444 C70.6611057,75.4747444 75.6891675,70.8237872 80.3401247,62.2760821 C82.2256479,59.0078419 83.7340664,55.8653033 84.4882757,53.2255708 C80.4658262,50.7115399 77.8260938,47.4432997 76.8204814,43.0437456 C74.180749,45.5577765 71.7924196,48.7003152 69.6554933,52.4713615 C66.3872531,58.5050357 64.3760284,65.5443223 64.3760284,70.1952794 Z M156.263858,22.5543937 C148.973169,36.3815637 138.288537,53.9797801 132.380565,66.4242331 C130.872146,69.6924733 130.117937,72.4579073 130.117937,74.469132 C130.117937,76.3546552 130.620743,77.234566 131.752057,77.234566 C136.151611,77.234566 142.310987,68.938264 146.584839,60.641962 C147.841855,58.2536326 149.475975,58.3793342 150.607289,60.641962 C151.235796,61.7732759 151.738603,65.2929192 150.104482,68.8125624 C146.710541,75.6004459 138.917045,82.1369263 131.626355,82.1369263 C125.46698,82.1369263 121.318829,80 120.313216,74.469132 C116.416468,78.4915815 111.514108,81.7598216 105.98324,81.7598216 C98.6925503,81.7598216 94.6701009,76.3546552 94.6701009,68.938264 C94.6701009,63.6587991 96.9327287,56.7452141 101.332283,50.3344353 C111.137003,36.1301606 121.570232,30.222188 128.106712,30.222188 C132.380565,30.222188 135.145999,31.9820096 136.151611,35.2502498 C142.436688,23.4343045 150.607289,9.23002987 154.75544,3.32205723 C157.018067,0.179518589 158.777889,0.43092168 160.034905,3.44775877 C160.663412,4.95617732 161.166218,6.59029741 161.166218,8.35011905 C161.166218,11.7440608 159.532098,16.6464211 156.263858,22.5543937 Z M123.455755,58.2536326 C130.243638,45.3063734 132.506266,38.0156838 130.117937,37.8899822 C126.598293,37.7642807 118.301991,45.432075 111.63981,55.9910048 C107.868763,61.8989774 105.857538,68.1840547 105.857538,72.3322057 C105.857538,74.5948335 106.360345,76.2289536 107.743062,76.2289536 C111.765511,76.2289536 117.799185,69.1896671 123.455755,58.2536326 Z M177.256016,37.135773 C175.370493,35.6273544 166.068579,43.2951487 160.034905,55.3624971 C161.040517,55.9910048 161.920428,56.2424079 162.800339,56.2424079 C165.817176,56.2424079 169.839625,52.4713615 172.353656,49.0774198 C175.999001,44.1750595 178.638733,38.2670869 177.256016,37.135773 Z M186.683632,42.1638348 C186.683632,49.7059275 178.261629,62.9045898 167.199893,62.9045898 C164.183056,62.9045898 161.166218,62.024679 158.275083,60.1391558 C157.520874,62.6531867 157.143769,65.2929192 157.143769,67.555547 C157.143769,73.086415 159.406397,76.9831629 163.177443,76.9831629 C172.730761,76.9831629 181.152764,67.6812485 186.306528,59.8877527 C187.689245,57.876528 189.323365,57.6251249 190.328977,60.1391558 C190.706082,61.2704697 190.831783,64.9158145 188.569155,68.3097563 C183.28969,75.9775505 173.233567,81.8855232 163.428846,82.0112247 C151.738603,82.1369263 145.327824,74.469132 145.327824,64.4130084 C145.327824,59.8877527 146.584839,54.9853924 149.224572,49.9573306 C155.761052,36.6329668 165.942877,29.9707849 173.233567,29.9707849 C174.993388,29.9707849 176.376105,30.222188 177.633121,30.9763972 C181.152764,32.987622 183.666795,34.9988467 185.426617,37.5128776 C186.180826,38.6441915 186.683632,40.5297147 186.683632,42.1638348 Z" id="Code"></path>
                                            <path d="M70.7625823,19.8487266 C72.2700213,19.4520322 73.7774604,19.1875692 74.7824197,19.1082303 C76.1047347,19.0024451 76.8187848,19.5049248 77.1096941,20.2983137 C77.189033,20.5098841 77.189033,20.6950082 76.8452311,20.6950082 C75.5229161,20.6685619 72.6138232,21.3297194 71.0799378,21.7264139 C70.4452267,21.8850917 70.1807637,21.8850917 69.8898544,21.4619509 C69.6518377,21.118149 69.3344821,20.6421156 69.2022506,20.32476 C69.0171265,19.8751729 69.0171265,19.4784785 69.2815895,18.7908747 C70.5510119,15.5115336 74.9146512,7.49830492 76.5278755,5.25036949 C76.7658922,4.9330139 77.0039089,4.9594602 77.1625867,5.30326209 C77.4799422,5.96441957 77.5857274,7.07516414 76.5014292,9.03219028 C75.1262216,11.5445887 72.7196084,15.6173188 70.7625823,19.8487266 Z M80.28325,16.8074022 C79.4369684,19.2404618 80.0716796,20.9065786 81.4733334,20.9859175 C83.6683763,21.0917027 85.5989561,18.9759988 86.736147,17.230543 C86.8683785,17.0189726 87.0799489,17.0189726 87.1857341,17.2569893 C87.2915192,17.4685597 87.2121804,18.2090561 86.736147,18.8966599 C85.6254024,20.5098841 83.5890374,21.7264139 81.5526723,21.7528602 C78.1939923,21.8057528 77.0303552,18.4999654 78.7493646,15.0883928 C80.4683741,11.6768202 83.1658966,10.3016126 84.4882115,11.0685553 C85.149369,11.4652498 85.6254024,11.8619443 86.0485432,12.4437629 C86.5245766,13.0784741 86.3130062,14.6916983 85.2022616,16.0404596 C83.906393,17.6272375 82.1344909,18.3148413 80.28325,16.8074022 Z M80.5212667,16.2255837 C81.8171353,17.0454189 82.9014336,15.9082281 83.6683763,14.9032687 C84.5146578,13.7925241 85.0964764,12.4173166 84.7262282,12.1264073 C84.1708559,11.6768202 81.9758131,13.2635981 80.732837,15.7759966 C80.6534982,15.9346744 80.5741593,16.0933522 80.5212667,16.2255837 Z M91.8402827,19.5049248 C90.9940011,20.589223 89.8039177,21.6206287 88.508049,21.6206287 C86.0749895,21.6206287 85.5460635,18.2619487 87.7411063,15.0883928 C89.8568103,12.0470684 91.9460679,10.8305386 93.2948292,10.8305386 C94.3262348,10.8305386 94.8551608,11.6503739 94.8551608,12.5759944 C95.2518553,11.9148369 95.5956572,11.3859109 95.7807813,11.1214479 C95.9923517,10.8040923 96.2039221,10.7247534 96.4154925,10.9627701 C96.8386333,11.4388035 97.0237574,12.5495481 96.4419388,13.871863 C95.9130128,15.0619465 94.5113589,17.1247578 93.9295403,18.4735191 C93.2948292,19.9809581 93.4006144,20.9594712 94.2204496,20.8801323 C95.9130128,20.7214545 98.2931797,17.4685597 99.5361558,13.5809537 C97.3940055,12.8140111 99.906404,9.21731437 100.964256,9.13797547 C101.784091,9.08508288 101.519628,10.6454145 100.964256,12.4702092 C101.916323,12.364424 102.894836,11.9148369 103.899795,11.2272331 C104.270043,10.9627701 104.455167,10.9098775 104.693184,11.1743405 C105.195664,11.7297128 105.830375,12.9462426 105.063432,13.8454167 C103.820456,15.2735169 102.471695,17.1247578 102.048554,18.4470728 C101.598967,19.9016192 101.889876,20.9330249 102.709712,20.9859175 C103.820456,21.0652564 105.142771,19.3198007 105.989053,17.3363282 C106.094838,17.1247578 106.279962,17.0718652 106.385747,17.3363282 C106.517979,17.6536838 106.597318,18.3148413 106.279962,19.0553377 C105.592358,20.6421156 104.032027,21.8057528 102.57748,21.7528602 C100.567561,21.6735213 99.7741725,19.8487266 100.408884,17.7330227 C100.93781,15.987567 102.551034,14.0305408 103.688225,12.7611185 C102.524588,13.4487222 101.387397,13.7396315 100.567561,13.7396315 C99.2716928,17.4685597 96.8915259,21.4619509 94.0617718,21.6735213 C92.6072254,21.7793065 91.8138364,20.853686 91.8402827,19.5049248 Z M93.6915237,12.1792999 C92.8716884,12.1264073 90.9411085,13.8189704 89.4865621,16.1462448 C88.0584619,18.4206265 87.7675526,20.7214545 88.7989583,20.7479008 C89.8568103,20.7743471 91.2320178,19.1611229 92.5807791,16.7809559 C94.2204496,13.8983093 94.4584663,12.2321925 93.6915237,12.1792999 Z M109.929551,13.5545074 C111.119635,12.2850851 112.917983,10.8305386 113.790711,10.9627701 C114.663439,11.0950016 115.483274,12.3908703 114.822117,13.7660778 C114.266744,14.929715 112.970876,16.8867411 112.362611,18.2619487 C111.675007,19.795834 111.833685,21.0388101 112.785752,20.9859175 C113.87005,20.9330249 115.165919,19.1875692 116.170878,17.3363282 C116.303109,17.0983115 116.488234,17.0983115 116.620465,17.3098819 C116.805589,17.6007912 116.752697,18.2090561 116.382448,18.9759988 C115.668398,20.4569915 114.002281,21.8057528 112.468396,21.8057528 C110.220461,21.8057528 109.691535,20.1660822 110.458477,17.8652542 C111.331205,15.2735169 113.65848,12.4702092 113.182446,12.2586388 C112.917983,12.1528536 111.384098,12.89335 109.691535,14.7445909 C108.131203,16.4371541 106.967566,18.9759988 105.830375,21.4619509 C105.72459,21.6999676 105.565912,21.8057528 105.327895,21.5677361 C104.798969,21.0388101 104.640292,20.1660822 105.063432,18.8437673 C105.592358,17.1776504 107.628723,13.5016148 109.29484,11.042109 C109.479964,10.7511997 109.691535,10.777646 109.850212,11.042109 C110.246907,11.7032665 110.220461,12.6024407 109.929551,13.5545074 Z" id="Lean"></path>
                                            <path d="M125.326381,12.1178755 C124.427207,12.1178755 123.818942,11.721181 123.607372,11.4302717 C123.342909,11.0600235 123.501587,10.8748994 123.898281,10.9013457 C124.638778,10.927792 125.379274,10.8748994 126.093324,10.7955605 C126.913159,9.34101409 127.653656,8.09803803 128.103243,7.51621945 C128.341259,7.17241756 128.605722,7.19886386 128.737954,7.51621945 C129.028863,8.25671583 129.028863,9.1294437 128.394152,10.5046513 C129.425558,10.478205 129.822252,10.9542383 130.033823,11.2980402 C130.218947,11.6153958 130.113161,11.8005199 129.716467,11.8005199 C129.134648,11.721181 128.314813,11.8005199 127.653656,11.9063051 C126.62225,13.6782072 125.114811,16.2434982 124.109852,18.4649873 C123.237124,20.3955672 123.528033,22.0352377 124.638778,22.0881303 C125.828861,22.1410229 127.3363,20.2633357 128.314813,18.2798632 C128.473491,17.9625076 128.7644,17.909615 128.870185,18.2798632 C129.002417,18.703004 128.870185,19.1790374 128.605722,19.7873023 C128.261921,20.5542449 126.516465,22.8815193 124.400761,22.8021804 C122.655305,22.7492878 121.253651,20.7922616 122.523074,17.7509372 C123.078446,16.4286223 124.18919,14.2071331 125.326381,12.1178755 Z M136.724736,16.7195316 C136.539612,16.931102 136.275149,17.0368872 136.010686,17.0633335 C135.455314,19.3112689 133.789197,21.9823451 131.832171,22.6435026 C130.880104,22.9608582 129.557789,22.855073 128.499937,21.4798654 C127.3363,19.9459801 127.732995,17.645152 128.923078,15.5294481 C129.928037,13.7310998 131.541262,12.1972144 133.12804,12.0914292 C133.947875,12.0385366 134.397462,12.2765533 134.926388,12.9906034 C135.534653,13.8104387 136.328042,13.9955627 136.169364,15.8996963 C136.142918,16.1112667 136.142918,16.2963908 136.116471,16.5079612 C136.275149,16.5079612 136.433827,16.4550686 136.645397,16.4550686 C136.830521,16.4550686 136.830521,16.5873001 136.724736,16.7195316 Z M134.450355,16.0054815 C134.661925,15.1856462 134.741264,14.5244887 134.661925,14.0484553 C134.529693,13.2021738 134.000767,13.3608516 133.868536,14.1277942 C133.736304,14.8418443 134.027214,15.608787 134.450355,16.0054815 Z M134.26523,16.7195316 C134.080106,16.6401927 133.921429,16.5344075 133.762751,16.402176 C133.207378,15.9790352 132.572667,15.0534147 132.546221,14.0749016 C131.832171,14.6831665 131.065228,15.5558944 130.509856,16.5608538 C129.399111,18.5707725 129.002417,21.003832 129.690021,21.5856506 C130.430517,22.1939155 132.043741,21.268295 133.33961,18.8352355 C133.736304,18.0947391 134.05366,17.3542427 134.26523,16.7195316 Z" id="to"></path>
                                        </g>
                                    </g>
                                </g>
                                <g id="Group" transform="translate(69.308036, 5.281068)"></g>
                            </g>
                        </g>
                        <g id="Group-6" transform="translate(69.705333, 0.037137)">
                            <polygon id="Polygon" fill="#FFCC27" opacity="0.738960598" transform="translate(29.854024, 18.445928) rotate(-15.000000) translate(-29.854024, -18.445928) " points="29.8540242 2.9513484 43.135092 10.698638 43.135092 26.1932171 29.8540242 33.9405066 16.5729564 26.1932171 16.5729564 10.698638"></polygon>
                            <path d="M23.7695336,33.1575978 C23.7899628,33.2446495 23.8293079,33.2962903 23.9140513,33.342767 C24.2568079,33.5331002 25.1995776,33.5441661 26.8437498,33.0609558 C26.7151215,32.5415969 26.5963295,31.9543672 26.4896437,31.306644 C24.7448387,31.8983 23.649985,32.6301239 23.7695336,33.1575978 Z M24.6199936,34.5703426 C24.0979141,34.5703426 23.6757106,34.4825533 23.3556532,34.3069745 C22.9917108,34.1055754 22.7511002,33.7913042 22.6610604,33.3980964 L22.6610604,33.3973587 C22.2850118,31.7433776 24.6979272,30.6640849 26.787002,30.0502971 L27.4210639,29.8636525 L27.5133736,30.5025229 C27.6715107,31.6032097 27.8599133,32.5364328 28.0747983,33.2793226 L28.2208292,33.7868779 L27.7085859,33.9536039 C26.4510552,34.3645171 25.4190023,34.5703426 24.6199936,34.5703426 L24.6199936,34.5703426 Z" id="Fill-2032" fill="#30292F"></path>
                            <path d="M32.0483229,30.8809757 C34.1773082,31.6172616 35.2418009,32.3360059 35.2418009,33.0372085 C35.2418009,34.0890123 32.4738107,33.7743048 31.3555454,33.7743048" id="Path-2" fill="#FFFFFF"></path>
                            <path d="M31.6302356,33.0609558 C33.2728946,33.5434284 34.2164209,33.533838 34.5599341,33.342767 C34.6439209,33.2962903 34.6840226,33.2446495 34.7036952,33.1575978 C34.8247571,32.6301239 33.7291467,31.8983 31.9843417,31.306644 C31.8776559,31.9543672 31.7596205,32.5408591 31.6302356,33.0609558 Z M33.8539918,34.5703426 C33.0557397,34.5703426 32.0229302,34.3652549 30.7653995,33.9536039 L30.2531562,33.7868779 L30.3999438,33.2800603 C30.6133155,32.5356951 30.8017181,31.6017343 30.9598552,30.5025229 L31.0521649,29.8636525 L31.6862267,30.0502971 C33.7768148,30.6640849 36.1897303,31.7441153 35.8121684,33.3980964 C35.7221286,33.7913042 35.4830313,34.1055754 35.1183323,34.3069745 C34.7982748,34.4825533 34.376828,34.5703426 33.8539918,34.5703426 L33.8539918,34.5703426 Z" id="Fill-2034" fill="#30292F"></path>
                            <g id="Group-5" transform="translate(0.000000, 1.475674)">
                                <polygon id="Polygon" fill="#FFCC27" opacity="0.738960598" transform="translate(53.464811, 22.872950) rotate(-15.000000) translate(-53.464811, -22.872950) " points="53.4648114 17.7080904 57.891834 20.2905203 57.891834 25.45538 53.4648114 28.0378098 49.0377888 25.45538 49.0377888 20.2905203"></polygon>
                                <polygon id="Polygon-Copy" fill="#FFCC27" opacity="0.738960598" transform="translate(7.718911, 19.921602) rotate(-15.000000) translate(-7.718911, -19.921602) " points="7.7189112 13.2810678 13.621608 16.6013347 13.621608 23.2418686 7.7189112 26.5621356 1.8162144 23.2418686 1.8162144 16.6013347"></polygon>
                                <path d="M17.5569484,18.1564963 C14.9912947,19.2700186 13.6298596,20.3226053 13.4726432,21.3142566 C13.2368185,22.8017335 12.42861,24.5755083 14.7798584,23.5418667 C16.3473573,22.8527723 17.8918817,22.0066192 19.4134315,21.0034076 L20.8497892,16.5473572 L17.5569484,18.1564963 Z" id="Path-12" fill="#FFFFFF"></path>
                                <path d="M26.5974319,6.76842967 C25.4666679,12.0582083 25.8531844,27.6183018 27.1852511,30.185452 C28.0732956,31.8968854 29.381338,32.2276473 31.1093783,31.1777378 C31.9371683,23.5511633 32.3510633,15.1650793 32.3510633,6.01948589 C28.4906871,-4.34716799 26.1796934,3.22537192 26.5974319,6.76842967 Z" id="Path-9" fill="#FFFFFF"></path>
                                <path d="M29.2369927,1.31344404 C28.6574088,1.59082891 26.9088206,2.70848339 26.9088206,6.07177498 C26.9088206,6.60367523 26.8959578,7.41296036 26.8800684,8.42659551 C26.7824622,14.6596402 26.5221791,31.2178942 28.9123954,33.5845183 C29.0856653,33.7556707 29.1991609,33.7556707 29.2369927,33.7556707 C29.2748246,33.7556707 29.3883201,33.7556707 29.5608334,33.5845183 C31.952563,31.2171564 31.6922798,14.6596402 31.5946737,8.42585778 C31.5780277,7.41296036 31.5659215,6.60367523 31.5659215,6.07177498 C31.5659215,2.70848339 29.81582,1.59082891 29.2369927,1.31344404 Z M29.2369927,34.8622593 C28.8208424,34.8622593 28.4394973,34.6933201 28.1043071,34.3613435 C25.7042545,31.9843912 25.5642766,19.9085587 25.7451129,8.40889009 C25.7610023,7.40410765 25.7738651,6.59998661 25.7738651,6.07177498 C25.7738651,1.28762364 28.9267715,0.228987215 29.0606963,0.186936848 L29.2369927,0.130131967 L29.4125325,0.186936848 C29.5472139,0.228987215 32.700877,1.28762364 32.700877,6.07177498 C32.700877,6.59998661 32.7129832,7.40336992 32.7288726,8.40889009 C32.9097088,19.907821 32.7704876,31.9843912 30.3696783,34.3613435 C30.0337315,34.6933201 29.6531431,34.8622593 29.2369927,34.8622593 L29.2369927,34.8622593 Z" id="Fill-2031" fill="#30292F"></path>
                                <path d="M19.5114682,12.8832701 L26.5392367,17.3861083 L27.8563123,21.8650831 C24.3616513,19.4818035 21.5800366,18.5710174 19.5114682,19.1327249 C17.4428998,19.6944324 17.4428998,17.6112808 19.5114682,12.8832701 Z" id="Path-10" fill="#FFFFFF" transform="translate(22.908177, 17.374177) scale(-1, 1) translate(-22.908177, -17.374177) "></path>
                                <path d="M25.6868518,13.3715711 C22.3841312,15.5308943 15.1945663,20.2375844 14.3796682,20.8122728 C13.8462391,21.1870374 13.3150799,22.7215069 13.5783896,23.1243052 C13.6343808,23.2106191 14.0301019,23.2342263 14.8926681,22.7613441 L15.4465264,22.4574011 C18.5381453,20.7591565 22.7004055,18.4729445 25.7087943,18.2597417 C25.6845819,16.739289 25.6785288,15.128096 25.6868518,13.3715711 Z M13.7176108,24.2832723 C13.1493764,24.2832723 12.8172128,24.0169533 12.6220004,23.7203876 C11.9470802,22.6905225 12.8353721,20.5341502 13.7145843,19.9144606 C14.6293584,19.270426 23.307985,13.5943642 25.9456217,11.8702992 L26.8384534,11.2860204 L26.8293737,12.333591 C26.8089445,14.7142319 26.8165109,16.8248652 26.8520728,18.7879534 L26.8626658,19.3685435 L26.2687057,19.3515758 C23.556162,19.2586224 19.0087735,21.7705785 16.0034113,23.4223464 L15.4480397,23.7270271 C14.709562,24.1313008 14.1458674,24.2832723 13.7176108,24.2832723 L13.7176108,24.2832723 Z" id="Fill-2033" fill="#30292F"></path>
                                <path d="M32.792536,12.8832701 L39.8203045,17.3861083 L41.1373801,21.8650831 C37.6427191,19.4818035 34.8611044,18.5710174 32.792536,19.1327249 C30.7239676,19.6944324 30.7239676,17.6112808 32.792536,12.8832701 Z" id="Path-10" fill="#FFFFFF"></path>
                                <path d="M43.1246809,19.2400221 C45.4091701,20.7210946 46.1706665,22.0730208 45.4091701,23.2958005 C44.6476737,24.5185802 43.1075904,23.9071904 40.7889202,21.4616309 L36.0549067,19.2400221 L38.5478272,16.713591 L43.1246809,19.2400221 Z" id="Path-11" fill="#FFFFFF"></path>
                                <path d="M32.7659478,18.2597417 C35.7735799,18.4722068 39.9365968,20.7591565 43.0297289,22.4588766 L43.582074,22.7613441 C44.4416136,23.2327509 44.8373348,23.2098814 44.8955958,23.1243052 C45.1596621,22.7215069 44.6277463,21.1870374 44.0935606,20.8122728 C43.2665563,20.2294694 35.7690401,15.3213802 32.7871336,13.3715711 C32.7962133,15.1303092 32.7894035,16.7422399 32.7659478,18.2597417 Z M44.7563746,24.2832723 C44.3281181,24.2832723 43.7651801,24.1313008 43.0259457,23.7270271 L42.4728441,23.4230841 C39.4659686,21.7713162 34.9420358,19.2453433 32.2052797,19.3515758 L31.610563,19.3685435 L31.621156,18.7879534 C31.6574745,16.830767 31.6657975,14.719396 31.6446117,12.333591 L31.6362887,11.2860204 L32.5283637,11.8702992 C34.4048236,13.0963994 43.811335,19.2475565 44.7586445,19.9144606 C45.6378567,20.5341502 46.5269052,22.6905225 45.851985,23.7203876 C45.6575293,24.0169533 45.3238524,24.2832723 44.7563746,24.2832723 L44.7563746,24.2832723 Z" id="Fill-2035" fill="#30292F"></path>
                            </g>
                            <path d="M29.98682,6.11404809 C29.884674,5.79092422 29.5835325,5.57403286 29.2369927,5.57403286 C28.890453,5.57403286 28.5893114,5.79092422 28.4879221,6.11331037 L27.4029046,5.7872356 C27.6518382,4.99786907 28.3895593,4.46744427 29.2369927,4.46744427 C30.0836695,4.46744427 30.820634,4.99786907 31.0718375,5.78649787 L29.98682,6.11404809" id="Fill-2036" fill="#30292F"></path>
                        </g>
                    </g>
                    <g id="Group-15" transform="translate(41.610766, 134.266733)" fill="#FFD240">
                        <path d="M0.196232885,4.51335635 C20.0856952,1.89691789 39.5967794,0.588698655 58.7294857,0.588698655 C77.862192,0.588698655 97.3732762,1.89691789 117.262739,4.51335635 L111.712365,18.4949494 L116.127605,32.4765424 C96.9948982,29.860104 77.862192,28.5518847 58.7294857,28.5518847 C39.5967794,28.5518847 20.4640732,29.860104 1.33136688,32.4765424 L5.74660679,18.4949494 L0.196232885,4.51335635 Z" id="Rectangle-11"></path>
                    </g>
                </g>
                <g id="Group-11" transform="translate(65.162144, 142.049910)" fill="#FFFFFF" fill-rule="nonzero">
                    <path d="M3.82232789,4.60976229 L0.576912714,4.79673787 L0.440377057,2.42683004 L9.90491339,1.88155707 L10.0414491,4.25146489 L6.81112883,4.43757082 L7.28335088,12.634131 L4.29454993,12.8063225 L3.82232789,4.60976229 Z M14.7809132,12.4406798 C13.9045519,12.473174 13.1071011,12.3211796 12.388537,11.9846921 C11.6699728,11.6482046 11.0998033,11.1650049 10.6780113,10.5350785 C10.2562193,9.90515203 10.0302001,9.18223835 9.9999469,8.36631577 C9.97006716,7.5604663 10.1421169,6.82783621 10.5161013,6.16840351 C10.8900857,5.50897082 11.4204812,4.98748543 12.1073038,4.6039317 C12.7941264,4.22037797 13.5807431,4.01217038 14.4671775,3.97930266 C15.3536119,3.94643495 16.1560058,4.09572431 16.8743832,4.42717524 C17.5927606,4.75862617 18.1602251,5.23688278 18.5767938,5.86195942 C18.9933625,6.48703606 19.2167701,7.20752486 19.2470233,8.02344745 C19.2772765,8.83937003 19.1079318,9.57694324 18.738984,10.2361892 C18.3700361,10.8954351 17.839734,11.4194388 17.1480616,11.8082158 C16.4563892,12.1969928 15.6673476,12.407812 14.7809132,12.4406798 Z M14.6963166,10.1591299 C15.1999725,10.140455 15.6065215,9.9513832 15.9159756,9.59190872 C16.2254297,9.23243424 16.368763,8.7454742 16.3459797,8.13101398 C16.3235699,7.52662688 16.1448484,7.05917328 15.8098097,6.72863915 C15.474771,6.39810502 15.05543,6.24217772 14.5517741,6.26085256 C14.0481182,6.2795274 13.6414759,6.46608098 13.331835,6.8205189 C13.0221941,7.17495682 12.8785807,7.65436214 12.9009905,8.25874924 C12.9237738,8.87320945 13.1027755,9.34821778 13.4380009,9.68378847 C13.7732263,10.0193592 14.1926607,10.1778047 14.6963166,10.1591299 Z M29.4089846,3.7632633 L29.5190747,10.4605118 C29.5440915,11.9823923 29.1496342,13.1305781 28.3356909,13.9051036 C27.5217477,14.6796292 26.3387356,15.0796429 24.786619,15.1051567 C23.9803247,15.1184107 23.2229441,15.0401293 22.5144545,14.8703103 C21.8059648,14.7004913 21.2019021,14.4432678 20.7022483,14.098632 L21.7123345,12.0707985 C22.0494041,12.3374556 22.4737031,12.5447075 22.9852443,12.6925604 C23.4967856,12.8404134 23.9994763,12.9102798 24.4933315,12.9021618 C25.2492324,12.8897362 25.8008179,12.7143286 26.1481044,12.3759336 C26.4953909,12.0375386 26.6636472,11.5407914 26.6528783,10.8856773 L26.6484052,10.6135544 C26.104681,11.2677019 25.298661,11.6035514 24.2303211,11.6211128 C23.5046562,11.6330414 22.831742,11.4802825 22.2115581,11.1628316 C21.5913743,10.8453806 21.0949448,10.3898035 20.7222548,9.79608634 C20.3495647,9.20236923 20.1567613,8.51245256 20.1438387,7.72631562 C20.1310818,6.95025735 20.3011882,6.25941576 20.654163,5.6537701 C21.0071378,5.04812444 21.4883255,4.57647709 22.0977405,4.23881389 C22.7071554,3.9011507 23.3746854,3.72635745 24.1003502,3.7144289 C25.269477,3.69521068 26.1323645,4.05907336 26.6890387,4.80602785 L26.672637,3.80824365 L29.4089846,3.7632633 Z M24.8731034,9.32712055 C25.3871161,9.31867116 25.8103659,9.15545435 26.1428658,8.83746522 C26.4753656,8.51947609 26.6375541,8.11355999 26.629436,7.61970473 C26.621318,7.12584947 26.4484368,6.72796159 26.1107874,6.42602914 C25.7731379,6.12409669 25.342274,5.9774402 24.8181827,5.98605526 C24.2940914,5.99467033 23.8657608,6.15545034 23.5331782,6.46840013 C23.2005955,6.78134992 23.0383656,7.1847464 23.0464837,7.67860165 C23.0546017,8.17245691 23.2325635,8.57278159 23.5803745,8.87958771 C23.9281855,9.18639382 24.3590908,9.33556994 24.8731034,9.32712055 Z M39.7786041,7.884915 C39.7786041,7.905075 39.7627258,8.14190953 39.731227,8.59542568 L33.7739759,8.57889464 C33.8937611,9.00259036 34.1272156,9.32831586 34.4743463,9.55608091 C34.821477,9.78384596 35.2571158,9.89845402 35.7812759,9.89990854 C36.174396,9.90099942 36.5147448,9.84650427 36.8023325,9.73642144 C37.0899202,9.62633861 37.3802194,9.44570547 37.6732387,9.1945166 L39.1808679,10.7711847 C38.3820863,11.6560151 37.2166328,12.0962978 35.6844726,12.0921067 C34.7268725,12.0893889 33.8857084,11.905616 33.1609553,11.540722 C32.4362022,11.175828 31.8756491,10.6702761 31.4792792,10.0240511 C31.0829093,9.37782615 30.8858601,8.64648458 30.8880875,7.83000445 C30.8903635,7.02360433 31.0864076,6.30091352 31.4762638,5.66191032 C31.8661201,5.02290713 32.4042637,4.52292403 33.0907107,4.16194603 C33.7771578,3.80096804 34.5487698,3.62167052 35.40557,3.62400187 C36.2220501,3.62631378 36.9624506,3.79720714 37.6267936,4.13673331 C38.2911367,4.47625947 38.8164523,4.9665937 39.2027561,5.60775069 C39.58906,6.24890769 39.7809923,7.00795487 39.7786041,7.884915 Z M35.4150257,5.66526227 C34.9715056,5.6640494 34.6007215,5.7890196 34.3026622,6.04019448 C34.0046028,6.29136936 33.8146546,6.63355981 33.7328118,7.0667761 L37.0894356,7.07609055 C37.0099983,6.64242671 36.8219521,6.29918734 36.5252914,6.04636215 C36.2286306,5.79353695 35.8585458,5.66651089 35.4150257,5.66526227 Z M46.7626543,11.756902 C46.5179945,11.9036295 46.2210765,12.0141083 45.8718914,12.0883417 C45.5227062,12.1625751 45.1515917,12.1960777 44.7585365,12.1888505 C43.6902329,12.1692073 42.8736788,11.8920717 42.3088499,11.3574353 C41.744021,10.822799 41.4711542,10.0364582 41.4902415,8.99838956 L41.5408317,6.24701738 L40.3465547,6.22505789 L40.3860262,4.07838289 L41.5803031,4.10034238 L41.6194967,1.96878481 L44.4918083,2.02159876 L44.4526148,4.15315633 L46.327176,4.18762438 L46.2877045,6.33429938 L44.4131433,6.29983133 L44.363109,9.02096865 C44.3577349,9.31324042 44.4316251,9.54395529 44.5847816,9.7131202 C44.7379382,9.88228511 44.9455317,9.96927533 45.2075685,9.97409347 C45.5401536,9.9802088 45.8339961,9.89991822 46.0891048,9.73321932 L46.7626543,11.756902 Z M53.4922388,3.99098287 C54.5096729,4.02735623 55.3173372,4.35882017 55.915256,4.98538461 C56.5131747,5.61194905 56.7903419,6.53467053 56.7467659,7.75357673 L56.5793052,12.4377796 L53.7083422,12.3351424 L53.8590568,8.11935981 C53.8990315,7.00118966 53.4707498,6.42608732 52.574199,6.39403554 C52.0805923,6.37638905 51.6794472,6.52342933 51.3707517,6.83516078 C51.0620561,7.14689224 50.8961865,7.62510615 50.8731381,8.26981687 L50.7316068,12.2287238 L47.8606437,12.1260866 L48.261469,0.914220334 L51.1324321,1.01685754 L50.9973831,4.79444053 C51.3201087,4.51347009 51.6957126,4.30499874 52.124206,4.16902022 C52.5526994,4.0330417 53.0087057,3.97369651 53.4922388,3.99098287 Z M67.0838586,8.93570337 C67.0826935,8.95582976 67.0539096,9.19143748 66.997506,9.64253359 L61.0501883,9.29825811 C61.1464802,9.72790265 61.3616595,10.0659795 61.6957327,10.3124987 C62.0298059,10.559018 62.4584791,10.6974214 62.9817652,10.7277131 C63.3742297,10.7504319 63.7170613,10.7147454 64.0102702,10.6206525 C64.3034791,10.5265596 64.603277,10.3621724 64.909673,10.127486 L66.3282697,11.7847159 C65.4820145,12.6242568 64.294102,12.9997491 62.7644965,12.9112041 C61.8084931,12.8558634 60.9787145,12.6260878 60.2751357,12.2218704 C59.571557,11.8176531 59.0396686,11.2820252 58.6794546,10.6149707 C58.3192406,9.94791626 58.1627285,9.20684079 58.2099137,8.3917221 C58.2565164,7.58666661 58.4920261,6.87585689 58.9164499,6.25927162 C59.3408737,5.64268635 59.9057113,5.17306941 60.6109797,4.8504067 C61.3162481,4.52774399 62.0965563,4.39117236 62.9519278,4.44068769 C63.7670465,4.48787289 64.4969228,4.69924442 65.1415787,5.07480861 C65.7862347,5.4503728 66.2837762,5.96886728 66.6342183,6.63030762 C66.9846604,7.29174795 67.134539,8.06020552 67.0838586,8.93570337 Z M62.8490601,6.47934803 C62.4062796,6.45371656 62.0291812,6.55809681 61.7177536,6.79249192 C61.4063261,7.02688703 61.1978382,7.35810815 61.0922837,7.78616521 L64.4433105,7.98014785 C64.3878538,7.54277025 64.2189776,7.18970446 63.9366767,6.92093988 C63.6543759,6.65217531 63.2918406,6.50497949 62.8490601,6.47934803 Z M71.4591205,6.13006864 C71.7795936,5.78100003 72.1807335,5.5317599 72.6625521,5.38234078 C73.1443708,5.23292165 73.6867551,5.18175834 74.2897214,5.2288493 L74.0884086,7.80651752 C73.8294777,7.75596312 73.6145953,7.72401517 73.4437548,7.71067274 C72.830739,7.66279692 72.3379357,7.79113418 71.96533,8.09568837 C71.5927244,8.40024255 71.3797398,8.89419316 71.3263701,9.57755501 L71.0332303,13.3310017 L68.1691545,13.1073208 L68.8072339,4.9371677 L71.5356429,5.15025324 L71.4591205,6.13006864 Z" id="Together"></path>
                </g>
            </g>
        </g>
    </g>
</svg>