<?xml version="1.0" encoding="UTF-8"?>
<svg width="128px" height="127px" viewBox="0 0 128 127" version="1.1" xmlns="http://www.w3.org/2000/svg" xmlns:xlink="http://www.w3.org/1999/xlink">
    <!-- Generator: Sketch 55.2 (78181) - https://sketchapp.com -->
    <title>Group 82</title>
    <desc>Created with Sketch.</desc>
    <g id="Website-" stroke="none" stroke-width="1" fill="none" fill-rule="evenodd">
        <g id="Desktop-HD" transform="translate(-1039.000000, -3604.000000)">
            <g id="Group-55" transform="translate(272.000000, 3578.000000)">
                <g id="Group-84" transform="translate(760.000000, 26.000000)">
                    <g id="Group-82" transform="translate(7.000000, 0.000000)">
                        <g id="Group-78">
                            <path d="M82.7586207,111.585141 C68.4190705,111.585141 57.1874063,105.499836 57.1874063,97.7324129 L57.1874063,72.0059172 C57.1874063,70.9115516 58.0686297,70.026956 59.1544228,70.026956 L106.362819,70.026956 C107.448612,70.026956 108.329835,70.9115516 108.329835,72.0059172 L108.329835,97.7324129 C108.329835,105.499836 97.0981709,111.585141 82.7586207,111.585141 Z" id="Path" fill="#444444" fill-rule="nonzero"></path>
                            <path d="M122.098951,95.7534517 C121.013157,95.7534517 120.131934,94.868856 120.131934,93.7744905 L120.131934,64.0900723 C120.131934,62.9957068 121.013157,62.1111111 122.098951,62.1111111 C123.184744,62.1111111 124.065967,62.9957068 124.065967,64.0900723 L124.065967,93.7744905 C124.065967,94.868856 123.184744,95.7534517 122.098951,95.7534517 Z" id="Path" fill="#444444" fill-rule="nonzero"></path>
                            <path d="M82.7586207,87.8376068 C82.434063,87.8376068 82.1095052,87.7564694 81.8164198,87.5961736 L38.542057,63.8486391 C37.9106447,63.5023208 37.5172414,62.8354109 37.5172414,62.1111111 C37.5172414,61.3868113 37.9106447,60.7199014 38.542057,60.3735832 L81.8164198,36.6260487 C82.4045577,36.3054569 83.1126837,36.3054569 83.7008216,36.6260487 L126.975184,60.3735832 C127.606597,60.7199014 128,61.3868113 128,62.1111111 C128,62.8354109 127.606597,63.5023208 126.975184,63.8486391 L83.7008216,87.5961736 C83.4077361,87.7564694 83.0831784,87.8376068 82.7586207,87.8376068 Z" id="Path" fill="#5B5B5B" fill-rule="nonzero"></path>
                            <g id="Group-77">
                                <g id="Group-44">
                                    <g id="girl_1" transform="translate(0.000000, -0.000000)">
                                        <path d="M32.2389612,0.743516869 L32.2389612,0.743516869 C31.5443955,0.743516869 30.8576089,0.774761762 30.1752676,0.819397324 C27.3703335,1.0046349 24.6643056,1.5648112 22.1038586,2.44859533 C17.5319494,4.02757832 13.4245657,6.63317923 10.0706469,9.99981647 C6.6344915,13.4490295 3.99291925,17.6916396 2.43153558,22.4185456 C1.40802357,25.5218331 0.844591882,28.8304441 0.844591882,32.2673823 L0.844591882,52.7986248 C0.844591882,115.832965 14.9715024,103.020327 32.2389612,103.020327 L32.2389612,94.8475557 C49.5053087,94.8475557 63.6333305,115.832965 63.6333305,52.7986248 L63.6333305,32.2673823 C63.6333305,14.9286984 49.5053087,0.743516869 32.2389612,0.743516869" id="Fill-60" fill="#F2BA28"></path>
                                        <path d="M11.6807057,115.463271 L11.6807057,115.463271 L12.457508,115.463271 C12.19524,115.463271 11.9374172,115.445417 11.6807057,115.424215 L11.6807057,115.463271 Z" id="Fill-62" fill="#0EA9A1"></path>
                                        <path d="M15.7912011,108.768383 C15.7912011,107.844427 15.0455153,107.09455 14.1242434,107.09455 C13.2029715,107.09455 12.4572857,107.844427 12.4572857,108.768383 L12.4572857,115.463717 L12.4572857,115.463717 L16.1357056,115.463717 C15.9178898,114.564311 15.7912011,113.639239 15.7912011,112.698544 L15.7912011,108.768383 Z" id="Fill-64" fill="#0EA9A1"></path>
                                        <path d="M53.3402003,115.463383 L53.3402003,115.463383 L53.3402003,115.418747 C53.0501497,115.446644 52.7556538,115.463383 52.4578241,115.463383 L53.3402003,115.463383 Z" id="Fill-66" fill="#0EA9A1"></path>
                                        <path d="M52.4577129,108.768383 C52.4577129,107.851122 51.7164724,107.106824 50.8029796,107.106824 C49.8883755,107.106824 49.147135,107.851122 49.147135,108.768383 L49.147135,112.58026 C49.147135,113.562242 49.0115558,114.527486 48.7781817,115.463717 L52.4577129,115.463717 L52.4577129,115.463717 L52.4577129,108.768383 Z" id="Fill-68" fill="#0EA9A1"></path>
                                        <path d="M45.9560224,83.4050063 C48.7687356,89.7711533 46.4650001,96.9295815 40.5861961,100.625406 C38.8181097,101.736831 36.8977745,102.522417 35.0207801,102.912979 L32.6470324,97.2788547 C32.3414235,96.6885494 31.5146125,96.6494933 31.1545497,97.2085537 L29.0986352,102.957614 C28.1551372,102.775724 27.2171957,102.492288 26.3037029,102.116234 C18.96131,99.0888268 15.6573999,90.668328 18.8501795,83.3726455 C9.56967055,87.3340516 3.23745404,95.2479367 3.23745404,104.368098 L3.23745404,106.205967 C3.23745404,111.055621 6.95365832,115.02707 11.6811503,115.424326 C11.9367504,115.445528 12.1945732,115.463383 12.4568412,115.463383 L12.4568412,115.463383 L12.4568412,108.768048 C12.4568412,107.844092 13.2036383,107.094215 14.1237989,107.094215 C15.0450708,107.094215 15.7907565,107.844092 15.7907565,108.768048 L15.7907565,112.69821 C15.7907565,113.638904 15.9174453,114.563976 16.1363724,115.463383 C16.6586858,117.612585 17.7699909,119.592172 19.3913851,121.14549 C26.6748788,128.126491 38.1279892,128.154389 45.4459334,121.209095 C47.0973327,119.640155 48.2353092,117.639366 48.7787374,115.463383 C49.0121114,114.527152 49.1465794,113.561908 49.1465794,112.579925 L49.1465794,108.768048 C49.1465794,107.850788 49.8889312,107.10649 50.802424,107.10649 C51.7159168,107.10649 52.4571573,107.850788 52.4571573,108.768048 L52.4571573,115.463383 L52.4582686,115.463383 C52.7560984,115.463383 53.0494829,115.446644 53.3406448,115.418747 C57.9136654,114.972391 61.4898452,111.103604 61.4898452,106.393436 L61.4898452,104.368098 C61.4898452,95.2736021 55.1943018,87.3775713 45.9560224,83.4050063" id="Fill-70" fill="#4FC2C3"></path>
                                        <path d="M26.3041474,102.116234 C27.2165289,102.492288 28.1544704,102.775724 29.0979684,102.957614 L31.1549942,97.2085537 C31.5139457,96.6494933 32.3407567,96.6885494 32.6474769,97.2788547 L35.0212247,102.912979 C36.898219,102.522417 38.8185542,101.736831 40.5866406,100.625406 C46.4654447,96.9295815 48.7691802,89.7711533 45.9564669,83.4050063 C45.9564669,83.4050063 39.9120784,80.6677304 32.3474246,80.6677304 C24.7827707,80.6677304 18.8539579,83.3637184 18.8539579,83.3637184 C18.8528466,83.367066 18.8517353,83.3692978 18.850624,83.3726455 C15.6567331,90.668328 18.9606432,99.0888268 26.3041474,102.116234" id="Fill-72" fill="#0EA9A1"></path>
                                        <path d="M32.363983,62.7573766 C28.6544466,62.7573766 25.6194723,65.8048695 25.6194723,69.5297072 L25.6194723,70.0686816 C25.6194723,66.3438439 28.6544466,63.296351 32.363983,63.296351 C36.0735195,63.296351 39.1084937,66.3438439 39.1084937,70.0686816 L39.1084937,69.5297072 C39.1084937,65.8048695 36.0735195,62.7573766 32.363983,62.7573766" id="Fill-74" fill="#231F20"></path>
                                        <path d="M25.6192501,80.0253131 L25.6192501,81.3007743 L25.6192501,81.8397487 L25.6192501,84.8593445 C25.6192501,87.2607377 28.4230728,90.5637692 30.4145316,92.6069621 C31.4880523,93.7083446 33.2405805,93.7083446 34.3141012,92.6069621 C36.30556,90.5637692 39.1093828,87.2607377 39.1093828,84.8593445 L39.1093828,81.8397487 L39.1093828,81.3007743 L39.1093828,80.0253131 C36.9656752,80.6435157 34.7052806,81.7303916 32.3637608,81.7303916 C30.0233522,81.7303916 27.7618463,80.6435157 25.6192501,80.0253131" id="Fill-76" fill="#FFE1AD"></path>
                                        <path d="M58.2873973,41.7555637 C58.1707102,40.2245639 57.4150228,38.9044672 56.3114968,38.01064 L56.3114968,46.328477 C57.6328386,45.2605711 58.4263104,43.5811581 58.2873973,41.7555637" id="Fill-78" fill="#FCCA80"></path>
                                        <path d="M5.51462934,42.5710554 C5.63131637,44.1020551 6.38700385,45.4221519 7.49052982,46.315979 L7.49052982,37.9981421 C6.16918805,39.0660479 5.3757162,40.7454609 5.51462934,42.5710554" id="Fill-80" fill="#FCCA80"></path>
                                        <path d="M25.6192501,76.5970788 L25.6192501,80.0250899 C27.7618463,80.6432925 30.0233522,81.7301684 32.3637608,81.7301684 C34.7052806,81.7301684 36.9656752,80.6432925 39.1093828,80.0250899 L39.1093828,76.2321831 C36.830096,77.2052383 34.4107848,77.752024 31.9014578,77.752024 C29.7288563,77.752024 27.6240445,77.339145 25.6192501,76.5970788" id="Fill-82" fill="#D7B48A"></path>
                                        <path d="M56.3118302,29.0708066 C56.3118302,15.5339566 45.3832557,29.4680631 31.9009022,29.4680631 C26.9178101,29.4680631 22.2836678,24.872832 18.4218825,24.8047628 C18.3552042,24.8036469 18.2896372,24.802531 18.2240702,24.802531 C12.2674748,24.7768655 7.48997417,29.7760484 7.48997417,35.7572137 L7.48997417,37.9979189 L7.48997417,46.3157558 L7.48997417,48.2373167 L7.496642,48.2373167 C7.49553069,48.3221243 7.48997417,48.4047001 7.48997417,48.4895077 C7.48997417,59.8447946 15.1824281,72.7355448 25.6186944,76.5976368 C27.6234888,77.3385871 29.7283007,77.7525819 31.9009022,77.7525819 C34.4102291,77.7525819 36.8306516,77.2057963 39.1088271,76.2316251 C49.0716774,71.9722767 56.3118302,59.5066802 56.3118302,48.4895077 C56.3118302,48.4047001 56.3062737,48.3221243 56.3051624,48.2373167 L56.3118302,48.2373167 L56.3118302,46.3291465 L56.3118302,38.0113096 L56.3118302,29.0708066 Z" id="Fill-84" fill="#FFE1AD"></path>
                                        <path d="M24.625521,36.0721176 C24.5288375,36.0721176 24.4299313,36.0620746 24.3310252,36.0408727 C20.6137096,35.2374326 16.6885799,35.0176024 14.7893595,35.5119413 C14.0447851,35.706106 13.2879863,35.2564027 13.0968418,34.5109888 C12.9056974,33.7655749 13.3513307,33.0034227 14.0947938,32.8114898 C16.947514,32.0683077 21.7083451,32.6195569 24.916683,33.3136399 C25.6668139,33.4765597 26.1435638,34.21751 25.9824246,34.9707351 C25.8412888,35.625762 25.2656328,36.0721176 24.625521,36.0721176" id="Fill-86" fill="#BC7455"></path>
                                        <path d="M39.0920464,36.0721176 C38.4519347,36.0721176 37.8762786,35.625762 37.7351429,34.9707351 C37.5740036,34.21751 38.0507535,33.4765597 38.8008845,33.3136399 C42.0103336,32.618441 46.7711647,32.0683077 49.6238849,32.8114898 C50.3662367,33.0034227 50.8129814,33.764459 50.6218369,34.5109888 C50.4295811,35.2564027 49.6727823,35.706106 48.9293192,35.5119413 C47.0278762,35.0176024 43.1038578,35.2374326 39.3865423,36.0408727 C39.2876361,36.0620746 39.1887299,36.0721176 39.0920464,36.0721176" id="Fill-88" fill="#BC7455"></path>
                                        <path d="M32.3888762,67.529476 C30.6752438,67.529476 25.5143428,66.4292094 25.5143428,64.804475 C25.5143428,64.5087644 25.6376977,64.2219809 25.8455118,64.0133097 C26.2666964,63.5915036 27.015716,63.6115896 27.4113407,63.9965713 C27.9325428,64.2855866 30.1307043,65.297698 32.3888762,65.297698 C34.7581787,65.297698 37.1786013,64.2532258 37.727586,63.9709059 C38.1276558,63.6082419 38.8533381,63.6004307 39.2634096,64.0121938 C39.472335,64.2219809 39.5945786,64.5076485 39.5945786,64.804475 C39.5945786,66.4292094 34.1858566,67.529476 32.3888762,67.529476" id="Fill-90" fill="#F05B3D"></path>
                                        <path d="M50.2836668,60.4534004 C50.2836668,62.8547937 48.3455506,64.8009042 45.9540221,64.8009042 C43.5636048,64.8009042 41.6243773,62.8547937 41.6243773,60.4534004 C41.6243773,58.0520072 43.5636048,56.1058967 45.9540221,56.1058967 C48.3455506,56.1058967 50.2836668,58.0520072 50.2836668,60.4534004" id="Fill-92" fill="#FBC39C"></path>
                                        <path d="M23.2147192,60.4534004 C23.2147192,62.8547937 21.2766031,64.8009042 18.8850745,64.8009042 C16.4946572,64.8009042 14.5554298,62.8547937 14.5554298,60.4534004 C14.5554298,58.0520072 16.4946572,56.1058967 18.8850745,56.1058967 C21.2766031,56.1058967 23.2147192,58.0520072 23.2147192,60.4534004" id="Fill-94" fill="#FBC39C"></path>
                                        <path d="M44.1847132,52.1783021 C40.8496866,52.1783021 38.1358795,49.453301 38.1358795,46.104518 C38.1358795,42.7546191 40.8496866,40.0296181 44.1847132,40.0296181 C47.5197398,40.0296181 50.2335469,42.7546191 50.2335469,46.104518 C50.2335469,49.453301 47.5197398,52.1783021 44.1847132,52.1783021 M20.6550501,52.1783021 C17.3189122,52.1783021 14.6051051,49.453301 14.6051051,46.104518 C14.6051051,42.7546191 17.3189122,40.0296181 20.6550501,40.0296181 C23.9900768,40.0296181 26.7038838,42.7546191 26.7038838,46.104518 C26.7038838,49.453301 23.9900768,52.1783021 20.6550501,52.1783021 M44.1847132,37.79784 C40.833017,37.79784 37.9480689,39.8131356 36.6489532,42.6965929 L35.8843753,42.474531 C33.850687,41.8864574 31.7003116,41.8864574 29.6677346,42.474531 L28.2763806,42.8773669 C27.0206058,39.8957114 24.0767586,37.79784 20.6550501,37.79784 C16.0931427,37.79784 12.3824949,41.5237935 12.3824949,46.104518 C12.3824949,50.6841267 16.0931427,54.4100802 20.6550501,54.4100802 C25.2158463,54.4100802 28.9264941,50.6841267 28.9264941,46.104518 C28.9264941,45.7407382 28.8953775,45.3847696 28.849814,45.0343804 L30.2833976,44.6192697 C31.9136822,44.1461328 33.6373164,44.1461328 35.2687123,44.6192697 L36.0199546,44.8368681 C35.9554989,45.2508629 35.9132693,45.672669 35.9132693,46.104518 C35.9132693,50.6841267 39.623917,54.4100802 44.1847132,54.4100802 C48.7455094,54.4100802 52.4561571,50.6841267 52.4561571,46.104518 C52.4561571,41.5237935 48.7455094,37.79784 44.1847132,37.79784" id="Fill-96" fill="#5B5255"></path>
                                        <path d="M45.9542443,46.2488025 C45.9542443,47.2296689 45.1618838,48.0252978 44.1850466,48.0252978 C43.2082094,48.0252978 42.4158488,47.2296689 42.4158488,46.2488025 C42.4158488,45.267936 43.2082094,44.4723071 44.1850466,44.4723071 C45.1618838,44.4723071 45.9542443,45.267936 45.9542443,46.2488025" id="Fill-98" fill="#404042"></path>
                                        <path d="M22.4240256,46.2488025 C22.4240256,47.2296689 21.6316651,48.0252978 20.6548279,48.0252978 C19.6779907,48.0252978 18.8856301,47.2296689 18.8856301,46.2488025 C18.8856301,45.267936 19.6779907,44.4723071 20.6548279,44.4723071 C21.6316651,44.4723071 22.4240256,45.267936 22.4240256,46.2488025" id="Fill-100" fill="#404042"></path>
                                        <path d="M29.608502,58.724442 C29.5396011,58.7634981 30.5886731,59.3370651 31.6688617,59.3370651 C32.7890572,59.3370651 33.9303676,58.724442 33.848131,58.724442" id="Fill-102" fill="#FCCA80"></path>
                                        <path d="M34.8206341,59.3644043 C34.9717716,59.1758191 35.0673438,58.9571048 35.0673438,58.6993345 C35.0673438,58.3980444 34.9462116,58.1090292 34.7350636,57.8958944 C34.652827,57.8144345 34.5539209,57.75864 34.4527921,57.708425 L34.4572373,57.7028455 C34.4483469,57.6972661 34.4383451,57.6972661 34.4294547,57.6928025 C34.3916703,57.6749483 34.3549972,57.6649053 34.3161016,57.6515147 C33.9471483,57.507565 33.5448558,57.5689389 33.2392469,57.7999279 C32.9869807,57.9249075 32.3468689,58.1670554 31.7701016,58.1815619 C31.1933342,58.1670554 30.5543338,57.9249075 30.3009562,57.7999279 C29.9964586,57.5689389 29.5941662,57.507565 29.2252129,57.6515147 C29.1863172,57.6649053 29.1485328,57.6749483 29.1118597,57.6928025 C29.1029693,57.6972661 29.0929676,57.6972661 29.0840771,57.7028455 L29.0885223,57.7073091 C28.9873936,57.7575241 28.8873761,57.8144345 28.8062508,57.8958944 C28.5939916,58.1090292 28.4728593,58.3980444 28.4728593,58.6993345 C28.4728593,58.9571048 28.5695429,59.1758191 28.719569,59.3644043 C28.7217917,59.3666361 28.722903,59.3688679 28.7251256,59.3710997 C28.8129187,59.4804568 28.9184927,59.5797709 29.0407362,59.6679262 C29.0674075,59.6868963 29.0963015,59.7047505 29.1240841,59.7226047 C29.2040981,59.7750515 29.287446,59.8230347 29.3752391,59.8687862 C30.1809353,60.2939399 31.3089099,60.453512 31.7189815,60.453512 C31.7212041,60.453512 31.7400963,60.4523961 31.7701016,60.4512803 C31.8001068,60.4523961 31.818999,60.453512 31.8212216,60.453512 C32.2312932,60.453512 33.3592679,60.2939399 34.1649641,59.8687862 C34.2538685,59.8230347 34.3372164,59.7750515 34.416119,59.7226047 C34.4439017,59.7047505 34.4727956,59.6868963 34.4994669,59.6679262 C34.6217105,59.5797709 34.7272845,59.4804568 34.8150776,59.3710997 C34.8173002,59.3688679 34.8184115,59.3666361 34.8206341,59.3644043" id="Fill-104" fill="#FCCA80"></path>
                                        <path d="M36.1189718,117.010563 C35.4444096,117.010563 34.8976475,116.461545 34.8976475,115.784201 C34.8976475,115.107972 35.4444096,114.558954 36.1189718,114.558954 C36.793534,114.558954 37.3402962,115.107972 37.3402962,115.784201 C37.3402962,116.461545 36.793534,117.010563 36.1189718,117.010563 L36.1189718,117.010563 Z M29.9979033,117.010563 C29.3244524,117.010563 28.7776903,116.461545 28.7776903,115.784201 C28.7776903,115.107972 29.3244524,114.558954 29.9979033,114.558954 C30.6724655,114.558954 31.2192276,115.107972 31.2192276,115.784201 C31.2192276,116.461545 30.6724655,117.010563 29.9979033,117.010563 L29.9979033,117.010563 Z M40.3363747,109.437024 C40.5286305,109.195992 40.4897348,108.845603 40.2496929,108.652554 C40.009651,108.461737 39.6618125,108.500793 39.4684454,108.739593 L37.6692425,110.992573 C37.3703014,110.740382 37.059136,110.501582 36.7246331,110.297374 C35.573321,109.593248 34.221974,109.188181 32.7750548,109.188181 C30.8925039,109.188181 29.1733149,109.878916 27.8453053,111.017123 L26.0816641,108.739593 C25.8905196,108.499677 25.5404585,108.460621 25.3004166,108.652554 C25.061486,108.845603 25.0225903,109.195992 25.2137348,109.437024 L27.0496109,111.808288 C25.8816292,113.151818 25.1692826,114.903764 25.1692826,116.826441 C25.1692826,121.86468 40.3819382,121.654893 40.3819382,116.826441 C40.3819382,114.887026 39.6518108,113.126153 38.4660482,111.779275 L40.3363747,109.437024 Z" id="Fill-106" fill="#FEFEFE"></path>
                                        <path d="M41.6248219,27.4180633 C41.6248219,27.4180633 48.2493116,34.6769215 63.5086421,29.4679515 L62.7029459,23.5035245 L49.2761575,23.5035245 L41.6248219,27.4180633 Z" id="Fill-108" fill="#D39B29"></path>
                                        <path d="M66.8556708,19.6238015 C66.8556708,25.7176716 61.9325892,29.4681746 54.4790658,29.4681746 C44.6662417,29.4681746 39.8253966,24.9075361 39.8253966,18.8136661 C39.8253966,13.5522492 47.7512247,6.41055937 56.0382269,13.9740553 C62.7849602,20.1326469 66.8556708,13.5299315 66.8556708,19.6238015" id="Fill-110" fill="#F2BA28"></path>
                                    </g>
                                </g>
                            </g>
                        </g>
                    </g>
                </g>
            </g>
        </g>
    </g>
</svg>