<?xml version="1.0" encoding="UTF-8"?>
<svg width="107px" height="123px" viewBox="0 0 107 123" version="1.1" xmlns="http://www.w3.org/2000/svg" xmlns:xlink="http://www.w3.org/1999/xlink">
    <!-- Generator: Sketch 55.2 (78181) - https://sketchapp.com -->
    <title>Group 89</title>
    <desc>Created with Sketch.</desc>
    <defs>
        <polygon id="path-1" points="0.000425823378 11.9515327 25.5498285 11.9515327 25.5498285 0.707174673 0.000425823378 0.707174673 0.000425823378 11.9515327"></polygon>
    </defs>
    <g id="Website-" stroke="none" stroke-width="1" fill="none" fill-rule="evenodd">
        <g id="Desktop-HD-Copy-2" transform="translate(-667.000000, -3827.000000)">
            <g id="Group-91-Copy" transform="translate(261.000000, 3798.000000)">
                <g id="Group-89" transform="translate(406.000000, 29.000000)">
                    <g id="Group-12">
                        <g transform="translate(0.350877, 0.385965)" id="Group-3">
                            <g transform="translate(0.000000, 0.200518)">
                                <g id="Group-2" transform="translate(1.276255, 64.643570)">
                                    <path d="M16.4069594,0.908893482 C7.47062993,0.908893482 0.225670973,8.30772197 0.225670973,17.4338425 L0.225670973,25.2614499 C0.225670973,27.1826927 1.75097031,28.7403865 3.632258,28.7403865 L41.1047153,28.7403865 C42.986003,28.7403865 44.5113023,27.1826927 44.5113023,25.2614499 L44.5113023,17.4338425 C44.5113023,8.30772197 37.2663434,0.908893482 28.3300139,0.908893482 L16.4069594,0.908893482 Z" id="Fill-7" fill="#336093"></path>
                                    <path d="M28.5437773,0.919939106 L29.1816607,8.73623999 L24.4465047,8.52924326 L22.3684866,13.9546449 L20.2904686,8.52924326 L17.2586061,8.73623999 L17.2586061,0.908632562 L16.4069594,0.908632562 C7.47062993,0.908632562 0.225670973,8.30746105 0.225670973,17.4335816 L0.225670973,25.261189 C0.225670973,27.1824317 1.75097031,28.7401256 3.632258,28.7401256 L41.1047153,28.7401256 C42.986003,28.7401256 44.5113023,27.1824317 44.5113023,25.261189 L44.5113023,17.4335816 C44.5113023,8.38138845 37.380464,1.03822295 28.5437773,0.919939106" id="Fill-9" fill="#366EAE"></path>
                                    <g id="Group-13" transform="translate(9.593785, 28.033560)">
                                        <path d="M9.76370424,10.0265812 L0.000425823378,0.0559488257 L25.5498285,0.0559488257 L15.7856985,10.0265812 C14.1224323,11.725172 11.4269704,11.725172 9.76370424,10.0265812" id="Fill-11" fill="#366EAE"></path>
                                        <mask id="mask-2" fill="white">
                                            <use xlink:href="#path-1"></use>
                                        </mask>
                                        <g id="Clip-12"></g>
                                    </g>
                                    <path d="M8.31631516,22.2176413 C7.6103,22.2176413 7.03884503,22.8021026 7.03884503,23.5222425 L7.03884503,28.7406475 L9.5937853,28.7406475 L9.5937853,23.5222425 C9.5937853,22.8021026 9.02233032,22.2176413 8.31631516,22.2176413" id="Fill-18" fill="#292929" opacity="0.200000003"></path>
                                    <path d="M36.4206581,22.2176413 C35.714643,22.2176413 35.143188,22.8021026 35.143188,23.5222425 L35.143188,28.7406475 L37.6981283,28.7406475 L37.6981283,23.5222425 C37.6981283,22.8021026 37.1266733,22.2176413 36.4206581,22.2176413" id="Fill-20" fill="#292929" opacity="0.200000003"></path>
                                    <path d="M17.2586061,3.59915518 L17.2586061,0.039333271 C16.4410252,0.523775197 15.2742692,1.0508341 14.7036658,1.77880159 C13.7302336,3.01991223 13.0003723,4.16622185 13.0003723,6.12747238 C13.0003723,7.75039632 14.0104254,9.66902987 14.9310555,11.0806084 C15.6251476,12.145163 17.1138262,12.2556193 17.9365169,11.2910841 L20.2904686,8.52880839 C20.2904686,8.52880839 17.2586061,6.99720654 17.2586061,3.59915518" id="Fill-59" fill="#336093"></path>
                                    <path d="M27.4783672,3.59915518 L27.4783672,0.039333271 C28.2959481,0.523775197 29.4627041,1.0508341 30.0333075,1.77880159 C31.0067397,3.01991223 31.736601,4.16622185 31.736601,6.12747238 C31.736601,7.75039632 30.7265479,9.66902987 29.8059178,11.0806084 C29.1118257,12.145163 27.6231471,12.2556193 26.8004564,11.2910841 L24.4465047,8.52880839 C24.4465047,8.52880839 27.4783672,6.99720654 27.4783672,3.59915518" id="Fill-61" fill="#336093"></path>
                                    <path d="M23.2201334,14.0811913 C23.2201334,14.5612845 22.8385957,14.9509254 22.3684866,14.9509254 C21.8983776,14.9509254 21.5168399,14.5612845 21.5168399,14.0811913 C21.5168399,13.601098 21.8983776,13.2114571 22.3684866,13.2114571 C22.8385957,13.2114571 23.2201334,13.601098 23.2201334,14.0811913" id="Fill-63" fill="#336093"></path>
                                    <path d="M23.2201334,18.3035766 C23.2201334,18.7836699 22.8385957,19.1733108 22.3684866,19.1733108 C21.8983776,19.1733108 21.5168399,18.7836699 21.5168399,18.3035766 C21.5168399,17.8234834 21.8983776,17.4338425 22.3684866,17.4338425 C22.8385957,17.4338425 23.2201334,17.8234834 23.2201334,18.3035766" id="Fill-65" fill="#336093"></path>
                                </g>
                                <path d="M17.1357191,63.869671 C17.0471434,63.8918722 16.9638296,63.9211779 16.8752538,63.9442672 C16.9611986,63.9238421 17.0497743,63.9087452 17.1357191,63.8900961 L17.1357191,63.869671 Z" id="Fill-5" fill="#D0D2D3"></path>
                                <path d="M30.5275791,63.869671 L30.5275791,63.8812156 C30.5784444,63.8927603 30.6310636,63.9025288 30.6819289,63.9140735 C30.6293097,63.9007527 30.5801984,63.8829917 30.5275791,63.869671" id="Fill-9" fill="#D0D2D3"></path>
                                <path d="M23.8316053,48.8003425 C20.9042215,48.8003425 18.509169,51.2256083 18.509169,54.1899208 L18.509169,54.6188492 C18.509169,51.6545367 20.9042215,49.2292708 23.8316053,49.2292708 C26.7589891,49.2292708 29.1540415,51.6545367 29.1540415,54.6188492 L29.1540415,54.1899208 C29.1540415,51.2256083 26.7589891,48.8003425 23.8316053,48.8003425" id="Fill-17" fill="#231F20"></path>
                                <path d="M18.5089936,62.5424795 L18.5089936,63.5575212 L18.5089936,63.9864496 L18.5089936,66.3895142 C18.5089936,69.3538267 20.9040461,71.7790925 23.8314299,71.7790925 C26.7588137,71.7790925 29.1547431,69.3538267 29.1547431,66.3895142 L29.1547431,63.9864496 L29.1547431,63.5575212 L29.1547431,62.5424795 C27.4630345,63.0344595 25.6792422,63.3026507 23.8314299,63.3026507 C21.9844945,63.3026507 20.1998252,63.0344595 18.5089936,62.5424795" id="Fill-19" fill="#FFE1AD"></path>
                                <path d="M18.5089936,59.8489336 L18.5089936,62.5423907 C20.1998252,63.0343707 21.9844945,63.3025619 23.8314299,63.3025619 C25.6792422,63.3025619 27.4630345,63.0343707 29.1547431,62.5423907 L29.1547431,59.6384657 C27.3560421,60.2006016 25.4459636,60.5043149 23.4666031,60.5043149 C21.7520928,60.5043149 20.0910788,60.2743098 18.5089936,59.8489336" id="Fill-21" fill="#D7B48A"></path>
                                <path d="M42.7299812,28.1759918 L42.7299812,36.6462172 C42.8378507,36.6462172 42.9413352,36.6622021 43.0500816,36.6542097 C45.3644513,36.4748235 47.0973783,34.4296432 46.9202268,32.0869661 C46.7509683,29.8535191 44.9057869,28.1759918 42.7299812,28.1759918" id="Fill-23" fill="#FCCA80"></path>
                                <path d="M3.88198454,28.1680881 C1.5676149,28.3474743 -0.16443513,30.3917665 0.0127163167,32.7353317 C0.181097889,34.9687787 2.02715628,36.646306 4.20208493,36.646306 L4.20208493,28.1760806 C4.09509247,28.1760806 3.99073097,28.1592076 3.88198454,28.1680881" id="Fill-25" fill="#FCCA80"></path>
                                <path d="M40.8155988,29.2352065 C44.6112001,25.0116384 45.4680167,18.6309957 42.4976605,13.4216916 C41.6083954,11.862275 39.6386818,11.3276686 38.098692,12.2281518 L35.7115324,13.6241671 C38.8783337,17.0999967 40.8155988,21.7436126 40.8155988,26.8463507 L40.8155988,29.2352065 Z" id="Fill-27" fill="#8F6C47"></path>
                                <path d="M10.7683524,10.88112 L10.1746319,10.5338922 C8.63464213,9.63340905 6.66492852,10.1680154 5.77566334,11.7274321 L5.77566334,11.7274321 C3.90417232,15.0096666 3.55776231,18.7554635 4.50140071,22.1353837 C5.27753452,17.6782583 7.54630082,13.7450828 10.7683524,10.88112" id="Fill-29" fill="#8F6C47"></path>
                                <path d="M42.7299812,27.9327548 L42.7299812,25.543899 C42.7299812,20.441161 40.7927162,15.797545 37.6259148,12.3217155 C34.1056876,8.45869588 29.0656412,6.03698224 23.4660769,6.03698224 C18.6005511,6.03698224 14.1594871,7.86814232 10.768177,10.8812976 C7.54612542,13.7452604 5.27735913,17.6784359 4.50122531,22.1355613 C4.30828809,23.2429602 4.20217262,24.3805529 4.20217262,25.543899 L4.20217262,28.1760806 L4.20217262,36.646306 L4.20217262,40.797054 L4.20743455,40.797054 C4.20655756,40.8645458 4.20217262,40.9302615 4.20217262,40.9968653 C4.20217262,50.034555 10.2726791,57.6336029 18.5093444,59.8492889 C20.0914296,60.274665 21.7515666,60.5037821 23.4660769,60.5037821 C25.4463144,60.5037821 27.3563928,60.2009569 29.1542169,59.6388209 C37.0164086,57.1815852 42.7299812,49.7654757 42.7299812,40.9968653 C42.7299812,40.9302615 42.7255963,40.8645458 42.7247193,40.797054 L42.7299812,40.797054 L42.7299812,36.646306 L42.7299812,28.1760806 L42.7299812,27.9327548 Z" id="Fill-31" fill="#FFE1AD"></path>
                                <path d="M11.2696383,32.7049604 C10.7934342,32.7049604 10.3558175,32.3888144 10.2163765,31.9030508 C10.0488719,31.3133853 10.3847581,30.6979663 10.9662007,30.5283487 C12.9622239,29.9475637 15.1432915,29.9457876 17.1375608,30.5256845 C17.7190034,30.6944141 18.0557665,31.3098331 17.8882619,31.8994986 C17.7207573,32.4882761 17.1112511,32.8283994 16.5315625,32.6587818 C14.9301836,32.1934433 13.1744549,32.1943314 11.573953,32.6614459 C11.4722224,32.6907516 11.3704919,32.7049604 11.2696383,32.7049604" id="Fill-33" fill="#BC7455"></path>
                                <path d="M25.9162919,41.2607939 C25.2532895,41.4543889 24.5525766,41.5582908 23.828185,41.5582908 C23.1055474,41.5582908 22.4074655,41.455277 21.747094,41.2634581" id="Fill-35" fill="#FCCA80"></path>
                                <path d="M23.8279219,42.4466077 C23.0386333,42.4466077 22.2572376,42.3356014 21.5047824,42.1162529 C21.0391021,41.9812693 20.769867,41.4892893 20.9040461,41.0177345 C21.0373481,40.5461797 21.5231991,40.2762124 21.9888794,40.4094199 C23.1807052,40.7566477 24.4786465,40.7566477 25.6731033,40.4076438 C26.1396606,40.2735482 26.6255116,40.5435155 26.7588137,41.0159584 C26.8929927,41.4866252 26.6246346,41.9794932 26.1589543,42.1144768 C25.4029912,42.3347134 24.6189645,42.4466077 23.8279219,42.4466077" id="Fill-37" fill="#FCCA80"></path>
                                <path d="M30.3925231,32.7049604 C29.9163189,32.7049604 29.4787023,32.3888144 29.3392613,31.9030508 C29.1717567,31.3133853 29.5076428,30.6979663 30.0890855,30.5283487 C32.0833547,29.9466756 34.2644223,29.9440115 36.2604455,30.5256845 C36.8427651,30.6944141 37.1786513,31.3098331 37.0111467,31.8994986 C36.8445191,32.4882761 36.2350129,32.8283994 35.6553242,32.6587818 C34.0521913,32.1934433 32.2964626,32.1943314 30.6968377,32.6614459 C30.5951072,32.6907516 30.4933766,32.7049604 30.3925231,32.7049604" id="Fill-39" fill="#BC7455"></path>
                                <path d="M31.8641079,36.015879 C31.4975272,36.015879 31.2510937,35.6375695 31.3870267,35.2921179 C31.6711707,34.573685 32.3648677,34.0657202 33.175204,34.0657202 C33.9864173,34.0657202 34.6801143,34.573685 34.9642582,35.2921179 C35.1001912,35.6375695 34.8537578,36.015879 34.4871771,36.015879 L31.8641079,36.015879 Z" id="Fill-41" fill="#473A4F"></path>
                                <path d="M12.8641768,36.015879 C12.4388379,36.015879 12.1301383,35.5665255 12.3134287,35.1784474 C12.6230052,34.520402 13.2851307,34.0657202 14.0524946,34.0657202 C14.8198586,34.0657202 15.481984,34.520402 15.7915606,35.1784474 C15.9748509,35.5665255 15.6661514,36.015879 15.2408125,36.015879 L12.8641768,36.015879 Z" id="Fill-43" fill="#473A4F"></path>
                                <rect id="Rectangle-6" fill="#8F6C47" x="14.0388046" y="43.8043432" width="19.781952" height="12.3732911" rx="6.18664555"></rect>
                                <path d="M28.5078773,47.0242415 C29.8163424,47.0242415 30.6950837,48.3749663 30.2092327,49.6049162 C29.1971893,52.1669418 26.723208,53.9767887 23.8317807,53.9767887 C20.9403533,53.9767887 18.466372,52.1669418 17.4543286,49.6049162 C16.9684776,48.3749663 17.8472189,47.0242415 19.1556841,47.0242415 L28.5078773,47.0242415 Z" id="Fill-45" fill="#473A4F"></path>
                                <path d="M35.6088439,39.8709949 C35.6088439,40.5192718 34.5704909,41.0449976 33.2900893,41.0449976 C32.0096878,41.0449976 30.9722117,40.5192718 30.9722117,39.8709949 C30.9722117,39.2227181 32.0096878,38.6969922 33.2900893,38.6969922 C34.5704909,38.6969922 35.6088439,39.2227181 35.6088439,39.8709949" id="Fill-47" fill="#FBC39C"></path>
                                <path d="M15.9603806,39.8709949 C15.9603806,40.5192718 14.9220276,41.0449976 13.6416261,41.0449976 C12.3612245,41.0449976 11.3237485,40.5192718 11.3237485,39.8709949 C11.3237485,39.2227181 12.3612245,38.6969922 13.6416261,38.6969922 C14.9220276,38.6969922 15.9603806,39.2227181 15.9603806,39.8709949" id="Fill-49" fill="#FBC39C"></path>
                                <path d="M26.9242135,49.4035063 L20.7782861,49.4035063 C19.7302862,49.4035063 18.8804854,48.5429854 18.8804854,47.4826532 L18.8804854,47.0244191 L28.8211371,47.0244191 L28.8211371,47.4826532 C28.8211371,48.5429854 27.9722134,49.4035063 26.9242135,49.4035063" id="Fill-51" fill="#FEFEFE"></path>
                                <path d="M23.8327453,51.4016199 C22.4962166,51.4016199 21.3175456,52.1049559 20.6299875,53.1617359 C21.5876577,53.6750291 22.6733681,53.9769663 23.8327453,53.9769663 C24.9921226,53.9769663 26.077833,53.6750291 27.0355032,53.1617359 C26.3479451,52.1049559 25.1692741,51.4016199 23.8327453,51.4016199" id="Fill-53" fill="#F3795D"></path>
                                <g id="Group-4-Copy" transform="translate(24.160519, 14.886869) scale(-1, 1) translate(-24.160519, -14.886869) translate(4.928369, 0.000000)">
                                    <path d="M36.8735113,13.6516471 C36.8735113,21.989553 30.1943756,27.1207086 20.0818344,27.1207086 C6.76916631,27.1207086 0.201407986,20.881266 0.201407986,12.5433601 C0.201407986,5.34482293 10.955027,-4.42639646 22.1971279,5.92205574 C31.351122,14.3478787 36.8735113,5.31374116 36.8735113,13.6516471" id="Fill-57" fill="#6C5338" transform="translate(18.537460, 14.271502) scale(1, -1) translate(-18.537460, -14.271502) "></path>
                                    <path d="M20.7199619,29.7667443 C7.40729379,29.7667443 0.839535468,23.5273016 0.839535468,15.1893957 C0.839535468,-5.76314318 11.5931545,-1.78036084 22.8352554,8.56809136 C31.9892494,16.9939143 37.5116388,7.95977678 37.5116388,16.2976827 C37.5116388,24.6355886 30.8325031,29.7667443 20.7199619,29.7667443 Z" id="Fill-57" fill="#8F6C47" transform="translate(19.175587, 14.943294) scale(1, -1) translate(-19.175587, -14.943294) "></path>
                                </g>
                                <path d="M42.6085044,42.8786037 C39.6156814,50.8288772 35.5332878,54.804014 30.3613235,54.804014 C25.1893593,54.804014 23.0607552,55.1870932 23.9755115,55.9532518 L23.9755115,60.7691519 C31.1441743,60.2618394 35.8609854,58.2734601 38.1259446,54.804014 C40.3909039,51.3345678 41.8850905,47.359431 42.6085044,42.8786037 Z" id="Path-3" fill="#8F6C47"></path>
                                <path d="M4.45244596,42.9986752 C7.44526894,50.9489487 11.5276626,54.9240855 16.6996268,54.9240855 C21.8715911,54.9240855 24.0001951,55.3071648 23.0854389,56.0733233 L23.0854389,60.8892234 C15.916776,60.381911 11.199965,58.3935317 8.93500569,54.9240855 C6.67004642,51.4546393 5.17585984,47.4795026 4.45244596,42.9986752 Z" id="Path-3" fill="#8F6C47"></path>
                                <polygon id="Rectangle" fill="#8F6C47" points="21.0582069 55.5264085 25.5250993 55.5264085 25.5250993 60.7362152 21.0582069 60.7362152"></polygon>
                            </g>
                        </g>
                    </g>
                    <g id="Group-12-Copy" transform="translate(59.000000, 0.000000)">
                        <g id="Danny">
                            <g>
                                <g>
                                    <g id="boy_1" transform="translate(0.000000, 6.654320)">
                                        <path d="M9.61265124,80.3690036 C8.87215151,80.3690036 8.27278441,80.9834916 8.27278441,81.7406286 L8.27278441,87.2271285 L10.9525181,87.2271285 L10.9525181,81.7406286 C10.9525181,80.9834916 10.353151,80.3690036 9.61265124,80.3690036 L9.61265124,80.3690036 Z" id="Fill-1" fill="#3A3A3A"></path>
                                        <path d="M39.0940983,80.3787878 C38.3598513,80.3787878 37.763164,80.9887037 37.763164,81.7403542 L37.763164,87.2268542 L40.4241395,87.2268542 L40.4241395,81.7403542 C40.4241395,80.9887037 39.8283454,80.3787878 39.0940983,80.3787878" id="Fill-3" fill="#3A3A3A"></path>
                                        <path d="M17.4533733,59.5535884 C17.3631556,59.5764488 17.2782973,59.6066246 17.1880796,59.6303994 C17.2756176,59.6093678 17.3658353,59.5938227 17.4533733,59.57462 L17.4533733,59.5535884 Z" id="Fill-5" fill="#D0D2D3"></path>
                                        <path d="M31.8505996,59.7725912 L31.8505996,62.7252426 C31.8505996,66.9763657 28.4482311,70.0396615 24.2937507,70.0305173 C20.1383771,70.0396615 16.7360086,66.9763657 16.7360086,62.7252426 L16.7360086,59.7607038 C7.50879235,62.3658769 0.862159641,69.5989127 0.862159641,78.1340778 L0.862159641,85.4905599 C0.862159641,86.4497829 1.62141751,87.2270371 2.55843104,87.2270371 L8.27251644,87.2270371 L8.27251644,81.7405371 C8.27251644,80.9834001 8.87277678,80.3689121 9.61238327,80.3689121 C10.352883,80.3689121 10.9522501,80.9834001 10.9522501,81.7405371 L10.9522501,87.2270371 L21.4612722,97.4959362 C23.0476746,99.0467869 25.5433998,99.0531878 27.1378414,97.5096525 L37.7629853,87.2270371 L37.7629853,81.7405371 C37.7629853,80.9888866 38.3596727,80.3789707 39.0939197,80.3789707 C39.8281667,80.3789707 40.4239608,80.9888866 40.4239608,81.7405371 L40.4239608,87.2270371 L46.7007903,87.2270371 C47.243883,87.2270371 47.6842525,86.7762297 47.6842525,86.2193499 L47.6842525,78.1340778 C47.6842525,69.6117145 41.0572712,62.3869084 31.8505996,59.7725912" id="Fill-7" fill="#303030"></path>
                                        <path d="M31.0934855,59.5535884 L31.0934855,59.5654758 C31.1452937,59.5773632 31.1988884,59.5874218 31.2506966,59.5993092 C31.1971019,59.585593 31.1470802,59.5673047 31.0934855,59.5535884" id="Fill-9" fill="#D0D2D3"></path>
                                        <path d="M24.2933041,70.030243 C28.4477845,70.0403016 31.850153,66.9760913 31.850153,62.7249683 L31.850153,59.7723169 L31.850153,59.7256816 C31.6545324,59.6763031 31.4490862,59.645213 31.2507859,59.5994921 C31.1989777,59.5866903 31.145383,59.5775461 31.0935749,59.5656587 C30.5710268,59.447699 30.0520517,59.3233383 29.5169982,59.2318966 C27.8314458,59.568402 26.0949783,59.759515 24.3129555,59.759515 L24.2736527,59.759515 C22.4916298,59.759515 20.7551624,59.568402 19.06961,59.2318966 C18.5211578,59.3251671 17.988784,59.452271 17.4537306,59.5738885 C17.3652993,59.5940056 17.2759749,59.6095507 17.1884369,59.6305823 C17.0392651,59.6653301 16.8838405,59.6881905 16.7355619,59.7256816 L16.7355619,59.7613439 L16.7355619,62.7249683 C16.7355619,66.9760913 20.1388237,70.0403016 24.2933041,70.030243" id="Fill-11" fill="#565656"></path>
                                        <path d="M24.2733847,44.036852 C21.2917344,44.036852 18.8522836,46.534124 18.8522836,49.5864468 L18.8522836,50.02811 C18.8522836,46.9757872 21.2917344,44.4785153 24.2733847,44.4785153 C27.255035,44.4785153 29.6944859,46.9757872 29.6944859,50.02811 L29.6944859,49.5864468 C29.6944859,46.534124 27.255035,44.036852 24.2733847,44.036852" id="Fill-17" fill="#231F20"></path>
                                        <path d="M18.8521049,58.1869927 L18.8521049,59.232171 L18.8521049,59.6738342 L18.8521049,62.1482457 C18.8521049,65.2005685 21.2915558,67.6978404 24.2732061,67.6978404 C27.2548564,67.6978404 29.6952005,65.2005685 29.6952005,62.1482457 L29.6952005,59.6738342 L29.6952005,59.232171 L29.6952005,58.1869927 C27.9721318,58.6935795 26.1552724,58.9697334 24.2732061,58.9697334 C22.3920331,58.9697334 20.5742804,58.6935795 18.8521049,58.1869927" id="Fill-19" fill="#FFE1AD"></path>
                                        <path d="M18.8521049,55.4134755 L18.8521049,58.1869013 C20.5742804,58.6934881 22.3920331,58.9696419 24.2732061,58.9696419 C26.1552724,58.9696419 27.9721318,58.6934881 29.6952005,58.1869013 L29.6952005,55.1967588 C27.8631559,55.7755845 25.9176693,56.088315 23.9016164,56.088315 C22.1553233,56.088315 20.4635181,55.8514811 18.8521049,55.4134755" id="Fill-21" fill="#D7B48A"></path>
                                        <path d="M43.5220902,22.8001651 L43.5220902,31.5218713 C43.6319593,31.5218713 43.7373622,31.5383308 43.8481245,31.530101 C46.2053969,31.3453888 47.9704481,29.2394873 47.7900127,26.8272561 C47.6176165,24.5274982 45.73823,22.8001651 43.5220902,22.8001651" id="Fill-23" fill="#FCCA80"></path>
                                        <path d="M3.95394701,22.7920268 C1.59667464,22.976739 -0.167483353,25.0817261 0.012952046,27.4948717 C0.184455,29.7946296 2.06473478,31.5219627 4.27998127,31.5219627 L4.27998127,22.8002566 C4.17100543,22.8002566 4.06470933,22.7828827 3.95394701,22.7920268" id="Fill-25" fill="#FCCA80"></path>
                                        <path d="M41.5722198,23.8908278 C45.4381822,19.5418622 46.3108822,12.9717785 43.2854629,7.60781031 C42.3797129,6.00209465 40.3734856,5.45161582 38.8049482,6.37883432 L36.3735365,7.81629731 C39.5990426,11.3953241 41.5722198,16.1768089 41.5722198,21.431047 L41.5722198,23.8908278 Z" id="Fill-27" fill="#F2BA28"></path>
                                        <path d="M10.9679712,4.99180916 L10.3632446,4.63427225 C8.7947072,3.70705375 6.78847994,4.25753258 5.88272997,5.86324824 L5.88272997,5.86324824 C3.97654609,9.24293223 3.6237145,13.0999417 4.58484563,16.5802115 C5.37536706,11.9907543 7.68619072,7.9408029 10.9679712,4.99180916" id="Fill-29" fill="#F2BA28"></path>
                                        <path d="M43.5220902,22.5497064 L43.5220902,20.0899256 C43.5220902,14.8356874 41.548913,10.0542027 38.3234069,6.47517587 C34.7379233,2.49746339 29.6044469,0.00384914618 23.9010804,0.00384914618 C18.9453596,0.00384914618 14.4219692,1.88937631 10.9677925,4.99199205 C7.68601207,7.94098579 5.37518841,11.9909372 4.58466698,16.5803944 C4.38815318,17.720672 4.28007059,18.8920397 4.28007059,20.0899256 L4.28007059,22.8002566 L4.28007059,31.5219627 L4.28007059,35.7959462 L4.28543006,35.7959462 C4.28453681,35.8654419 4.28007059,35.9331087 4.28007059,36.0016899 C4.28007059,45.3077083 10.4631094,53.1323717 18.8524622,55.4138413 C20.4638754,55.8518469 22.1547873,56.0877664 23.9010804,56.0877664 C25.9180266,56.0877664 27.8635132,55.7759503 29.6946646,55.1971245 C37.702602,52.6669336 43.5220902,45.0306401 43.5220902,36.0016899 C43.5220902,35.9331087 43.517624,35.8654419 43.5167308,35.7959462 L43.5220902,35.7959462 L43.5220902,31.5219627 L43.5220902,22.8002566 L43.5220902,22.5497064 Z" id="Fill-31" fill="#FFE1AD"></path>
                                        <path d="M11.4785498,27.4635987 C10.993518,27.4635987 10.547789,27.1380663 10.4057631,26.6378804 C10.2351534,26.0307078 10.577266,25.397017 11.1694872,25.2223634 C13.2025118,24.6243349 15.424011,24.6225061 17.4552491,25.2196202 C18.0474702,25.3933593 18.3904761,26.0270501 18.2198664,26.6342228 C18.0492567,27.240481 17.4284517,27.5907026 16.8380171,27.416049 C15.2069525,26.9368947 13.4186769,26.9378091 11.7885056,27.4187923 C11.6848893,27.448968 11.5812729,27.4635987 11.4785498,27.4635987" id="Fill-33" fill="#BC7455"></path>
                                        <path d="M26.3967164,36.2734546 C25.7214235,36.4727974 25.0077211,36.5797842 24.2699011,36.5797842 C23.5338676,36.5797842 22.8228449,36.4737118 22.1502318,36.2761978" id="Fill-35" fill="#FCCA80"></path>
                                        <path d="M24.2696331,37.4944751 C23.465713,37.4944751 22.6698321,37.3801731 21.9034283,37.1543121 C21.4291154,37.0153208 21.1548894,36.508734 21.2915558,36.0231787 C21.4273289,35.5376235 21.9221864,35.2596408 22.3964993,35.3968033 C23.6104186,35.7543402 24.9324206,35.7543402 26.1490196,35.3949745 C26.6242257,35.2568976 27.1190832,35.5348802 27.2548564,36.0213499 C27.3915228,36.5059907 27.11819,37.013492 26.6438771,37.1524833 C25.8739003,37.3792586 25.0753397,37.4944751 24.2696331,37.4944751" id="Fill-37" fill="#FCCA80"></path>
                                        <path d="M30.9559259,27.4635987 C30.4708941,27.4635987 30.0251651,27.1380663 29.8831392,26.6378804 C29.7125295,26.0307078 30.0546421,25.397017 30.6468633,25.2223634 C32.6781014,24.6234205 34.8996006,24.6206773 36.9326252,25.2196202 C37.5257395,25.3933593 37.8678522,26.0270501 37.6972425,26.6342228 C37.527526,27.240481 36.9067211,27.5907026 36.3162864,27.416049 C34.6834354,26.9368947 32.8951598,26.9378091 31.2658817,27.4187923 C31.1622654,27.448968 31.058649,27.4635987 30.9559259,27.4635987" id="Fill-39" fill="#BC7455"></path>
                                        <g id="Group" transform="translate(12.349179, 28.834111)" fill="#473A4F">
                                            <path d="M20.105611,2.03870736 C19.7322348,2.03870736 19.4812331,1.64916586 19.619686,1.29345777 C19.9090972,0.553694694 20.6156537,0.0306483624 21.4410116,0.0306483624 C22.2672628,0.0306483624 22.9738193,0.553694694 23.2632305,1.29345777 C23.4016834,1.64916586 23.1506817,2.03870736 22.7773055,2.03870736 L20.105611,2.03870736 Z" id="Fill-41"></path>
                                            <path d="M0.753467824,2.03870736 C0.320244217,2.03870736 0.0058221346,1.57601252 0.192510246,1.17641244 C0.507825572,0.498829694 1.18222521,0.0306483624 1.96381419,0.0306483624 C2.74540317,0.0306483624 3.41980281,0.498829694 3.73511814,1.17641244 C3.92180625,1.57601252 3.60738417,2.03870736 3.17416056,2.03870736 L0.753467824,2.03870736 Z" id="Fill-43"></path>
                                        </g>
                                        <path d="M29.0363433,42.2080187 C30.3690642,42.2080187 31.2640952,43.5988465 30.7692378,44.8653135 C29.7384336,47.5034056 27.2185907,49.3669868 24.2735634,49.3669868 C21.3285361,49.3669868 18.8086932,47.5034056 17.777889,44.8653135 C17.2830315,43.5988465 18.1780626,42.2080187 19.5107834,42.2080187 L29.0363433,42.2080187 Z" id="Fill-45" fill="#473A4F"></path>
                                        <path d="M36.2689445,34.8423925 C36.2689445,35.5099167 35.2113429,36.0512513 33.9072059,36.0512513 C32.6030688,36.0512513 31.5463605,35.5099167 31.5463605,34.8423925 C31.5463605,34.1748683 32.6030688,33.6335337 33.9072059,33.6335337 C35.2113429,33.6335337 36.2689445,34.1748683 36.2689445,34.8423925" id="Fill-47" fill="#FBC39C"></path>
                                        <path d="M16.2562469,34.8423925 C16.2562469,35.5099167 15.1986454,36.0512513 13.8945083,36.0512513 C12.5903713,36.0512513 11.533663,35.5099167 11.533663,34.8423925 C11.533663,34.1748683 12.5903713,33.6335337 13.8945083,33.6335337 C15.1986454,33.6335337 16.2562469,34.1748683 16.2562469,34.8423925" id="Fill-49" fill="#FBC39C"></path>
                                        <path d="M27.4233223,44.6579238 L21.1634645,44.6579238 C20.0960373,44.6579238 19.2304833,43.7718541 19.2304833,42.6800406 L19.2304833,42.2082016 L29.3554103,42.2082016 L29.3554103,42.6800406 C29.3554103,43.7718541 28.4907496,44.6579238 27.4233223,44.6579238" id="Fill-51" fill="#FEFEFE"></path>
                                        <path d="M24.274546,46.7153613 C22.9132413,46.7153613 21.7127206,47.4395793 21.0124169,48.5277352 C21.9878399,49.056268 23.0936767,49.3671697 24.274546,49.3671697 C25.4554153,49.3671697 26.561252,49.056268 27.5366751,48.5277352 C26.8363713,47.4395793 25.6358507,46.7153613 24.274546,46.7153613" id="Fill-53" fill="#F3795D"></path>
                                    </g>
                                    <g id="Group-4" transform="translate(26.091062, 14.968868) scale(-1, 1) translate(-26.091062, -14.968868) translate(5.731879, -0.000000)">
                                        <g id="Group-8" transform="translate(20.293535, 15.197320) scale(-1, -1) translate(-20.293535, -15.197320) translate(0.636392, 0.941255)">
                                            <path d="M38.2070126,13.2090789 C38.2070126,21.7945369 31.4040621,27.0780364 21.1040591,27.0780364 C7.54460684,27.0780364 0.855098396,20.6533449 0.855098396,12.0678869 C0.855098396,4.65562541 11.8080631,-5.40570114 23.258565,5.24999624 C32.5822516,13.9259815 38.2070126,4.62362083 38.2070126,13.2090789" id="Fill-57" fill="#D39B29" transform="translate(19.531055, 13.847337) scale(1, -1) translate(-19.531055, -13.847337) "></path>
                                            <path d="M37.5570558,13.8796396 C37.5570558,22.4650977 30.7541053,27.7485971 20.4541023,27.7485971 C6.89465004,27.7485971 0.205141595,21.3239057 0.205141595,12.7384476 C0.205141595,5.32618613 11.1581063,-4.73514042 22.6086082,5.92055696 C31.9322948,14.5965423 37.5570558,5.29418155 37.5570558,13.8796396" id="Fill-57" fill="#F2BA28" transform="translate(18.881099, 14.517898) scale(1, -1) translate(-18.881099, -14.517898) "></path>
                                        </g>
                                    </g>
                                </g>
                                <ellipse id="Oval-Copy" fill="#E9EAEC" cx="24" cy="120.679245" rx="21.7142857" ry="2.32075472"></ellipse>
                            </g>
                        </g>
                    </g>
                </g>
            </g>
        </g>
    </g>
</svg>