<?xml version="1.0" encoding="UTF-8"?>
<svg width="156px" height="96px" viewBox="0 0 156 96" version="1.1" xmlns="http://www.w3.org/2000/svg" xmlns:xlink="http://www.w3.org/1999/xlink">
    <!-- Generator: Sketch 55.1 (78136) - https://sketchapp.com -->
    <title>Group 29</title>
    <desc>Created with Sketch.</desc>
    <defs>
        <polygon id="path-1" points="0.000293290231 7.64548393 17.5977072 7.64548393 17.5977072 0.0420501616 0.000293290231 0.0420501616 0.000293290231 7.64548393"></polygon>
        <polygon id="path-3" points="14.5102409 9.62464627 14.5102409 0.181874149 0.285305023 0.181874149 0.285305023 9.62464627 14.5102409 9.62464627"></polygon>
        <polygon id="path-5" points="0.00032006944 8.9386566 19.2044865 8.9386566 19.2044865 0.528902166 0.00032006944 0.528902166 0.00032006944 8.9386566"></polygon>
    </defs>
    <g id="Website-" stroke="none" stroke-width="1" fill="none" fill-rule="evenodd">
        <g id="Group-29">
            <g id="Group-39" transform="translate(35.000000, 0.000000)">
                <g id="Group-44" transform="translate(0.000000, 5.714286)">
                    <g id="Group-2" transform="translate(45.120000, -0.000000)">
                        <g id="shadow-copy" transform="translate(0.000000, 65.868785)">
                            <ellipse id="Oval-Copy" fill="#F7F9FA" cx="25.2229599" cy="2.94057074" rx="25.2229599" ry="2.94057074"></ellipse>
                            <ellipse id="Oval" fill="#E9EAEC" cx="24.9296697" cy="2.94057074" rx="10.2651581" ry="1.1762283"></ellipse>
                        </g>
                        <g id="Person-7" transform="translate(8.798707, 0.000000)">
                            <path d="M31.675345,15.8791408 C31.675345,24.649099 24.5847604,31.7582228 15.8376725,31.7582228 C7.09058464,31.7582228 0,24.649099 0,15.8791408 C0,7.10918264 7.09058464,5.88114148e-05 15.8376725,5.88114148e-05 C24.5847604,5.88114148e-05 31.675345,7.10918264 31.675345,15.8791408" id="Fill-1" fill="#0E0F0E"></path>
                            <path d="M30.5021841,23.3659516 C30.5021841,24.8274152 29.3202244,26.0124652 27.862572,26.0124652 C26.4049195,26.0124652 25.2229599,24.8274152 25.2229599,23.3659516 C25.2229599,21.9044879 26.4049195,20.7194379 27.862572,20.7194379 C29.3202244,20.7194379 30.5021841,21.9044879 30.5021841,23.3659516" id="Fill-3" fill="#8C7052"></path>
                            <path d="M6.45238509,23.3659516 C6.45238509,24.8274152 5.27042546,26.0124652 3.81277301,26.0124652 C2.35512056,26.0124652 1.17316093,24.8274152 1.17316093,23.3659516 C1.17316093,21.9044879 2.35512056,20.7194379 3.81277301,20.7194379 C5.27042546,20.7194379 6.45238509,21.9044879 6.45238509,23.3659516" id="Fill-5" fill="#FDCC85"></path>
                            <path d="M11.7316093,41.5679668 C5.57662046,41.5679668 0.586580463,46.5710539 0.586580463,52.7421357 L0.586580463,58.035163 C0.586580463,59.3343071 1.63714607,60.3876196 2.93290231,60.3876196 L28.7424427,60.3876196 C30.0381989,60.3876196 31.0887645,59.3343071 31.0887645,58.035163 L31.0887645,52.7421357 C31.0887645,46.5710539 26.0987245,41.5679668 19.9437357,41.5679668 L11.7316093,41.5679668 Z" id="Fill-7" fill="#AAABAE"></path>
                            <path d="M20.0909674,41.5754359 L20.5303162,46.8608177 L17.2689288,46.7208466 L15.8376725,50.3895026 L14.4064162,46.7208466 L12.3181897,46.8608177 L12.3181897,41.5677904 L11.7316093,41.5677904 C5.57662046,41.5677904 0.586580463,46.5708775 0.586580463,52.7419592 L0.586580463,58.0349866 C0.586580463,59.3341307 1.63714607,60.3874432 2.93290231,60.3874432 L28.7424427,60.3874432 C30.0381989,60.3874432 31.0887645,59.3341307 31.0887645,58.0349866 L31.0887645,52.7419592 C31.0887645,46.6208672 26.1773263,41.6554194 20.0909674,41.5754359" id="Fill-9" fill="#F1F2F1"></path>
                            <g id="Group-13" transform="translate(7.038966, 60.345805)">
                                <mask id="mask-2" fill="white">
                                    <use xlink:href="#path-1"></use>
                                </mask>
                                <g id="Clip-12"></g>
                                <path d="M6.72485172,6.78419076 L0.000293290231,0.0420501616 L17.5977072,0.0420501616 L10.8725622,6.78419076 C9.72697053,7.93277769 7.87044336,7.93277769 6.72485172,6.78419076" id="Fill-11" fill="#F1F2F1" mask="url(#mask-2)"></path>
                            </g>
                            <path d="M15.8376725,46.8609942 L15.8376725,46.8609942 C13.8937448,46.8609942 12.3181897,45.2813196 12.3181897,43.3323093 L12.3181897,35.0987112 L19.3571553,35.0987112 L19.3571553,43.3323093 C19.3571553,45.2813196 17.7816002,46.8609942 15.8376725,46.8609942" id="Fill-14" fill="#B68F65"></path>
                            <path d="M19.3571553,39.8036244 C19.3571553,39.8036244 16.7298614,40.3917385 15.8376725,40.3917385 C14.9454836,40.3917385 12.3181897,39.8036244 12.3181897,39.8036244 L12.3181897,38.6273961 C12.3181897,38.6273961 14.9454836,39.2155102 15.8376725,39.2155102 C16.7298614,39.2155102 19.3571553,38.6273961 19.3571553,38.6273961 L19.3571553,39.8036244 Z" id="Fill-16" fill="#292929" opacity="0.200000003"></path>
                            <path d="M6.15909486,55.9769399 C5.67281966,55.9769399 5.27922417,56.3721526 5.27922417,56.8591111 L5.27922417,60.387796 L7.03896556,60.387796 L7.03896556,56.8591111 C7.03896556,56.3721526 6.64537006,55.9769399 6.15909486,55.9769399" id="Fill-18" fill="#292929" opacity="0.200000003"></path>
                            <path d="M25.5162501,55.9769399 C25.0299749,55.9769399 24.6363794,56.3721526 24.6363794,56.8591111 L24.6363794,60.387796 L26.3961208,60.387796 L26.3961208,56.8591111 C26.3961208,56.3721526 26.0025253,55.9769399 25.5162501,55.9769399" id="Fill-20" fill="#292929" opacity="0.200000003"></path>
                            <path d="M15.8369099,31.8292082 C13.8789044,31.8292082 12.2769531,33.435348 12.2769531,35.398473 L12.2769531,35.6825321 C12.2769531,33.7194071 13.8789044,32.1132673 15.8369099,32.1132673 C17.7949155,32.1132673 19.3968668,33.7194071 19.3968668,35.6825321 L19.3968668,35.398473 C19.3968668,33.435348 17.7949155,31.8292082 15.8369099,31.8292082" id="Fill-22" fill="#373535"></path>
                            <path d="M15.8376725,39.2155102 L15.8376725,39.2155102 C8.71071988,39.2155102 2.93290231,33.4225859 2.93290231,26.276999 L2.93290231,15.1028301 C2.93290231,7.95724324 8.71071988,2.16431888 15.8376725,2.16431888 L15.8376725,2.16431888 C22.9646251,2.16431888 28.7424427,7.95724324 28.7424427,15.1028301 L28.7424427,26.276999 C28.7424427,33.4225859 22.9646251,39.2155102 15.8376725,39.2155102" id="Fill-24" fill="#B68F65"></path>
                            <path d="M17.2312117,26.8361191 C16.7877569,26.964328 16.3190791,27.0331373 15.8345636,27.0331373 C15.3512213,27.0331373 14.8843033,26.9649161 14.4426082,26.8378834" id="Fill-26" fill="#FDCC85"></path>
                            <path d="M15.8344463,27.6214279 C15.3065239,27.6214279 14.7838807,27.5479136 14.2805947,27.4026495 C13.9691204,27.3132561 13.7890402,26.9874409 13.878787,26.6751522 C13.9679473,26.3628636 14.2929129,26.1840769 14.6043871,26.2722941 C15.4015499,26.5022467 16.269689,26.5022467 17.0686116,26.2711178 C17.3806724,26.1823126 17.705638,26.3610993 17.7947982,26.673976 C17.884545,26.9856765 17.7050514,27.3120799 17.3935772,27.4014732 C16.8879448,27.5473255 16.3635419,27.6214279 15.8344463,27.6214279" id="Fill-28" fill="#997862"></path>
                            <path d="M18.9646743,30.6529799 C19.8398523,30.6529799 20.427606,31.5475015 20.1026404,32.3620396 C19.4257265,34.058749 17.770983,35.2573256 15.8370273,35.2573256 C13.9030715,35.2573256 12.248328,34.058749 11.5714141,32.3620396 C11.2464486,31.5475015 11.8342022,30.6529799 12.7093802,30.6529799 L18.9646743,30.6529799 Z" id="Fill-30" fill="#524758"></path>
                            <path d="M25.25399,29.0033197 C25.25399,29.4326431 24.5594787,29.7808066 23.7030713,29.7808066 C22.8466638,29.7808066 22.1527391,29.4326431 22.1527391,29.0033197 C22.1527391,28.5739964 22.8466638,28.2258328 23.7030713,28.2258328 C24.5594787,28.2258328 25.25399,28.5739964 25.25399,29.0033197" id="Fill-32" fill="#997862"></path>
                            <path d="M9.0324006,29.0033197 C9.0324006,29.4326431 8.33788933,29.7808066 7.48148186,29.7808066 C6.62507438,29.7808066 5.93114969,29.4326431 5.93114969,29.0033197 C5.93114969,28.5739964 6.62507438,28.2258328 7.48148186,28.2258328 C8.33788933,28.2258328 9.0324006,28.5739964 9.0324006,29.0033197" id="Fill-34" fill="#997862"></path>
                            <path d="M17.9054273,32.2286553 L13.7946714,32.2286553 C13.0937078,32.2286553 12.5253113,31.6587727 12.5253113,30.9565644 L12.5253113,30.6530975 L19.1742008,30.6530975 L19.1742008,30.9565644 C19.1742008,31.6587727 18.6063909,32.2286553 17.9054273,32.2286553" id="Fill-36" fill="#FEFEFE"></path>
                            <path d="M15.8376725,33.551971 C14.9437239,33.551971 14.1553597,34.0177574 13.6954806,34.7176132 C14.3360265,35.0575432 15.0622131,35.257502 15.8376725,35.257502 C16.6131319,35.257502 17.3393185,35.0575432 17.9798644,34.7176132 C17.5199853,34.0177574 16.7316211,33.551971 15.8376725,33.551971" id="Fill-38" fill="#F37F65"></path>
                            <path d="M22.0522579,26.1394979 C20.2948628,26.1394979 18.8647796,24.7056756 18.8647796,22.9436856 C18.8647796,21.1811075 20.2948628,19.7472852 22.0522579,19.7472852 C23.8096529,19.7472852 25.2397361,21.1811075 25.2397361,22.9436856 C25.2397361,24.7056756 23.8096529,26.1394979 22.0522579,26.1394979 M9.65312005,26.1394979 C7.8951384,26.1394979 6.46564181,24.7056756 6.46564181,22.9436856 C6.46564181,21.1811075 7.8951384,19.7472852 9.65312005,19.7472852 C11.4105151,19.7472852 12.8405983,21.1811075 12.8405983,22.9436856 C12.8405983,24.7056756 11.4105151,26.1394979 9.65312005,26.1394979 M22.0522579,18.5734094 C20.2860641,18.5734094 18.7656475,19.6331911 18.0816947,21.1505256 L17.6781274,21.034079 C16.6070314,20.7241428 15.473758,20.7241428 14.4020755,21.034079 L13.6694365,21.2458001 C13.0071871,19.6767115 11.4562684,18.5734094 9.65312005,18.5734094 C7.24931331,18.5734094 5.29424063,20.5335938 5.29424063,22.9436856 C5.29424063,25.3531893 7.24931331,27.3139618 9.65312005,27.3139618 C12.0569268,27.3139618 14.0119995,25.3531893 14.0119995,22.9436856 C14.0119995,22.7525485 13.9955752,22.5655282 13.9715254,22.3802722 L14.7270411,22.1620819 C15.5857948,21.9133096 16.494408,21.9133096 17.3537484,22.1620819 L17.7496902,22.2767642 C17.7162551,22.4949545 17.6933785,22.7160854 17.6933785,22.9436856 C17.6933785,25.3531893 19.6484511,27.3139618 22.0522579,27.3139618 C24.4560646,27.3139618 26.4111373,25.3531893 26.4111373,22.9436856 C26.4111373,20.5335938 24.4560646,18.5734094 22.0522579,18.5734094" id="Fill-40" fill="#2D2D2D"></path>
                            <path d="M22.8916545,23.0423712 C22.8916545,23.5293297 22.4974724,23.9245424 22.0117838,23.9245424 C21.5260952,23.9245424 21.1319131,23.5293297 21.1319131,23.0423712 C21.1319131,22.5554126 21.5260952,22.1601999 22.0117838,22.1601999 C22.4974724,22.1601999 22.8916545,22.5554126 22.8916545,23.0423712" id="Fill-42" fill="#2D2D2D"></path>
                            <path d="M10.5734648,23.0423712 C10.5734648,23.5293297 10.1792827,23.9245424 9.6935941,23.9245424 C9.20790548,23.9245424 8.8137234,23.5293297 8.8137234,23.0423712 C8.8137234,22.5554126 9.20790548,22.1601999 9.6935941,22.1601999 C10.1792827,22.1601999 10.5734648,22.5554126 10.5734648,23.0423712" id="Fill-44" fill="#2D2D2D"></path>
                            <g id="Group-48" transform="translate(17.597414, 2.710618)">
                                <mask id="mask-4" fill="white">
                                    <use xlink:href="#path-3"></use>
                                </mask>
                                <g id="Clip-47"></g>
                                <path d="M14.3830116,2.82671184 C15.067551,5.96430083 12.9505821,8.45202368 9.10730693,9.29537936 C4.04746385,10.4051508 1.03889266,8.60493335 0.353766677,5.46734437 C-0.236919849,2.75790249 3.04734416,-1.81527313 8.17053793,1.14117669 C12.341125,3.54891602 13.6984722,-0.310877139 14.3830116,2.82671184" id="Fill-46" fill="#4D4C4E" mask="url(#mask-4)"></path>
                            </g>
                            <path d="M20.0309603,16.2790584 C23.1938021,16.2790584 26.174804,15.2633853 28.6319896,13.4331741 C28.5750913,12.989736 28.4959029,12.5533553 28.3950111,12.1246201 C26.0539684,14.035403 23.1386635,15.1028301 20.0309603,15.1028301 C14.1446253,15.1028301 9.05838612,11.2212768 7.34850407,5.76357747 C7.0323372,6.07998288 6.73435432,6.41461983 6.45220912,6.76219529 C8.50289442,12.3581014 13.8607204,16.2790584 20.0309603,16.2790584" id="Fill-49" fill="#292929" opacity="0.200000003"></path>
                            <path d="M15.6893263,0.0454024123 C11.8595425,0.0454024123 8.34885839,1.41276781 5.61422027,3.68641711 C6.46828142,10.559119 12.3112094,15.8791996 19.3971014,15.8791996 C23.9272623,15.8791996 27.9500311,13.7043535 30.4864051,10.3403406 C28.2462543,4.32746153 22.4672636,0.0454024123 15.6893263,0.0454024123" id="Fill-51" fill="#4D4C4E"></path>
                            <path d="M4.94768889,4.94004123 C2.40544916,7.60537455 0.779448119,11.1569959 0.586463147,15.088539 C1.12318427,15.2620326 1.69451364,15.3584834 2.28871965,15.3584834 C5.34597702,15.3584834 7.82427948,12.873113 7.82427948,9.80786203 C7.82427948,7.70888264 6.661677,5.88337632 4.94768889,4.94004123" id="Fill-53" fill="#4D4C4E"></path>
                            <path d="M5.45420112,18.8297683 C5.62372287,18.8297683 5.79148488,18.7568422 5.90762782,18.6156948 C6.5417213,17.8423247 7.65622418,17.0460181 10.6753538,17.7476383 C10.9903475,17.8229169 11.307101,17.6247224 11.379837,17.308317 C11.4531595,16.9919116 11.2566551,16.6755062 10.9410748,16.60258 C8.13311409,15.948009 6.2472579,16.3514553 5.00194758,17.8676136 C4.79605784,18.1187383 4.83183925,18.4892502 5.08172252,18.6956783 C5.19141307,18.7862479 5.3228071,18.8297683 5.45420112,18.8297683" id="Fill-55" fill="#4D4C4E"></path>
                            <path d="M20.5094339,17.7477559 C23.5273904,17.0455476 24.6430665,17.8424423 25.2771599,18.6158124 C25.3933029,18.7569598 25.5610649,18.8298859 25.7305866,18.8298859 C25.8619807,18.8298859 25.9939613,18.7863655 26.1030652,18.6957959 C26.3529485,18.4893678 26.3887299,18.1188559 26.1834268,17.8677312 C24.9381164,16.3503967 23.0516737,15.9463623 20.243713,16.6026977 C19.9287193,16.6756238 19.7322148,16.9920292 19.8055374,17.3084346 C19.8782734,17.6248401 20.1962,17.8236226 20.5094339,17.7477559" id="Fill-57" fill="#4D4C4E"></path>
                            <path d="M12.3181897,43.3871215 L12.3181897,40.9799703 C11.7550725,41.3075499 10.9514572,41.6639471 10.5584483,42.1561986 C9.88798686,42.9954375 9.38528741,43.7705719 9.38528741,45.0967693 C9.38528741,46.1941903 10.0809718,47.4915702 10.7150653,48.4460794 C11.1931284,49.1659311 12.218471,49.2406216 12.7851078,48.588403 L14.4064162,46.7205525 C14.4064162,46.7205525 12.3181897,45.6848835 12.3181897,43.3871215" id="Fill-59" fill="#AAABAE"></path>
                            <path d="M19.3571553,43.3871215 L19.3571553,40.9799703 C19.9202725,41.3075499 20.7238878,41.6639471 21.1168967,42.1561986 C21.7873581,42.9954375 22.2900576,43.7705719 22.2900576,45.0967693 C22.2900576,46.1941903 21.5943732,47.4915702 20.9602797,48.4460794 C20.4822166,49.1659311 19.456874,49.2406216 18.8902372,48.588403 L17.2689288,46.7205525 C17.2689288,46.7205525 19.3571553,45.6848835 19.3571553,43.3871215" id="Fill-61" fill="#AAABAE"></path>
                            <path d="M16.424253,50.4750732 C16.424253,50.7997122 16.1614649,51.0631874 15.8376725,51.0631874 C15.5138801,51.0631874 15.251092,50.7997122 15.251092,50.4750732 C15.251092,50.1504342 15.5138801,49.8869591 15.8376725,49.8869591 C16.1614649,49.8869591 16.424253,50.1504342 16.424253,50.4750732" id="Fill-63" fill="#AAABAE"></path>
                            <path d="M16.424253,53.3302498 C16.424253,53.6548888 16.1614649,53.918364 15.8376725,53.918364 C15.5138801,53.918364 15.251092,53.6548888 15.251092,53.3302498 C15.251092,53.0056108 15.5138801,52.7421357 15.8376725,52.7421357 C16.1614649,52.7421357 16.424253,53.0056108 16.424253,53.3302498" id="Fill-65" fill="#AAABAE"></path>
                        </g>
                    </g>
                    <g id="girl_1" transform="translate(0.000000, -0.000000)">
                        <path d="M17.5299351,0.402598513 L17.5299351,0.402598513 C17.1522651,0.402598513 16.7788249,0.419516955 16.4078018,0.443686159 C14.8826188,0.543988355 13.4112162,0.847311863 12.0189731,1.3258621 C9.53299748,2.18084768 7.2996076,3.59172496 5.47591425,5.41468716 C3.60750475,7.28236238 2.17114984,9.57964521 1.32214747,12.1391639 C0.765612817,13.8195278 0.459246836,15.61107 0.459246836,17.4720987 L0.459246836,28.5893282 C0.459246836,62.7210779 8.14075444,55.7833079 17.5299351,55.7833079 L17.5299351,51.3579267 C26.9185116,51.3579267 34.6006235,62.7210779 34.6006235,28.5893282 L34.6006235,17.4720987 C34.6006235,8.08357149 26.9185116,0.402598513 17.5299351,0.402598513" id="Fill-60" fill="#F2BA28"></path>
                        <path d="M6.35138374,62.5208965 L6.35138374,62.5208965 L6.77376998,62.5208965 C6.63116175,62.5208965 6.49097061,62.5112288 6.35138374,62.4997484 L6.35138374,62.5208965 Z" id="Fill-62" fill="#0EA9A1"></path>
                        <path d="M8.58646558,58.8957576 C8.58646558,58.3954551 8.18099896,57.9894124 7.68005735,57.9894124 C7.17911574,57.9894124 6.77364912,58.3954551 6.77364912,58.8957576 L6.77364912,62.5211382 L6.77364912,62.5211382 L8.77378995,62.5211382 C8.6553526,62.0341287 8.58646558,61.533222 8.58646558,61.023856 L8.58646558,58.8957576 Z" id="Fill-64" fill="#0EA9A1"></path>
                        <path d="M29.0037339,62.5209569 L29.0037339,62.5209569 L29.0037339,62.4967877 C28.8460189,62.5118934 28.6858868,62.5209569 28.5239418,62.5209569 L29.0037339,62.5209569 Z" id="Fill-66" fill="#0EA9A1"></path>
                        <path d="M28.5238814,58.8957576 C28.5238814,58.3990804 28.1208319,57.996059 27.6241202,57.996059 C27.1268042,57.996059 26.7237547,58.3990804 26.7237547,58.8957576 L26.7237547,60.9598076 C26.7237547,61.4915301 26.6500335,62.0141891 26.5231363,62.5211382 L28.5238814,62.5211382 L28.5238814,62.5211382 L28.5238814,58.8957576 Z" id="Fill-68" fill="#0EA9A1"></path>
                        <path d="M24.9885872,45.1620305 C26.518,48.6091632 25.2653438,52.4852992 22.0687441,54.4865093 C21.1073471,55.0883225 20.0631649,55.5137005 19.0425492,55.725181 L17.7518239,52.6744232 C17.585649,52.3547855 17.1360706,52.3336375 16.9402864,52.6363568 L15.8223829,55.7493502 C15.3093558,55.6508607 14.7993501,55.4973863 14.3026384,55.2937607 C10.3102123,53.6544845 8.51371121,49.0949642 10.2497851,45.1445078 C5.20350836,47.2895246 1.76036563,51.5747245 1.76036563,56.513097 L1.76036563,57.508264 C1.76036563,60.134248 3.78105171,62.2847029 6.35162545,62.4998088 C6.49060805,62.5112892 6.63079918,62.5209569 6.77340741,62.5209569 L6.77340741,62.5209569 L6.77340741,58.8955763 C6.77340741,58.3952738 7.1794783,57.9892312 7.67981564,57.9892312 C8.18075726,57.9892312 8.58622387,58.3952738 8.58622387,58.8955763 L8.58622387,61.0236747 C8.58622387,61.5330407 8.6551109,62.0339474 8.77415251,62.5209569 C9.05816042,63.6847041 9.66243257,64.7566082 10.5440656,65.5976965 C14.5044653,69.37776 20.7320941,69.3928658 24.7112263,65.6321377 C25.6091747,64.7825901 26.2279494,63.6992056 26.5234384,62.5209569 C26.6503356,62.0140078 26.7234525,61.4913488 26.7234525,60.9596263 L26.7234525,58.8955763 C26.7234525,58.3988992 27.1271063,57.9958777 27.623818,57.9958777 C28.1205297,57.9958777 28.5235793,58.3988992 28.5235793,58.8955763 L28.5235793,62.5209569 L28.5241835,62.5209569 C28.6861285,62.5209569 28.8456563,62.5118934 29.0039756,62.4967877 C31.4905555,62.2550956 33.4351033,60.1602299 33.4351033,57.6097747 L33.4351033,56.513097 C33.4351033,51.5886218 30.0119016,47.3130896 24.9885872,45.1620305" id="Fill-70" fill="#4FC2C3"></path>
                        <path d="M14.3028801,55.2937607 C14.7989876,55.4973863 15.3089933,55.6508607 15.8220203,55.7493502 L16.9405281,52.6363568 C17.135708,52.3336375 17.5852865,52.3547855 17.7520656,52.6744232 L19.0427909,55.725181 C20.0634066,55.5137005 21.1075889,55.0883225 22.0689858,54.4865093 C25.2655855,52.4852992 26.5182417,48.6091632 24.9888289,45.1620305 C24.9888289,45.1620305 21.7021927,43.679854 17.5889121,43.679854 C13.4756316,43.679854 10.2518396,45.139674 10.2518396,45.139674 C10.2512354,45.1414866 10.2506311,45.1426951 10.2500268,45.1445078 C8.51334865,49.0949642 10.3098498,53.6544845 14.3028801,55.2937607" id="Fill-72" fill="#0EA9A1"></path>
                        <path d="M17.5979158,33.9817797 C15.5808553,33.9817797 13.9305881,35.6319321 13.9305881,37.6488522 L13.9305881,37.9406953 C13.9305881,35.9237753 15.5808553,34.2736229 17.5979158,34.2736229 C19.6149762,34.2736229 21.2652435,35.9237753 21.2652435,37.9406953 L21.2652435,37.6488522 C21.2652435,35.6319321 19.6149762,33.9817797 17.5979158,33.9817797" id="Fill-74" fill="#231F20"></path>
                        <path d="M13.9304672,43.3319988 L13.9304672,44.0226338 L13.9304672,44.3144769 L13.9304672,45.9495236 C13.9304672,47.2498267 15.4550459,49.0383478 16.5379016,50.1446931 C17.1216285,50.7410682 18.0745656,50.7410682 18.6582925,50.1446931 C19.7411482,49.0383478 21.2657269,47.2498267 21.2657269,45.9495236 L21.2657269,44.3144769 L21.2657269,44.0226338 L21.2657269,43.3319988 C20.1000859,43.6667422 18.8709963,44.2552624 17.5977949,44.2552624 C16.3251978,44.2552624 15.0955039,43.6667422 13.9304672,43.3319988" id="Fill-76" fill="#FFE1AD"></path>
                        <path d="M31.6937723,22.6097464 C31.6303237,21.7807427 31.2194186,21.0659385 30.6193764,20.5819502 L30.6193764,25.0858813 C31.337856,24.5076331 31.7693063,23.5982668 31.6937723,22.6097464" id="Fill-78" fill="#FCCA80"></path>
                        <path d="M2.9985797,23.0513177 C3.06202828,23.8803214 3.47293334,24.5951256 4.07297559,25.0791139 L4.07297559,20.5751828 C3.354496,21.153431 2.92304568,22.0627973 2.9985797,23.0513177" id="Fill-80" fill="#FCCA80"></path>
                        <path d="M13.9304672,41.4756831 L13.9304672,43.3318779 C15.0955039,43.6666214 16.3251978,44.2551415 17.5977949,44.2551415 C18.8709963,44.2551415 20.1000859,43.6666214 21.2657269,43.3318779 L21.2657269,41.2780998 C20.0263647,41.8049885 18.7108642,42.1010612 17.3464177,42.1010612 C16.1650656,42.1010612 15.0205742,41.8774961 13.9304672,41.4756831" id="Fill-82" fill="#D7B48A"></path>
                        <path d="M30.6195577,15.7412212 C30.6195577,8.41130589 24.6771453,15.9563271 17.3461156,15.9563271 C14.6365592,15.9563271 12.1167443,13.4681076 10.0168986,13.4312495 C9.98064229,13.4306453 9.94499023,13.4300411 9.90933818,13.4300411 C6.67043944,13.4161438 4.07267345,16.1230946 4.07267345,19.3617679 L4.07267345,20.575062 L4.07267345,25.0789931 L4.07267345,26.1194773 L4.07629909,26.1194773 C4.07569481,26.1653988 4.07267345,26.2101118 4.07267345,26.2560333 C4.07267345,32.4046788 8.25544529,39.3847448 13.9301651,41.4759852 C15.020272,41.877194 16.1647635,42.1013633 17.3461156,42.1013633 C18.7105621,42.1013633 20.0266668,41.8052906 21.2654247,41.2777977 C26.6827246,38.9714514 30.6195577,32.221597 30.6195577,26.2560333 C30.6195577,26.2101118 30.6165363,26.1653988 30.615932,26.1194773 L30.6195577,26.1194773 L30.6195577,25.0862438 L30.6195577,20.5823127 L30.6195577,15.7412212 Z" id="Fill-84" fill="#FFE1AD"></path>
                        <path d="M13.3901271,19.5322817 C13.3375554,19.5322817 13.2837752,19.5268436 13.2299949,19.5153632 C11.2087046,19.0803175 9.07441534,18.9612842 8.04171423,19.2289581 C7.63685189,19.3340942 7.22534256,19.0905895 7.12140775,18.6869637 C7.01747294,18.283338 7.25978607,17.8706489 7.66404414,17.7667213 C9.21521075,17.3643041 11.8039127,17.6627937 13.5484464,18.0386249 C13.9563301,18.1268424 14.2155628,18.5280512 14.1279434,18.9359065 C14.0512008,19.2905896 13.7381878,19.5322817 13.3901271,19.5322817" id="Fill-86" fill="#BC7455"></path>
                        <path d="M21.2563002,19.5322817 C20.9082395,19.5322817 20.5952265,19.2905896 20.5184839,18.9359065 C20.4308645,18.5280512 20.6900972,18.1268424 21.0979809,18.0386249 C22.8431189,17.6621895 25.4318208,17.3643041 26.9829874,17.7667213 C27.3866412,17.8706489 27.6295586,18.2827338 27.5256238,18.6869637 C27.4210847,19.0905895 27.0095754,19.3340942 26.6053173,19.2289581 C25.5714077,18.9612842 23.4377227,19.0803175 21.4164324,19.5153632 C21.3626521,19.5268436 21.3088719,19.5322817 21.2563002,19.5322817" id="Fill-88" fill="#BC7455"></path>
                        <path d="M17.6114515,36.5657697 C16.6796638,36.5657697 13.8734239,35.9699989 13.8734239,35.0902398 C13.8734239,34.9301189 13.9404981,34.7748317 14.053497,34.6618407 C14.2825162,34.4334417 14.6897956,34.4443179 14.9049165,34.6527773 C15.1883201,34.8092729 16.3835704,35.3573096 17.6114515,35.3573096 C18.8997597,35.3573096 20.2158644,34.7917502 20.5143749,34.63888 C20.7319129,34.4425052 21.1265026,34.4382756 21.349479,34.6612365 C21.4630822,34.7748317 21.5295521,34.9295146 21.5295521,35.0902398 C21.5295521,35.9699989 18.5885595,36.5657697 17.6114515,36.5657697" id="Fill-90" fill="#F05B3D"></path>
                        <path d="M27.3417438,32.7342259 C27.3417438,34.034529 26.2878932,35.0883063 24.9874995,35.0883063 C23.6877101,35.0883063 22.6332552,34.034529 22.6332552,32.7342259 C22.6332552,31.4339227 23.6877101,30.3801454 24.9874995,30.3801454 C26.2878932,30.3801454 27.3417438,31.4339227 27.3417438,32.7342259" id="Fill-92" fill="#FBC39C"></path>
                        <path d="M12.6230036,32.7342259 C12.6230036,34.034529 11.5691529,35.0883063 10.2687593,35.0883063 C8.96896985,35.0883063 7.91451495,34.034529 7.91451495,32.7342259 C7.91451495,31.4339227 8.96896985,30.3801454 10.2687593,30.3801454 C11.5691529,30.3801454 12.6230036,31.4339227 12.6230036,32.7342259" id="Fill-94" fill="#FBC39C"></path>
                        <path d="M24.0254378,28.2534367 C22.2120171,28.2534367 20.7363845,26.7779068 20.7363845,24.9646123 C20.7363845,23.1507136 22.2120171,21.6751837 24.0254378,21.6751837 C25.8388585,21.6751837 27.3144911,23.1507136 27.3144911,24.9646123 C27.3144911,26.7779068 25.8388585,28.2534367 24.0254378,28.2534367 M11.2311835,28.2534367 C9.41715851,28.2534367 7.94152591,26.7779068 7.94152591,24.9646123 C7.94152591,23.1507136 9.41715851,21.6751837 11.2311835,21.6751837 C13.0446042,21.6751837 14.5202368,23.1507136 14.5202368,24.9646123 C14.5202368,26.7779068 13.0446042,28.2534367 11.2311835,28.2534367 M24.0254378,20.4667235 C22.202953,20.4667235 20.6342625,21.557963 19.9278683,23.1192936 L19.5121291,22.9990518 C18.406311,22.6806226 17.2370444,22.6806226 16.1318307,22.9990518 L15.3752819,23.2171789 C14.6924544,21.6026761 13.0917375,20.4667235 11.2311835,20.4667235 C8.75064632,20.4667235 6.73298161,22.4842478 6.73298161,24.9646123 C6.73298161,27.4443726 8.75064632,29.4618969 11.2311835,29.4618969 C13.7111164,29.4618969 15.7287811,27.4443726 15.7287811,24.9646123 C15.7287811,24.7676333 15.7118615,24.5748839 15.6870864,24.3851557 L16.4665974,24.1603821 C17.3530647,23.9041885 18.2902908,23.9041885 19.1773623,24.1603821 L19.5858503,24.2782069 C19.5508025,24.5023763 19.5278402,24.7307753 19.5278402,24.9646123 C19.5278402,27.4443726 21.5455049,29.4618969 24.0254378,29.4618969 C26.5053707,29.4618969 28.5230354,27.4443726 28.5230354,24.9646123 C28.5230354,22.4842478 26.5053707,20.4667235 24.0254378,20.4667235" id="Fill-96" fill="#5B5255"></path>
                        <path d="M24.9876203,25.0427393 C24.9876203,25.5738575 24.5567743,26.0046736 24.0256191,26.0046736 C23.4944639,26.0046736 23.0636178,25.5738575 23.0636178,25.0427393 C23.0636178,24.511621 23.4944639,24.080805 24.0256191,24.080805 C24.5567743,24.080805 24.9876203,24.511621 24.9876203,25.0427393" id="Fill-98" fill="#404042"></path>
                        <path d="M12.1930639,25.0427393 C12.1930639,25.5738575 11.7622179,26.0046736 11.2310627,26.0046736 C10.6999074,26.0046736 10.2690614,25.5738575 10.2690614,25.0427393 C10.2690614,24.511621 10.6999074,24.080805 11.2310627,24.080805 C11.7622179,24.080805 12.1930639,24.511621 12.1930639,25.0427393" id="Fill-100" fill="#404042"></path>
                        <path d="M16.099623,31.7980317 C16.0621581,31.8191798 16.632591,32.1297541 17.2199435,32.1297541 C17.8290499,32.1297541 18.4496374,31.7980317 18.4049212,31.7980317" id="Fill-102" fill="#FCCA80"></path>
                        <path d="M18.9337198,32.1445577 C19.0159008,32.0424428 19.0678682,31.9240137 19.0678682,31.7844366 C19.0678682,31.6212944 19.0020025,31.4647989 18.8871908,31.3493909 C18.8424747,31.3052821 18.7886945,31.2750706 18.7337057,31.2478802 L18.7361228,31.2448591 C18.7312886,31.2418379 18.7258502,31.2418379 18.721016,31.239421 C18.7004707,31.2297533 18.6805298,31.2243153 18.6593802,31.2170645 C18.4587619,31.1391188 18.2400154,31.1723515 18.0738405,31.2974271 C17.9366707,31.3651009 17.58861,31.4962188 17.2749927,31.5040738 C16.9613755,31.4962188 16.613919,31.3651009 16.4761449,31.2974271 C16.3105744,31.1723515 16.0918279,31.1391188 15.8912095,31.2170645 C15.87006,31.2243153 15.8495147,31.2297533 15.8295737,31.239421 C15.8247396,31.2418379 15.8193011,31.2418379 15.8144669,31.2448591 L15.816884,31.247276 C15.7618953,31.2744664 15.7075108,31.3052821 15.6633989,31.3493909 C15.5479829,31.4647989 15.4821172,31.6212944 15.4821172,31.7844366 C15.4821172,31.9240137 15.5346889,32.0424428 15.6162657,32.1445577 C15.6174742,32.1457662 15.6180785,32.1469746 15.619287,32.1481831 C15.6670245,32.2073976 15.7244304,32.2611741 15.7909003,32.3089083 C15.8054029,32.3191802 15.8211139,32.3288479 15.8362207,32.3385156 C15.8797283,32.3669144 15.9250487,32.3928963 15.9727862,32.4176697 C16.4108835,32.6478814 17.0242198,32.7342863 17.2471962,32.7342863 C17.2484048,32.7342863 17.2586774,32.7336821 17.2749927,32.7330778 C17.2913081,32.7336821 17.3015807,32.7342863 17.3027892,32.7342863 C17.5257657,32.7342863 18.1391019,32.6478814 18.5771992,32.4176697 C18.625541,32.3928963 18.6708614,32.3669144 18.7137647,32.3385156 C18.7288715,32.3288479 18.7445826,32.3191802 18.7590851,32.3089083 C18.8255551,32.2611741 18.8829609,32.2073976 18.9306984,32.1481831 C18.931907,32.1469746 18.9325112,32.1457662 18.9337198,32.1445577" id="Fill-104" fill="#FCCA80"></path>
                        <path d="M19.6396909,63.3587219 C19.2728977,63.3587219 18.9755958,63.0614407 18.9755958,62.694673 C18.9755958,62.3285096 19.2728977,62.0312284 19.6396909,62.0312284 C20.0064841,62.0312284 20.303786,62.3285096 20.303786,62.694673 C20.303786,63.0614407 20.0064841,63.3587219 19.6396909,63.3587219 L19.6396909,63.3587219 Z M16.3113599,63.3587219 C15.945171,63.3587219 15.6478691,63.0614407 15.6478691,62.694673 C15.6478691,62.3285096 15.945171,62.0312284 16.3113599,62.0312284 C16.6781531,62.0312284 16.975455,62.3285096 16.975455,62.694673 C16.975455,63.0614407 16.6781531,63.3587219 16.3113599,63.3587219 L16.3113599,63.3587219 Z M21.9329038,59.2578123 C22.0374428,59.1272986 22.0162933,58.9375703 21.8857705,58.8330385 C21.7552477,58.7297152 21.5661106,58.7508632 21.4609672,58.8801684 L20.4826506,60.100109 C20.3201014,59.963553 20.1509052,59.8342478 19.9690193,59.7236737 C19.3429933,59.3424045 18.6081984,59.1230689 17.821436,59.1230689 C16.797799,59.1230689 15.86299,59.4970874 15.1408848,60.1134021 L14.1819049,58.8801684 C14.07797,58.750259 13.8876243,58.7291109 13.7571015,58.8330385 C13.627183,58.9375703 13.6060335,59.1272986 13.7099683,59.2578123 L14.7082259,60.5418012 C14.0731359,61.2692942 13.6857974,62.2179355 13.6857974,63.2590239 C13.6857974,65.9871228 21.9576789,65.8735276 21.9576789,63.2590239 C21.9576789,62.208872 21.5606721,61.255397 20.9159137,60.5260912 L21.9329038,59.2578123 Z" id="Fill-106" fill="#FEFEFE"></path>
                        <path d="M22.6334969,14.846296 C22.6334969,14.846296 26.2355632,18.7768128 34.5328241,15.9562667 L34.0947268,12.7266568 L26.7939107,12.7266568 L22.6334969,14.846296 Z" id="Fill-108" fill="#D39B29"></path>
                        <path d="M36.352771,10.6258696 C36.352771,13.9255702 33.6758454,15.9563875 29.622992,15.9563875 C24.2872689,15.9563875 21.6550594,13.4868991 21.6550594,10.1871986 C21.6550594,7.33825367 25.9647284,3.47118105 30.4707859,7.56665264 C34.1393221,10.9013985 36.352771,7.32616906 36.352771,10.6258696" id="Fill-110" fill="#F2BA28"></path>
                    </g>
                </g>
                <g id="Group-12" transform="translate(26.880000, 0.000000)">
                    <g id="Group-3" transform="translate(0.000000, 0.149969)">
                        <g id="Group-2" transform="translate(0.959295, 48.347496)">
                            <path d="M12.332264,0.679769441 C5.61528667,0.679769441 0.169625215,6.21341843 0.169625215,13.0389243 L0.169625215,18.8932609 C0.169625215,20.3301753 1.31611395,21.4951882 2.73018074,21.4951882 L30.8962915,21.4951882 C32.3103583,21.4951882 33.456847,20.3301753 33.456847,18.8932609 L33.456847,13.0389243 C33.456847,6.21341843 28.0111856,0.679769441 21.2942083,0.679769441 L12.332264,0.679769441 Z" id="Fill-7" fill="#336093"></path>
                            <path d="M21.4548831,0.68803056 L21.9343472,6.53391083 L18.375175,6.37909615 L16.8132361,10.4368019 L15.2512972,6.37909615 L12.9724028,6.53391083 L12.9724028,0.679574296 L12.332264,0.679574296 C5.61528667,0.679574296 0.169625215,6.21322328 0.169625215,13.0387292 L0.169625215,18.8930657 C0.169625215,20.3299801 1.31611395,21.4949931 2.73018074,21.4949931 L30.8962915,21.4949931 C32.3103583,21.4949931 33.456847,20.3299801 33.456847,18.8930657 L33.456847,13.0387292 C33.456847,6.26851424 28.0969642,0.77649609 21.4548831,0.68803056" id="Fill-9" fill="#366EAE"></path>
                            <g id="Group-13" transform="translate(7.211153, 20.966546)">
                                <path d="M7.3388722,7.4989684 L0.00032006944,0.0418446195 L19.2044865,0.0418446195 L11.8652942,7.4989684 C10.615103,8.76935943 8.58906343,8.76935943 7.3388722,7.4989684" id="Fill-11" fill="#366EAE"></path>
                                <mask id="mask-6" fill="white">
                                    <use xlink:href="#path-5"></use>
                                </mask>
                                <g id="Clip-12"></g>
                            </g>
                            <path d="M6.25094458,16.6167696 C5.72026945,16.6167696 5.29073626,17.0538934 5.29073626,17.5924924 L5.29073626,21.4953834 L7.2111529,21.4953834 L7.2111529,17.5924924 C7.2111529,17.0538934 6.78161972,16.6167696 6.25094458,16.6167696" id="Fill-18" fill="#292929" opacity="0.200000003"></path>
                            <path d="M27.3755277,16.6167696 C26.8448525,16.6167696 26.4153193,17.0538934 26.4153193,17.5924924 L26.4153193,21.4953834 L28.335736,21.4953834 L28.335736,17.5924924 C28.335736,17.0538934 27.9062028,16.6167696 27.3755277,16.6167696" id="Fill-20" fill="#292929" opacity="0.200000003"></path>
                            <path d="M12.9724028,2.69183986 L12.9724028,0.0294176998 C12.3578695,0.391736083 11.4808792,0.785928076 11.0519862,1.33038137 C10.3203074,2.25861896 9.77170843,3.11595402 9.77170843,4.58279056 C9.77170843,5.79658967 10.5309131,7.2315526 11.2229033,8.28728462 C11.7446165,9.08347439 12.8635792,9.16608558 13.4819534,8.44470123 L15.2512972,6.37877091 C15.2512972,6.37877091 12.9724028,5.2332724 12.9724028,2.69183986" id="Fill-59" fill="#336093"></path>
                            <path d="M20.6540694,2.69183986 L20.6540694,0.0294176998 C21.2686027,0.391736083 22.145593,0.785928076 22.574486,1.33038137 C23.3061648,2.25861896 23.8547638,3.11595402 23.8547638,4.58279056 C23.8547638,5.79658967 23.0955591,7.2315526 22.403569,8.28728462 C21.8818558,9.08347439 20.762893,9.16608558 20.1445189,8.44470123 L18.375175,6.37877091 C18.375175,6.37877091 20.6540694,5.2332724 20.6540694,2.69183986" id="Fill-61" fill="#336093"></path>
                            <path d="M17.453375,10.531447 C17.453375,10.8905129 17.1665928,11.1819288 16.8132361,11.1819288 C16.4598795,11.1819288 16.1730972,10.8905129 16.1730972,10.531447 C16.1730972,10.172381 16.4598795,9.88096512 16.8132361,9.88096512 C17.1665928,9.88096512 17.453375,10.172381 17.453375,10.531447" id="Fill-63" fill="#336093"></path>
                            <path d="M17.453375,13.6894062 C17.453375,14.0484722 17.1665928,14.339888 16.8132361,14.339888 C16.4598795,14.339888 16.1730972,14.0484722 16.1730972,13.6894062 C16.1730972,13.3303402 16.4598795,13.0389243 16.8132361,13.0389243 C17.1665928,13.0389243 17.453375,13.3303402 17.453375,13.6894062" id="Fill-65" fill="#336093"></path>
                        </g>
                        <path d="M12.880035,47.7686895 C12.8134572,47.785294 12.7508345,47.8072119 12.6842567,47.8244806 C12.748857,47.8092045 12.8154348,47.7979134 12.880035,47.7839656 L12.880035,47.7686895 Z" id="Fill-5" fill="#D0D2D3"></path>
                        <path d="M22.9460045,47.7686895 L22.9460045,47.7773238 C22.9842373,47.7859582 23.0237885,47.7932642 23.0620213,47.8018985 C23.0224701,47.7919358 22.9855557,47.7786522 22.9460045,47.7686895" id="Fill-9" fill="#D0D2D3"></path>
                        <path d="M17.9129868,36.4982059 C15.7126236,36.4982059 13.9123864,38.3120836 13.9123864,40.529119 L13.9123864,40.8499184 C13.9123864,38.6328829 15.7126236,36.8190052 17.9129868,36.8190052 C20.11335,36.8190052 21.9135873,38.6328829 21.9135873,40.8499184 L21.9135873,40.529119 C21.9135873,38.3120836 20.11335,36.4982059 17.9129868,36.4982059" id="Fill-17" fill="#231F20"></path>
                        <path d="M13.9122545,46.7760713 L13.9122545,47.5352299 L13.9122545,47.8560292 L13.9122545,49.6533024 C13.9122545,51.8703378 15.7124918,53.6842155 17.912855,53.6842155 C20.1132182,53.6842155 21.9141146,51.8703378 21.9141146,49.6533024 L21.9141146,47.8560292 L21.9141146,47.5352299 L21.9141146,46.7760713 C20.6425446,47.1440274 19.3017601,47.34461 17.912855,47.34461 C16.524609,47.34461 15.1831653,47.1440274 13.9122545,46.7760713" id="Fill-19" fill="#FFE1AD"></path>
                        <path d="M13.9122545,44.7615446 L13.9122545,46.7760049 C15.1831653,47.143961 16.524609,47.3445436 17.912855,47.3445436 C19.3017601,47.3445436 20.6425446,47.143961 21.9141146,46.7760049 L21.9141146,44.6041338 C20.5621239,45.0245602 19.1264166,45.25171 17.6386336,45.25171 C16.3499247,45.25171 15.1014262,45.0796872 13.9122545,44.7615446" id="Fill-21" fill="#D7B48A"></path>
                        <path d="M32.11792,21.0730724 L32.11792,27.4080286 C32.1989999,27.4080286 32.2767838,27.4199839 32.3585229,27.4140063 C34.098115,27.2798417 35.4006667,25.7502334 35.2675112,23.9981245 C35.1402882,22.3277099 33.7533607,21.0730724 32.11792,21.0730724" id="Fill-23" fill="#FCCA80"></path>
                        <path d="M2.91788728,21.0671612 C1.17829516,21.2013257 -0.123597394,22.7302699 0.00955819848,24.4830429 C0.13612193,26.1534576 1.52370867,27.408095 3.15849021,27.408095 L3.15849021,21.0731388 C3.0780695,21.0731388 2.99962636,21.0605194 2.91788728,21.0671612" id="Fill-25" fill="#FCCA80"></path>
                        <path d="M30.6789775,21.8652684 C33.531935,18.7064247 34.1759598,13.9342858 31.9432965,10.0382014 C31.2748818,8.87189995 29.7943498,8.47206313 28.636819,9.14554243 L26.8425144,10.1896346 C29.2228354,12.7892381 30.6789775,16.2622394 30.6789775,20.0786221 L30.6789775,21.8652684 Z" id="Fill-27" fill="#8F6C47"></path>
                        <path d="M8.09401431,8.13808546 L7.64774532,7.87839078 C6.49021452,7.20491148 5.00968254,7.6047483 4.34126783,8.77104974 L4.34126783,8.77104974 C2.93456469,11.2258619 2.67418618,14.0273764 3.38347042,16.5552484 C3.96685012,13.2217251 5.67216457,10.2800685 8.09401431,8.13808546" id="Fill-29" fill="#8F6C47"></path>
                        <path d="M32.11792,20.8911533 L32.11792,19.104507 C32.11792,15.2881243 30.6617779,11.8151231 28.2814568,9.21551951 C25.6354838,6.32633315 21.8471413,4.51511219 17.638238,4.51511219 C13.9810735,4.51511219 10.6429551,5.88465294 8.09388247,8.1382183 C5.67203273,10.2802013 3.96671829,13.2218579 3.38333859,16.5553812 C3.23831764,17.3836147 3.15855613,18.2344302 3.15855613,19.104507 L3.15855613,21.0731388 L3.15855613,27.408095 L3.15855613,30.512476 L3.16251124,30.512476 C3.16185206,30.5629537 3.15855613,30.6121031 3.15855613,30.6619167 C3.15855613,37.4212844 7.72144232,43.1046792 13.9125182,44.7618103 C15.1016899,45.0799529 16.3495292,45.2513115 17.638238,45.2513115 C19.1266803,45.2513115 20.5623876,45.0248259 21.9137191,44.6043994 C27.8233225,42.7666112 32.11792,37.2200376 32.11792,30.6619167 C32.11792,30.6121031 32.114624,30.5629537 32.1139648,30.512476 L32.11792,30.512476 L32.11792,27.408095 L32.11792,21.0731388 L32.11792,20.8911533 Z" id="Fill-31" fill="#FFE1AD"></path>
                        <path d="M8.47080509,24.4603279 C8.11286703,24.4603279 7.78393317,24.2238796 7.67912258,23.8605727 C7.55321803,23.4195567 7.80568631,22.9592794 8.24272669,22.8324209 C9.74303426,22.3980466 11.3824301,22.3967183 12.8814193,22.8304283 C13.3184597,22.9566227 13.5715871,23.4169 13.4456826,23.857916 C13.3197781,24.2982678 12.8616437,24.5526491 12.4259217,24.4257905 C11.2222479,24.0777598 9.9025573,24.078424 8.69954266,24.4277831 C8.62307708,24.4497011 8.54661149,24.4603279 8.47080509,24.4603279" id="Fill-33" fill="#BC7455"></path>
                        <path d="M19.4799381,30.8593112 C18.9815934,31.0041026 18.4549037,31.0818117 17.910416,31.0818117 C17.3672466,31.0818117 16.8425345,31.0047668 16.3461674,30.8613037" id="Fill-35" fill="#FCCA80"></path>
                        <path d="M17.9102182,31.7461918 C17.3169507,31.7461918 16.7296159,31.6631692 16.1640342,31.4991165 C15.8140064,31.398161 15.6116363,31.0302049 15.7124918,30.6775249 C15.8126881,30.3248449 16.1778772,30.122934 16.527905,30.2225611 C17.4237389,30.4822558 18.3993343,30.4822558 19.2971458,30.2212327 C19.6478328,30.1209414 20.0130219,30.3228524 20.1132182,30.6761965 C20.2140737,31.0282123 20.0123627,31.3968327 19.6623349,31.4977882 C19.0941165,31.662505 18.5048041,31.7461918 17.9102182,31.7461918" id="Fill-37" fill="#FCCA80"></path>
                        <path d="M22.8444899,24.4603279 C22.4865518,24.4603279 22.157618,24.2238796 22.0528074,23.8605727 C21.9269028,23.4195567 22.1793711,22.9592794 22.6164115,22.8324209 C24.1154007,22.3973825 25.7547965,22.3953899 27.2551041,22.8304283 C27.6928037,22.9566227 27.9452719,23.4169 27.8193674,23.857916 C27.694122,24.2982678 27.2359877,24.5526491 26.8002657,24.4257905 C25.5952735,24.0777598 24.2755829,24.078424 23.0732275,24.4277831 C22.9967619,24.4497011 22.9202963,24.4603279 22.8444899,24.4603279" id="Fill-39" fill="#BC7455"></path>
                        <path d="M23.9506042,26.9365931 C23.6750644,26.9365931 23.4898331,26.6536521 23.5920069,26.3952858 C23.8055832,25.8579635 24.3269994,25.4780521 24.9360874,25.4780521 C25.5458345,25.4780521 26.0672507,25.8579635 26.280827,26.3952858 C26.3830009,26.6536521 26.1977696,26.9365931 25.9222298,26.9365931 L23.9506042,26.9365931 Z" id="Fill-41" fill="#473A4F"></path>
                        <path d="M9.66933726,26.9365931 C9.349632,26.9365931 9.11759849,26.6005176 9.25536838,26.3102707 C9.48806108,25.8181127 9.98574659,25.4780521 10.5625344,25.4780521 C11.1393223,25.4780521 11.6370078,25.8181127 11.8697005,26.3102707 C12.0074704,26.6005176 11.7754369,26.9365931 11.4557316,26.9365931 L9.66933726,26.9365931 Z" id="Fill-43" fill="#473A4F"></path>
                        <rect id="Rectangle-6" fill="#8F6C47" x="10.5522443" y="32.7616541" width="14.8690716" height="9.25409339" rx="4.62704669"></rect>
                        <path d="M21.4278989,35.1698444 C22.4114046,35.1698444 23.0719091,36.1800633 22.70672,37.0999537 C21.9460192,39.0161152 20.0864552,40.3697157 17.9131186,40.3697157 C15.7397821,40.3697157 13.8802181,39.0161152 13.1195173,37.0999537 C12.7543282,36.1800633 13.4148327,35.1698444 14.3983384,35.1698444 L21.4278989,35.1698444 Z" id="Fill-45" fill="#473A4F"></path>
                        <path d="M26.7653288,29.8198683 C26.7653288,30.3047202 25.9848525,30.6979153 25.0224408,30.6979153 C24.060029,30.6979153 23.2802119,30.3047202 23.2802119,29.8198683 C23.2802119,29.3350163 24.060029,28.9418213 25.0224408,28.9418213 C25.9848525,28.9418213 26.7653288,29.3350163 26.7653288,29.8198683" id="Fill-47" fill="#FBC39C"></path>
                        <path d="M11.9965938,29.8198683 C11.9965938,30.3047202 11.2161174,30.6979153 10.2537057,30.6979153 C9.29129403,30.6979153 8.51147687,30.3047202 8.51147687,29.8198683 C8.51147687,29.3350163 9.29129403,28.9418213 10.2537057,28.9418213 C11.2161174,28.9418213 11.9965938,29.3350163 11.9965938,29.8198683" id="Fill-49" fill="#FBC39C"></path>
                        <path d="M20.2375407,36.9493175 L15.6179645,36.9493175 C14.8302371,36.9493175 14.1914858,36.3057263 14.1914858,35.5126945 L14.1914858,35.1699772 L21.6633602,35.1699772 L21.6633602,35.5126945 C21.6633602,36.3057263 21.0252681,36.9493175 20.2375407,36.9493175" id="Fill-51" fill="#FEFEFE"></path>
                        <path d="M17.9138438,38.4437243 C16.9092441,38.4437243 16.023298,38.9697554 15.5064961,39.7601305 C16.2263273,40.144027 17.0423997,40.3698485 17.9138438,40.3698485 C18.7852878,40.3698485 19.6013602,40.144027 20.3211914,39.7601305 C19.8043895,38.9697554 18.9184434,38.4437243 17.9138438,38.4437243" id="Fill-53" fill="#F3795D"></path>
                        <g id="Group-4-Copy" transform="translate(18.160214, 11.134021) scale(-1, 1) translate(-18.160214, -11.134021) translate(3.704400, 0.000000)">
                            <path d="M27.715914,10.2101871 C27.715914,16.4461804 22.6955527,20.2838169 15.0944777,20.2838169 C5.0880327,20.2838169 0.15138798,15.6172828 0.15138798,9.38128948 C0.15138798,3.99744014 8.23432796,-3.31054089 16.6844346,4.42915765 C23.5650191,10.7309048 27.715914,3.97419382 27.715914,10.2101871" id="Fill-57" fill="#6C5338" transform="translate(13.933651, 10.673782) scale(1, -1) translate(-13.933651, -10.673782) "></path>
                            <path d="M15.5741252,22.2628102 C5.56768017,22.2628102 0.631035451,17.5962761 0.631035451,11.3602828 C0.631035451,-4.31030555 8.71397543,-1.33154755 17.1640821,6.40815099 C24.0446666,12.7098982 28.1955615,5.95318716 28.1955615,12.1891804 C28.1955615,18.4251737 23.1752001,22.2628102 15.5741252,22.2628102 Z" id="Fill-57" fill="#8F6C47" transform="translate(14.413298, 11.176221) scale(1, -1) translate(-14.413298, -11.176221) "></path>
                        </g>
                        <path d="M32.0266121,32.0692853 C29.7770616,38.0153649 26.7085372,40.9884047 22.8210388,40.9884047 C18.9335404,40.9884047 17.3335787,41.2749131 18.0211537,41.8479298 L18.0211537,45.4497839 C23.4094673,45.0703605 26.9548505,43.5832341 28.6573034,40.9884047 C30.3597564,38.3935754 31.4828592,35.4205356 32.0266121,32.0692853 Z" id="Path-3" fill="#8F6C47"></path>
                        <path d="M3.34667367,32.1590879 C5.59622413,38.1051675 8.66474856,41.0782073 12.552247,41.0782073 C16.4397454,41.0782073 18.0397071,41.3647157 17.3521321,41.9377324 L17.3521321,45.5395865 C11.9638185,45.160163 8.41843521,43.6730366 6.7159823,41.0782073 C5.0135294,38.4833779 3.89042652,35.5103381 3.34667367,32.1590879 Z" id="Path-3" fill="#8F6C47"></path>
                        <polygon id="Rectangle" fill="#8F6C47" points="15.8283665 41.5286899 19.1858988 41.5286899 19.1858988 45.4251503 15.8283665 45.4251503"></polygon>
                    </g>
                </g>
            </g>
            <g id="Group-30-Copy-2" transform="translate(0.000000, 52.000000)">
                <g id="Group-17">
                    <rect id="Rectangle" fill="#FFD240" transform="translate(78.000000, 26.500000) rotate(-1.000000) translate(-78.000000, -26.500000) " x="1" y="11" width="154" height="31"></rect>
                    <path d="M23.51,33.24 C22.0566594,33.24 20.7466725,32.9266698 19.58,32.3 C18.4133275,31.6733302 17.5000033,30.8100055 16.84,29.71 C16.1799967,28.6099945 15.85,27.3733402 15.85,26 C15.85,24.6266598 16.1799967,23.3900055 16.84,22.29 C17.5000033,21.1899945 18.4133275,20.3266698 19.58,19.7 C20.7466725,19.0733302 22.0566594,18.76 23.51,18.76 C24.9633406,18.76 26.2699942,19.0733302 27.43,19.7 C28.5900058,20.3266698 29.50333,21.1899945 30.17,22.29 C30.83667,23.3900055 31.17,24.6266598 31.17,26 C31.17,27.3733402 30.83667,28.6099945 30.17,29.71 C29.50333,30.8100055 28.5900058,31.6733302 27.43,32.3 C26.2699942,32.9266698 24.9633406,33.24 23.51,33.24 Z M23.51,30.48 C24.3366708,30.48 25.08333,30.2900019 25.75,29.91 C26.41667,29.5299981 26.9399981,29.0000034 27.32,28.32 C27.7000019,27.6399966 27.89,26.866671 27.89,26 C27.89,25.133329 27.7000019,24.3600034 27.32,23.68 C26.9399981,22.9999966 26.41667,22.4700019 25.75,22.09 C25.08333,21.7099981 24.3366708,21.52 23.51,21.52 C22.6833292,21.52 21.93667,21.7099981 21.27,22.09 C20.60333,22.4700019 20.0800019,22.9999966 19.7,23.68 C19.3199981,24.3600034 19.13,25.133329 19.13,26 C19.13,26.866671 19.3199981,27.6399966 19.7,28.32 C20.0800019,29.0000034 20.60333,29.5299981 21.27,29.91 C21.93667,30.2900019 22.6833292,30.48 23.51,30.48 Z M44.23,22.24 L44.23,33 L41.27,33 L41.27,31.72 C40.8566646,32.186669 40.3633362,32.5433321 39.79,32.79 C39.2166638,33.0366679 38.59667,33.16 37.93,33.16 C36.5166596,33.16 35.3966708,32.7533374 34.57,31.94 C33.7433292,31.1266626 33.33,29.920008 33.33,28.32 L33.33,22.24 L36.45,22.24 L36.45,27.86 C36.45,29.593342 37.1766594,30.46 38.63,30.46 C39.3766704,30.46 39.9766644,30.2166691 40.43,29.73 C40.8833356,29.2433309 41.11,28.5200048 41.11,27.56 L41.11,22.24 L44.23,22.24 Z M50.11,23.66 C50.4833352,23.1399974 50.9866635,22.746668 51.62,22.48 C52.2533365,22.213332 52.9833292,22.08 53.81,22.08 L53.81,24.96 C53.4633316,24.9333332 53.2300006,24.92 53.11,24.92 C52.2166622,24.92 51.5166692,25.1699975 51.01,25.67 C50.5033308,26.1700025 50.25,26.919995 50.25,27.92 L50.25,33 L47.13,33 L47.13,22.24 L50.11,22.24 L50.11,23.66 Z M66.61,33.16 C65.4633276,33.16 64.4333379,32.9233357 63.52,32.45 C62.6066621,31.9766643 61.8933359,31.3200042 61.38,30.48 C60.8666641,29.6399958 60.61,28.686672 60.61,27.62 C60.61,26.553328 60.8666641,25.6000042 61.38,24.76 C61.8933359,23.9199958 62.6066621,23.2633357 63.52,22.79 C64.4333379,22.3166643 65.4633276,22.08 66.61,22.08 C67.743339,22.08 68.7333291,22.3166643 69.58,22.79 C70.4266709,23.2633357 71.0433314,23.9399956 71.43,24.82 L69.01,26.12 C68.4499972,25.1333284 67.6433386,24.64 66.59,24.64 C65.7766626,24.64 65.103336,24.906664 64.57,25.44 C64.036664,25.973336 63.77,26.6999954 63.77,27.62 C63.77,28.5400046 64.036664,29.266664 64.57,29.8 C65.103336,30.333336 65.7766626,30.6 66.59,30.6 C67.656672,30.6 68.4633306,30.1066716 69.01,29.12 L71.43,30.44 C71.0433314,31.2933376 70.4266709,31.9599976 69.58,32.44 C68.7333291,32.9200024 67.743339,33.16 66.61,33.16 Z M78.21,33.16 C77.076661,33.16 76.0600045,32.9233357 75.16,32.45 C74.2599955,31.9766643 73.5566692,31.3200042 73.05,30.48 C72.5433308,29.6399958 72.29,28.686672 72.29,27.62 C72.29,26.553328 72.5433308,25.6000042 73.05,24.76 C73.5566692,23.9199958 74.2599955,23.2633357 75.16,22.79 C76.0600045,22.3166643 77.076661,22.08 78.21,22.08 C79.343339,22.08 80.3566622,22.3166643 81.25,22.79 C82.1433378,23.2633357 82.8433308,23.9199958 83.35,24.76 C83.8566692,25.6000042 84.11,26.553328 84.11,27.62 C84.11,28.686672 83.8566692,29.6399958 83.35,30.48 C82.8433308,31.3200042 82.1433378,31.9766643 81.25,32.45 C80.3566622,32.9233357 79.343339,33.16 78.21,33.16 Z M78.21,30.6 C79.010004,30.6 79.6666641,30.3300027 80.18,29.79 C80.6933359,29.2499973 80.95,28.5266712 80.95,27.62 C80.95,26.7133288 80.6933359,25.9900027 80.18,25.45 C79.6666641,24.9099973 79.010004,24.64 78.21,24.64 C77.409996,24.64 76.7500026,24.9099973 76.23,25.45 C75.7099974,25.9900027 75.45,26.7133288 75.45,27.62 C75.45,28.5266712 75.7099974,29.2499973 76.23,29.79 C76.7500026,30.3300027 77.409996,30.6 78.21,30.6 Z M97.03,22.24 L97.03,33 L94.07,33 L94.07,31.72 C93.6566646,32.186669 93.1633362,32.5433321 92.59,32.79 C92.0166638,33.0366679 91.39667,33.16 90.73,33.16 C89.3166596,33.16 88.1966708,32.7533374 87.37,31.94 C86.5433292,31.1266626 86.13,29.920008 86.13,28.32 L86.13,22.24 L89.25,22.24 L89.25,27.86 C89.25,29.593342 89.9766594,30.46 91.43,30.46 C92.1766704,30.46 92.7766644,30.2166691 93.23,29.73 C93.6833356,29.2433309 93.91,28.5200048 93.91,27.56 L93.91,22.24 L97.03,22.24 Z M102.91,23.66 C103.283335,23.1399974 103.786663,22.746668 104.42,22.48 C105.053336,22.213332 105.783329,22.08 106.61,22.08 L106.61,24.96 C106.263332,24.9333332 106.030001,24.92 105.91,24.92 C105.016662,24.92 104.316669,25.1699975 103.81,25.67 C103.303331,26.1700025 103.05,26.919995 103.05,27.92 L103.05,33 L99.93,33 L99.93,22.24 L102.91,22.24 L102.91,23.66 Z M112.13,33.16 C111.236662,33.16 110.363338,33.0500011 109.51,32.83 C108.656662,32.6099989 107.976669,32.333335 107.47,32 L108.51,29.76 C108.990002,30.0666682 109.569997,30.3166657 110.25,30.51 C110.930003,30.7033343 111.596663,30.8 112.25,30.8 C113.570007,30.8 114.23,30.4733366 114.23,29.82 C114.23,29.5133318 114.050002,29.293334 113.69,29.16 C113.329998,29.026666 112.77667,28.9133338 112.03,28.82 C111.149996,28.686666 110.423336,28.5333342 109.85,28.36 C109.276664,28.1866658 108.780002,27.8800022 108.36,27.44 C107.939998,26.9999978 107.73,26.3733374 107.73,25.56 C107.73,24.8799966 107.926665,24.2766693 108.32,23.75 C108.713335,23.2233307 109.286663,22.8133348 110.04,22.52 C110.793337,22.2266652 111.683328,22.08 112.71,22.08 C113.47,22.08 114.226663,22.1633325 114.98,22.33 C115.733337,22.4966675 116.356664,22.7266652 116.85,23.02 L115.81,25.24 C114.863329,24.706664 113.830006,24.44 112.71,24.44 C112.04333,24.44 111.543335,24.5333324 111.21,24.72 C110.876665,24.9066676 110.71,25.1466652 110.71,25.44 C110.71,25.773335 110.889998,26.006666 111.25,26.14 C111.610002,26.273334 112.183329,26.3999994 112.97,26.52 C113.850004,26.6666674 114.569997,26.8233325 115.13,26.99 C115.690003,27.1566675 116.176665,27.4599978 116.59,27.9 C117.003335,28.3400022 117.21,28.9533294 117.21,29.74 C117.21,30.40667 117.010002,30.9999974 116.61,31.52 C116.209998,32.0400026 115.62667,32.4433319 114.86,32.73 C114.093329,33.0166681 113.183339,33.16 112.13,33.16 Z M129.67,27.66 C129.67,27.7000002 129.65,27.9799974 129.61,28.5 L121.47,28.5 C121.616667,29.16667 121.963331,29.6933314 122.51,30.08 C123.056669,30.4666686 123.736663,30.66 124.55,30.66 C125.110003,30.66 125.606664,30.5766675 126.04,30.41 C126.473335,30.2433325 126.876665,29.9800018 127.25,29.62 L128.91,31.42 C127.896662,32.58 126.416676,33.16 124.47,33.16 C123.256661,33.16 122.183338,32.9233357 121.25,32.45 C120.316662,31.9766643 119.596669,31.3200042 119.09,30.48 C118.583331,29.6399958 118.33,28.686672 118.33,27.62 C118.33,26.5666614 118.579997,25.6166709 119.08,24.77 C119.580002,23.9233291 120.266662,23.2633357 121.14,22.79 C122.013338,22.3166643 122.989995,22.08 124.07,22.08 C125.123339,22.08 126.076662,22.3066644 126.93,22.76 C127.783338,23.2133356 128.453331,23.8633291 128.94,24.71 C129.426669,25.5566709 129.67,26.5399944 129.67,27.66 Z M124.09,24.44 C123.38333,24.44 122.790002,24.639998 122.31,25.04 C121.829998,25.44 121.536667,25.9866632 121.43,26.68 L126.73,26.68 C126.623333,25.9999966 126.330002,25.4566687 125.85,25.05 C125.369998,24.6433313 124.783337,24.44 124.09,24.44 Z M135.37,33.16 C134.476662,33.16 133.603338,33.0500011 132.75,32.83 C131.896662,32.6099989 131.216669,32.333335 130.71,32 L131.75,29.76 C132.230002,30.0666682 132.809997,30.3166657 133.49,30.51 C134.170003,30.7033343 134.836663,30.8 135.49,30.8 C136.810007,30.8 137.47,30.4733366 137.47,29.82 C137.47,29.5133318 137.290002,29.293334 136.93,29.16 C136.569998,29.026666 136.01667,28.9133338 135.27,28.82 C134.389996,28.686666 133.663336,28.5333342 133.09,28.36 C132.516664,28.1866658 132.020002,27.8800022 131.6,27.44 C131.179998,26.9999978 130.97,26.3733374 130.97,25.56 C130.97,24.8799966 131.166665,24.2766693 131.56,23.75 C131.953335,23.2233307 132.526663,22.8133348 133.28,22.52 C134.033337,22.2266652 134.923328,22.08 135.95,22.08 C136.71,22.08 137.466663,22.1633325 138.22,22.33 C138.973337,22.4966675 139.596664,22.7266652 140.09,23.02 L139.05,25.24 C138.103329,24.706664 137.070006,24.44 135.95,24.44 C135.28333,24.44 134.783335,24.5333324 134.45,24.72 C134.116665,24.9066676 133.95,25.1466652 133.95,25.44 C133.95,25.773335 134.129998,26.006666 134.49,26.14 C134.850002,26.273334 135.423329,26.3999994 136.21,26.52 C137.090004,26.6666674 137.809997,26.8233325 138.37,26.99 C138.930003,27.1566675 139.416665,27.4599978 139.83,27.9 C140.243335,28.3400022 140.45,28.9533294 140.45,29.74 C140.45,30.40667 140.250002,30.9999974 139.85,31.52 C139.449998,32.0400026 138.86667,32.4433319 138.1,32.73 C137.333329,33.0166681 136.423339,33.16 135.37,33.16 Z" id="Ourcourses" fill="#FFFFFF" fill-rule="nonzero"></path>
                </g>
            </g>
        </g>
    </g>
</svg>