<?xml version="1.0" encoding="UTF-8"?>
<svg width="46px" height="28px" viewBox="0 0 46 28" version="1.1" xmlns="http://www.w3.org/2000/svg" xmlns:xlink="http://www.w3.org/1999/xlink">
    <!-- Generator: Sketch 55.1 (78136) - https://sketchapp.com -->
    <title>Group 6</title>
    <desc>Created with Sketch.</desc>
    <g id="Website-" stroke="none" stroke-width="1" fill="none" fill-rule="evenodd">
        <g id="Desktop-HD-Copy-2" transform="translate(-15.000000, -22.000000)">
            <g id="Group-6" transform="translate(15.000000, 21.000000)">
                <polygon id="Polygon" fill="#FFCC27" opacity="0.738960598" transform="translate(23.322642, 14.719968) rotate(-15.000000) translate(-23.322642, -14.719968) " points="23.3876554 2.37261524 33.745552 8.49056515 33.680538 20.8379174 23.2576276 27.0673198 12.899731 20.9493699 12.964745 8.60201762"></polygon>
                <path d="M18.5692993,26.4599741 C18.5852591,26.5294418 18.6159964,26.5706515 18.6821998,26.6077403 C18.949969,26.7596274 19.6864821,26.768458 20.9709468,26.3828531 C20.8704595,25.9684014 20.7776565,25.4997884 20.6943111,24.9829011 C19.3312298,25.4550464 18.4759052,26.0390466 18.5692993,26.4599741 Z M19.233698,27.5873534 C18.8258376,27.5873534 18.4960027,27.5172969 18.2459665,27.377184 C17.9616465,27.2164662 17.773676,26.9656758 17.7033349,26.6518935 L17.7033349,26.6513048 C17.4095572,25.3314174 19.2945815,24.4701349 20.9266142,23.9803283 L21.4219577,23.8313847 L21.4940721,24.3412074 C21.6176124,25.2195625 21.7647968,25.9642804 21.9326698,26.5571112 L22.0467525,26.9621436 L21.6465764,27.095192 C20.6641649,27.4231034 19.8579017,27.5873534 19.233698,27.5873534 L19.233698,27.5873534 Z" id="Fill-2032" fill="#30292F"></path>
                <path d="M25.0368774,24.6432151 C26.7000891,25.230776 27.531695,25.8043385 27.531695,26.3639026 C27.531695,27.2032488 25.3692782,26.9521102 24.495664,26.9521102" id="Path-2" fill="#FFFFFF"></path>
                <path d="M24.7102582,26.3828531 C25.9935407,26.7678693 26.7306449,26.7602161 26.9990052,26.6077403 C27.0646175,26.5706515 27.0959459,26.5294418 27.1113146,26.4599741 C27.2058909,26.0390466 26.3499752,25.4550464 24.9868939,24.9829011 C24.9035485,25.4997884 24.8113366,25.9678127 24.7102582,26.3828531 Z M26.447507,27.5873534 C25.8238944,27.5873534 25.0170401,27.4236921 24.0346286,27.095192 L23.6344525,26.9621436 L23.7491263,26.5576999 C23.9158171,25.9636917 24.0630015,25.2183851 24.1865418,24.3412074 L24.2586562,23.8313847 L24.7539997,23.9803283 C26.3872146,24.4701349 28.2722389,25.3320061 27.977279,26.6518935 C27.9069379,26.9656758 27.7201497,27.2164662 27.4352385,27.377184 C27.1852023,27.5172969 26.8559585,27.5873534 26.447507,27.5873534 L26.447507,27.5873534 Z" id="Fill-2034" fill="#30292F"></path>
                <g id="Group-5" transform="translate(0.000000, 1.177597)">
                    <polygon id="Polygon" fill="#FFCC27" opacity="0.738960598" transform="translate(41.767925, 18.252760) rotate(-15.000000) translate(-41.767925, -18.252760) " points="41.7895958 14.1369756 45.242228 16.1762923 45.2205567 20.2920764 41.7462532 22.3685438 38.293621 20.3292272 38.3152924 16.2134431"></polygon>
                    <polygon id="Polygon-Copy" fill="#FFCC27" opacity="0.738960598" transform="translate(6.030189, 15.897565) rotate(-15.000000) translate(-6.030189, -15.897565) " points="6.05805179 10.6058425 10.6620773 13.2269365 10.6342142 18.5186589 6.00232556 21.1892873 1.39830001 18.5681934 1.42616313 13.2764709"></polygon>
                    <path d="M13.7158867,14.4889996 C11.7115398,15.3775975 10.6479558,16.2175684 10.5251347,17.0089124 C10.3409032,18.1959284 9.70951234,19.611412 11.5463609,18.7865594 C12.7709267,18.2366577 13.9775442,17.5614222 15.1662135,16.760853 L16.2883287,13.2048964 L13.7158867,14.4889996 Z" id="Path-12" fill="#FFFFFF"></path>
                    <path d="M20.7785176,5.40124995 C19.8951392,9.62252695 20.1970946,22.0395806 21.2377354,24.0881828 C21.9314959,25.4539175 22.9533683,25.7178676 24.3033526,24.8800331 C24.950041,18.7939782 25.2733851,12.1018298 25.2733851,4.80358805 C22.2575716,-3.46906772 20.4521709,2.57386732 20.7785176,5.40124995 Z" id="Path-9" fill="#FFFFFF"></path>
                    <path d="M22.8406025,1.0481367 C22.3878184,1.26949159 21.0217816,2.16138698 21.0217816,4.84531508 C21.0217816,5.26977486 21.0117329,5.91558954 20.9993197,6.72447684 C20.9230676,11.6984862 20.7197285,24.9120782 22.5870197,26.8006593 C22.7223821,26.93724 22.8110474,26.93724 22.8406025,26.93724 C22.8701576,26.93724 22.9588229,26.93724 23.0935942,26.8006593 C24.9620676,24.9114895 24.7587286,11.6984862 24.6824764,6.72388813 C24.6694721,5.91558954 24.6600145,5.26977486 24.6600145,4.84531508 C24.6600145,2.16138698 23.2927955,1.26949159 22.8406025,1.0481367 Z M22.8406025,27.8203047 C22.5154964,27.8203047 22.217581,27.6854902 21.9557228,27.4205708 C20.0807472,25.5237477 19.9713933,15.8871566 20.1126667,6.71034781 C20.1250798,5.90852502 20.1351286,5.26683131 20.1351286,4.84531508 C20.1351286,1.02753186 22.5982507,0.182733255 22.7028757,0.149176795 L22.8406025,0.103846138 L22.9777382,0.149176795 C23.0829543,0.182733255 25.5466675,1.02753186 25.5466675,4.84531508 C25.5466675,5.26683131 25.5561252,5.90793631 25.5685383,6.71034781 C25.7098117,15.8865679 25.6010489,25.5237477 23.7254822,27.4205708 C23.4630329,27.6854902 23.1657086,27.8203047 22.8406025,27.8203047 L22.8406025,27.8203047 Z" id="Fill-2031" fill="#30292F"></path>
                    <path d="M15.2428019,10.2809315 L20.7330543,13.8742251 L21.7619836,17.4484755 C19.0318751,15.5466032 16.8588146,14.8197901 15.2428019,15.2680362 C13.6267893,15.7162824 13.6267893,14.0539142 15.2428019,10.2809315 Z" id="Path-10" fill="#FFFFFF" transform="translate(17.896388, 13.864703) scale(-1, 1) translate(-17.896388, -13.864703) "></path>
                    <path d="M20.0671518,10.6705988 C17.4869915,12.3937525 11.8703402,16.1497212 11.2337233,16.6083261 C10.8169964,16.9073907 10.4020427,18.1319071 10.6077462,18.4533427 C10.6514878,18.5222218 10.9606342,18.5410605 11.6344905,18.1636975 L12.0671771,17.921149 C14.48242,16.565939 17.7340722,14.7415273 20.0842938,14.5713901 C20.0653785,13.3580592 20.0606497,12.0723169 20.0671518,10.6705988 Z M10.716509,19.3782058 C10.2725914,19.3782058 10.0130976,19.1656816 9.8605933,18.9290202 C9.3333303,18.1071813 10.0272841,16.3863825 10.7141446,15.8918663 C11.428787,15.3779226 18.2087271,10.8483892 20.2693087,9.47257431 L20.9668091,9.00631613 L20.9597159,9.84228408 C20.9437561,11.7420507 20.9496672,13.4263495 20.9774489,14.9929063 L20.9857244,15.456221 L20.5217093,15.4426807 C18.4026086,15.3685032 14.8500854,17.3730602 12.5022282,18.6911815 L12.0683593,18.9343186 C11.4914438,19.2569316 11.0510728,19.3782058 10.716509,19.3782058 L10.716509,19.3782058 Z" id="Fill-2033" fill="#30292F"></path>
                    <path d="M25.6182736,10.2809315 L31.1085259,13.8742251 L32.1374553,17.4484755 C29.4073468,15.5466032 27.2342863,14.8197901 25.6182736,15.2680362 C24.002261,15.7162824 24.002261,14.0539142 25.6182736,10.2809315 Z" id="Path-10" fill="#FFFFFF"></path>
                    <path d="M33.6899798,15.35366 C35.4746746,16.5355654 36.0695729,17.6144111 35.4746746,18.5901971 C34.8797764,19.565983 33.6766283,19.0780901 31.8652305,17.1265181 L28.1669117,15.35366 L30.1144378,13.337552 L33.6899798,15.35366 Z" id="Path-11" fill="#FFFFFF"></path>
                    <path d="M25.5975023,14.5713901 C27.9471328,14.7409385 31.1993761,16.565939 33.6158012,17.9223264 L34.0473057,18.1636975 C34.7187976,18.539883 35.0279439,18.521633 35.0734588,18.4533427 C35.2797534,18.1319071 34.8642086,16.9073907 34.4468906,16.6083261 C33.8008161,16.1432453 27.9435862,12.2265589 25.6140532,10.6705988 C25.6211464,12.074083 25.6158265,13.360414 25.5975023,14.5713901 Z M34.964696,19.3782058 C34.6301322,19.3782058 34.1903523,19.2569316 33.6128457,18.9343186 L33.1807501,18.6917702 C30.8317107,17.3736489 27.2975117,15.3579064 25.1594957,15.4426807 L24.6948895,15.456221 L24.703165,14.9929063 C24.7315379,13.4310592 24.73804,11.7461717 24.7214891,9.84228408 L24.714987,9.00631613 L25.4118963,9.47257431 C26.8778293,10.45101 34.2264096,15.3596726 34.9664693,15.8918663 C35.6533298,16.3863825 36.3478747,18.1071813 35.8206117,18.9290202 C35.6686985,19.1656816 35.4080225,19.3782058 34.964696,19.3782058 L34.964696,19.3782058 Z" id="Fill-2035" fill="#30292F"></path>
                </g>
                <path d="M23.4263846,4.87904929 C23.3465858,4.62119438 23.1113272,4.44811369 22.8406025,4.44811369 C22.5698778,4.44811369 22.3346192,4.62119438 22.2554115,4.87846058 L21.4077712,4.61825083 C21.6022438,3.98833132 22.1785682,3.56504896 22.8406025,3.56504896 C23.5020457,3.56504896 24.077779,3.98833132 24.2740249,4.61766212 L23.4263846,4.87904929" id="Fill-2036" fill="#30292F"></path>
            </g>
        </g>
    </g>
</svg>