<?xml version="1.0" encoding="UTF-8"?>
<svg width="198px" height="162px" viewBox="0 0 198 162" version="1.1" xmlns="http://www.w3.org/2000/svg" xmlns:xlink="http://www.w3.org/1999/xlink">
    <!-- Generator: Sketch 55.2 (78181) - https://sketchapp.com -->
    <title>Group 41</title>
    <desc>Created with Sketch.</desc>
    <defs>
        <polygon id="path-1" points="0.000590337416 15.4991937 35.4208353 15.4991937 35.4208353 0.0852455651 0.000590337416 0.0852455651 0.000590337416 15.4991937"></polygon>
        <polygon id="path-3" points="29.2063533 19.5114211 29.2063533 0.368701665 0.574264712 0.368701665 0.574264712 19.5114211 29.2063533 19.5114211"></polygon>
    </defs>
    <g id="Website-" stroke="none" stroke-width="1" fill="none" fill-rule="evenodd">
        <g id="Desktop-HD-Copy-2" transform="translate(-620.000000, -2367.000000)">
            <g id="Group-47" transform="translate(216.000000, 2159.000000)">
                <g id="Group-37" transform="translate(0.000000, 208.000000)">
                    <g id="Group-36">
                        <g id="Group-41" transform="translate(404.000000, 0.000000)">
                            <g id="library" transform="translate(49.248731, 60.372671)" fill-rule="nonzero">
                                <path d="M10.0507614,92.5714286 C8.94115736,92.5714286 8.04060914,91.6698634 8.04060914,90.5590062 L8.04060914,82.5093168 C8.04060914,81.3984596 8.94115736,80.4968944 10.0507614,80.4968944 C11.1603655,80.4968944 12.0609137,81.3984596 12.0609137,82.5093168 L12.0609137,90.5590062 C12.0609137,91.6698634 11.1603655,92.5714286 10.0507614,92.5714286 Z" id="Path" fill="#B3B3B3"></path>
                                <path d="M82.4162437,92.5714286 C81.3066396,92.5714286 80.4060914,91.6698634 80.4060914,90.5590062 L80.4060914,82.5093168 C80.4060914,81.3984596 81.3066396,80.4968944 82.4162437,80.4968944 C83.5258477,80.4968944 84.4263959,81.3984596 84.4263959,82.5093168 L84.4263959,90.5590062 C84.4263959,91.6698634 83.5258477,92.5714286 82.4162437,92.5714286 Z" id="Path" fill="#B3B3B3"></path>
                                <path d="M90.4568528,84.5217391 L2.01015228,84.5217391 C0.900548223,84.5217391 0,83.6201739 0,82.5093168 L0,2.01242236 C0,0.901565217 0.900548223,0 2.01015228,0 L90.4568528,0 C91.5664569,0 92.4670051,0.901565217 92.4670051,2.01242236 L92.4670051,82.5093168 C92.4670051,83.6201739 91.5664569,84.5217391 90.4568528,84.5217391 Z" id="Path" fill="#A67C52"></path>
                                <rect id="Rectangle" fill="#5E4027" x="4.02030457" y="4.02484472" width="84.4263959" height="36.2236025"></rect>
                                <rect id="Rectangle" fill="#5E4027" x="4.02030457" y="44.2732919" width="84.4263959" height="36.2236025"></rect>
                                <path d="M48.2436548,40.2484472 L46.2335025,40.2484472 C45.1238985,40.2484472 44.2233503,39.346882 44.2233503,38.2360248 L44.2233503,14.0869565 C44.2233503,12.9760994 45.1238985,12.0745342 46.2335025,12.0745342 L48.2436548,12.0745342 C49.3532589,12.0745342 50.2538071,12.9760994 50.2538071,14.0869565 L50.2538071,38.2360248 C50.2538071,39.346882 49.3532589,40.2484472 48.2436548,40.2484472 Z" id="Path" fill="#BFDEE0"></path>
                                <path d="M28.142132,80.4968944 L26.1319797,80.4968944 C25.0223756,80.4968944 24.1218274,79.5953292 24.1218274,78.484472 L24.1218274,54.3354037 C24.1218274,53.2245466 25.0223756,52.3229814 26.1319797,52.3229814 L28.142132,52.3229814 C29.251736,52.3229814 30.1522843,53.2245466 30.1522843,54.3354037 L30.1522843,78.484472 C30.1522843,79.5953292 29.251736,80.4968944 28.142132,80.4968944 Z" id="Path" fill="#E86C60"></path>
                                <path d="M18.0913706,80.4968944 L16.0812183,80.4968944 C14.9716142,80.4968944 14.071066,79.5953292 14.071066,78.484472 L14.071066,54.3354037 C14.071066,53.2245466 14.9716142,52.3229814 16.0812183,52.3229814 L18.0913706,52.3229814 C19.2009746,52.3229814 20.1015228,53.2245466 20.1015228,54.3354037 L20.1015228,78.484472 C20.1015228,79.5953292 19.2009746,80.4968944 18.0913706,80.4968944 Z" id="Path" fill="#BFDEE0"></path>
                                <path d="M48.2436548,80.4968944 L46.2335025,80.4968944 C45.1238985,80.4968944 44.2233503,79.5953292 44.2233503,78.484472 L44.2233503,54.3354037 C44.2233503,53.2245466 45.1238985,52.3229814 46.2335025,52.3229814 L48.2436548,52.3229814 C49.3532589,52.3229814 50.2538071,53.2245466 50.2538071,54.3354037 L50.2538071,78.484472 C50.2538071,79.5953292 49.3532589,80.4968944 48.2436548,80.4968944 Z" id="Path" fill="#72C472"></path>
                                <path d="M38.1928934,80.4968944 L36.1827411,80.4968944 C35.0731371,80.4968944 34.1725888,79.5953292 34.1725888,78.484472 L34.1725888,54.3354037 C34.1725888,53.2245466 35.0731371,52.3229814 36.1827411,52.3229814 L38.1928934,52.3229814 C39.3024975,52.3229814 40.2030457,53.2245466 40.2030457,54.3354037 L40.2030457,78.484472 C40.2030457,79.5953292 39.3024975,80.4968944 38.1928934,80.4968944 Z" id="Path" fill="#E6E6E6"></path>
                                <path d="M40.2030457,36.2236025 L40.2030457,38.2360248 C40.2030457,39.346882 39.3024975,40.2484472 38.1928934,40.2484472 L16.0812183,40.2484472 C14.9716142,40.2484472 14.071066,39.346882 14.071066,38.2360248 L14.071066,36.2236025 C14.071066,35.1127453 14.9716142,34.2111801 16.0812183,34.2111801 L38.1928934,34.2111801 C39.3024975,34.2111801 40.2030457,35.1127453 40.2030457,36.2236025 Z" id="Path" fill="#E6E6E6"></path>
                                <path d="M80.4060914,76.4720497 L80.4060914,78.484472 C80.4060914,79.5953292 79.5055431,80.4968944 78.3959391,80.4968944 L56.284264,80.4968944 C55.1746599,80.4968944 54.2741117,79.5953292 54.2741117,78.484472 L54.2741117,76.4720497 C54.2741117,75.3611925 55.1746599,74.4596273 56.284264,74.4596273 L78.3959391,74.4596273 C79.5055431,74.4596273 80.4060914,75.3611925 80.4060914,76.4720497 Z" id="Path" fill="#EAD8C5"></path>
                                <path d="M58.2944162,40.2484472 L56.284264,40.2484472 C55.1746599,40.2484472 54.2741117,39.346882 54.2741117,38.2360248 L54.2741117,14.0869565 C54.2741117,12.9760994 55.1746599,12.0745342 56.284264,12.0745342 L58.2944162,12.0745342 C59.4040203,12.0745342 60.3045685,12.9760994 60.3045685,14.0869565 L60.3045685,38.2360248 C60.3045685,39.346882 59.4040203,40.2484472 58.2944162,40.2484472 Z" id="Path" fill="#EAD8C5"></path>
                                <path d="M68.3451777,40.2484472 L66.3350254,40.2484472 C65.2254213,40.2484472 64.3248731,39.346882 64.3248731,38.2360248 L64.3248731,14.0869565 C64.3248731,12.9760994 65.2254213,12.0745342 66.3350254,12.0745342 L68.3451777,12.0745342 C69.4547817,12.0745342 70.3553299,12.9760994 70.3553299,14.0869565 L70.3553299,38.2360248 C70.3553299,39.346882 69.4547817,40.2484472 68.3451777,40.2484472 Z" id="Path" fill="#72C472"></path>
                                <path d="M78.3959391,40.2484472 L76.3857868,40.2484472 C75.2761827,40.2484472 74.3756345,39.346882 74.3756345,38.2360248 L74.3756345,14.0869565 C74.3756345,12.9760994 75.2761827,12.0745342 76.3857868,12.0745342 L78.3959391,12.0745342 C79.5055431,12.0745342 80.4060914,12.9760994 80.4060914,14.0869565 L80.4060914,38.2360248 C80.4060914,39.346882 79.5055431,40.2484472 78.3959391,40.2484472 Z" id="Path" fill="#E86C60"></path>
                            </g>
                            <g id="Group-40">
                                <g id="Group" transform="translate(127.644670, 1.006211)">
                                    <ellipse id="Oval-Copy-2" fill="#E9EAEC" cx="32.9322821" cy="156.968944" rx="28.4415164" ry="3.01863354"></ellipse>
                                    <g id="girl_1">
                                        <path d="M33.419435,0.0428805166 L33.419435,0.0428805166 C32.6833117,0.0428805166 31.9554331,0.0763955837 31.2322656,0.124274251 C28.2595056,0.322970721 25.3915694,0.923847996 22.6779248,1.87184561 C17.8324672,3.56555347 13.4793289,6.36047068 9.924737,9.97171916 C6.28298815,13.6715432 3.48336428,18.2224105 1.82855925,23.2927614 C0.743808058,26.6215257 0.146664893,30.170532 0.146664893,33.8571893 L0.146664893,55.8801794 C0.146664893,123.494433 15.1188225,109.750862 33.419435,109.750862 L33.419435,100.984278 C51.7188696,100.984278 66.692205,123.494433 66.692205,55.8801794 L66.692205,33.8571893 C66.692205,15.258721 51.7188696,0.0428805166 33.419435,0.0428805166" id="Fill-60" fill="#F2BA28"></path>
                                        <path d="M19.2295702,88.6756302 C9.39378604,92.9248619 2.68269776,101.41375 2.68269776,111.196558 L2.68269776,113.167962 C2.68269776,118.36998 6.6212515,122.629984 11.6316007,123.056104 C11.902494,123.078847 12.175743,123.097998 12.4537031,123.097998 C12.4537031,123.097998 16.365378,123.102292 16.3533895,123.097998 C16.9069542,125.403356 18.0847514,127.526775 19.8031574,129.192952 C27.5224401,136.681176 39.6608177,136.7111 47.4166121,129.26118 C49.1668187,127.578244 50.372883,125.432083 50.9488258,123.097998 C51.2351369,123.067483 55.4751003,123.080044 55.7836832,123.050119 C60.6303186,122.571333 64.4204699,118.421449 64.4204699,113.369053 L64.4204699,111.196558 C64.4204699,101.44128 57.7482489,92.9715436 47.957221,88.7103422 C50.9382256,95.5390371 15.8457589,96.5013983 19.2295702,88.6756302 Z" id="Fill-70" fill="#4FC2C3"></path>
                                        <path d="M11.6311295,123.097878 L11.6311295,123.097878 L12.4544098,123.097878 C12.1764496,123.097878 11.9032007,123.078727 11.6311295,123.055985 L11.6311295,123.097878 Z" id="Fill-62" fill="#0EA9A1"></path>
                                        <path d="M15.9875657,115.916557 C15.9875657,114.925469 15.1972638,114.121107 14.22087,114.121107 C13.2444761,114.121107 12.4541742,114.925469 12.4541742,115.916557 L12.4541742,123.098357 L12.4541742,123.098357 L16.3526828,123.098357 C16.1218346,122.133602 15.9875657,121.141317 15.9875657,120.132274 L15.9875657,115.916557 Z" id="Fill-64" fill="#0EA9A1"></path>
                                        <path d="M54.8479234,115.916557 C54.8479234,114.93265 54.0623326,114.134274 53.0941834,114.134274 C52.1248563,114.134274 51.3392656,114.93265 51.3392656,115.916557 L51.3392656,120.005395 C51.3392656,121.058726 51.1955743,122.094102 50.9482369,123.098357 L54.8479234,123.098357 L54.8479234,123.098357 L54.8479234,115.916557 Z" id="Fill-68" fill="#0EA9A1"></path>
                                        <path d="M27.129527,108.78108 C28.0964984,109.184457 29.0905592,109.488487 30.090509,109.683592 L32.2706116,103.51682 C32.6510401,102.91714 33.5273212,102.959034 33.8523932,103.592229 L36.368168,109.635714 C38.3574674,109.216775 40.3927009,108.374111 42.2665762,107.181932 C48.4971232,103.217578 50.9386968,95.5390371 47.9576921,88.7103422 C47.9576921,88.7103422 41.5516533,85.7741829 33.534388,85.7741829 C25.5171226,85.7741829 19.2335747,88.6660544 19.2335747,88.6660544 C19.2323969,88.6696453 19.2312191,88.6720393 19.2300413,88.6756302 C15.8450523,96.5013983 19.3466433,105.533709 27.129527,108.78108" id="Fill-72" fill="#0EA9A1"></path>
                                        <path d="M33.5519371,66.5625085 C29.6204502,66.5625085 26.4038861,69.8314246 26.4038861,73.8268993 L26.4038861,74.4050343 C26.4038861,70.4095595 29.6204502,67.1406434 33.5519371,67.1406434 C37.4834241,67.1406434 40.6999882,70.4095595 40.6999882,74.4050343 L40.6999882,73.8268993 C40.6999882,69.8314246 37.4834241,66.5625085 33.5519371,66.5625085" id="Fill-74" fill="#231F20"></path>
                                        <path d="M26.4036506,85.0850892 L26.4036506,86.4532221 L26.4036506,87.031357 L26.4036506,90.2703489 C26.4036506,92.8462212 29.3752328,96.3892426 31.4858454,98.5808886 C32.6235974,99.7622947 34.4809836,99.7622947 35.6187356,98.5808886 C37.7293482,96.3892426 40.7009304,92.8462212 40.7009304,90.2703489 L40.7009304,87.031357 L40.7009304,86.4532221 L40.7009304,79.0478221 C38.4289597,79.7109417 36.0333202,80.8767872 33.5517016,80.8767872 C31.0712607,80.8767872 28.6744435,79.7109417 26.4036506,79.0478221" id="Fill-76" fill="#FFE1AD"></path>
                                        <path d="M61.0264117,44.0347577 C60.902743,42.3925194 60.101841,40.9765078 58.9322884,40.0177375 L58.9322884,48.9399271 C60.3326892,47.79443 61.1736364,45.9929952 61.0264117,44.0347577" id="Fill-78" fill="#FCCA80"></path>
                                        <path d="M5.09612194,44.9095009 C5.21979065,46.5517392 6.02069272,47.9677508 7.19024531,48.9265211 L7.19024531,40.0043314 C5.78984448,41.1498286 4.9488973,42.9512634 5.09612194,44.9095009" id="Fill-80" fill="#FCCA80"></path>
                                        <path d="M26.4036506,81.4077681 L26.4036506,85.0848498 C28.6744435,85.7479693 31.0712607,86.9138149 33.5517016,86.9138149 C36.0333202,86.9138149 38.4289597,85.7479693 40.7009304,85.0848498 L40.7009304,81.01636 C38.2852684,82.060115 35.721204,82.6466287 33.061738,82.6466287 C30.7591445,82.6466287 28.5283967,82.203751 26.4036506,81.4077681" id="Fill-82" fill="#D7B48A"></path>
                                        <path d="M58.9326417,30.4283586 C58.9326417,15.9079557 47.3501843,30.8544787 33.0611491,30.8544787 C27.7799066,30.8544787 22.8684924,25.9253699 18.7756472,25.8523549 C18.7049794,25.851158 18.6354893,25.849961 18.5659993,25.849961 C12.2530065,25.8224308 7.18965641,31.1848415 7.18965641,37.600583 L7.18965641,40.0040921 L7.18965641,48.9262817 L7.18965641,50.9874583 L7.1967232,50.9874583 C7.1955454,51.0784278 7.18965641,51.1670034 7.18965641,51.2579728 C7.18965641,63.4383058 15.3423684,77.2656649 26.4030617,81.4083666 C28.5278078,82.2031525 30.7585556,82.6472271 33.0611491,82.6472271 C35.7206151,82.6472271 38.2858573,82.0607135 40.7003415,81.0157616 C51.2592932,76.4469397 58.9326417,63.0756249 58.9326417,51.2579728 C58.9326417,51.1670034 58.9267527,51.0784278 58.9255749,50.9874583 L58.9326417,50.9874583 L58.9326417,48.9406453 L58.9326417,40.0184557 L58.9326417,30.4283586 Z" id="Fill-84" fill="#FFE1AD"></path>
                                        <path d="M25.3504643,37.938367 C25.247996,37.938367 25.143172,37.9275943 25.0383481,37.9048519 C21.0986165,37.0430359 16.9386369,36.8072334 14.9257816,37.3374897 C14.1366575,37.5457619 13.3345776,37.0633843 13.1319965,36.2638106 C12.9294154,35.4642368 13.401712,34.6467086 14.1896583,34.4408303 C17.2130637,33.6436505 22.2587468,34.234952 25.6590472,34.9794653 C26.4540603,35.1542224 26.9593353,35.9490083 26.7885547,36.7569608 C26.6389744,37.4595803 26.0288755,37.938367 25.3504643,37.938367" id="Fill-86" fill="#BC7455"></path>
                                        <path d="M40.6825568,37.938367 C40.0041456,37.938367 39.3940467,37.4595803 39.2444664,36.7569608 C39.0736858,35.9490083 39.5789608,35.1542224 40.3739739,34.9794653 C43.7754521,34.2337551 48.8211352,33.6436505 51.8445406,34.4408303 C52.6313091,34.6467086 53.1047835,35.4630398 52.9022024,36.2638106 C52.6984435,37.0633843 51.8963636,37.5457619 51.1084173,37.3374897 C49.0932064,36.8072334 44.9344046,37.0430359 40.994673,37.9048519 C40.8898491,37.9275943 40.7850251,37.938367 40.6825568,37.938367" id="Fill-88" fill="#BC7455"></path>
                                        <path d="M33.5783198,71.6813366 C31.7621566,71.6813366 26.2924665,70.5011274 26.2924665,68.7583439 C26.2924665,68.4411478 26.423202,68.1335273 26.6434501,67.9096945 C27.0898352,67.4572411 27.8836705,67.4787865 28.3029663,67.89174 C28.8553531,68.2017544 31.185036,69.2874032 33.5783198,69.2874032 C36.0893834,69.2874032 38.6546256,68.1670424 39.2364574,67.8642098 C39.6604644,67.4751956 40.4295659,67.4668169 40.8641731,67.9084976 C41.085599,68.1335273 41.2151567,68.4399508 41.2151567,68.7583439 C41.2151567,70.5011274 35.4828178,71.6813366 33.5783198,71.6813366" id="Fill-90" fill="#F05B3D"></path>
                                        <path d="M52.5437987,64.0911314 C52.5437987,66.6670037 50.4897205,68.7545136 47.955101,68.7545136 C45.4216593,68.7545136 43.3664032,66.6670037 43.3664032,64.0911314 C43.3664032,61.5152591 45.4216593,59.4277492 47.955101,59.4277492 C50.4897205,59.4277492 52.5437987,61.5152591 52.5437987,64.0911314" id="Fill-92" fill="#FBC39C"></path>
                                        <path d="M23.8552508,64.0911314 C23.8552508,66.6670037 21.8011726,68.7545136 19.266553,68.7545136 C16.7331113,68.7545136 14.6778553,66.6670037 14.6778553,64.0911314 C14.6778553,61.5152591 16.7331113,59.4277492 19.266553,59.4277492 C21.8011726,59.4277492 23.8552508,61.5152591 23.8552508,64.0911314" id="Fill-94" fill="#FBC39C"></path>
                                        <path d="M46.0799301,55.2147856 C42.5453608,55.2147856 39.6691801,52.2917929 39.6691801,48.6996959 C39.6691801,45.1064019 42.5453608,42.1834093 46.0799301,42.1834093 C49.6144994,42.1834093 52.4906801,45.1064019 52.4906801,48.6996959 C52.4906801,52.2917929 49.6144994,55.2147856 46.0799301,55.2147856 M21.1424306,55.2147856 C17.6066835,55.2147856 14.7305028,52.2917929 14.7305028,48.6996959 C14.7305028,45.1064019 17.6066835,42.1834093 21.1424306,42.1834093 C24.6769999,42.1834093 27.5531806,45.1064019 27.5531806,48.6996959 C27.5531806,52.2917929 24.6769999,55.2147856 21.1424306,55.2147856 M46.0799301,39.7894759 C42.5276938,39.7894759 39.4701324,41.9511978 38.0932875,45.0441597 L37.282963,44.8059633 C35.1275942,44.1751619 32.8485567,44.1751619 30.6943657,44.8059633 L29.2197636,45.2380683 C27.8888528,42.0397733 24.7688681,39.7894759 21.1424306,39.7894759 C16.3075732,39.7894759 12.3749085,43.7861477 12.3749085,48.6996959 C12.3749085,53.6120472 16.3075732,57.608719 21.1424306,57.608719 C25.9761102,57.608719 29.9087749,53.6120472 29.9087749,48.6996959 C29.9087749,48.3094848 29.8757966,47.9276524 29.8275069,47.5518049 L31.3468653,47.1065333 C33.0746937,46.5990194 34.9014571,46.5990194 36.6304634,47.1065333 L37.4266543,47.3399418 C37.358342,47.7840164 37.3135858,48.2364698 37.3135858,48.6996959 C37.3135858,53.6120472 41.2462505,57.608719 46.0799301,57.608719 C50.9136097,57.608719 54.8462744,53.6120472 54.8462744,48.6996959 C54.8462744,43.7861477 50.9136097,39.7894759 46.0799301,39.7894759" id="Fill-96" fill="#5B5255"></path>
                                        <path d="M47.9553365,48.8544637 C47.9553365,49.9065974 47.1155671,50.7600347 46.0802834,50.7600347 C45.0449997,50.7600347 44.2052303,49.9065974 44.2052303,48.8544637 C44.2052303,47.80233 45.0449997,46.9488928 46.0802834,46.9488928 C47.1155671,46.9488928 47.9553365,47.80233 47.9553365,48.8544637" id="Fill-98" fill="#404042"></path>
                                        <path d="M23.0172481,48.8544637 C23.0172481,49.9065974 22.1774788,50.7600347 21.142195,50.7600347 C20.1069113,50.7600347 19.2671419,49.9065974 19.2671419,48.8544637 C19.2671419,47.80233 20.1069113,46.9488928 21.142195,46.9488928 C22.1774788,46.9488928 23.0172481,47.80233 23.0172481,48.8544637" id="Fill-100" fill="#404042"></path>
                                        <path d="M30.6315891,62.2365512 C30.5585656,62.2784451 31.6704062,62.893686 32.815225,62.893686 C34.0024446,62.893686 35.2120423,62.2365512 35.1248853,62.2365512" id="Fill-102" fill="#FCCA80"></path>
                                        <path d="M36.1555756,62.9230116 C36.315756,62.7207243 36.4170465,62.4861188 36.4170465,62.2096195 C36.4170465,61.8864385 36.2886667,61.5764241 36.0648852,61.3478035 C35.9777282,61.2604249 35.8729043,61.2005766 35.7657247,61.1467131 L35.7704359,61.1407282 C35.7610135,61.1347434 35.7504133,61.1347434 35.740991,61.1299555 C35.7009459,61.1108041 35.6620786,61.1000314 35.6208557,61.0856678 C35.229827,60.9312591 34.8034644,60.9970922 34.4795702,61.2448643 C34.2122102,61.3789246 33.5337991,61.6386664 32.9225223,61.654227 C32.3112456,61.6386664 31.6340122,61.3789246 31.3654745,61.2448643 C31.0427581,60.9970922 30.6163955,60.9312591 30.2253668,61.0856678 C30.1841439,61.1000314 30.1440988,61.1108041 30.1052315,61.1299555 C30.0958091,61.1347434 30.085209,61.1347434 30.0757866,61.1407282 L30.0804978,61.1455161 C29.9733182,61.1993796 29.8673165,61.2604249 29.7813373,61.3478035 C29.556378,61.5764241 29.4279981,61.8864385 29.4279981,62.2096195 C29.4279981,62.4861188 29.5304665,62.7207243 29.6894691,62.9230116 C29.6918247,62.9254056 29.6930025,62.9277995 29.6953581,62.9301934 C29.7884041,63.0474962 29.9002948,63.1540262 30.0298525,63.2485866 C30.0581196,63.268935 30.0887423,63.2880865 30.1181873,63.3072379 C30.2029887,63.3634954 30.2913235,63.4149649 30.3843694,63.4640406 C31.2382724,63.9200849 32.4337365,64.0912511 32.8683437,64.0912511 C32.8706993,64.0912511 32.8907218,64.0900542 32.9225223,64.0888572 C32.9543229,64.0900542 32.9743454,64.0912511 32.976701,64.0912511 C33.4113082,64.0912511 34.6067723,63.9200849 35.4606752,63.4640406 C35.554899,63.4149649 35.6432338,63.3634954 35.7268574,63.3072379 C35.7563023,63.2880865 35.7869251,63.268935 35.8151922,63.2485866 C35.9447499,63.1540262 36.0566406,63.0474962 36.1496866,62.9301934 C36.1520422,62.9277995 36.15322,62.9254056 36.1555756,62.9230116" id="Fill-104" fill="#FCCA80"></path>
                                        <path d="M37.531596,124.757592 C36.8166731,124.757592 36.2371969,124.168685 36.2371969,123.442126 C36.2371969,122.716764 36.8166731,122.127857 37.531596,122.127857 C38.2465189,122.127857 38.8259951,122.716764 38.8259951,123.442126 C38.8259951,124.168685 38.2465189,124.757592 37.531596,124.757592 L37.531596,124.757592 Z M31.0442892,124.757592 C30.3305441,124.757592 29.7510679,124.168685 29.7510679,123.442126 C29.7510679,122.716764 30.3305441,122.127857 31.0442892,122.127857 C31.7592121,122.127857 32.3386883,122.716764 32.3386883,123.442126 C32.3386883,124.168685 31.7592121,124.757592 31.0442892,124.757592 L31.0442892,124.757592 Z M42.0013363,116.633779 C42.2050952,116.375235 42.1638723,115.999387 41.9094681,115.792312 C41.6550639,115.587631 41.2864134,115.629524 41.0814767,115.885675 L39.1746231,118.302351 C38.8577956,118.031837 38.5280124,117.775686 38.1734955,117.556641 C36.9532976,116.801355 35.5210962,116.366856 33.9876043,116.366856 C31.9924159,116.366856 30.1703637,117.107778 28.7628961,118.328684 L26.893732,115.885675 C26.6911508,115.628327 26.3201447,115.586434 26.0657406,115.792312 C25.8125142,115.999387 25.7712913,116.375235 25.9738724,116.633779 L27.9195933,119.177334 C26.6817285,120.618482 25.9267605,122.497719 25.9267605,124.560093 C25.9267605,129.964397 42.049626,129.739368 42.049626,124.560093 C42.049626,122.479765 41.2758132,120.590951 40.0191036,119.146213 L42.0013363,116.633779 Z" id="Fill-106" fill="#FEFEFE"></path>
                                        <path d="M43.3668743,28.6555312 C43.3668743,28.6555312 50.3877232,36.4417995 66.5600562,30.854359 L65.7061532,24.4565721 L51.4760078,24.4565721 L43.3668743,28.6555312 Z" id="Fill-108" fill="#D39B29"></path>
                                        <path d="M70.1073457,20.2949583 C70.1073457,26.8315934 64.8897042,30.8545984 56.9902186,30.8545984 C46.5902696,30.8545984 41.4597851,25.9625956 41.4597851,19.4259605 C41.4597851,13.7822626 49.8598346,6.12167582 58.6426681,14.234716 C65.7930747,20.8407751 70.1073457,13.7583233 70.1073457,20.2949583" id="Fill-110" fill="#F2BA28"></path>
                                    </g>
                                </g>
                                <g id="Group-2" transform="translate(0.000000, 0.000000)">
                                    <g id="Group">
                                        <path d="M24.7941715,84.267566 L23.6134966,84.267566 C11.2246756,84.267566 1.18067483,94.4099999 1.18067483,106.920234 L1.18067483,117.650445 C1.18067483,120.284115 3.29526346,122.419427 5.90337416,122.419427 L57.8530668,122.419427 C60.4611775,122.419427 62.5757661,120.284115 62.5757661,117.650445 L62.5757661,106.920234 C62.5757661,94.5113407 52.6899757,84.4452106 40.4392937,84.2830652 L24.7941715,84.267566 Z" id="Fill-9" fill="#F1F2F1"></path>
                                        <path d="M23.9440856,84.267566 L39.8123553,84.267566 C40.3538985,89.0464797 40.3610759,92.0397692 39.8338876,93.2474346 C39.3066993,94.4551 37.7983725,94.9005933 35.3089073,94.5839146 L31.9084457,102.303517 L28.9973739,94.75158 L23.1085483,91.8873227 L23.9440856,84.267566 Z" id="Path-2" fill="#AAABAE"></path>
                                        <path d="M63.7564409,32.190633 C63.7564409,49.9694003 49.4844436,64.3812659 31.8782205,64.3812659 C14.2719974,64.3812659 0,49.9694003 0,32.190633 C0,14.4118656 14.2719974,-4.97379915e-14 31.8782205,-4.97379915e-14 C49.4844436,-4.97379915e-14 63.7564409,14.4118656 63.7564409,32.190633" id="Fill-1" fill="#0E0F0E"></path>
                                        <path d="M61.3950913,47.3681587 C61.3950913,50.3308892 59.0160315,52.7332642 56.0820545,52.7332642 C53.1480776,52.7332642 50.7690178,50.3308892 50.7690178,47.3681587 C50.7690178,44.4054283 53.1480776,42.0030532 56.0820545,42.0030532 C59.0160315,42.0030532 61.3950913,44.4054283 61.3950913,47.3681587" id="Fill-3" fill="#8C7052"></path>
                                        <path d="M12.9874232,47.3681587 C12.9874232,50.3308892 10.6083634,52.7332642 7.67438641,52.7332642 C4.74040945,52.7332642 2.36134966,50.3308892 2.36134966,47.3681587 C2.36134966,44.4054283 4.74040945,42.0030532 7.67438641,42.0030532 C10.6083634,42.0030532 12.9874232,44.4054283 12.9874232,47.3681587" id="Fill-5" fill="#8C7052"></path>
                                        <g id="Group-13" transform="translate(14.168098, 122.335016)">
                                            <mask id="mask-2" fill="white">
                                                <use xlink:href="#path-1"></use>
                                            </mask>
                                            <g id="Clip-12"></g>
                                            <path d="M13.5358466,13.3778155 L0.000590337416,-0.290088776 L35.4208353,-0.290088776 L21.8843983,13.3778155 C19.5785404,15.7062713 15.8417046,15.7062713 13.5358466,13.3778155" id="Fill-11" fill="#F1F2F1" mask="url(#mask-2)"></path>
                                        </g>
                                        <path d="M31.8782205,94.9981346 L31.8782205,94.9981346 C27.9654641,94.9981346 24.7941715,91.7957628 24.7941715,87.8446606 L24.7941715,71.1532213 L38.9622695,71.1532213 L38.9622695,87.8446606 C38.9622695,91.7957628 35.7909769,94.9981346 31.8782205,94.9981346" id="Fill-14" fill="#B68F65"></path>
                                        <path d="M38.9622695,80.6911867 C38.9622695,80.6911867 33.6740269,81.8834323 31.8782205,81.8834323 C30.082414,81.8834323 24.7941715,80.6911867 24.7941715,80.6911867 L24.7941715,78.3066953 C24.7941715,78.3066953 30.082414,79.498941 31.8782205,79.498941 C33.6740269,79.498941 38.9622695,78.3066953 38.9622695,78.3066953 L38.9622695,80.6911867 Z" id="Fill-16" fill="#292929" opacity="0.200000003"></path>
                                        <path d="M12.3970857,113.4783 C11.4183063,113.4783 10.6260735,114.279489 10.6260735,115.266669 L10.6260735,122.420143 L14.168098,122.420143 L14.168098,115.266669 C14.168098,114.279489 13.3758652,113.4783 12.3970857,113.4783" id="Fill-18" fill="#292929" opacity="0.200000003"></path>
                                        <path d="M51.3593552,113.4783 C50.3805757,113.4783 49.5883429,114.279489 49.5883429,115.266669 L49.5883429,122.420143 L53.1303674,122.420143 L53.1303674,115.266669 C53.1303674,114.279489 52.3381346,113.4783 51.3593552,113.4783" id="Fill-20" fill="#292929" opacity="0.200000003"></path>
                                        <path d="M31.8766856,64.52517 C27.935593,64.52517 24.71117,67.7811929 24.71117,71.7609089 L24.71117,72.3367636 C24.71117,68.3570476 27.935593,65.1010247 31.8766856,65.1010247 C35.8177782,65.1010247 39.0422011,68.3570476 39.0422011,72.3367636 L39.0422011,71.7609089 C39.0422011,67.7811929 35.8177782,64.52517 31.8766856,64.52517" id="Fill-22" fill="#373535"></path>
                                        <path d="M31.8782205,79.498941 L31.8782205,79.498941 C17.5330213,79.498941 5.90337416,67.7553212 5.90337416,53.2695363 L5.90337416,30.6168687 C5.90337416,16.1310839 17.5330213,4.38746405 31.8782205,4.38746405 L31.8782205,4.38746405 C46.2234197,4.38746405 57.8530668,16.1310839 57.8530668,30.6168687 L57.8530668,53.2695363 C57.8530668,67.7553212 46.2234197,79.498941 31.8782205,79.498941" id="Fill-24" fill="#B68F65"></path>
                                        <path d="M34.6831497,54.4030043 C33.7905595,54.6629138 32.8472003,54.8024066 31.8719629,54.8024066 C30.8990868,54.8024066 29.9592697,54.6641061 29.0702215,54.406581" id="Fill-26" fill="#FDCC85"></path>
                                        <path d="M31.8717267,55.9950099 C30.8091194,55.9950099 29.7571381,55.8459792 28.7441191,55.5514945 C28.1171808,55.3702732 27.7547136,54.7097691 27.9353569,54.0766867 C28.1148194,53.4436042 28.7689133,53.0811615 29.3958516,53.2599984 C31.0003887,53.7261664 32.7477875,53.7261664 34.3558666,53.2576139 C34.9839856,53.0775848 35.6380795,53.4400275 35.817542,54.0743022 C35.9981853,54.7061924 35.6368988,55.3678887 35.0099605,55.5491101 C33.9922187,55.844787 32.9366954,55.9950099 31.8717267,55.9950099" id="Fill-28" fill="#997862"></path>
                                        <path d="M38.1722799,62.1406787 C39.9338468,62.1406787 41.116883,63.9540843 40.4627891,65.6053446 C39.1002903,69.0449733 35.7696066,71.47477 31.8769217,71.47477 C27.9842368,71.47477 24.6535531,69.0449733 23.2910543,65.6053446 C22.6369605,63.9540843 23.8199967,62.1406787 25.5815635,62.1406787 L38.1722799,62.1406787 Z" id="Fill-30" fill="#524758"></path>
                                        <path d="M50.8314755,58.7964296 C50.8314755,59.6667689 49.4335565,60.3725783 47.7097712,60.3725783 C45.985986,60.3725783 44.5892476,59.6667689 44.5892476,58.7964296 C44.5892476,57.9260902 45.985986,57.2202808 47.7097712,57.2202808 C49.4335565,57.2202808 50.8314755,57.9260902 50.8314755,58.7964296" id="Fill-32" fill="#997862"></path>
                                        <path d="M18.1805033,58.7964296 C18.1805033,59.6667689 16.7825843,60.3725783 15.0587991,60.3725783 C13.3350138,60.3725783 11.9382755,59.6667689 11.9382755,58.7964296 C11.9382755,57.9260902 13.3350138,57.2202808 15.0587991,57.2202808 C16.7825843,57.2202808 18.1805033,57.9260902 18.1805033,58.7964296" id="Fill-34" fill="#997862"></path>
                                        <path d="M36.0402173,65.3349433 L27.7660481,65.3349433 C26.3551417,65.3349433 25.2110678,64.1796572 25.2110678,62.7561159 L25.2110678,62.1409171 L38.594017,62.1409171 L38.594017,62.7561159 C38.594017,64.1796572 37.4511237,65.3349433 36.0402173,65.3349433" id="Fill-36" fill="#FEFEFE"></path>
                                        <path d="M31.8782205,68.0176152 C30.078872,68.0176152 28.492045,68.9618738 27.566396,70.3806461 C28.8556929,71.0697641 30.3173683,71.4751277 31.8782205,71.4751277 C33.4390726,71.4751277 34.900748,71.0697641 36.1900449,70.3806461 C35.2643959,68.9618738 33.6775689,68.0176152 31.8782205,68.0176152" id="Fill-38" fill="#F37F65"></path>
                                        <path d="M44.386998,52.9907893 C40.8496962,52.9907893 37.971211,50.0840944 37.971211,46.5121264 C37.971211,42.9389661 40.8496962,40.0322712 44.386998,40.0322712 C47.9242998,40.0322712 50.8027851,42.9389661 50.8027851,46.5121264 C50.8027851,50.0840944 47.9242998,52.9907893 44.386998,52.9907893 M19.4298934,52.9907893 C15.891411,52.9907893 13.0141064,50.0840944 13.0141064,46.5121264 C13.0141064,42.9389661 15.891411,40.0322712 19.4298934,40.0322712 C22.9671952,40.0322712 25.8456805,42.9389661 25.8456805,46.5121264 C25.8456805,50.0840944 22.9671952,52.9907893 19.4298934,52.9907893 M44.386998,37.6525488 C40.8319861,37.6525488 37.7716769,39.8009755 36.3950101,42.8769693 L35.5827058,42.6409047 C33.4267936,42.0125912 31.1457298,42.0125912 28.9886369,42.6409047 L27.513974,43.0701131 C26.1809921,39.8892017 23.0592879,37.6525488 19.4298934,37.6525488 C14.591488,37.6525488 10.6562988,41.6263036 10.6562988,46.5121264 C10.6562988,51.3967568 14.591488,55.3717039 19.4298934,55.3717039 C24.2682989,55.3717039 28.2034881,51.3967568 28.2034881,46.5121264 C28.2034881,46.1246465 28.1704292,45.7455124 28.1220215,45.369955 L29.6427307,44.9276319 C31.3712387,44.423312 33.200104,44.423312 34.9297926,44.9276319 L35.7267481,45.1601198 C35.6594497,45.6024429 35.6134034,46.0507273 35.6134034,46.5121264 C35.6134034,51.3967568 39.5485926,55.3717039 44.386998,55.3717039 C49.2254035,55.3717039 53.1605927,51.3967568 53.1605927,46.5121264 C53.1605927,41.6263036 49.2254035,37.6525488 44.386998,37.6525488" id="Fill-40" fill="#2D2D2D"></path>
                                        <path d="M46.0765437,46.7121852 C46.0765437,47.6993646 45.2831302,48.5005537 44.3055315,48.5005537 C43.3279327,48.5005537 42.5345192,47.6993646 42.5345192,46.7121852 C42.5345192,45.7250058 43.3279327,44.9238167 44.3055315,44.9238167 C45.2831302,44.9238167 46.0765437,45.7250058 46.0765437,46.7121852" id="Fill-42" fill="#2D2D2D"></path>
                                        <path d="M21.2823722,46.7121852 C21.2823722,47.6993646 20.4889588,48.5005537 19.51136,48.5005537 C18.5337612,48.5005537 17.7403478,47.6993646 17.7403478,46.7121852 C17.7403478,45.7250058 18.5337612,44.9238167 19.51136,44.9238167 C20.4889588,44.9238167 21.2823722,45.7250058 21.2823722,46.7121852" id="Fill-44" fill="#2D2D2D"></path>
                                        <g id="Group-48" transform="translate(35.420245, 5.494941)">
                                            <mask id="mask-4" fill="white">
                                                <use xlink:href="#path-3"></use>
                                            </mask>
                                            <g id="Clip-47"></g>
                                            <path d="M28.9502649,5.73040957 C30.3281125,12.0910402 26.067057,17.1342394 18.3312755,18.8439196 C8.14677441,21.0936872 2.09109319,17.4442232 0.712064991,11.0835926 C-0.476874565,5.59091682 6.13372382,-3.67998547 16.4457378,2.31343349 C24.8403359,7.19448724 27.5724174,-0.630221059 28.9502649,5.73040957" id="Fill-46" fill="#4D4C4E" mask="url(#mask-4)"></path>
                                        </g>
                                        <path d="M40.3185106,33.00136 C46.6847093,33.00136 52.6848988,30.9423518 57.6307457,27.2320832 C57.5162202,26.33313 57.3568291,25.4484837 57.1537531,24.5793366 C52.4416798,28.4529428 46.5737259,30.6168687 40.3185106,30.6168687 C28.4704387,30.6168687 18.2328072,22.7480473 14.7911401,11.6840075 C14.1547564,12.3254357 13.5549735,13.0038235 12.9870689,13.7084407 C17.1147082,25.0526582 27.8989921,33.00136 40.3185106,33.00136" id="Fill-49" fill="#292929" opacity="0.200000003"></path>
                                        <path d="M31.5796278,0.0919221408 C23.8710018,0.0919221408 16.8046629,2.86389331 11.3003569,7.47311506 C13.0194194,21.4056979 24.7801214,32.1907522 39.0426734,32.1907522 C48.1610251,32.1907522 56.2580931,27.7818277 61.3633311,20.9621825 C56.8543339,8.77266283 45.2223255,0.0919221408 31.5796278,0.0919221408" id="Fill-51" fill="#4D4C4E"></path>
                                        <path d="M8.82561136,9.84100227 C3.70856664,15.2442596 0.38844202,22.4442312 3.55271368e-15,30.4143935 C1.08031747,30.7661059 2.23029476,30.9616342 3.42631836,30.9616342 C9.57999559,30.9616342 14.5683467,25.9232041 14.5683467,19.7092196 C14.5683467,15.4540949 12.2282492,11.7533643 8.77831737,9.84100227 L8.82561136,9.84100227 Z" id="Fill-53" fill="#4D4C4E"></path>
                                        <path d="M10.9782688,38.1722487 C11.3194838,38.1722487 11.6571568,38.0244102 11.8909304,37.7382713 C13.1672399,36.1704682 15.4105221,34.5561676 21.4874555,35.9785167 C22.1214779,36.1311241 22.7590423,35.7293373 22.9054459,35.0879092 C23.0530303,34.446481 22.6575042,33.8050528 22.0223012,33.6572144 C16.3704107,32.3302449 12.5745412,33.1481255 10.0679685,36.2217348 C9.65355163,36.7308237 9.72557279,37.4819385 10.2285403,37.9004167 C10.4493265,38.0840225 10.7137976,38.1722487 10.9782688,38.1722487" id="Fill-55" fill="#4D4C4E"></path>
                                        <path d="M41.2815871,35.9787551 C47.3561591,34.5552138 49.6018026,36.1707067 50.8781121,37.7385097 C51.1118857,38.0246487 51.4495587,38.1724872 51.7907738,38.1724872 C52.0552449,38.1724872 52.3208968,38.084261 52.5405023,37.9006551 C53.0434698,37.4821769 53.1154909,36.7310621 52.7022547,36.2219732 C50.1956821,33.1459794 46.3986318,32.3269067 40.7467414,33.6574528 C40.112719,33.8052913 39.7171929,34.4467194 39.8647773,35.0881476 C40.011181,35.7295758 40.6511067,36.1325548 41.2815871,35.9787551" id="Fill-57" fill="#4D4C4E"></path>
                                        <path d="M24.7941715,87.9557779 L24.7941715,83.0759164 C23.6607236,83.7399973 22.0431991,84.4624981 21.252147,85.4604078 C19.9026356,87.1617423 18.8907973,88.7331221 18.8907973,91.4216361 C18.8907973,93.6463665 20.2910777,96.2764604 21.5673872,98.2114752 C22.5296371,99.6707839 24.5934567,99.8221991 25.7339886,98.4999986 L28.9973739,94.7134264 C28.9973739,94.7134264 24.7941715,92.6138818 24.7941715,87.9557779" id="Fill-59" fill="#AAABAE"></path>
                                        <path d="M38.9622695,87.9557779 L38.9622695,83.0759164 C40.0957173,83.7399973 41.7132418,84.4624981 42.5042939,85.4604078 C43.8538053,87.1617423 44.8656436,88.7331221 44.8656436,91.4216361 C44.8656436,93.6463665 43.4653633,96.2764604 42.1890538,98.2114752 C41.2268038,99.6707839 39.1629842,99.8221991 38.0224523,98.4999986 L34.759067,94.7134264 C34.759067,94.7134264 38.9622695,92.6138818 38.9622695,87.9557779" id="Fill-61" fill="#AAABAE"></path>
                                        <path d="M33.0588953,102.324723 C33.0588953,102.982842 32.529953,103.516968 31.8782205,103.516968 C31.226488,103.516968 30.6975456,102.982842 30.6975456,102.324723 C30.6975456,101.666603 31.226488,101.132477 31.8782205,101.132477 C32.529953,101.132477 33.0588953,101.666603 33.0588953,102.324723" id="Fill-63" fill="#AAABAE"></path>
                                        <path d="M33.0588953,108.112837 C33.0588953,108.770957 32.529953,109.305083 31.8782205,109.305083 C31.226488,109.305083 30.6975456,108.770957 30.6975456,108.112837 C30.6975456,107.454717 31.226488,106.920591 31.8782205,106.920591 C32.529953,106.920591 33.0588953,107.454717 33.0588953,108.112837" id="Fill-65" fill="#AAABAE"></path>
                                    </g>
                                    <ellipse id="Oval-Copy-2" fill="#E9EAEC" cx="32.4360076" cy="158.971963" rx="28.6643788" ry="3.02803738"></ellipse>
                                </g>
                            </g>
                        </g>
                    </g>
                </g>
            </g>
        </g>
    </g>
</svg>