<?xml version="1.0" encoding="UTF-8"?>
<svg width="154px" height="155px" viewBox="0 0 154 155" version="1.1" xmlns="http://www.w3.org/2000/svg" xmlns:xlink="http://www.w3.org/1999/xlink">
    <!-- Generator: Sketch 55.2 (78181) - https://sketchapp.com -->
    <title>Group 25</title>
    <desc>Created with Sketch.</desc>
    <defs>
        <polygon id="path-1" points="0.0951952222 13.8662993 26.1285286 13.8662993 26.1285286 0.000259993111 0.0951952222 0.000259993111"></polygon>
        <polygon id="path-3" points="4.70423276e-20 0.217614234 4.70423276e-20 14.3629728 14.1635218 14.3629728 14.1635218 0.217614234 0 0.217614234"></polygon>
        <polygon id="path-5" points="8.28467444 7.61953144 8.28467444 0.18026189 0.834889 0.18026189 0.834889 7.61953144 8.28467444 7.61953144"></polygon>
        <polygon id="path-7" points="7.79090889 0.310258446 0.771454444 0.310258446 0.771454444 7.32097268 7.79090889 7.32097268 7.79090889 0.310258446"></polygon>
        <polygon id="path-9" points="47.3884767 47.1377043 47.3884767 0.338944352 0.528563444 0.338944352 0.528563444 47.1377043 47.3884767 47.1377043"></polygon>
        <polygon id="path-11" points="30.3834166 0.422922127 0.347081605 0.422922127 0.347081605 18.410235 30.3834166 18.410235 30.3834166 0.422922127"></polygon>
    </defs>
    <g id="Website-" stroke="none" stroke-width="1" fill="none" fill-rule="evenodd">
        <g id="Desktop-HD" transform="translate(-1001.000000, -926.000000)">
            <g id="Group-25" transform="translate(1001.000000, 926.000000)">
                <g id="-stopwatch" transform="translate(55.440000, 0.000000)" fill-rule="nonzero">
                    <path d="M75.680011,34.0099096 C74.835673,34.0099096 73.991335,33.6864178 73.346801,33.0394119 C72.057733,31.7464823 72.057733,29.6480473 73.346801,28.3551177 L82.146801,19.5213686 C83.435869,18.2273569 85.524153,18.2273569 86.813199,19.5213686 C88.102267,20.8142982 88.102267,22.9127332 86.813199,24.2056628 L78.013199,33.0394119 C77.368687,33.6864178 76.524349,34.0099096 75.680011,34.0099096 Z" id="Path" fill="#335262"></path>
                    <ellipse id="Oval" fill="#FFFFFF" cx="49.28" cy="61.8361994" rx="40.04" ry="40.1935296"></ellipse>
                    <path d="M49.28,106.667444 C24.6548556,106.667444 4.62,86.5557665 4.62,61.8361994 C4.62,37.1166322 24.6548556,17.0049548 49.28,17.0049548 C73.9051444,17.0049548 93.94,37.1166322 93.94,61.8361994 C93.94,86.5557665 73.9051444,106.667444 49.28,106.667444 Z M49.28,25.9712037 C29.5798711,25.9712037 13.552,42.0605322 13.552,61.8361994 C13.552,81.6118665 29.5798711,97.701195 49.28,97.701195 C68.9801289,97.701195 85.008,81.6118665 85.008,61.8361994 C85.008,42.0605322 68.9801289,25.9712037 49.28,25.9712037 Z" id="Shape" fill="#335262"></path>
                    <path d="M50.05,21.6426698 C43.6816996,21.6426698 38.5,16.7878727 38.5,10.8213349 C38.5,4.85479711 43.6816996,0 50.05,0 C56.4183004,0 61.6,4.85479711 61.6,10.8213349 C61.6,16.7878727 56.4183004,21.6426698 50.05,21.6426698 Z M50.05,4.32853396 C46.228567,4.32853396 43.12,7.24098803 43.12,10.8213349 C43.12,14.4016817 46.228567,17.3141358 50.05,17.3141358 C53.871433,17.3141358 56.98,14.4016817 56.98,10.8213349 C56.98,7.24098803 53.871433,4.32853396 50.05,4.32853396 Z" id="Shape" fill="#335262"></path>
                    <path d="M45.9505408,58.9232695 C47.6712619,57.1959489 67.76,43.2853396 67.76,43.2853396 C67.76,43.2853396 53.9025391,63.4511253 52.181818,65.1784238 C50.4610969,66.9057445 47.6712619,66.9057445 45.9505408,65.1784238 C44.2298197,63.4511253 44.2298197,60.6505681 45.9505408,58.9232695 Z" id="Path" fill="#E86C60"></path>
                    <path d="M50.05,40.1935296 C48.7731937,40.1935296 47.74,39.1552611 47.74,37.8746721 L47.74,33.2369572 C47.74,31.9563681 48.7731937,30.9180997 50.05,30.9180997 C51.3268063,30.9180997 52.36,31.9563681 52.36,33.2369572 L52.36,37.8746721 C52.36,39.1552611 51.3268063,40.1935296 50.05,40.1935296 Z" id="Path" fill="#B3B3B3"></path>
                    <path d="M70.84,62.6091519 C70.84,61.3274498 71.8743025,60.2902944 73.15,60.2902944 L77.77,60.2902944 C79.0456975,60.2902944 80.08,61.3274498 80.08,62.6091519 C80.08,63.8908539 79.0456975,64.9280093 77.77,64.9280093 L73.15,64.9280093 C71.8743025,64.9280093 70.84,63.8908539 70.84,62.6091519 Z" id="Path" fill="#B3B3B3"></path>
                    <path d="M50.05,85.0247741 C51.3268063,85.0247741 52.36,86.0630426 52.36,87.3436316 L52.36,91.9813465 C52.36,93.2619356 51.3268063,94.300204 50.05,94.300204 C48.7731937,94.300204 47.74,93.2619356 47.74,91.9813465 L47.74,87.3436316 C47.74,86.0630426 48.7731937,85.0247741 50.05,85.0247741 Z" id="Path" fill="#B3B3B3"></path>
                    <path d="M27.72,62.6091519 C27.72,63.8908539 26.6856975,64.9280093 25.41,64.9280093 L20.79,64.9280093 C19.5143025,64.9280093 18.48,63.8908539 18.48,62.6091519 C18.48,61.3274498 19.5143025,60.2902944 20.79,60.2902944 L25.41,60.2902944 C26.6856975,60.2902944 27.72,61.3274498 27.72,62.6091519 Z" id="Path" fill="#B3B3B3"></path>
                    <path d="M90.1317329,33.3626405 L74.5648122,17.7360055 C73.7050626,16.87298 73.7050626,15.4737128 74.5648122,14.6106873 L79.2348862,9.92269901 C80.0946358,9.05967354 81.488534,9.05967354 82.3482836,9.92269901 L97.9152043,25.5493341 C98.7749319,26.4123595 98.7749319,27.8116268 97.9152043,28.6746522 L93.2451303,33.3626405 C92.3853807,34.225666 90.9914825,34.225666 90.1317329,33.3626405 Z" id="Path" fill="#B3B3B3"></path>
                    <path d="M22.880011,34.0099096 C22.035673,34.0099096 21.191335,33.6864178 20.546801,33.0394119 L11.746801,24.2056628 C10.457733,22.9127332 10.457733,20.8142982 11.746801,19.5213686 C13.035869,18.2273569 15.124153,18.2273569 16.413199,19.5213686 L25.213199,28.3551177 C26.502267,29.6480473 26.502267,31.7464823 25.213199,33.0394119 C24.568687,33.6864178 23.724349,34.0099096 22.880011,34.0099096 Z" id="Path" fill="#335262"></path>
                    <path d="M8.42825823,33.3626405 L23.9952033,17.7360055 C24.8549322,16.87298 24.8549322,15.4737128 23.9952033,14.6106873 L19.325122,9.92269901 C18.4653931,9.05967354 17.0714707,9.05967354 16.2117418,9.92269901 L0.644796692,25.5493341 C-0.214932231,26.4123595 -0.214932231,27.8116268 0.644796692,28.6746522 L5.31487802,33.3626405 C6.17460694,34.225666 7.56850729,34.225666 8.42825823,33.3626405 Z" id="Path" fill="#B3B3B3"></path>
                </g>
                <g id="Group-24" transform="translate(0.000000, 30.918100)">
                    <g id="Group-4" transform="translate(0.000000, 0.000000)">
                        <g id="shadow-copy-3" transform="translate(0.000000, 112.948888)">
                            <ellipse id="Oval-Copy" fill="#F7F9FA" cx="37.3144444" cy="4.33321852" rx="37.3144444" ry="4.33321852"></ellipse>
                            <ellipse id="Oval" fill="#E9EAEC" cx="36.8805556" cy="4.33321852" rx="15.1861111" ry="1.73328741"></ellipse>
                        </g>
                        <g id="Person-9" transform="translate(2.603333, 0.000000)">
                            <path d="M55.2848206,55.7749355 C55.2848206,56.9431712 54.3363394,57.8895461 53.1674428,57.8895461 C51.9976783,57.8895461 51.050065,56.9431712 51.050065,55.7749355 C51.050065,54.6066997 51.9976783,53.6603248 53.1674428,53.6603248 C54.3363394,53.6603248 55.2848206,54.6066997 55.2848206,55.7749355" id="Fill-1" fill="#4D4C4E"></path>
                            <path d="M58.3864319,50.6844437 C58.3864319,51.8526794 57.4379508,52.7990543 56.2690541,52.7990543 C55.0992897,52.7990543 54.1516763,51.8526794 54.1516763,50.6844437 C54.1516763,49.516208 55.0992897,48.569833 56.2690541,48.569833 C57.4379508,48.569833 58.3864319,49.516208 58.3864319,50.6844437" id="Fill-3" fill="#4D4C4E"></path>
                            <path d="M57.0444136,53.7447359 C57.0444136,54.9129716 56.0959324,55.8593466 54.9270358,55.8593466 C53.7572713,55.8593466 52.809658,54.9129716 52.809658,53.7447359 C52.809658,52.5765002 53.7572713,51.6301253 54.9270358,51.6301253 C56.0959324,51.6301253 57.0444136,52.5765002 57.0444136,53.7447359" id="Fill-5" fill="#4D4C4E"></path>
                            <path d="M63.1014157,47.9604092 C63.1014157,49.1286449 62.1529346,50.0750198 60.9840379,50.0750198 C59.8142734,50.0750198 58.8666601,49.1286449 58.8666601,47.9604092 C58.8666601,46.7921735 59.8142734,45.8457986 60.9840379,45.8457986 C62.1529346,45.8457986 63.1014157,46.7921735 63.1014157,47.9604092" id="Fill-7" fill="#4D4C4E"></path>
                            <path d="M64.4560168,39.8964629 C64.4560168,41.0646986 63.5075357,42.0110735 62.338639,42.0110735 C61.1688746,42.0110735 60.2212612,41.0646986 60.2212612,39.8964629 C60.2212612,38.7282271 61.1688746,37.7818522 62.338639,37.7818522 C63.5075357,37.7818522 64.4560168,38.7282271 64.4560168,39.8964629" id="Fill-9" fill="#4D4C4E"></path>
                            <path d="M63.8769487,43.3986567 C63.8769487,44.9941478 62.5813564,46.2880468 60.9837776,46.2880468 C59.3861987,46.2880468 58.0906064,44.9941478 58.0906064,43.3986567 C58.0906064,41.8031657 59.3861987,40.5092666 60.9837776,40.5092666 C62.5813564,40.5092666 63.8769487,41.8031657 63.8769487,43.3986567" id="Fill-11" fill="#4D4C4E"></path>
                            <path d="M61.2182511,39.514793 C61.2182511,40.7523602 60.2142322,41.7550669 58.9750456,41.7550669 C57.7358589,41.7550669 56.73184,40.7523602 56.73184,39.514793 C56.73184,38.2772258 57.7358589,37.274519 58.9750456,37.274519 C60.2142322,37.274519 61.2182511,38.2772258 61.2182511,39.514793" id="Fill-13" fill="#4D4C4E"></path>
                            <path d="M61.7713727,41.6093841 C61.7713727,42.7776199 60.8228916,43.7239948 59.6539949,43.7239948 C58.4842304,43.7239948 57.5366171,42.7776199 57.5366171,41.6093841 C57.5366171,40.4411484 58.4842304,39.4947735 59.6539949,39.4947735 C60.8228916,39.4947735 61.7713727,40.4411484 61.7713727,41.6093841" id="Fill-15" fill="#4D4C4E"></path>
                            <path d="M56.9732558,55.9708836 C56.9732558,56.5992003 56.4638702,57.1079201 55.8347313,57.1079201 C55.2055924,57.1079201 54.6962069,56.5992003 54.6962069,55.9708836 C54.6962069,55.3425669 55.2055924,54.8338471 55.8347313,54.8338471 C56.4638702,54.8338471 56.9732558,55.3425669 56.9732558,55.9708836" id="Fill-17" fill="#4D4C4E"></path>
                            <path d="M40.8807508,69.0212378 L28.7318619,69.0212378 C19.6262697,69.0212378 12.2440841,76.3937758 12.2440841,85.4874682 L12.2440841,93.2872615 C12.2440841,95.2016774 13.7982741,96.7538363 15.7151952,96.7538363 L53.8974174,96.7538363 C55.8143386,96.7538363 57.3685286,95.2016774 57.3685286,93.2872615 L57.3685286,85.4874682 C57.3685286,76.3937758 49.986343,69.0212378 40.8807508,69.0212378" id="Fill-19" fill="#B68F65"></path>
                            <path d="M34.8063063,75.9543874 L34.8063063,75.9543874 C31.9304908,75.9543874 29.5996397,73.6265824 29.5996397,70.7545252 L29.5996397,58.6215134 L40.012973,58.6215134 L40.012973,70.7545252 C40.012973,73.6265824 37.6821219,75.9543874 34.8063063,75.9543874" id="Fill-21" fill="#B68F65"></path>
                            <path d="M40.012973,66.4213067 C40.012973,66.4213067 36.1261963,67.2879504 34.8063063,67.2879504 C33.4864163,67.2879504 29.5996397,66.4213067 29.5996397,66.4213067 L29.5996397,64.6880193 C29.5996397,64.6880193 33.4864163,65.554663 34.8063063,65.554663 C36.1261963,65.554663 40.012973,64.6880193 40.012973,64.6880193 L40.012973,66.4213067 Z" id="Fill-23" fill="#292929" opacity="0.200000003"></path>
                            <path d="M13.8443531,45.8647781 C13.8443531,47.3034066 12.6763242,48.4690424 11.2366809,48.4690424 C9.79616978,48.4690424 8.62814089,47.3034066 8.62814089,45.8647781 C8.62814089,44.4261495 9.79616978,43.2605137 11.2366809,43.2605137 C12.6763242,43.2605137 13.8443531,44.4261495 13.8443531,45.8647781" id="Fill-25" fill="#4D4C4E"></path>
                            <path d="M11.8988821,41.6093841 C11.8988821,44.4025768 9.63137878,46.6671168 6.834531,46.6671168 C4.03681544,46.6671168 1.76931211,44.4025768 1.76931211,41.6093841 C1.76931211,38.8161915 4.03681544,36.5516515 6.834531,36.5516515 C9.63137878,36.5516515 11.8988821,38.8161915 11.8988821,41.6093841" id="Fill-27" fill="#4D4C4E"></path>
                            <path d="M11.7667196,48.469389 C11.7667196,49.9669494 10.5509629,51.1811172 9.05144289,51.1811172 C7.55192289,51.1811172 6.33616622,49.9669494 6.33616622,48.469389 C6.33616622,46.9718287 7.55192289,45.7576609 9.05144289,45.7576609 C10.5509629,45.7576609 11.7667196,46.9718287 11.7667196,48.469389" id="Fill-29" fill="#4D4C4E"></path>
                            <path d="M16.1529023,53.0416279 C16.1529023,55.0002427 14.5631334,56.5879339 12.6019557,56.5879339 C10.6407779,56.5879339 9.05187678,55.0002427 9.05187678,53.0416279 C9.05187678,51.0830131 10.6407779,49.4953219 12.6019557,49.4953219 C14.5631334,49.4953219 16.1529023,51.0830131 16.1529023,53.0416279" id="Fill-31" fill="#4D4C4E"></path>
                            <path d="M19.7080143,57.7751491 C19.7080143,59.680032 18.1616343,61.2235244 16.2551266,61.2235244 C14.347751,61.2235244 12.801371,59.680032 12.801371,57.7751491 C12.801371,55.8711329 14.347751,54.3267738 16.2551266,54.3267738 C18.1616343,54.3267738 19.7080143,55.8711329 19.7080143,57.7751491" id="Fill-33" fill="#4D4C4E"></path>
                            <path d="M63.442973,34.3554897 C63.442973,50.1500712 50.6215563,62.9547319 34.8063063,62.9547319 C18.9910563,62.9547319 6.16963967,50.1500712 6.16963967,34.3554897 C6.16963967,18.5609082 18.9910563,5.75624748 34.8063063,5.75624748 C50.6215563,5.75624748 63.442973,18.5609082 63.442973,34.3554897" id="Fill-35" fill="#4D4C4E"></path>
                            <path d="M57.9499397,38.9660342 C57.9499397,51.8521594 47.4897463,62.2986826 34.5867586,62.2986826 C21.6837708,62.2986826 11.2235774,51.8521594 11.2235774,38.9660342 C11.2235774,26.079909 21.6837708,15.6333858 34.5867586,15.6333858 C47.4897463,15.6333858 57.9499397,26.079909 57.9499397,38.9660342" id="Fill-37" fill="#4D4C4E"></path>
                            <path d="M21.7896397,43.8885704 C21.7896397,46.2813737 19.8466852,48.2217889 17.4507508,48.2217889 C15.0548163,48.2217889 13.1118619,46.2813737 13.1118619,43.8885704 C13.1118619,41.4957671 15.0548163,39.5553519 17.4507508,39.5553519 C19.8466852,39.5553519 21.7896397,41.4957671 21.7896397,43.8885704" id="Fill-39" fill="#8C7052"></path>
                            <path d="M15.7157159,47.3552319 C16.6746103,47.3552319 17.4512714,48.3258728 17.4504037,49.5218411 C17.4504037,50.0132281 17.3193692,50.4664828 17.0980859,50.8304731 C16.781347,51.351326 16.2797714,51.6884504 15.7148481,51.6884504 C14.7559537,51.6884504 13.9792926,50.7178095 13.9792926,49.5209745 C13.9801603,48.3250062 14.7568214,47.3552319 15.7157159,47.3552319 L15.7157159,47.3552319 Z" id="Stroke-41" stroke="#FEC94B" stroke-width="0.86220288"></path>
                            <path d="M56.5007508,43.8885704 C56.5007508,46.2813737 54.5577963,48.2217889 52.1618619,48.2217889 C49.7659274,48.2217889 47.822973,46.2813737 47.822973,43.8885704 C47.822973,41.4957671 49.7659274,39.5553519 52.1618619,39.5553519 C54.5577963,39.5553519 56.5007508,41.4957671 56.5007508,43.8885704" id="Fill-43" fill="#8C7052"></path>
                            <path d="M53.8979381,47.3552319 C54.8568326,47.3552319 55.6334937,48.3258728 55.6326259,49.5218411 C55.6326259,50.0132281 55.5015914,50.4664828 55.2803081,50.8304731 C54.9635692,51.351326 54.4619937,51.6884504 53.8970703,51.6884504 C52.9381759,51.6884504 52.1615148,50.7178095 52.1615148,49.5209745 C52.1623826,48.3250062 52.9390437,47.3552319 53.8979381,47.3552319 L53.8979381,47.3552319 Z" id="Stroke-45" stroke="#FEC94B" stroke-width="0.86220288"></path>
                            <g id="Group-49" transform="translate(21.694444, 92.420618)">
                                <mask id="mask-2" fill="white">
                                    <use xlink:href="#path-1"></use>
                                </mask>
                                <g id="Clip-48"></g>
                                <path d="M26.1285286,4.06135239 C26.1285286,9.47614224 20.300533,13.8665592 13.1118619,13.8665592 C5.92319078,13.8665592 0.0951952222,9.47614224 0.0951952222,4.06135239 C0.0951952222,-1.35343747 26.1285286,-1.35343747 26.1285286,4.06135239" id="Fill-47" fill="#EAC463" mask="url(#mask-2)"></path>
                            </g>
                            <path d="M34.8063063,65.554663 L34.8063063,65.554663 C24.2628063,65.554663 15.7151952,57.0182225 15.7151952,46.4885015 L15.7151952,30.0222712 C15.7151952,19.4925502 24.2628063,10.9561097 34.8063063,10.9561097 L34.8063063,10.9561097 C45.3498063,10.9561097 53.8974174,19.4925502 53.8974174,30.0222712 L53.8974174,46.4885015 C53.8974174,57.0182225 45.3498063,65.554663 34.8063063,65.554663" id="Fill-50" fill="#B68F65"></path>
                            <path d="M44.3518619,44.3218923 C44.3518619,45.0394733 43.7687152,45.6218578 43.0501952,45.6218578 C42.3316752,45.6218578 41.7485286,45.0394733 41.7485286,44.3218923 C41.7485286,43.6043113 42.3316752,43.0219267 43.0501952,43.0219267 C43.7687152,43.0219267 44.3518619,43.6043113 44.3518619,44.3218923" id="Fill-52" fill="#2D2D2D"></path>
                            <path d="M27.8640841,44.3218923 C27.8640841,45.0394733 27.2809374,45.6218578 26.5624174,45.6218578 C25.8438974,45.6218578 25.2607508,45.0394733 25.2607508,44.3218923 C25.2607508,43.6043113 25.8438974,43.0219267 26.5624174,43.0219267 C27.2809374,43.0219267 27.8640841,43.6043113 27.8640841,44.3218923" id="Fill-54" fill="#2D2D2D"></path>
                            <path d="M35.9112478,50.6677175 C35.3740933,51.2657016 34.1965189,51.289101 33.7018856,50.6694507" id="Stroke-56" stroke="#997862" stroke-width="1.72440576" stroke-linecap="round"></path>
                            <path d="M37.0813593,58.5524419 C35.9749427,59.7830759 33.5512393,59.831608 32.5316004,58.5550418" id="Stroke-58" stroke="#ED3A52" stroke-width="1.72440576" stroke-linecap="round"></path>
                            <path d="M26.5346486,38.7340337 C24.7904152,38.6057704 23.2509774,39.5538786 22.6574174,40.7611133" id="Stroke-60" stroke="#4D4C4E" stroke-width="1.72440576" stroke-linecap="round"></path>
                            <path d="M43.0779641,38.7340337 C44.8221974,38.6057704 46.3616352,39.5538786 46.9551952,40.7611133" id="Stroke-62" stroke="#4D4C4E" stroke-width="1.72440576" stroke-linecap="round"></path>
                            <path d="M65.7816341,33.033858 C65.7816341,35.1996006 64.0235163,36.9554208 61.8549397,36.9554208 C59.686363,36.9554208 57.9282452,35.1996006 57.9282452,33.033858 C57.9282452,30.8681154 59.686363,29.1122953 61.8549397,29.1122953 C64.0235163,29.1122953 65.7816341,30.8681154 65.7816341,33.033858" id="Fill-64" fill="#4D4C4E"></path>
                            <path d="M21.7009528,30.9595463 C21.7009528,31.587863 21.1915672,32.0965829 20.5624283,32.0965829 C19.9332894,32.0965829 19.4239039,31.587863 19.4239039,30.9595463 C19.4239039,30.3312296 19.9332894,29.8225098 20.5624283,29.8225098 C21.1915672,29.8225098 21.7009528,30.3312296 21.7009528,30.9595463" id="Fill-66" fill="#4D4C4E"></path>
                            <path d="M11.0024677,15.4285979 C11.0024677,17.2260169 9.54286544,18.6837116 7.74309433,18.6837116 C5.94332322,18.6837116 4.483721,17.2260169 4.483721,15.4285979 C4.483721,13.6311788 5.94332322,12.1734841 7.74309433,12.1734841 C9.54286544,12.1734841 11.0024677,13.6311788 11.0024677,15.4285979" id="Fill-68" fill="#4D4C4E"></path>
                            <path d="M27.1322871,18.1110334 C27.1322871,23.4980907 22.7595549,27.865975 17.3645804,27.865975 C11.9704738,27.865975 7.59687378,23.4980907 7.59687378,18.1110334 C7.59687378,12.7239762 11.9704738,8.35609192 17.3645804,8.35609192 C22.7595549,8.35609192 27.1322871,12.7239762 27.1322871,18.1110334" id="Fill-70" fill="#4D4C4E"></path>
                            <g id="Group-74" transform="translate(0.000000, 17.022616)">
                                <mask id="mask-4" fill="white">
                                    <use xlink:href="#path-3"></use>
                                </mask>
                                <g id="Clip-73"></g>
                                <path d="M14.1635218,7.2902935 C14.1635218,11.1962567 10.9926618,14.3629728 7.08158733,14.3629728 C3.17051289,14.3629728 -0.000347111111,11.1962567 -0.000347111111,7.2902935 C-0.000347111111,3.38433033 3.17051289,0.217614234 7.08158733,0.217614234 C10.9926618,0.217614234 14.1635218,3.38433033 14.1635218,7.2902935" id="Fill-72" fill="#4D4C4E" mask="url(#mask-4)"></path>
                            </g>
                            <path d="M8.15016889,33.4141413 C8.15016889,35.5408849 6.42329111,37.2655059 4.29376444,37.2655059 C2.16423778,37.2655059 0.43736,35.5408849 0.43736,33.4141413 C0.43736,31.2873976 2.16423778,29.5627767 4.29376444,29.5627767 C6.42329111,29.5627767 8.15016889,31.2873976 8.15016889,33.4141413" id="Fill-75" fill="#4D4C4E"></path>
                            <path d="M68.1522294,25.0767689 C68.1522294,27.3291759 66.3238217,29.1560608 64.0675994,29.1560608 C61.812245,29.1560608 59.9838372,27.3291759 59.9838372,25.0767689 C59.9838372,22.8243619 61.812245,20.997477 64.0675994,20.997477 C66.3238217,20.997477 68.1522294,22.8243619 68.1522294,25.0767689" id="Fill-77" fill="#4D4C4E"></path>
                            <path d="M17.5056811,22.6563197 C17.5056811,23.8670209 16.5224889,24.8489282 15.3102033,24.8489282 C14.0979178,24.8489282 13.1155933,23.8670209 13.1155933,22.6563197 C13.1155933,21.4456184 14.0979178,20.4637111 15.3102033,20.4637111 C16.5224889,20.4637111 17.5056811,21.4456184 17.5056811,22.6563197" id="Fill-79" fill="#4D4C4E"></path>
                            <path d="M56.0611346,20.1987781 C56.0611346,21.4146792 55.0744712,22.4000531 53.856979,22.4000531 C52.6394868,22.4000531 51.6528234,21.4146792 51.6528234,20.1987781 C51.6528234,18.982877 52.6394868,17.9975031 53.856979,17.9975031 C55.0744712,17.9975031 56.0611346,18.982877 56.0611346,20.1987781" id="Fill-81" fill="#4D4C4E"></path>
                            <path d="M47.8834571,31.1077424 C47.8834571,32.4233075 46.8152227,33.4901459 45.497936,33.4901459 C44.1806493,33.4901459 43.1124149,32.4233075 43.1124149,31.1077424 C43.1124149,29.7921773 44.1806493,28.7253389 45.497936,28.7253389 C46.8152227,28.7253389 47.8834571,29.7921773 47.8834571,31.1077424" id="Fill-83" fill="#4D4C4E"></path>
                            <path d="M39.1107444,10.302747 C39.1107444,12.0707002 37.67544,13.5041288 35.9051733,13.5041288 C34.1340389,13.5041288 32.6996022,12.0707002 32.6996022,10.302747 C32.6996022,8.53479385 34.1340389,7.10136517 35.9051733,7.10136517 C37.67544,7.10136517 39.1107444,8.53479385 39.1107444,10.302747" id="Fill-85" fill="#4D4C4E"></path>
                            <path d="M62.3384654,25.1911658 C62.3384654,26.5153974 61.2632888,27.589169 59.9373243,27.589169 C58.6113599,27.589169 57.537051,26.5153974 57.537051,25.1911658 C57.537051,23.8669343 58.6113599,22.7931627 59.9373243,22.7931627 C61.2632888,22.7931627 62.3384654,23.8669343 62.3384654,25.1911658" id="Fill-87" fill="#4D4C4E"></path>
                            <path d="M45.3813934,29.0221643 C45.3813934,30.1904 44.4329123,31.136775 43.2640157,31.136775 C42.0942512,31.136775 41.1466379,30.1904 41.1466379,29.0221643 C41.1466379,27.8539286 42.0942512,26.9075537 43.2640157,26.9075537 C44.4329123,26.9075537 45.3813934,27.8539286 45.3813934,29.0221643" id="Fill-89" fill="#4D4C4E"></path>
                            <path d="M48.0389629,9.17351026 C48.0389629,10.3278797 47.1017629,11.2638549 45.9450151,11.2638549 C44.7891351,11.2638549 43.8519351,10.3278797 43.8519351,9.17351026 C43.8519351,8.01914085 44.7891351,7.08229901 45.9450151,7.08229901 C47.1017629,7.08229901 48.0389629,8.01914085 48.0389629,9.17351026" id="Fill-91" fill="#4D4C4E"></path>
                            <path d="M51.1338923,31.6786873 C51.1338923,32.846923 50.1854112,33.7932979 49.0165146,33.7932979 C47.8467501,33.7932979 46.8991368,32.846923 46.8991368,31.6786873 C46.8991368,30.5104516 47.8467501,29.5640766 49.0165146,29.5640766 C50.1854112,29.5640766 51.1338923,30.5104516 51.1338923,31.6786873" id="Fill-93" fill="#4D4C4E"></path>
                            <path d="M42.735539,19.3049218 C42.735539,22.240244 40.3526212,24.6209143 37.4125901,24.6209143 C34.4734268,24.6209143 32.090509,22.240244 32.090509,19.3049218 C32.090509,16.3695996 34.4734268,13.9889293 37.4125901,13.9889293 C40.3526212,13.9889293 42.735539,16.3695996 42.735539,19.3049218" id="Fill-95" fill="#4D4C4E"></path>
                            <path d="M52.4494434,7.16333019 C52.4494434,8.54042704 51.3317457,9.65666413 49.9528468,9.65666413 C48.5739479,9.65666413 47.4562501,8.54042704 47.4562501,7.16333019 C47.4562501,5.78623335 48.5739479,4.66999626 49.9528468,4.66999626 C51.3317457,4.66999626 52.4494434,5.78623335 52.4494434,7.16333019" id="Fill-97" fill="#4D4C4E"></path>
                            <path d="M60.6536749,7.92970322 C60.6536749,9.72278904 59.1984116,11.1770172 57.4021116,11.1770172 C55.6066793,11.1770172 54.151416,9.72278904 54.151416,7.92970322 C54.151416,6.1366174 55.6066793,4.68238926 57.4021116,4.68238926 C59.1984116,4.68238926 60.6536749,6.1366174 60.6536749,7.92970322" id="Fill-99" fill="#4D4C4E"></path>
                            <path d="M34.1467084,18.1376394 C34.1467084,19.3682735 33.1478962,20.3657804 31.9156518,20.3657804 C30.6834073,20.3657804 29.6845951,19.3682735 29.6845951,18.1376394 C29.6845951,16.9070053 30.6834073,15.9094984 31.9156518,15.9094984 C33.1478962,15.9094984 34.1467084,16.9070053 34.1467084,18.1376394" id="Fill-101" fill="#4D4C4E"></path>
                            <path d="M46.0874174,32.6222023 C46.0874174,34.5366182 44.5332274,36.0887771 42.6163063,36.0887771 C40.6993852,36.0887771 39.1451952,34.5366182 39.1451952,32.6222023 C39.1451952,30.7077863 40.6993852,29.1556275 42.6163063,29.1556275 C44.5332274,29.1556275 46.0874174,30.7077863 46.0874174,32.6222023" id="Fill-103" fill="#4D4C4E"></path>
                            <path d="M23.0075658,9.20106953 C23.0075658,11.1059524 21.4611858,12.6503115 19.5538102,12.6503115 C17.6464347,12.6503115 16.1000547,11.1059524 16.1000547,9.20106953 C16.1000547,7.29618667 17.6464347,5.75182759 19.5538102,5.75182759 C21.4611858,5.75182759 23.0075658,7.29618667 23.0075658,9.20106953" id="Fill-105" fill="#4D4C4E"></path>
                            <path d="M68.1031132,13.1280921 C68.1031132,15.7488227 65.9761899,17.8729664 63.3520299,17.8729664 C60.7278699,17.8729664 58.6000788,15.7488227 58.6000788,13.1280921 C58.6000788,10.5073616 60.7278699,8.38321787 63.3520299,8.38321787 C65.9761899,8.38321787 68.1031132,10.5073616 68.1031132,13.1280921" id="Fill-107" fill="#4D4C4E"></path>
                            <g id="Group-111" transform="translate(59.876667, 16.155972)">
                                <mask id="mask-6" fill="white">
                                    <use xlink:href="#path-5"></use>
                                </mask>
                                <g id="Clip-110"></g>
                                <path d="M8.28476122,3.89989666 C8.28476122,5.95470888 6.61689233,7.61953144 4.560259,7.61953144 C2.50275789,7.61953144 0.834889,5.95470888 0.834889,3.89989666 C0.834889,1.84508444 2.50275789,0.18026189 4.560259,0.18026189 C6.61689233,0.18026189 8.28476122,1.84508444 8.28476122,3.89989666" id="Fill-109" fill="#4D4C4E" mask="url(#mask-6)"></path>
                            </g>
                            <path d="M30.8011648,6.78244029 C30.8011648,8.59805884 29.3276781,10.0696199 27.5096837,10.0696199 C25.6916892,10.0696199 24.2182026,8.59805884 24.2182026,6.78244029 C24.2182026,4.96682173 25.6916892,3.49526072 27.5096837,3.49526072 C29.3276781,3.49526072 30.8011648,4.96682173 30.8011648,6.78244029" id="Fill-112" fill="#4D4C4E"></path>
                            <path d="M56.1619703,30.3268964 C56.1619703,32.1260488 54.7015003,33.5846101 52.8999937,33.5846101 C51.0976192,33.5846101 49.6371492,32.1260488 49.6371492,30.3268964 C49.6371492,28.5277441 51.0976192,27.0691827 52.8999937,27.0691827 C54.7015003,27.0691827 56.1619703,28.5277441 56.1619703,30.3268964" id="Fill-114" fill="#4D4C4E"></path>
                            <path d="M54.9327631,5.2018555 C54.9327631,6.94034277 53.5208887,8.35037207 51.7801264,8.35037207 C50.0393642,8.35037207 48.6274898,6.94034277 48.6274898,5.2018555 C48.6274898,3.46336823 50.0393642,2.05333893 51.7801264,2.05333893 C53.5208887,2.05333893 54.9327631,3.46336823 54.9327631,5.2018555" id="Fill-116" fill="#4D4C4E"></path>
                            <path d="M30.4395618,27.2783905 C29.2854173,28.5246242 27.338124,28.6008888 26.0893918,27.4482527 C24.8415273,26.2956166 24.7651629,24.3500015 25.9193073,23.1037678 C27.0734518,21.8575342 29.0216129,21.7812695 30.2694773,22.9339057 C31.5173418,24.0865418 31.5937062,26.0321569 30.4395618,27.2783905" id="Fill-118" fill="#4D4C4E"></path>
                            <path d="M40.3557452,25.3322554 C40.3557452,26.5264905 39.3864374,27.4945315 38.1906397,27.4945315 C36.9939741,27.4945315 36.0246663,26.5264905 36.0246663,25.3322554 C36.0246663,24.1380204 36.9939741,23.1699794 38.1906397,23.1699794 C39.3864374,23.1699794 40.3557452,24.1380204 40.3557452,25.3322554" id="Fill-120" fill="#4D4C4E"></path>
                            <path d="M66.4714307,29.6872267 C66.4714307,31.5730434 64.9406707,33.1018029 63.0523862,33.1018029 C61.1641018,33.1018029 59.6333418,31.5730434 59.6333418,29.6872267 C59.6333418,27.80141 61.1641018,26.2726505 63.0523862,26.2726505 C64.9406707,26.2726505 66.4714307,27.80141 66.4714307,29.6872267" id="Fill-122" fill="#4D4C4E"></path>
                            <g id="Group-126" transform="translate(41.653333, 0.556385)">
                                <mask id="mask-8" fill="white">
                                    <use xlink:href="#path-7"></use>
                                </mask>
                                <g id="Clip-125"></g>
                                <path d="M7.79090889,3.8153989 C7.79090889,5.75148094 6.21936333,7.32097268 4.28074778,7.32097268 C2.343,7.32097268 0.771454444,5.75148094 0.771454444,3.8153989 C0.771454444,1.87931687 2.343,0.309825124 4.28074778,0.309825124 C6.21936333,0.309825124 7.79090889,1.87931687 7.79090889,3.8153989" id="Fill-124" fill="#4D4C4E" mask="url(#mask-8)"></path>
                            </g>
                            <path d="M42.8072174,6.40224369 C42.8072174,8.4310566 41.1601752,10.0759464 39.1287074,10.0759464 C37.0972397,10.0759464 35.4501974,8.4310566 35.4501974,6.40224369 C35.4501974,4.37343078 37.0972397,2.72854103 39.1287074,2.72854103 C41.1601752,2.72854103 42.8072174,4.37343078 42.8072174,6.40224369" id="Fill-127" fill="#4D4C4E"></path>
                            <path d="M16.8373187,27.4470394 C16.8373187,28.6152751 15.8888376,29.56165 14.7199409,29.56165 C13.5501764,29.56165 12.6025631,28.6152751 12.6025631,27.4470394 C12.6025631,26.2788037 13.5501764,25.3324288 14.7199409,25.3324288 C15.8888376,25.3324288 16.8373187,26.2788037 16.8373187,27.4470394" id="Fill-129" fill="#4D4C4E"></path>
                            <path d="M11.8502866,31.8137104 C11.8502866,33.2480057 10.6857288,34.4110415 9.24955656,34.4110415 C7.81338433,34.4110415 6.64969433,33.2480057 6.64969433,31.8137104 C6.64969433,30.379415 7.81338433,29.2163792 9.24955656,29.2163792 C10.6857288,29.2163792 11.8502866,30.379415 11.8502866,31.8137104" id="Fill-131" fill="#4D4C4E"></path>
                            <path d="M26.0335069,26.9306064 C26.0335069,30.3027171 23.2965358,33.0361113 19.9200124,33.0361113 C16.5443569,33.0361113 13.8073858,30.3027171 13.8073858,26.9306064 C13.8073858,23.5584958 16.5443569,20.8251015 19.9200124,20.8251015 C23.2965358,20.8251015 26.0335069,23.5584958 26.0335069,26.9306064" id="Fill-133" fill="#4D4C4E"></path>
                            <path d="M20.9218619,35.2221334 C20.9218619,38.0941906 18.5910108,40.4219956 15.7151952,40.4219956 C12.8393797,40.4219956 10.5085286,38.0941906 10.5085286,35.2221334 C10.5085286,32.3500762 12.8393797,30.0222712 15.7151952,30.0222712 C18.5910108,30.0222712 20.9218619,32.3500762 20.9218619,35.2221334" id="Fill-135" fill="#4D4C4E"></path>
                            <path d="M22.9432634,33.6108694 C22.9432634,35.2401596 21.6207701,36.5609246 19.9893479,36.5609246 C18.3579257,36.5609246 17.0354323,35.2401596 17.0354323,33.6108694 C17.0354323,31.9815792 18.3579257,30.6608142 19.9893479,30.6608142 C21.6207701,30.6608142 22.9432634,31.9815792 22.9432634,33.6108694" id="Fill-137" fill="#4D4C4E"></path>
                            <path d="M26.3274232,7.80161328 C26.3274232,10.4648094 24.1657888,12.6236188 21.4991077,12.6236188 C18.8324266,12.6236188 16.6707921,10.4648094 16.6707921,7.80161328 C16.6707921,5.13841718 18.8324266,2.97960772 21.4991077,2.97960772 C24.1657888,2.97960772 26.3274232,5.13841718 26.3274232,7.80161328" id="Fill-139" fill="#4D4C4E"></path>
                            <path d="M36.1624694,6.07820561 C36.1624694,7.69189619 34.8529928,9.00052818 33.2363228,9.00052818 C31.6205206,9.00052818 30.3110439,7.69189619 30.3110439,6.07820561 C30.3110439,4.46451504 31.6205206,3.15588304 33.2363228,3.15588304 C34.8529928,3.15588304 36.1624694,4.46451504 36.1624694,6.07820561" id="Fill-141" fill="#4D4C4E"></path>
                            <path d="M36.1624694,12.2351025 C36.1624694,16.0024026 33.1044206,19.0573217 29.3313228,19.0573217 C25.5590928,19.0573217 22.5010439,16.0024026 22.5010439,12.2351025 C22.5010439,8.46780229 25.5590928,5.41288324 29.3313228,5.41288324 C33.1044206,5.41288324 36.1624694,8.46780229 36.1624694,12.2351025" id="Fill-143" fill="#4D4C4E"></path>
                            <path d="M13.4080344,30.4626128 C13.4080344,31.8544426 12.2781878,32.9819461 10.8854044,32.9819461 C9.49175333,32.9819461 8.36277444,31.8544426 8.36277444,30.4626128 C8.36277444,29.070783 9.49175333,27.9432796 10.8854044,27.9432796 C12.2781878,27.9432796 13.4080344,29.070783 13.4080344,30.4626128" id="Fill-145" fill="#4D4C4E"></path>
                            <path d="M32.5081704,25.0549295 C30.4524049,27.2007393 27.0437738,27.2770039 24.895156,25.223925 C22.7456704,23.170846 22.6701738,19.7666696 24.7259393,17.6208598 C26.7817049,15.4741833 30.190336,15.3987853 32.3389538,17.4518642 C34.4884393,19.5049432 34.563936,22.9091196 32.5081704,25.0549295" id="Fill-147" fill="#4D4C4E"></path>
                            <path d="M45.4978492,28.0010847 C45.4978492,29.4189138 44.3471759,30.56895 42.9266237,30.56895 C41.5069392,30.56895 40.3553981,29.4189138 40.3553981,28.0010847 C40.3553981,26.5832556 41.5069392,25.4332194 42.9266237,25.4332194 C44.3471759,25.4332194 45.4978492,26.5832556 45.4978492,28.0010847" id="Fill-149" fill="#4D4C4E"></path>
                            <path d="M43.700074,28.9856786 C43.700074,30.6149688 42.3775807,31.9348672 40.7470262,31.9348672 C39.115604,31.9348672 37.7931107,30.6149688 37.7931107,28.9856786 C37.7931107,27.3563885 39.115604,26.0364901 40.7470262,26.0364901 C42.3775807,26.0364901 43.700074,27.3563885 43.700074,28.9856786" id="Fill-151" fill="#4D4C4E"></path>
                            <path d="M62.5751952,31.7555586 C62.5751952,36.5420317 58.6901541,40.4219956 53.8974174,40.4219956 C49.1046808,40.4219956 45.2196397,36.5420317 45.2196397,31.7555586 C45.2196397,26.9690854 49.1046808,23.0891215 53.8974174,23.0891215 C58.6901541,23.0891215 62.5751952,26.9690854 62.5751952,31.7555586" id="Fill-153" fill="#4D4C4E"></path>
                            <path d="M49.2293804,24.1360271 C49.2293804,26.9352863 46.9575382,29.2041595 44.154616,29.2041595 C41.3516938,29.2041595 39.0798516,26.9352863 39.0798516,24.1360271 C39.0798516,21.336768 41.3516938,19.0678948 44.154616,19.0678948 C46.9575382,19.0678948 49.2293804,21.336768 49.2293804,24.1360271" id="Fill-155" fill="#4D4C4E"></path>
                            <path d="M63.3876088,37.6934546 C63.3876088,38.9093557 62.3992099,39.8964629 61.1817177,39.8964629 C59.9633577,39.8964629 58.9749588,38.9093557 58.9749588,37.6934546 C58.9749588,36.4766868 59.9633577,35.4895796 61.1817177,35.4895796 C62.3992099,35.4895796 63.3876088,36.4766868 63.3876088,37.6934546" id="Fill-157" fill="#4D4C4E"></path>
                            <path d="M12.8071851,10.993202 C12.8071851,12.2420356 11.7936207,13.2534088 10.5440207,13.2534088 C9.29355289,13.2534088 8.27998844,12.2420356 8.27998844,10.993202 C8.27998844,9.74436847 9.29355289,8.73299527 10.5440207,8.73299527 C11.7936207,8.73299527 12.8071851,9.74436847 12.8071851,10.993202" id="Fill-159" fill="#4D4C4E"></path>
                            <path d="M21.7233414,7.92970322 C21.7233414,10.5824996 19.569517,12.7335093 16.9132492,12.7335093 C14.2569814,12.7335093 12.103157,10.5824996 12.103157,7.92970322 C12.103157,5.27690684 14.2569814,3.12589717 16.9132492,3.12589717 C19.569517,3.12589717 21.7233414,5.27690684 21.7233414,7.92970322" id="Fill-161" fill="#4D4C4E"></path>
                            <path d="M62.2671341,17.8892593 C62.2671341,25.5477897 56.0512419,31.7555586 48.3826897,31.7555586 C40.7141374,31.7555586 34.4982452,25.5477897 34.4982452,17.8892593 C34.4982452,10.2307289 40.7141374,4.02296007 48.3826897,4.02296007 C56.0512419,4.02296007 62.2671341,10.2307289 62.2671341,17.8892593" id="Fill-163" fill="#4D4C4E"></path>
                            <path d="M57.3685286,93.2872615 L57.3685286,85.4874682 C57.3685286,78.7215808 53.2786919,72.9142013 47.4368119,70.3818684 C46.0448963,76.0644512 40.9258752,80.2876059 34.8063063,80.2876059 C28.6867374,80.2876059 23.5677163,76.0644512 22.1758008,70.3818684 C16.3339208,72.9142013 12.2440841,78.7215808 12.2440841,85.4874682 L12.2440841,93.2872615 L21.7896397,93.2872615 L21.7896397,96.7538363 L47.822973,96.7538363 L47.822973,93.2872615 L57.3685286,93.2872615 Z" id="Fill-165" fill="#EAC463"></path>
                            <path d="M20.487973,90.2543552 C19.7685852,90.2543552 19.1863063,90.8367398 19.1863063,91.5543207 L19.1863063,96.754183 L21.7896397,96.754183 L21.7896397,91.5543207 C21.7896397,90.8367398 21.2073608,90.2543552 20.487973,90.2543552" id="Fill-167" fill="#292929" opacity="0.200000003"></path>
                            <path d="M49.1246397,90.2543552 C48.4052519,90.2543552 47.822973,90.8367398 47.822973,91.5543207 L47.822973,96.754183 L50.4263063,96.754183 L50.4263063,91.5543207 C50.4263063,90.8367398 49.8440274,90.2543552 49.1246397,90.2543552" id="Fill-169" fill="#292929" opacity="0.200000003"></path>
                            <path d="M47.4365516,70.3816084 C46.044636,76.0650578 40.9256149,80.287346 34.806046,80.287346 C28.6873449,80.287346 23.5683238,76.0650578 22.1764082,70.3816084 C21.4960704,70.6762673 20.8435016,71.0194582 20.2143627,71.3990481 C22.0531838,77.9309417 27.9714282,82.4539552 34.806046,82.4539552 C41.6406638,82.4539552 47.559776,77.9309417 49.3977293,71.3990481 C48.7694582,71.0194582 48.1160216,70.6762673 47.4365516,70.3816084" id="Fill-171" fill="#F1DCA0"></path>
                        </g>
                    </g>
                    <g id="Group-3" transform="translate(36.960000, 3.091810)">
                        <g id="shadow-copy-2" transform="translate(0.000000, 112.082245)">
                            <ellipse id="Oval-Copy" fill="#F7F9FA" cx="37.3144444" cy="4.33321852" rx="37.3144444" ry="4.33321852"></ellipse>
                            <ellipse id="Oval" fill="#E9EAEC" cx="36.8805556" cy="4.33321852" rx="15.1861111" ry="1.73328741"></ellipse>
                        </g>
                        <g id="Person-8" transform="translate(13.016667, 0.000000)">
                            <path d="M30.0330079,66.3702614 L17.884119,66.3702614 C8.77852678,66.3702614 1.39634122,73.7427994 1.39634122,82.8364917 L1.39634122,90.6362851 C1.39634122,92.550701 2.95053122,94.1028599 4.86745233,94.1028599 L43.0496746,94.1028599 C44.9665957,94.1028599 46.5207857,92.550701 46.5207857,90.6362851 L46.5207857,82.8364917 C46.5207857,73.7427994 39.1386001,66.3702614 30.0330079,66.3702614" id="Fill-1" fill="#F7D4AA"></path>
                            <path d="M46.5207857,90.6362851 L46.5207857,82.8364917 C46.5207857,74.3269172 40.0558412,67.3261694 31.7642246,66.4621256 C31.7138934,70.7268793 28.2410468,74.1700547 23.9585634,74.1700547 C19.6760801,74.1700547 16.2032334,70.7268793 16.1529023,66.4621256 C7.86128567,67.3261694 1.39634122,74.3269172 1.39634122,82.8364917 L1.39634122,90.6362851 L10.9418968,90.6362851 L10.9418968,94.1028599 L36.9752301,94.1028599 L36.9752301,90.6362851 L46.5207857,90.6362851 Z" id="Fill-3" fill="#3BABE1"></path>
                            <path d="M20.8904483,103.79026 L10.9422439,94.0308418 L36.9755772,94.0308418 L27.026505,103.79026 C25.331735,105.452869 22.5852183,105.452869 20.8904483,103.79026" id="Fill-5" fill="#3BABE1"></path>
                            <path d="M23.9585634,75.4700203 C28.8858057,75.4700203 32.9010134,71.542391 33.0554779,66.6588537 C32.629399,66.5791225 32.2007168,66.5080577 31.7642246,66.4621256 C31.7138934,70.7268793 28.2410468,74.1700547 23.9585634,74.1700547 C19.6760801,74.1700547 16.2032334,70.7268793 16.1529023,66.4621256 C15.7164101,66.5080577 15.2877279,66.5791225 14.861649,66.6588537 C15.0161134,71.542391 19.0313212,75.4700203 23.9585634,75.4700203" id="Fill-8" fill="#85B9E4"></path>
                            <path d="M23.9585634,74.1700547 L23.9585634,74.1700547 C21.0827479,74.1700547 18.7518968,71.8422497 18.7518968,68.9701925 L18.7518968,56.8371806 L29.1652301,56.8371806 L29.1652301,68.9701925 C29.1652301,71.8422497 26.834379,74.1700547 23.9585634,74.1700547" id="Fill-10" fill="#F7D4AA"></path>
                            <path d="M29.1652301,64.636974 C29.1652301,64.636974 25.2784534,65.5036177 23.9585634,65.5036177 C22.6386734,65.5036177 18.7518968,64.636974 18.7518968,64.636974 L18.7518968,62.9036866 C18.7518968,62.9036866 22.6386734,63.7703303 23.9585634,63.7703303 C25.2784534,63.7703303 29.1652301,62.9036866 29.1652301,62.9036866 L29.1652301,64.636974 Z" id="Fill-12" fill="#292929" opacity="0.200000003"></path>
                            <g id="Group-16" transform="translate(0.000000, 4.776940)">
                                <mask id="mask-10" fill="white">
                                    <use xlink:href="#path-9"></use>
                                </mask>
                                <g id="Clip-15"></g>
                                <path d="M47.3885634,23.7383243 C47.3885634,36.6617152 36.8988657,47.1377043 23.9585634,47.1377043 C11.0182612,47.1377043 0.528563444,36.6617152 0.528563444,23.7383243 C0.528563444,10.8149334 11.0182612,0.338944352 23.9585634,0.338944352 C36.8988657,0.338944352 47.3885634,10.8149334 47.3885634,23.7383243" id="Fill-14" fill="#5F5C61" mask="url(#mask-10)"></path>
                            </g>
                            <path d="M47.301265,39.5478121 C47.301265,41.917216 45.3782694,43.8376984 43.005765,43.8376984 C40.6341283,43.8376984 38.7111328,41.917216 38.7111328,39.5478121 C38.7111328,37.1784082 40.6341283,35.2579258 43.005765,35.2579258 C45.3782694,35.2579258 47.301265,37.1784082 47.301265,39.5478121" id="Fill-17" fill="#E9C6A0"></path>
                            <path d="M9.20634122,39.5478121 C9.20634122,41.917216 7.28334567,43.8376984 4.91084122,43.8376984 C2.53920456,43.8376984 0.616209,41.917216 0.616209,39.5478121 C0.616209,37.1784082 2.53920456,35.2579258 4.91084122,35.2579258 C7.28334567,35.2579258 9.20634122,37.1784082 9.20634122,39.5478121" id="Fill-19" fill="#E9C6A0"></path>
                            <path d="M23.9585634,62.9036866 L23.9585634,62.9036866 C13.4150634,62.9036866 4.86745233,54.3672461 4.86745233,43.8375251 L4.86745233,27.3712947 C4.86745233,16.8415737 13.4150634,8.30513327 23.9585634,8.30513327 L23.9585634,8.30513327 C34.5020634,8.30513327 43.0496746,16.8415737 43.0496746,27.3712947 L43.0496746,43.8375251 C43.0496746,54.3672461 34.5020634,62.9036866 23.9585634,62.9036866" id="Fill-21" fill="#F7D4AA"></path>
                            <path d="M26.0201431,45.2698271 C25.7407187,45.350425 25.3259209,45.4778216 24.9414953,45.5982851 C24.3002076,45.7984798 23.6163987,45.7984798 22.9751109,45.5991518 C22.5898176,45.4795549 22.1732842,45.3521583 21.8947276,45.2724271" id="Stroke-23" stroke="#EAB78A" stroke-width="1.72440576" stroke-linecap="round"></path>
                            <path d="M11.1130226,41.5193399 C11.1321137,40.0001134 12.2159681,38.6533491 13.7684226,38.3560903 C15.1742226,38.0874308 16.5418403,38.7616796 17.2178392,39.9342485" id="Stroke-25" stroke="#4D4C4E" stroke-width="1.72440576" stroke-linecap="round"></path>
                            <path d="M36.8041043,41.5193399 C36.7850132,40.0001134 35.7011588,38.6533491 34.1487043,38.3560903 C32.7429043,38.0874308 31.3752866,38.7616796 30.6992877,39.9342485" id="Stroke-27" stroke="#4D4C4E" stroke-width="1.72440576" stroke-linecap="round"></path>
                            <path d="M0.0758437778,5.70520216 C0.0758437778,5.70520216 -0.779785111,13.5699938 3.25798489,20.2214842 C6.76467489,25.9993978 12.7653582,28.1911397 13.7433438,28.5152644 C14.695296,28.8307227 21.1914804,30.2962172 30.7361682,29.3134433 C42.709766,28.0810759 45.6992604,20.5334759 45.6992604,20.5334759 L36.8036704,10.9154641 L18.0995882,5.86899782 C18.0995882,5.86899782 6.60500378,13.5769269 0.0758437778,5.70520216" id="Fill-29" fill="#5F5C61"></path>
                            <g id="Group-33" transform="translate(6.942222, 0.443722)">
                                <mask id="mask-12" fill="white">
                                    <use xlink:href="#path-11"></use>
                                </mask>
                                <g id="Clip-32"></g>
                                <path d="M1.74674989,0.422662134 C1.74674989,0.422662134 -2.38213678,11.0390475 3.54304989,14.9389442 C9.46823656,18.8388408 21.9139054,18.378653 23.1287943,18.405519 C28.8995166,18.5346489 30.3834166,12.8442663 30.3834166,12.8442663 C30.3834166,12.8442663 3.54304989,7.06721941 1.74674989,0.422662134" id="Fill-31" fill="#5F5C61" mask="url(#mask-12)"></path>
                            </g>
                            <polygon id="Fill-34" fill="#85B9E4" points="1.39625444 90.6361984 10.94181 90.6361984 10.94181 88.902911 1.39625444 88.902911"></polygon>
                            <polygon id="Fill-38" fill="#85B9E4" points="36.9751433 90.6361984 46.5206989 90.6361984 46.5206989 88.902911 36.9751433 88.902911"></polygon>
                            <polygon id="Fill-40" fill="#292929" opacity="0.200000003" points="36.9751433 94.1027732 39.5784767 94.1027732 39.5784767 88.902911 36.9751433 88.902911"></polygon>
                            <path d="M43.0543606,30.958853 L43.0517572,40.3732036 C43.0508894,45.1588101 39.1658483,49.0370407 34.3739794,49.0370407 L23.9589106,49.0370407 L13.5429739,49.0370407 C8.751105,49.0370407 4.86606389,45.1588101 4.86519611,40.3732036 L4.86259278,30.958853 L4.00002167,30.958853 L4.00002167,47.3592185 C4.00002167,48.0863325 4.07898944,48.8160465 4.28899167,49.5128281 C6.353435,56.3367806 11.8004761,61.6692393 18.6628628,63.5099905 C19.5098139,63.7370512 23.2829117,64.6366273 23.9589106,64.6366273 C24.6340417,64.6366273 28.4071394,63.7370512 29.2540906,63.5099905 C36.1164772,61.6692393 41.5635183,56.3367806 43.6279617,49.5128281 C43.8388317,48.8160465 43.9177994,48.0863325 43.9177994,47.3592185 L43.9177994,30.958853 L43.0543606,30.958853 Z" id="Fill-42" fill="#5F5C61"></path>
                            <path d="M33.2078597,52.0092819 C31.7404474,55.6743181 28.1521863,58.2629829 23.9582163,58.2629829 C19.7651141,58.2629829 16.176853,55.6743181 14.7094408,52.0092819 L33.2078597,52.0092819 Z" id="Fill-44" fill="#FEFEFE"></path>
                            <path d="M32.5258731,53.3855988 C32.7862064,52.9470771 33.0161676,52.4877559 33.2079464,52.0093686 L14.7095276,52.0093686 C14.9013064,52.4877559 15.1303998,52.9470771 15.3916009,53.3855988 L32.5258731,53.3855988 Z" id="Fill-46" fill="#292929" opacity="0.200000003"></path>
                        </g>
                    </g>
                </g>
            </g>
        </g>
    </g>
</svg>