<?xml version="1.0" encoding="UTF-8"?>
<svg width="204px" height="87px" viewBox="0 0 204 87" version="1.1" xmlns="http://www.w3.org/2000/svg" xmlns:xlink="http://www.w3.org/1999/xlink">
    <!-- Generator: Sketch 55.2 (78181) - https://sketchapp.com -->
    <title>Group 66</title>
    <desc>Created with Sketch.</desc>
    <g id="Website-" stroke="none" stroke-width="1" fill="none" fill-rule="evenodd">
        <g id="Desktop-HD" transform="translate(-998.000000, -2769.000000)">
            <g id="Group-66" transform="translate(997.000000, 2769.000000)">
                <g id="Group-60" transform="translate(99.000000, 0.000000)">
                    <g id="Group-58" transform="translate(1.000000, 5.000000)">
                        <g id="Group-47" transform="translate(0.000000, 58.000000)" stroke="#979797" stroke-width="0.72">
                            <circle id="Oval-Copy-3" cx="11" cy="11.9541985" r="11"></circle>
                        </g>
                        <g id="Group-55" transform="translate(39.000000, 0.000000)" fill="#2F2F2F" fill-rule="nonzero">
                            <path d="M6.9328,0.56 L6.9328,14 L3.8224,14 L3.8224,3.056 L1.1344,3.056 L1.1344,0.56 L6.9328,0.56 Z M11.0416,14.1536 C10.5167974,14.1536 10.0752018,13.9744018 9.7168,13.616 C9.35839821,13.2575982 9.1792,12.8096027 9.1792,12.272 C9.1792,11.7215972 9.35839821,11.2768017 9.7168,10.9376 C10.0752018,10.5983983 10.5167974,10.4288 11.0416,10.4288 C11.5664026,10.4288 12.0079982,10.5983983 12.3664,10.9376 C12.7248018,11.2768017 12.904,11.7215972 12.904,12.272 C12.904,12.8096027 12.7248018,13.2575982 12.3664,13.616 C12.0079982,13.9744018 11.5664026,14.1536 11.0416,14.1536 Z M25,14.2304 C23.9375947,14.2304 22.910405,14.0864014 21.9184,13.7984 C20.926395,13.5103986 20.129603,13.1360023 19.528,12.6752 L20.584,10.3328 C21.1600029,10.7552021 21.844796,11.0943987 22.6384,11.3504 C23.432004,11.6064013 24.225596,11.7344 25.0192,11.7344 C25.9024044,11.7344 26.5551979,11.6032013 26.9776,11.3408 C27.4000021,11.0783987 27.6112,10.7296022 27.6112,10.2944 C27.6112,9.9743984 27.4864012,9.70880106 27.2368,9.4976 C26.9871988,9.28639894 26.667202,9.11680064 26.2768,8.9888 C25.886398,8.86079936 25.3584033,8.72000077 24.6928,8.5664 C23.6687949,8.32319878 22.8304033,8.08000122 22.1776,7.8368 C21.5247967,7.59359878 20.9648023,7.20320269 20.4976,6.6656 C20.0303977,6.12799731 19.7968,5.41120448 19.7968,4.5152 C19.7968,3.7343961 20.0079979,3.02720317 20.4304,2.3936 C20.8528021,1.75999683 21.4895957,1.25760186 22.3408,0.8864 C23.1920043,0.515198144 24.2319939,0.3296 25.4608,0.3296 C26.3184043,0.3296 27.1567959,0.431998976 27.976,0.6368 C28.7952041,0.841601024 29.5119969,1.13599808 30.1264,1.52 L29.1664,3.8816 C27.9247938,3.17759648 26.6832062,2.8256 25.4416,2.8256 C24.5711956,2.8256 23.9280021,2.96639859 23.512,3.248 C23.0959979,3.52960141 22.888,3.9007977 22.888,4.3616 C22.888,4.8224023 23.1279976,5.16479888 23.608,5.3888 C24.0880024,5.61280112 24.8207951,5.83359891 25.8064,6.0512 C26.8304051,6.29440122 27.6687967,6.53759878 28.3216,6.7808 C28.9744033,7.02400122 29.5343977,7.40799738 30.0016,7.9328 C30.4688023,8.45760262 30.7024,9.16799552 30.7024,10.064 C30.7024,10.8320038 30.4880021,11.5327968 30.0592,12.1664 C29.6303979,12.8000032 28.9872043,13.3023981 28.1296,13.6736 C27.2719957,14.0448019 26.2288061,14.2304 25,14.2304 Z M39.2848,13.5008 C38.9903985,13.7184011 38.6288021,13.8815995 38.2,13.9904 C37.7711979,14.0992005 37.3200024,14.1536 36.8464,14.1536 C35.6175939,14.1536 34.6672034,13.8400031 33.9952,13.2128 C33.3231966,12.5855969 32.9872,11.6640061 32.9872,10.448 L32.9872,6.2048 L31.3936,6.2048 L31.3936,3.9008 L32.9872,3.9008 L32.9872,1.3856 L35.9824,1.3856 L35.9824,3.9008 L38.5552,3.9008 L38.5552,6.2048 L35.9824,6.2048 L35.9824,10.4096 C35.9824,10.8448022 36.0943989,11.1807988 36.3184,11.4176 C36.5424011,11.6544012 36.859198,11.7728 37.2688,11.7728 C37.7424024,11.7728 38.1455983,11.6448013 38.4784,11.3888 L39.2848,13.5008 Z M50.7664,8.8736 C50.7664,8.91200019 50.7472002,9.1807975 50.7088,9.68 L42.8944,9.68 C43.0352007,10.3200032 43.3679974,10.8255981 43.8928,11.1968 C44.4176026,11.5680019 45.0703961,11.7536 45.8512,11.7536 C46.3888027,11.7536 46.8655979,11.6736008 47.2816,11.5136 C47.6976021,11.3535992 48.0847982,11.1008017 48.4432,10.7552 L50.0368,12.4832 C49.0639951,13.5968056 47.6432093,14.1536 45.7744,14.1536 C44.6095942,14.1536 43.5792045,13.9264023 42.6832,13.472 C41.7871955,13.0175977 41.0960024,12.387204 40.6096,11.5808 C40.1231976,10.774396 39.88,9.85920512 39.88,8.8352 C39.88,7.82399494 40.1199976,6.91200406 40.6,6.0992 C41.0800024,5.28639594 41.7391958,4.65280227 42.5776,4.1984 C43.4160042,3.74399773 44.3535948,3.5168 45.3904,3.5168 C46.4016051,3.5168 47.3167959,3.73439782 48.136,4.1696 C48.9552041,4.60480218 49.5983977,5.22879594 50.0656,6.0416 C50.5328023,6.85440406 50.7664,7.79839462 50.7664,8.8736 Z M45.4096,5.7824 C44.7311966,5.7824 44.1616023,5.97439808 43.7008,6.3584 C43.2399977,6.74240192 42.9584005,7.26719667 42.856,7.9328 L47.944,7.9328 C47.8415995,7.27999674 47.5600023,6.75840195 47.0992,6.368 C46.6383977,5.97759805 46.0752033,5.7824 45.4096,5.7824 Z M58.8688,3.5168 C59.8288048,3.5168 60.7023961,3.73759779 61.4896,4.1792 C62.2768039,4.62080221 62.8943978,5.241596 63.3424,6.0416 C63.7904022,6.841604 64.0144,7.77279469 64.0144,8.8352 C64.0144,9.89760531 63.7904022,10.828796 63.3424,11.6288 C62.8943978,12.428804 62.2768039,13.0495978 61.4896,13.4912 C60.7023961,13.9328022 59.8288048,14.1536 58.8688,14.1536 C57.5503934,14.1536 56.5136038,13.7376042 55.7584,12.9056 L55.7584,17.7248 L52.7632,17.7248 L52.7632,3.6704 L55.624,3.6704 L55.624,4.8608 C56.3664037,3.96479552 57.4479929,3.5168 58.8688,3.5168 Z M58.3504,11.696 C59.1184038,11.696 59.7487975,11.4368026 60.2416,10.9184 C60.7344025,10.3999974 60.9808,9.70560435 60.9808,8.8352 C60.9808,7.96479565 60.7344025,7.27040259 60.2416,6.752 C59.7487975,6.23359741 59.1184038,5.9744 58.3504,5.9744 C57.5823962,5.9744 56.9520025,6.23359741 56.4592,6.752 C55.9663975,7.27040259 55.72,7.96479565 55.72,8.8352 C55.72,9.70560435 55.9663975,10.3999974 56.4592,10.9184 C56.9520025,11.4368026 57.5823962,11.696 58.3504,11.696 Z" id="1.Step"></path>
                            <path d="M8.0272,68.432 C9.20480589,68.624001 10.1071969,69.0623966 10.7344,69.7472 C11.3616031,70.4320034 11.6752,71.2799949 11.6752,72.2912 C11.6752,73.0720039 11.470402,73.7919967 11.0608,74.4512 C10.651198,75.1104033 10.0272042,75.638398 9.1888,76.0352 C8.35039581,76.432002 7.32320608,76.6304 6.1072,76.6304 C5.15999526,76.6304 4.22880458,76.5056012 3.3136,76.256 C2.39839542,76.0063988 1.6208032,75.6512023 0.9808,75.1904 L2.1904,72.8096 C2.70240256,73.1936019 3.29439664,73.4911989 3.9664,73.7024 C4.63840336,73.9136011 5.32639648,74.0192 6.0304,74.0192 C6.8112039,74.0192 7.42559776,73.8688015 7.8736,73.568 C8.32160224,73.2671985 8.5456,72.8416028 8.5456,72.2912 C8.5456,71.1903945 7.70720838,70.64 6.0304,70.64 L4.6096,70.64 L4.6096,68.5856 L7.3744,65.456 L1.6528,65.456 L1.6528,62.96 L11.0608,62.96 L11.0608,64.976 L8.0272,68.432 Z M14.8816,76.5536 C14.3567974,76.5536 13.9152018,76.3744018 13.5568,76.016 C13.1983982,75.6575982 13.0192,75.2096027 13.0192,74.672 C13.0192,74.1215972 13.1983982,73.6768017 13.5568,73.3376 C13.9152018,72.9983983 14.3567974,72.8288 14.8816,72.8288 C15.4064026,72.8288 15.8479982,72.9983983 16.2064,73.3376 C16.5648018,73.6768017 16.744,74.1215972 16.744,74.672 C16.744,75.2096027 16.5648018,75.6575982 16.2064,76.016 C15.8479982,76.3744018 15.4064026,76.5536 14.8816,76.5536 Z M27.688,76.5536 C26.8303957,76.5536 25.9920041,76.4480011 25.1728,76.2368 C24.3535959,76.0255989 23.7008024,75.7600016 23.2144,75.44 L24.2128,73.2896 C24.6736023,73.5840015 25.2303967,73.8239991 25.8832,74.0096 C26.5360033,74.1952009 27.1759969,74.288 27.8032,74.288 C29.0704063,74.288 29.704,73.9744031 29.704,73.3472 C29.704,73.0527985 29.5312017,72.8416006 29.1856,72.7136 C28.8399983,72.5855994 28.3088036,72.4768004 27.592,72.3872 C26.7471958,72.2591994 26.0496028,72.1120008 25.4992,71.9456 C24.9487972,71.7791992 24.472002,71.4848021 24.0688,71.0624 C23.665598,70.6399979 23.464,70.0384039 23.464,69.2576 C23.464,68.6047967 23.6527981,68.0256025 24.0304,67.52 C24.4080019,67.0143975 24.9583964,66.6208014 25.6816,66.3392 C26.4048036,66.0575986 27.2591951,65.9168 28.2448,65.9168 C28.9744036,65.9168 29.7007964,65.9967992 30.424,66.1568 C31.1472036,66.3168008 31.7455976,66.5375986 32.2192,66.8192 L31.2208,68.9504 C30.3119955,68.4383974 29.3200054,68.1824 28.2448,68.1824 C27.6047968,68.1824 27.1248016,68.2719991 26.8048,68.4512 C26.4847984,68.6304009 26.3248,68.8607986 26.3248,69.1424 C26.3248,69.4624016 26.4975983,69.6863994 26.8432,69.8144 C27.1888017,69.9424006 27.7391962,70.0639994 28.4944,70.1792 C29.3392042,70.3200007 30.0303973,70.4703992 30.568,70.6304 C31.1056027,70.7904008 31.572798,71.0815979 31.9696,71.504 C32.366402,71.9264021 32.5648,72.5151962 32.5648,73.2704 C32.5648,73.9104032 32.3728019,74.4799975 31.9888,74.9792 C31.6047981,75.4784025 31.0448037,75.8655986 30.3088,76.1408 C29.5727963,76.4160014 28.6992051,76.5536 27.688,76.5536 Z M41.0704,75.9008 C40.7759985,76.1184011 40.4144021,76.2815995 39.9856,76.3904 C39.5567979,76.4992005 39.1056024,76.5536 38.632,76.5536 C37.4031939,76.5536 36.4528034,76.2400031 35.7808,75.6128 C35.1087966,74.9855969 34.7728,74.0640061 34.7728,72.848 L34.7728,68.6048 L33.1792,68.6048 L33.1792,66.3008 L34.7728,66.3008 L34.7728,63.7856 L37.768,63.7856 L37.768,66.3008 L40.3408,66.3008 L40.3408,68.6048 L37.768,68.6048 L37.768,72.8096 C37.768,73.2448022 37.8799989,73.5807988 38.104,73.8176 C38.3280011,74.0544012 38.644798,74.1728 39.0544,74.1728 C39.5280024,74.1728 39.9311983,74.0448013 40.264,73.7888 L41.0704,75.9008 Z M52.552,71.2736 C52.552,71.3120002 52.5328002,71.5807975 52.4944,72.08 L44.68,72.08 C44.8208007,72.7200032 45.1535974,73.2255981 45.6784,73.5968 C46.2032026,73.9680019 46.8559961,74.1536 47.6368,74.1536 C48.1744027,74.1536 48.6511979,74.0736008 49.0672,73.9136 C49.4832021,73.7535992 49.8703982,73.5008017 50.2288,73.1552 L51.8224,74.8832 C50.8495951,75.9968056 49.4288093,76.5536 47.56,76.5536 C46.3951942,76.5536 45.3648045,76.3264023 44.4688,75.872 C43.5727955,75.4175977 42.8816024,74.787204 42.3952,73.9808 C41.9087976,73.174396 41.6656,72.2592051 41.6656,71.2352 C41.6656,70.2239949 41.9055976,69.3120041 42.3856,68.4992 C42.8656024,67.6863959 43.5247958,67.0528023 44.3632,66.5984 C45.2016042,66.1439977 46.1391948,65.9168 47.176,65.9168 C48.1872051,65.9168 49.1023959,66.1343978 49.9216,66.5696 C50.7408041,67.0048022 51.3839977,67.6287959 51.8512,68.4416 C52.3184023,69.2544041 52.552,70.1983946 52.552,71.2736 Z M47.1952,68.1824 C46.5167966,68.1824 45.9472023,68.3743981 45.4864,68.7584 C45.0255977,69.1424019 44.7440005,69.6671967 44.6416,70.3328 L49.7296,70.3328 C49.6271995,69.6799967 49.3456023,69.158402 48.8848,68.768 C48.4239977,68.377598 47.8608033,68.1824 47.1952,68.1824 Z M60.6544,65.9168 C61.6144048,65.9168 62.4879961,66.1375978 63.2752,66.5792 C64.0624039,67.0208022 64.6799978,67.641596 65.128,68.4416 C65.5760022,69.241604 65.8,70.1727947 65.8,71.2352 C65.8,72.2976053 65.5760022,73.228796 65.128,74.0288 C64.6799978,74.828804 64.0624039,75.4495978 63.2752,75.8912 C62.4879961,76.3328022 61.6144048,76.5536 60.6544,76.5536 C59.3359934,76.5536 58.2992038,76.1376042 57.544,75.3056 L57.544,80.1248 L54.5488,80.1248 L54.5488,66.0704 L57.4096,66.0704 L57.4096,67.2608 C58.1520037,66.3647955 59.2335929,65.9168 60.6544,65.9168 Z M60.136,74.096 C60.9040038,74.096 61.5343975,73.8368026 62.0272,73.3184 C62.5200025,72.7999974 62.7664,72.1056044 62.7664,71.2352 C62.7664,70.3647956 62.5200025,69.6704026 62.0272,69.152 C61.5343975,68.6335974 60.9040038,68.3744 60.136,68.3744 C59.3679962,68.3744 58.7376025,68.6335974 58.2448,69.152 C57.7519975,69.6704026 57.5056,70.3647956 57.5056,71.2352 C57.5056,72.1056044 57.7519975,72.7999974 58.2448,73.3184 C58.7376025,73.8368026 59.3679962,74.096 60.136,74.096 Z" id="3.step"></path>
                            <path d="M11.176,43.9712 L11.176,45.2 L1.7488,45.2 L1.7488,44.2208 L7.336,38.7488 C8.04000352,38.0575965 8.51679875,37.4592025 8.7664,36.9536 C9.01600125,36.4479975 9.1408,35.9392026 9.1408,35.4272 C9.1408,34.633596 8.86880272,34.0160022 8.3248,33.5744 C7.78079728,33.1327978 7.00320506,32.912 5.992,32.912 C4.41759213,32.912 3.19520435,33.411195 2.3248,34.4096 L1.3456,33.5648 C1.87040262,32.9503969 2.53919594,32.4768017 3.352,32.144 C4.16480406,31.8111983 5.08319488,31.6448 6.1072,31.6448 C7.47680685,31.6448 8.561596,31.9679968 9.3616,32.6144 C10.161604,33.2608032 10.5616,34.1471944 10.5616,35.2736 C10.5616,35.9648035 10.4080015,36.6303968 10.1008,37.2704 C9.79359846,37.9104032 9.21120429,38.6463958 8.3536,39.4784 L3.784,43.9712 L11.176,43.9712 Z M14.1328,45.296 C13.8511986,45.296 13.611201,45.193601 13.4128,44.9888 C13.214399,44.783999 13.1152,44.5344015 13.1152,44.24 C13.1152,43.9455985 13.214399,43.699201 13.4128,43.5008 C13.611201,43.302399 13.8511986,43.2032 14.1328,43.2032 C14.4144014,43.2032 14.657599,43.302399 14.8624,43.5008 C15.067201,43.699201 15.1696,43.9455985 15.1696,44.24 C15.1696,44.5344015 15.067201,44.783999 14.8624,44.9888 C14.657599,45.193601 14.4144014,45.296 14.1328,45.296 Z M28.3024,35.024 C29.2496047,35.024 30.1071962,35.2383979 30.8752,35.6672 C31.6432038,36.0960021 32.2447978,36.7007961 32.68,37.4816 C33.1152022,38.2624039 33.3328,39.151995 33.3328,40.1504 C33.3328,41.148805 33.1152022,42.0383961 32.68,42.8192 C32.2447978,43.6000039 31.6432038,44.2079978 30.8752,44.6432 C30.1071962,45.0784022 29.2496047,45.296 28.3024,45.296 C27.4575958,45.296 26.6992034,45.1168018 26.0272,44.7584 C25.3551966,44.3999982 24.814402,43.8816034 24.4048,43.2032 L24.4048,45.2 L23.0992,45.2 L23.0992,30.9536 L24.4624,30.9536 L24.4624,37.0208 C24.8848021,36.3679967 25.4255967,35.8720017 26.0848,35.5328 C26.7440033,35.1935983 27.4831959,35.024 28.3024,35.024 Z M28.2064,44.0864 C28.9104035,44.0864 29.5503971,43.9232016 30.1264,43.5968 C30.7024029,43.2703984 31.1535984,42.806403 31.48,42.2048 C31.8064016,41.603197 31.9696,40.9184038 31.9696,40.1504 C31.9696,39.3823962 31.8064016,38.697603 31.48,38.096 C31.1535984,37.494397 30.7024029,37.0304016 30.1264,36.704 C29.5503971,36.3775984 28.9104035,36.2144 28.2064,36.2144 C27.4895964,36.2144 26.8464028,36.3775984 26.2768,36.704 C25.7071972,37.0304016 25.2592016,37.494397 24.9328,38.096 C24.6063984,38.697603 24.4432,39.3823962 24.4432,40.1504 C24.4432,40.9184038 24.6063984,41.603197 24.9328,42.2048 C25.2592016,42.806403 25.7071972,43.2703984 26.2768,43.5968 C26.8464028,43.9232016 27.4895964,44.0864 28.2064,44.0864 Z M44.3152,35.1008 L39.2656,46.4096 C38.855998,47.3568047 38.3824027,48.028798 37.8448,48.4256 C37.3071973,48.822402 36.6608038,49.0208 35.9056,49.0208 C35.4191976,49.0208 34.9648021,48.9440008 34.5424,48.7904 C34.1199979,48.6367992 33.7552015,48.4064015 33.448,48.0992 L34.0816,47.0816 C34.5936026,47.5936026 35.2079964,47.8496 35.9248,47.8496 C36.3856023,47.8496 36.7791984,47.7216013 37.1056,47.4656 C37.4320016,47.2095987 37.7359986,46.7744031 38.0176,46.16 L38.4592,45.1808 L33.9472,35.1008 L35.368,35.1008 L39.1696,43.6832 L42.9712,35.1008 L44.3152,35.1008 Z" id="2.by"></path>
                        </g>
                    </g>
                    <polygon id="Path" fill="#FFFFFF" fill-rule="nonzero" points="9.5 48.914305 4.08594 43.5 5.5 42.085695 9.5 46.085695 17.5 38.085695 18.91406 39.5"></polygon>
                    <path d="M11.5,23 C5.15869,23 0,17.841065 0,11.5 C0,5.158935 5.15869,0 11.5,0 C17.84131,0 23,5.158935 23,11.5 C23,17.841065 17.84131,23 11.5,23 Z" id="Path" fill="#FFD240" fill-rule="nonzero"></path>
                    <path d="M11.5,55 C5.15869,55 0,49.841065 0,43.5 C0,37.158935 5.15869,32 11.5,32 C17.84131,32 23,37.158935 23,43.5 C23,49.841065 17.84131,55 11.5,55 Z" id="Path" fill="#FFD240" fill-rule="nonzero"></path>
                    <polygon id="Path" fill="#FFFFFF" fill-rule="nonzero" points="9.5 48.914305 4.08594 43.5 5.5 42.085695 9.5 46.085695 17.5 38.085695 18.91406 39.5"></polygon>
                    <polygon id="Path-Copy" fill="#FFFFFF" fill-rule="nonzero" points="9.5 16.82861 4.08594 11.414305 5.5 10 9.5 14 17.5 6 18.91406 7.414305"></polygon>
                </g>
                <g id="party-popper" transform="translate(0.000000, 17.000000)" fill-rule="nonzero">
                    <path d="M43.8182609,38.3748 L16.7642391,11.2224 C16.4713795,10.9281615 16.0476005,10.8070922 15.6442479,10.9024301 C15.2408953,10.997768 14.9154877,11.2959177 14.7842391,11.6904 L1.25782609,52.4208 C1.13644281,52.7865663 1.19754667,53.1885907 1.42206698,53.5013999 C1.64658728,53.8142091 2.0071805,54 2.39130435,54 C2.51979125,54 2.64741285,53.9789044 2.76913043,53.9376 L43.3519565,40.362 C43.7450095,40.2302741 44.042079,39.9036832 44.1370714,39.4988639 C44.2320639,39.0940446 44.1114333,38.6687246 43.8182609,38.3748 Z" id="Path" fill="#EFD358"></path>
                    <ellipse id="Oval" fill="#E2AC4B" transform="translate(29.445476, 25.647689) rotate(-45.000000) translate(-29.445476, -25.647689) " cx="29.4454761" cy="25.6476894" rx="5.9892469" ry="20.3630464"></ellipse>
                    <path d="M35.8695652,28.8000037 C35.4611956,28.7980663 35.082053,28.5870843 34.8640934,28.2404836 C34.6461338,27.893883 34.6195063,27.4596069 34.7934783,27.0888 C37.8017391,20.67 45.3211957,18.4488 53.075,21.6888 C53.6844942,21.9439556 53.9724919,22.6466894 53.7182609,23.2584 C53.4640298,23.8701106 52.7638421,24.1591556 52.1543478,23.904 C45.6368478,21.18 39.3919565,22.9104 36.9576087,28.104 C36.761475,28.5293451 36.3365523,28.8011598 35.8695652,28.8000037 Z" id="Path" fill="#43A6DD"></path>
                    <ellipse id="Oval" fill="#E86C60" cx="43.0434783" cy="9.6" rx="3.58695652" ry="3.6"></ellipse>
                    <ellipse id="Oval" fill="#E2AC4B" cx="47.826087" cy="45.6" rx="2.39130435" ry="2.4"></ellipse>
                    <ellipse id="Oval" fill="#5A7A84" cx="32.2826087" cy="20.4" rx="2.39130435" ry="2.4"></ellipse>
                    <ellipse id="Oval" fill="#AE453E" cx="49.6195652" cy="30.6" rx="1.79347826" ry="1.8"></ellipse>
                    <ellipse id="Oval" fill="#E2AC4B" cx="19.7282609" cy="4.2" rx="1.79347826" ry="1.8"></ellipse>
                    <path d="M23.9130435,21.6000024 C23.3983984,21.6000024 22.9414933,21.2694839 22.7787482,20.7794733 C22.6160032,20.2894628 22.7839361,19.7499099 23.1956522,19.44 C28.6971201,15.3291084 30.5397182,7.89071852 27.5968478,1.6728 C27.3478513,1.06618434 27.6304213,0.371321658 28.23123,0.112802125 C28.8320388,-0.145717408 29.5283396,0.127951013 29.7944565,0.7272 C33.1961234,7.96070618 31.0342356,16.5985082 24.6304348,21.36 C24.4237171,21.5162555 24.1718313,21.6005228 23.9130435,21.6000024 Z" id="Path" fill="#E86C60"></path>
                    <path d="M3.7926087,15.3936 C3.47552794,15.3936 3.1714587,15.2670592 2.94728261,15.042 C1.39319433,13.5355532 0.769924691,11.3047326 1.31702787,9.20695606 C1.86413105,7.10917947 3.49646505,5.4709097 5.586641,4.92181706 C7.67681695,4.37272442 9.8995548,4.99826049 11.4005435,6.558 C11.8536624,7.02885466 11.8471822,7.77730173 11.3859787,8.24018229 C10.9247753,8.70306285 10.17904,8.70956665 9.7098913,8.2548 C8.29058377,6.89525326 6.05724231,6.89525326 4.63793478,8.2548 C3.23765174,9.66059947 3.23765174,11.9394005 4.63793478,13.3452 C4.9797812,13.6883931 5.08202619,14.2044439 4.89700628,14.6527855 C4.71198636,15.101127 4.27612553,15.3936 3.7926087,15.3936 L3.7926087,15.3936 Z" id="Path" fill="#43A6DD"></path>
                </g>
                <polygon id="+" fill="#2F2F2F" fill-rule="nonzero" points="82.9395 45.197 78.2415 45.197 78.2415 49.787 74.7585 49.787 74.7585 45.197 70.0875 45.197 70.0875 41.903 74.7585 41.903 74.7585 37.313 78.2415 37.313 78.2415 41.903 82.9395 41.903"></polygon>
            </g>
        </g>
    </g>
</svg>