<?xml version="1.0" encoding="UTF-8"?>
<svg width="173px" height="149px" viewBox="0 0 173 149" version="1.1" xmlns="http://www.w3.org/2000/svg" xmlns:xlink="http://www.w3.org/1999/xlink">
    <!-- Generator: Sketch 55.2 (78181) - https://sketchapp.com -->
    <title>Group 27</title>
    <desc>Created with Sketch.</desc>
    <defs>
        <polygon id="path-1" points="0.000540437124 16.1420387 32.4267679 16.1420387 32.4267679 2.08216047 0.000540437124 2.08216047 0.000540437124 16.1420387"></polygon>
    </defs>
    <g id="Website-" stroke="none" stroke-width="1" fill="none" fill-rule="evenodd">
        <g id="Desktop-HD" transform="translate(-275.000000, -940.000000)">
            <g id="Group-27" transform="translate(268.000000, 940.000000)">
                <g id="Group-18">
                    <polygon id="Polygon" fill="#FFCC27" opacity="0.738960598" transform="translate(163.336497, 98.406967) rotate(-315.000000) translate(-163.336497, -98.406967) " points="163.333649 81.6717812 178.39674 90.0419368 178.399588 106.777123 163.339344 115.142153 148.276253 106.771998 148.273406 90.0368116"></polygon>
                    <polygon id="Polygon" fill="#FFCC27" opacity="0.738960598" transform="translate(36.797206, 38.318130) rotate(-330.000000) translate(-36.797206, -38.318130) " points="36.7930141 9.86589354 61.8957536 24.0957105 61.8999455 52.5479469 36.801398 66.7703664 11.6986585 52.5405494 11.6944666 24.088313"></polygon>
                    <g id="Group-17" transform="translate(29.652174, 0.000000)">
                        <g id="Halil" transform="translate(0.000000, 24.179881)">
                            <g id="Group-22">
                                <g id="Group-21">
                                    <g id="Group-20" transform="translate(1.195337, 59.857058)">
                                        <path d="M16.7628969,4.64259044 C7.01889121,7.29265558 -1.13686838e-13,14.6503303 -1.13686838e-13,23.3325725 L-1.13686838e-13,30.8158207 C-1.13686838e-13,31.791573 0.801781687,32.5822208 1.79127462,32.5822208 L10.655207,32.5822208 L21.7528088,43.0280725 C23.4280609,44.6056473 26.0635645,44.6121585 27.747306,43.0420251 L38.9675332,32.5822208 L48.4059186,32.5822208 C48.9794283,32.5822208 49.4444617,32.1236451 49.4444617,31.5571692 L49.4444617,23.3325725 C49.4444617,14.6633527 42.4463225,7.31404958 32.7240121,4.65468269 L16.7628969,4.64259044 Z" id="Fill-7" fill="#849412"></path>
                                        <path d="M9.2405811,25.6060103 C8.45860814,25.6060103 7.82567224,26.2310871 7.82567224,27.001271 L7.82567224,32.5823138 L10.65549,32.5823138 L10.65549,27.001271 C10.65549,26.2310871 10.0225541,25.6060103 9.2405811,25.6060103 L9.2405811,25.6060103 Z" id="Fill-1" fill="#667210"></path>
                                        <path d="M40.373198,25.6159632 C39.597828,25.6159632 38.9677219,26.2363891 38.9677219,27.0009919 L38.9677219,32.5820347 L41.7777309,32.5820347 L41.7777309,27.0009919 C41.7777309,26.2363891 41.1485681,25.6159632 40.373198,25.6159632" id="Fill-3" fill="#667210"></path>
                                        <path d="M17.5204391,4.43190607 C17.4251686,4.45516042 17.3355577,4.48585615 17.2402871,4.51004067 C17.3327278,4.48864667 17.4279984,4.47283372 17.5204391,4.45330007 L17.5204391,4.43190607 Z" id="Fill-5" fill="#D0D2D3"></path>
                                        <path d="M31.9244943,4.43190607 L31.9244943,4.44399833 C31.9792041,4.45609059 32.0358004,4.4663225 32.0905102,4.47841476 C32.0339139,4.46446215 31.9810906,4.44585868 31.9244943,4.43190607" id="Fill-9" fill="#D0D2D3"></path>
                                        <path d="M24.7434545,15.0890933 C29.1306152,15.0993252 32.7235405,11.9823128 32.7235405,7.65793483 L32.7235405,4.65440364 L32.7235405,4.60696478 C32.5169638,4.55673539 32.3000111,4.52510948 32.0906046,4.47860079 C32.0358947,4.46557836 31.9792984,4.45627662 31.9245886,4.44418436 C31.3727741,4.32419194 30.8247328,4.19768831 30.2597125,4.10467093 C28.4797571,4.44697489 26.6460353,4.64138121 24.7642065,4.64138121 L24.7227025,4.64138121 C22.8408737,4.64138121 21.0071518,4.44697489 19.2271965,4.10467093 C18.6480271,4.19954866 18.0858367,4.32884281 17.5208164,4.45255593 C17.4274324,4.47301975 17.3331052,4.48883271 17.2406644,4.5102267 C17.0831379,4.54557331 16.9190085,4.56882765 16.7624253,4.60696478 L16.7624253,4.64324156 L16.7624253,7.65793483 C16.7624253,11.9823128 20.3562938,15.0993252 24.7434545,15.0890933" id="Fill-11" fill="#6A770F"></path>
                                        <path d="M18.9975096,3.04176133 L18.9975096,4.10494998 L18.9975096,4.55422392 L18.9975096,7.07127422 C18.9975096,10.1761944 21.573587,12.716499 24.7222309,12.716499 C27.8708747,12.716499 30.4478954,10.1761944 30.4478954,7.07127422 L30.4478954,4.55422392 L30.4478954,4.10494998 L30.4478954,3.04176133 C28.6283226,3.55707761 26.7097062,3.8379901 24.7222309,3.8379901 C22.7356988,3.8379901 20.8161391,3.55707761 18.9975096,3.04176133" id="Fill-19" fill="#FFE1AD"></path>
                                        <path d="M18.9975096,0.22045119 L18.9975096,3.04166831 C20.8161391,3.5569846 22.7356988,3.83789708 24.7222309,3.83789708 C26.7097062,3.83789708 28.6283226,3.5569846 30.4478954,3.04166831 L30.4478954,1.13686838e-13 C28.5132433,0.588800013 26.4587957,0.906919452 24.3298295,0.906919452 C22.4857316,0.906919452 20.6991733,0.666004438 18.9975096,0.22045119" id="Fill-21" fill="#D7B48A"></path>
                                    </g>
                                    <path d="M18.6513852,65.2766695 C18.5549735,65.3002133 18.4642892,65.3312911 18.3678774,65.3557766 C18.4614254,65.3341163 18.5578372,65.3181065 18.6513852,65.2983298 L18.6513852,65.2766695 Z" id="Fill-5" fill="#D0D2D3"></path>
                                    <path d="M33.2279791,65.2766695 L33.2279791,65.2889123 C33.2833442,65.301155 33.3406185,65.3115143 33.3959837,65.3237571 C33.3387094,65.3096308 33.2852534,65.2907958 33.2279791,65.2766695" id="Fill-9" fill="#D0D2D3"></path>
                                    <path d="M25.9396344,49.2960893 C22.7532746,49.2960893 20.1463397,51.8680125 20.1463397,55.0115788 L20.1463397,55.4664448 C20.1463397,52.3228785 22.7532746,49.7509553 25.9396344,49.7509553 C29.1259942,49.7509553 31.7329291,52.3228785 31.7329291,55.4664448 L31.7329291,55.0115788 C31.7329291,51.8680125 29.1259942,49.2960893 25.9396344,49.2960893" id="Fill-17" fill="#231F20"></path>
                                    <path d="M46.5098876,27.4245714 L46.5098876,36.4069966 C46.6272999,36.4069966 46.7399393,36.4239482 46.8583062,36.4154724 C49.3774205,36.2252386 51.2636539,34.0563851 51.0708304,31.5720448 C50.8865981,29.2035399 48.8781796,27.4245714 46.5098876,27.4245714" id="Fill-23" fill="#F2D5A3"></path>
                                    <path d="M4.2251363,27.4161898 C1.70602199,27.6064236 -0.179256813,29.7743354 0.0135666398,32.2596175 C0.196844377,34.6281224 2.20621748,36.4070908 4.57355492,36.4070908 L4.57355492,27.4246656 C4.45709719,27.4246656 4.34350318,27.4067723 4.2251363,27.4161898" id="Fill-25" fill="#F2D5A3"></path>
                                    <path d="M46.5098876,27.1666257 L46.5098876,24.6333144 C46.5098876,19.2220106 44.401239,14.2975923 40.9542812,10.6115772 C37.122631,6.51495845 31.6367083,3.94680228 25.541769,3.94680228 C20.245806,3.94680228 15.4118557,5.88869374 11.7205275,9.08405637 C8.21343168,12.1212048 5.74395509,16.2922219 4.89915927,21.0188723 C4.68915353,22.1932364 4.57365038,23.39962 4.57365038,24.6333144 L4.57365038,27.4246656 L4.57365038,36.4070908 L4.57365038,40.808837 L4.57937781,40.808837 C4.57842323,40.8804101 4.57365038,40.9500998 4.57365038,41.0207311 C4.57365038,50.6049355 11.1811946,58.6635025 20.1465306,61.0131724 C21.8685777,61.4642713 23.6755816,61.7072432 25.541769,61.7072432 C27.6971915,61.7072432 29.7762484,61.3861059 31.73312,60.7899773 C40.2908539,58.1841511 46.5098876,50.3195848 46.5098876,41.0207311 C46.5098876,40.9500998 46.5051147,40.8804101 46.5041601,40.808837 L46.5098876,40.808837 L46.5098876,36.4070908 L46.5098876,27.4246656 L46.5098876,27.1666257 Z" id="Fill-31" fill="#FFE1AD"></path>
                                    <path d="M12.2663516,32.2274096 C11.7480192,32.2274096 11.271688,31.8921461 11.1199111,31.377008 C10.937588,30.7516851 11.3031889,30.0990513 11.9360698,29.9191768 C14.1086746,29.3032714 16.4826941,29.3013879 18.6533898,29.9163516 C19.2862707,30.0952843 19.6528262,30.7479181 19.470503,31.373241 C19.2881799,31.9976222 18.6247526,32.358313 17.9937808,32.1784385 C16.2507332,31.6849608 14.339681,31.6859025 12.5975879,32.1812638 C12.4868576,32.2123416 12.3761273,32.2274096 12.2663516,32.2274096" id="Fill-33" fill="#BC7455"></path>
                                    <path d="M28.2087464,41.3006196 C27.4870903,41.5059215 26.7243877,41.6161064 25.9359116,41.6161064 C25.1493446,41.6161064 24.3895057,41.5068632 23.6707133,41.3034449" id="Fill-35" fill="#FCCA80"></path>
                                    <path d="M25.9356252,42.5581403 C25.0765108,42.5581403 24.2259876,42.4404214 23.4069652,42.2078088 C22.9000877,42.0646626 22.6070342,41.5429323 22.7530837,41.0428623 C22.8981785,40.5427923 23.4270112,40.2564998 23.9338887,40.3977625 C25.2311514,40.7659874 26.6439173,40.7659874 27.9440437,40.395879 C28.4518758,40.2536746 28.9807084,40.539967 29.1258033,41.0409788 C29.2718528,41.540107 28.9797539,42.0627791 28.4728764,42.2059253 C27.6500357,42.4394797 26.7966487,42.5581403 25.9356252,42.5581403" id="Fill-37" fill="#FCCA80"></path>
                                    <path d="M33.0809751,32.2274096 C32.5626427,32.2274096 32.0863115,31.8921461 31.9345346,31.377008 C31.7522115,30.7516851 32.1178124,30.0990513 32.7506933,29.9191768 C34.921389,29.3023296 37.2954084,29.2995044 39.4680133,29.9163516 C40.1018488,30.0952843 40.4674497,30.7479181 40.2851265,31.373241 C40.1037579,31.9976222 39.4403307,32.358313 38.8093589,32.1784385 C37.0644021,31.6849608 35.1533499,31.6859025 33.4122114,32.1812638 C33.3014811,32.2123416 33.1907508,32.2274096 33.0809751,32.2274096" id="Fill-39" fill="#BC7455"></path>
                                    <path d="M34.6827461,35.7385415 C34.2837352,35.7385415 34.0155006,35.3373554 34.1634592,34.9710141 C34.4727404,34.2091371 35.2278065,33.6704553 36.1098306,33.6704553 C36.9928092,33.6704553 37.7478753,34.2091371 38.0571565,34.9710141 C38.2051151,35.3373554 37.9368805,35.7385415 37.5378696,35.7385415 L34.6827461,35.7385415 Z" id="Fill-41" fill="#473A4F"></path>
                                    <path d="M14.0019535,35.7385415 C13.5389863,35.7385415 13.2029772,35.2620152 13.4024826,34.8504699 C13.7394464,34.1526321 14.4601479,33.6704553 15.295398,33.6704553 C16.1306481,33.6704553 16.8513496,34.1526321 17.1883134,34.8504699 C17.3878188,35.2620152 17.0518096,35.7385415 16.5888424,35.7385415 L14.0019535,35.7385415 Z" id="Fill-43" fill="#473A4F"></path>
                                    <rect id="Rectangle-6" fill="#8F6C47" x="15.2804969" y="43.9979789" width="21.5319962" height="13.1215117" rx="6.56075583"></rect>
                                    <path d="M38.7587666,39.8267786 C38.7587666,40.5142572 37.6285539,41.071774 36.2348794,41.071774 C34.841205,41.071774 33.7119468,40.5142572 33.7119468,39.8267786 C33.7119468,39.1393001 34.841205,38.5817832 36.2348794,38.5817832 C37.6285539,38.5817832 38.7587666,39.1393001 38.7587666,39.8267786" id="Fill-47" fill="#FBC39C"></path>
                                    <path d="M17.3720684,39.8267786 C17.3720684,40.5142572 16.2418557,41.071774 14.8481812,41.071774 C13.4545068,41.071774 12.3252486,40.5142572 12.3252486,39.8267786 C12.3252486,39.1393001 13.4545068,38.5817832 14.8481812,38.5817832 C16.2418557,38.5817832 17.3720684,39.1393001 17.3720684,39.8267786" id="Fill-49" fill="#FBC39C"></path>
                                    <path d="M46.4554759,42.9782029 C43.1460132,51.4346054 38.6765263,55.6628066 33.0470154,55.6628066 C27.4175044,55.6628066 24.9157556,55.9748831 25.541769,56.5990362 C21.7509295,60.1765904 21.8761957,61.8793261 25.9175675,61.7072432 C31.9796252,61.4491189 37.5244596,60.8717167 41.498547,55.6628066 C44.1479386,52.1901999 45.8002482,47.9619986 46.4554759,42.9782029 Z" id="Path-3" fill="#8F6C47"></path>
                                    <path d="M4.57365038,43.0162593 C7.83123856,51.4472908 12.5472023,55.7901389 18.1767133,55.7901389 C23.8062242,55.7901389 27.0421767,55.9947468 26.046495,56.8072354 C30.9461541,60.1197496 30.8325365,61.7530855 25.7056423,61.7072432 C18.015301,61.6384797 12.7012437,59.3299777 9.72518163,55.7901389 C6.74911952,52.2503002 5.3610623,47.7680451 4.57365038,43.0162593 Z" id="Path-3" fill="#8F6C47"></path>
                                    <path d="M22.7155419,53.7099593 C23.221438,56.3833656 23.7492433,58.1392299 24.2989579,58.9775522 C25.9605395,60.3899341 26.5647221,60.7168509 27.7829463,59.1913082 C29.0011705,57.6657656 28.6220023,55.1169603 29.1634219,53.7099593 C30.0024789,52.8113785 27.8531856,52.8113785 22.7155419,53.7099593 Z" id="Path-6" fill="#6B5034"></path>
                                    <g id="Group-19" transform="translate(18.850626, 47.412586)">
                                        <path d="M12.1789752,1.07469589e-13 C13.603196,1.07469589e-13 14.5596767,1.43240394 14.030844,2.73672968 C12.9292685,5.45368257 10.2364221,7.372972 7.08919976,7.372972 C3.94197737,7.372972 1.24913103,5.45368257 0.14755547,2.73672968 C-0.381277167,1.43240394 0.575203523,1.07469589e-13 1.99942427,1.07469589e-13 L12.1789752,1.07469589e-13 Z" id="Fill-45" fill="#473A4F"></path>
                                        <path d="M10.4552099,2.52314045 L3.76557255,2.52314045 C2.62485955,2.52314045 1.69987972,1.61058331 1.69987972,0.486132092 L1.69987972,0.000188350287 L12.5199482,0.000188350287 L12.5199482,0.486132092 C12.5199482,1.61058331 11.5959229,2.52314045 10.4552099,2.52314045" id="Fill-51" fill="#FEFEFE"></path>
                                        <path d="M7.09024979,4.64208119 C5.63548275,4.64208119 4.35253859,5.38794832 3.6041545,6.50863253 C4.64654663,7.05296486 5.8283062,7.37316035 7.09024979,7.37316035 C8.35219337,7.37316035 9.53395295,7.05296486 10.5763451,6.50863253 C9.82796098,5.38794832 8.54501682,4.64208119 7.09024979,4.64208119" id="Fill-53" fill="#F3795D"></path>
                                    </g>
                                    <path d="M35.9331201,47.4127748 C38.0983769,49.9357269 42.2097521,51.283869 44.5609226,47.0148742 C46.9120931,42.7458794 41.1847035,55.6676099 39.6415402,56.4288847 C38.6127647,56.9364013 36.6362335,57.1666032 33.7119468,57.1194906 C33.7492245,48.9663787 34.4896156,45.7308068 35.9331201,47.4127748 Z" id="Path-5" fill="#8F6C47"></path>
                                    <path d="M8.36310116,48.0795452 C10.5283579,50.6024973 15.1059253,51.9461741 17.4570958,47.6771793 C19.8082663,43.4081845 13.6146846,56.3343803 12.0715212,57.0956551 C11.0427457,57.6031717 9.06621457,57.8333736 6.14192787,57.786261 C6.17920556,49.6331491 6.91959666,46.3975772 8.36310116,48.0795452 Z" id="Path-5" fill="#8F6C47" transform="translate(12.062818, 52.303464) scale(-1, 1) translate(-12.062818, -52.303464) "></path>
                                    <path d="M4.21285154,23.1080101 C4.26167339,24.2345826 10.3795559,19.6961254 11.5394956,15.7745041 C12.6994354,11.8528828 15.6077023,11.4158796 22.2600998,13.9253655 C23.5614546,14.4164781 31.1509538,15.0942467 34.1222388,13.2550632 C37.0935238,11.4158796 39.7527496,11.8278984 40.9036522,14.5583679 C42.3190626,17.916371 42.8293968,24.067451 47.0809585,23.6339651 C47.2703536,22.5024151 47.2585691,21.2099262 47.1381979,19.925733 C46.8646273,17.011411 46.0262383,14.1352498 45.6743843,13.2550632 C43.9908723,9.03746765 40.8974191,5.59304268 37.0935238,3.26855357 C36.9083375,3.15490082 36.7248347,3.03875932 36.5354396,2.93091364 C36.4218025,2.86537665 36.3081655,2.79983967 36.1928449,2.73679143 C33.4916499,1.25515775 30.4756382,0.326025775 27.3670334,0.073832809 C27.2904336,0.0680257341 27.2146756,0.0622186593 27.1380758,0.0572411665 C26.6431232,0.0223987173 26.1456455,1.13686838e-13 25.6473259,1.13686838e-13 C25.3653377,1.13686838e-13 25.0774571,0.00829582124 24.7853678,0.0215691352 C21.0437624,0.19909971 16.5412097,1.52643111 12.6994354,4.29225791 C9.0596825,6.91290784 6.01757637,10.829365 4.78187859,16.2963112 C4.51335843,17.4834433 4.32480509,18.738601 4.23978774,20.0742282 C4.17749779,21.0456689 4.16655496,22.0560999 4.21285154,23.1080101 Z" id="Fill-149" fill="#8F6C47"></path>
                                </g>
                            </g>
                        </g>
                        <g id="Danny" transform="translate(85.182576, 20.386958)">
                            <g id="boy_1" transform="translate(0.000000, 6.809880)">
                                <path d="M16.8730044,61.1577438 C7.22339907,63.204847 0.30347257,71.2259428 0.30347257,79.9606365 L0.30347257,87.4890927 C0.30347257,88.4707398 1.09600546,89.266164 2.0740843,89.266164 L8.03859363,89.266164 L10.8357686,89.266164 L21.8053562,99.7751216 C23.4612838,101.362227 26.066386,101.368777 27.7307051,99.7891585 L38.8215037,89.266164 L41.5990984,89.266164 L48.1510144,89.266164 C48.7179086,89.266164 49.1775776,88.804818 49.1775776,88.2349199 L49.1775776,79.9606365 C49.1775776,71.2390439 42.2601641,63.8453418 32.6500034,61.1699091 C32.6500034,61.1699091 26.5226098,59.1106406 16.8730044,61.1577438 Z" id="Fill-7" fill="#E5E5E5"></path>
                                <path d="M9.43746081,82.2478086 C8.66450814,82.2478086 8.03887335,82.8766617 8.03887335,83.6514984 L8.03887335,89.2662576 L10.8360483,89.2662576 L10.8360483,83.6514984 C10.8360483,82.8766617 10.2104135,82.2478086 9.43746081,82.2478086 L9.43746081,82.2478086 Z" id="Fill-1" fill="#C4C4C4"></path>
                                <path d="M40.2109537,82.2578216 C39.4445278,82.2578216 38.8216902,82.8819957 38.8216902,83.6512177 L38.8216902,89.2659769 L41.5992849,89.2659769 L41.5992849,83.6512177 C41.5992849,82.8819957 40.9773796,82.2578216 40.2109537,82.2578216" id="Fill-3" fill="#C4C4C4"></path>
                                <path d="M17.6218082,60.9457866 C17.5276366,60.9691814 17.4390594,61.0000626 17.3448878,61.0243932 C17.4362622,61.00287 17.5304338,60.9869615 17.6218082,60.9673099 L17.6218082,60.9457866 Z" id="Fill-5" fill="#D0D2D3"></path>
                                <path d="M31.8597082,60.9457866 L31.8597082,60.9579519 C31.913787,60.9701172 31.9697305,60.980411 32.0238092,60.9925763 C31.9678657,60.9785394 31.9156517,60.9598235 31.8597082,60.9457866" id="Fill-9" fill="#D0D2D3"></path>
                                <path d="M24.7615039,71.6673564 C29.0980574,71.6776502 32.6495372,68.5418072 32.6495372,64.1913046 L32.6495372,61.1696283 L32.6495372,61.1219029 C32.4453434,61.0713701 32.2308934,61.0395531 32.0239024,60.9927634 C31.9698237,60.9796623 31.9138802,60.9703044 31.8598015,60.9581391 C31.3143524,60.8374218 30.7726328,60.7101539 30.2141302,60.6165746 C28.4547072,60.9609465 26.6421379,61.1565272 24.7820165,61.1565272 L24.7409913,61.1565272 C22.88087,61.1565272 21.0683006,60.9609465 19.3088776,60.6165746 C18.7363891,60.7120255 18.1806837,60.8421007 17.6221811,60.9665612 C17.5298743,60.9871487 17.4366352,61.0030572 17.3452608,61.0245804 C17.1895514,61.0601405 17.0273153,61.0835354 16.8725382,61.1219029 L16.8725382,61.1583988 L16.8725382,64.1913046 C16.8725382,68.5418072 20.4249504,71.6776502 24.7615039,71.6673564" id="Fill-11" fill="#BBBBBB"></path>
                                <path d="M24.7407116,45.0663119 C21.6283883,45.0663119 19.0820267,47.6219631 19.0820267,50.7456408 L19.0820267,51.1976289 C19.0820267,48.0739512 21.6283883,45.5183 24.7407116,45.5183 C27.8530349,45.5183 30.3993965,48.0739512 30.3993965,51.1976289 L30.3993965,50.7456408 C30.3993965,47.6219631 27.8530349,45.0663119 24.7407116,45.0663119" id="Fill-17" fill="#231F20"></path>
                                <path d="M19.0818402,59.5472437 L19.0818402,60.6168553 L19.0818402,61.0688434 L19.0818402,63.6010998 C19.0818402,66.7247775 21.6282018,69.2804287 24.7405251,69.2804287 C27.8528484,69.2804287 30.4001424,66.7247775 30.4001424,63.6010998 L30.4001424,61.0688434 L30.4001424,60.6168553 L30.4001424,59.5472437 C28.6015589,60.0656731 26.7050743,60.3482827 24.7405251,60.3482827 C22.7769083,60.3482827 20.8794913,60.0656731 19.0818402,59.5472437" id="Fill-19" fill="#FFE1AD"></path>
                                <path d="M19.0818402,56.7088893 L19.0818402,59.5471501 C20.8794913,60.0655795 22.7769083,60.3481891 24.7405251,60.3481891 C26.7050743,60.3481891 28.6015589,60.0655795 30.4001424,59.5471501 L30.4001424,56.4871064 C28.4878071,57.0794634 26.4570581,57.3995047 24.3526502,57.3995047 C22.5298245,57.3995047 20.7638748,57.1571343 19.0818402,56.7088893" id="Fill-21" fill="#D7B48A"></path>
                                <path d="M44.2365337,23.3331699 L44.2365337,32.2587654 C44.3512179,32.2587654 44.4612401,32.2756097 44.5768567,32.2671876 C47.0374382,32.0781574 48.8798441,29.9230256 48.691501,27.4544032 C48.5115494,25.1008833 46.5497974,23.3331699 44.2365337,23.3331699" id="Fill-23" fill="#FCCA80"></path>
                                <path d="M4.1272316,23.3248414 C1.66665006,23.5138716 -0.174823433,25.6680675 0.0135196788,28.1376258 C0.192538874,30.4911457 2.15522328,32.258859 4.46755455,32.258859 L4.46755455,23.3332635 C4.35380277,23.3332635 4.24284817,23.3154834 4.1272316,23.3248414" id="Fill-25" fill="#FCCA80"></path>
                                <path d="M42.7976807,24.4493293 C46.8330717,19.9986969 47.7440183,13.2750228 44.5860078,7.78565988 C43.6405627,6.14240703 41.5464111,5.57905952 39.9091314,6.52795383 L37.3711613,7.99902073 C40.7380275,11.6617153 42.7976807,16.5549779 42.7976807,21.9320456 L42.7976807,24.4493293 Z" id="Fill-27" fill="#F2BA28"></path>
                                <path d="M10.8521786,5.10850386 L10.2209495,4.74260872 C8.58366978,3.79371442 6.48951816,4.35706192 5.54407303,6.00031477 L5.54407303,6.00031477 C3.55434927,9.45900643 3.18605457,13.4061821 4.18930798,16.967811 C5.01447458,12.271065 7.42657176,8.12643691 10.8521786,5.10850386" id="Fill-29" fill="#F2BA28"></path>
                                <path d="M44.8330055,23.0768562 L44.8330055,20.5595725 C44.8330055,15.1825048 42.7733524,10.2892422 39.4064862,6.62654758 C35.6638661,2.55584718 30.3054114,0.00393912858 24.3520907,0.00393912858 C19.1791819,0.00393912858 14.4575506,1.9335447 10.8519922,5.10869101 C7.42638528,8.12662407 5.0142881,12.2712521 4.1891215,16.9679982 C3.98399534,18.1349323 3.87117595,19.3336834 3.87117595,20.5595725 L3.87117595,23.3332635 L3.87117595,32.258859 L3.87117595,36.6327564 L3.8767703,36.6327564 C3.87583791,36.7038767 3.87117595,36.7731254 3.87117595,36.8433099 C3.87117595,46.3668773 10.3251909,54.3744596 19.0822132,56.7092637 C20.7642477,57.1575086 22.5292651,57.3989432 24.3520907,57.3989432 C26.4574311,57.3989432 28.4881801,57.0798378 30.3995829,56.4874807 C38.758474,53.8981409 44.8330055,46.0833319 44.8330055,36.8433099 C44.8330055,36.7731254 44.8283436,36.7038767 44.8274112,36.6327564 L44.8330055,36.6327564 L44.8330055,32.258859 L44.8330055,23.3332635 L44.8330055,23.0768562 Z" id="Fill-31" fill="#FFE1AD"></path>
                                <path d="M11.3851337,28.1056217 C10.878845,28.1056217 10.4135816,27.7724793 10.2653313,27.2606004 C10.0872445,26.6392337 10.4443505,25.990729 11.0625262,25.8119925 C13.1846496,25.1999838 15.5035076,25.1981122 17.6237662,25.8091852 C18.2419418,25.9869859 18.5999802,26.6354905 18.4218934,27.2568572 C18.2438066,27.8772881 17.5957944,28.2356969 16.9794836,28.0569604 C15.2769364,27.5666048 13.4102884,27.5675406 11.7086736,28.0597678 C11.6005162,28.090649 11.4923587,28.1056217 11.3851337,28.1056217" id="Fill-33" fill="#BC7455"></path>
                                <path d="M26.9570998,37.1214276 C26.2522117,37.3254305 25.5072308,37.4349184 24.7370753,37.4349184 C23.9687845,37.4349184 23.2266008,37.3263663 22.5245099,37.124235" id="Fill-35" fill="#FCCA80"></path>
                                <path d="M24.7367955,38.3709923 C23.8976431,38.3709923 23.0668821,38.2540181 22.2668901,38.0228772 C21.7717901,37.8806366 21.4855459,37.3622072 21.6282018,36.865301 C21.7699253,36.3683948 22.2864703,36.0839137 22.7815703,36.2242827 C24.0486905,36.5901778 25.4286301,36.5901778 26.6985476,36.2224111 C27.1945799,36.0811063 27.7111249,36.3655875 27.8528484,36.8634294 C27.9955043,37.3593998 27.7101925,37.8787651 27.2150925,38.0210056 C26.4113709,38.2530823 25.5778128,38.3709923 24.7367955,38.3709923" id="Fill-37" fill="#FCCA80"></path>
                                <path d="M31.7161199,28.1056217 C31.2098313,28.1056217 30.7445678,27.7724793 30.5963176,27.2606004 C30.4182308,26.6392337 30.7753368,25.990729 31.3935124,25.8119925 C33.513771,25.199048 35.832629,25.1962406 37.9547524,25.8091852 C38.5738605,25.9869859 38.9309665,26.6354905 38.7528797,27.2568572 C38.5757252,27.8772881 37.9277131,28.2356969 37.3114022,28.0569604 C35.6069903,27.5666048 33.7403422,27.5675406 32.0396598,28.0597678 C31.9315024,28.090649 31.823345,28.1056217 31.7161199,28.1056217" id="Fill-39" fill="#BC7455"></path>
                                <g id="Group" transform="translate(12.293919, 29.508173)" fill="#473A4F">
                                    <path d="M20.986754,2.0863667 C20.5970143,2.0863667 20.3350123,1.68771879 20.479533,1.32369524 C20.7816279,0.566638545 21.5191496,0.0313648363 22.3806795,0.0313648363 C23.2431418,0.0313648363 23.9806636,0.566638545 24.2827585,1.32369524 C24.4272792,1.68771879 24.1652771,2.0863667 23.7755374,2.0863667 L20.986754,2.0863667 Z" id="Fill-41"></path>
                                    <path d="M0.786489098,2.0863667 C0.334279152,2.0863667 0.00607729387,1.61285534 0.200947147,1.20391371 C0.530081396,0.510490953 1.23403709,0.0313648363 2.04987977,0.0313648363 C2.86572246,0.0313648363 3.56967815,0.510490953 3.8988124,1.20391371 C4.09368225,1.61285534 3.76548039,2.0863667 3.31327045,2.0863667 L0.786489098,2.0863667 Z" id="Fill-43"></path>
                                </g>
                                <path d="M29.7124103,43.1947255 C31.1035386,43.1947255 32.0377951,44.6180669 31.5212501,45.9141405 C30.4452701,48.6139039 27.8149933,50.5210504 24.7408981,50.5210504 C21.6668028,50.5210504 19.036526,48.6139039 17.960546,45.9141405 C17.4440011,44.6180669 18.3782575,43.1947255 19.7693858,43.1947255 L29.7124103,43.1947255 Z" id="Fill-45" fill="#473A4F"></path>
                                <path d="M37.2619854,35.6569113 C37.2619854,36.3400403 36.1580337,36.8940299 34.7967419,36.8940299 C33.4354501,36.8940299 32.3324308,36.3400403 32.3324308,35.6569113 C32.3324308,34.9737822 33.4354501,34.4197927 34.7967419,34.4197927 C36.1580337,34.4197927 37.2619854,34.9737822 37.2619854,35.6569113" id="Fill-47" fill="#FBC39C"></path>
                                <path d="M16.3722169,35.6569113 C16.3722169,36.3400403 15.2682652,36.8940299 13.9069734,36.8940299 C12.5456816,36.8940299 11.4426623,36.3400403 11.4426623,35.6569113 C11.4426623,34.9737822 12.5456816,34.4197927 13.9069734,34.4197927 C15.2682652,34.4197927 16.3722169,34.9737822 16.3722169,35.6569113" id="Fill-49" fill="#FBC39C"></path>
                                <path d="M28.0286975,45.7019026 L21.4944968,45.7019026 C20.3802888,45.7019026 19.4768013,44.795119 19.4768013,43.6777819 L19.4768013,43.1949126 L30.0454606,43.1949126 L30.0454606,43.6777819 C30.0454606,44.795119 29.1429055,45.7019026 28.0286975,45.7019026" id="Fill-51" fill="#FEFEFE"></path>
                                <path d="M24.7419237,47.8074373 C23.3209588,47.8074373 22.0678245,48.5485855 21.3368294,49.6621794 C22.3550011,50.2030679 23.5093019,50.5212376 24.7419237,50.5212376 C25.9745454,50.5212376 27.1288463,50.2030679 28.147018,49.6621794 C27.4160229,48.5485855 26.1628886,47.8074373 24.7419237,47.8074373" id="Fill-53" fill="#F3795D"></path>
                            </g>
                            <g id="Group-4" transform="translate(26.638050, 15.318799) scale(-1, 1) translate(-26.638050, -15.318799) translate(5.386611, 0.000000)">
                                <g id="Group-8" transform="translate(21.182914, 15.552591) scale(-1, -1) translate(-21.182914, -15.552591) translate(0.664283, 0.963259)">
                                    <path d="M39.8814626,13.5178706 C39.8814626,22.3040329 32.7803678,27.711046 22.0289598,27.711046 C7.87525471,27.711046 0.892573703,21.136163 0.892573703,12.3500007 C0.892573703,4.76446106 12.32556,-5.53207148 24.2778885,5.37272664 C34.0101924,14.2515325 39.8814626,4.7317083 39.8814626,13.5178706" id="Fill-57" fill="#D39B29" transform="translate(20.387018, 14.171050) scale(1, -1) translate(-20.387018, -14.171050) "></path>
                                    <path d="M39.203021,14.2041072 C39.203021,22.9902695 32.1019262,28.3972826 21.3505182,28.3972826 C7.19681308,28.3972826 0.214132075,21.8223996 0.214132075,13.0362373 C0.214132075,5.45069763 11.6471184,-4.84583491 23.5994468,6.05896321 C33.3317508,14.9377691 39.203021,5.41794487 39.203021,14.2041072" id="Fill-57" fill="#F2BA28" transform="translate(19.708577, 14.857286) scale(1, -1) translate(-19.708577, -14.857286) "></path>
                                </g>
                            </g>
                        </g>
                        <g id="Group" transform="translate(38.068999, 0.000000)">
                            <g id="Rein">
                                <g id="Group-3">
                                    <g id="Group-2" transform="translate(0.922725, 80.730108)">
                                        <path d="M20.8230228,1.13647499 C9.48140934,1.13647499 0.286412109,10.387926 0.286412109,21.7991726 L0.286412109,31.5867662 C0.286412109,33.9890767 2.22225789,35.9368078 4.6099091,35.9368078 L52.1683761,35.9368078 C54.5560273,35.9368078 56.491873,33.9890767 56.491873,31.5867662 L56.491873,21.7991726 C56.491873,10.387926 47.2968758,1.13647499 35.9552623,1.13647499 L20.8230228,1.13647499 Z" id="Fill-7" fill="#336093"></path>
                                        <path d="M36.2265618,1.15028637 L37.0361366,10.9237423 L31.0264757,10.6649149 L28.3891426,17.4488048 L25.7518094,10.6649149 L21.9038971,10.9237423 L21.9038971,1.13614873 L20.8230228,1.13614873 C9.48140934,1.13614873 0.286412109,10.3875997 0.286412109,21.7988464 L0.286412109,31.58644 C0.286412109,33.9887505 2.22225789,35.9364816 4.6099091,35.9364816 L52.1683761,35.9364816 C54.5560273,35.9364816 56.491873,33.9887505 56.491873,31.58644 L56.491873,21.7988464 C56.491873,10.4800381 47.441713,1.29818778 36.2265618,1.15028637" id="Fill-9" fill="#366EAE"></path>
                                        <g id="Group-13" transform="translate(12.176029, 33.855082)">
                                            <path d="M12.3916828,13.7350908 L0.000540437124,1.26787156 L32.4267679,1.26787156 L20.0345446,13.7350908 C17.9235972,15.8589986 14.5026302,15.8589986 12.3916828,13.7350908" id="Fill-11" fill="#366EAE"></path>
                                            <mask id="mask-2" fill="white">
                                                <use xlink:href="#path-1"></use>
                                            </mask>
                                            <g id="Clip-12"></g>
                                        </g>
                                        <path d="M10.5547175,27.7808061 C9.65867272,27.7808061 8.9334061,28.5116131 8.9334061,29.4120717 L8.9334061,35.9371341 L12.1760288,35.9371341 L12.1760288,29.4120717 C12.1760288,28.5116131 11.4507622,27.7808061 10.5547175,27.7808061" id="Fill-18" fill="#292929" opacity="0.200000003"></path>
                                        <path d="M46.2235677,27.7808061 C45.3275229,27.7808061 44.6022563,28.5116131 44.6022563,29.4120717 L44.6022563,35.9371341 L47.8448791,35.9371341 L47.8448791,29.4120717 C47.8448791,28.5116131 47.1196124,27.7808061 46.2235677,27.7808061" id="Fill-20" fill="#292929" opacity="0.200000003"></path>
                                        <path d="M21.9038971,4.50036216 L21.9038971,0.0491820873 C20.8662578,0.654925381 19.3854601,1.31395668 18.6612743,2.22420289 C17.4258351,3.77608023 16.4995258,5.20941894 16.4995258,7.6617549 C16.4995258,9.69104931 17.7814427,12.0900973 18.9498678,13.8551266 C19.8307803,15.1862394 21.7201485,15.3243532 22.764273,14.1183042 L25.7518094,10.6643711 C25.7518094,10.6643711 21.9038971,8.7492653 21.9038971,4.50036216" id="Fill-59" fill="#336093"></path>
                                        <path d="M34.8743881,4.50036216 L34.8743881,0.0491820873 C35.9120274,0.654925381 37.3928251,1.31395668 38.1170108,2.22420289 C39.3524501,3.77608023 40.2787593,5.20941894 40.2787593,7.6617549 C40.2787593,9.69104931 38.9968425,12.0900973 37.8284174,13.8551266 C36.9475049,15.1862394 35.0581367,15.3243532 34.0140122,14.1183042 L31.0264757,10.6643711 C31.0264757,10.6643711 34.8743881,8.7492653 34.8743881,4.50036216" id="Fill-61" fill="#336093"></path>
                                        <path d="M29.4700168,17.6070375 C29.4700168,18.2073433 28.9857852,18.6945479 28.3891426,18.6945479 C27.7925,18.6945479 27.3082683,18.2073433 27.3082683,17.6070375 C27.3082683,17.0067318 27.7925,16.5195271 28.3891426,16.5195271 C28.9857852,16.5195271 29.4700168,17.0067318 29.4700168,17.6070375" id="Fill-63" fill="#336093"></path>
                                        <path d="M29.4700168,22.886683 C29.4700168,23.4869888 28.9857852,23.9741934 28.3891426,23.9741934 C27.7925,23.9741934 27.3082683,23.4869888 27.3082683,22.886683 C27.3082683,22.2863773 27.7925,21.7991726 28.3891426,21.7991726 C28.9857852,21.7991726 29.4700168,22.2863773 29.4700168,22.886683" id="Fill-65" fill="#336093"></path>
                                    </g>
                                    <path d="M21.0508895,79.7624294 C20.9384729,79.7901897 20.8327346,79.8268333 20.720318,79.855704 C20.8293954,79.8301645 20.941812,79.8112875 21.0508895,79.7879689 L21.0508895,79.7624294 Z" id="Fill-5" fill="#D0D2D3"></path>
                                    <path d="M38.0472751,79.7624294 L38.0472751,79.7768647 C38.1118312,79.7913001 38.1786133,79.8035146 38.2431694,79.81795 C38.1763872,79.8012938 38.1140572,79.7790855 38.0472751,79.7624294" id="Fill-9" fill="#D0D2D3"></path>
                                    <path d="M29.5490267,60.9198309 C25.8337142,60.9198309 22.7940144,63.9523688 22.7940144,67.6589275 L22.7940144,68.195257 C22.7940144,64.4886983 25.8337142,61.4561604 29.5490267,61.4561604 C33.2643391,61.4561604 36.304039,64.4886983 36.304039,68.195257 L36.304039,67.6589275 C36.304039,63.9523688 33.2643391,60.9198309 29.5490267,60.9198309" id="Fill-17" fill="#231F20"></path>
                                    <path d="M22.7937918,78.1029171 L22.7937918,79.3721192 L22.7937918,79.9084487 L22.7937918,82.9132263 C22.7937918,86.6197849 25.8334916,89.6523229 29.5488041,89.6523229 C33.2641165,89.6523229 36.3049294,86.6197849 36.3049294,82.9132263 L36.3049294,79.9084487 L36.3049294,79.3721192 L36.3049294,78.1029171 C34.1578839,78.7180859 31.8939698,79.0534306 29.5488041,79.0534306 C27.2047513,79.0534306 24.9397242,78.7180859 22.7937918,78.1029171" id="Fill-19" fill="#FFE1AD"></path>
                                    <path d="M22.7937918,74.7349234 L22.7937918,78.1028061 C24.9397242,78.7179749 27.2047513,79.0533196 29.5488041,79.0533196 C31.8939698,79.0533196 34.1578839,78.7179749 36.3049294,78.1028061 L36.3049294,74.4717555 C34.0220936,75.1746469 31.5979024,75.5544082 29.0857813,75.5544082 C26.9097969,75.5544082 24.8017078,75.2668112 22.7937918,74.7349234" id="Fill-21" fill="#D7B48A"></path>
                                    <path d="M52.8370062,35.1312659 L52.8370062,45.7223852 C52.9739095,45.7223852 53.1052477,45.7423727 53.2432641,45.7323789 C56.1805647,45.5080755 58.3799228,42.9507943 58.1550897,40.0215248 C57.9402738,37.2288361 55.5984472,35.1312659 52.8370062,35.1312659" id="Fill-23" fill="#FCCA80"></path>
                                    <path d="M4.92685153,35.1213832 C1.98955091,35.3456866 -0.208694151,37.9018574 0.0161390144,40.8322374 C0.229841825,43.6249261 2.5727815,45.7224963 5.33310947,45.7224963 L5.33310947,35.1313769 C5.19731915,35.1313769 5.06486793,35.1102791 4.92685153,35.1213832" id="Fill-25" fill="#FCCA80"></path>
                                    <path d="M51.104397,36.4557016 C55.9216145,31.1745773 57.0090502,23.1962598 53.239199,16.682577 C52.1105811,14.7326918 49.6107034,14.0642231 47.6562131,15.1901819 L44.6265305,16.9357512 C48.6457016,21.2819077 51.104397,27.0882574 51.104397,33.4686906 L51.104397,36.4557016 Z" id="Fill-27" fill="#8F6C47"></path>
                                    <path d="M12.9696954,13.5058614 L12.2161704,13.0716899 C10.2616801,11.9457311 7.76180246,12.6141997 6.63318449,14.564085 L6.63318449,14.564085 C4.25796679,18.6681715 3.81831778,23.3518936 5.01594395,27.5781255 C6.00098034,22.0049626 8.88040312,17.0869433 12.9696954,13.5058614" id="Fill-29" fill="#8F6C47"></path>
                                    <path d="M53.5340507,34.8271238 L53.5340507,31.8401127 C53.5340507,25.4596796 51.0753553,19.6533299 47.0561842,15.3071734 C42.5884598,10.4768767 36.191845,7.44878044 29.0851135,7.44878044 C22.9099927,7.44878044 17.273581,9.73845208 12.9694728,13.5060834 C8.88018051,17.0871654 6.00075774,22.0051847 5.01572134,27.5783476 C4.77085354,28.9630326 4.63617624,30.3854717 4.63617624,31.8401127 L4.63617624,35.1313769 L4.63617624,45.7224963 L4.63617624,50.9125667 L4.64285446,50.9125667 C4.64174142,50.9969581 4.63617624,51.0791287 4.63617624,51.1624096 C4.63617624,62.4630829 12.3406078,71.9648871 22.794237,74.7353675 C24.802153,75.2672554 26.9091291,75.5537419 29.0851135,75.5537419 C31.5983476,75.5537419 34.0225388,75.1750911 36.3042616,74.4721997 C46.2826246,71.3996868 53.5340507,62.1266278 53.5340507,51.1624096 C53.5340507,51.0791287 53.5284855,50.9969581 53.5273725,50.9125667 L53.5340507,50.9125667 L53.5340507,45.7224963 L53.5340507,35.1313769 L53.5340507,34.8271238 Z" id="Fill-31" fill="#FFE1AD"></path>
                                    <path d="M13.6059065,40.7942612 C13.0015283,40.7942612 12.4461236,40.3989542 12.2691509,39.7915583 C12.0565611,39.054244 12.4828537,38.2847278 13.2207963,38.0726389 C15.754065,37.3464288 18.5221842,37.344208 21.0532269,38.0693077 C21.7911694,38.2802862 22.218575,39.0498024 22.0059852,39.7871166 C21.7933955,40.5233204 21.0198358,40.9486086 20.2841194,40.7365197 C18.2517166,40.1546633 16.0234196,40.1557737 13.9921298,40.739851 C13.8630177,40.7764946 13.7339056,40.7942612 13.6059065,40.7942612" id="Fill-33" fill="#BC7455"></path>
                                    <path d="M32.1948233,51.4924244 C31.3533685,51.7344944 30.4640531,51.8644127 29.5446858,51.8644127 C28.6275446,51.8644127 27.7415684,51.7356048 26.9034526,51.4957556" id="Fill-35" fill="#FCCA80"></path>
                                    <path d="M29.5443519,52.9751589 C28.54262,52.9751589 27.5509054,52.8363573 26.5959209,52.5620852 C26.0048991,52.3933025 25.6631972,51.7781337 25.8334916,51.1885043 C26.002673,50.598875 26.6192947,50.2613095 27.2103165,50.4278714 C28.7229317,50.8620429 30.3702242,50.8620429 31.8861785,50.4256506 C32.4783134,50.2579782 33.0949351,50.5955438 33.2641165,51.1862835 C33.4344109,51.7748024 33.093822,52.3910816 32.5028002,52.5598644 C31.5433636,52.8352468 30.5483099,52.9751589 29.5443519,52.9751589" id="Fill-37" fill="#FCCA80"></path>
                                    <path d="M37.8758676,40.7942612 C37.2714894,40.7942612 36.7160847,40.3989542 36.539112,39.7915583 C36.3265223,39.054244 36.7528149,38.2847278 37.4907574,38.0726389 C40.0218,37.3453184 42.7899193,37.3419872 45.323188,38.0693077 C46.0622436,38.2802862 46.4885361,39.0498024 46.2759464,39.7871166 C46.0644696,40.5233204 45.29091,40.9486086 44.5551935,40.7365197 C42.5205647,40.1546633 40.2922677,40.1557737 38.262091,40.739851 C38.1329788,40.7764946 38.0038667,40.7942612 37.8758676,40.7942612" id="Fill-39" fill="#BC7455"></path>
                                    <path d="M39.7435412,44.9342141 C39.2782923,44.9342141 38.9655294,44.4611781 39.1380499,44.0292275 C39.4986734,43.1309033 40.3790844,42.4957471 41.4075292,42.4957471 C42.437087,42.4957471 43.3174981,43.1309033 43.6781216,44.0292275 C43.8506421,44.4611781 43.5378791,44.9342141 43.0726303,44.9342141 L39.7435412,44.9342141 Z" id="Fill-41" fill="#473A4F"></path>
                                    <path d="M15.6296276,44.9342141 C15.0898054,44.9342141 14.6980169,44.3723451 14.9306413,43.8870946 C15.3235429,43.0642786 16.1638847,42.4957471 17.1377907,42.4957471 C18.1116967,42.4957471 18.9520385,43.0642786 19.34494,43.8870946 C19.5775645,44.3723451 19.185776,44.9342141 18.6459538,44.9342141 L15.6296276,44.9342141 Z" id="Fill-43" fill="#473A4F"></path>
                                    <rect id="Rectangle-6" fill="#8F6C47" x="17.1204159" y="54.6728632" width="25.1064215" height="15.4714894" rx="7.73574468"></rect>
                                    <path d="M35.4839544,58.6990049 C37.1446033,58.6990049 38.2598649,60.3879431 37.6432432,61.9258651 C36.3588003,65.1294066 33.2189272,67.3924284 29.5492493,67.3924284 C25.8795713,67.3924284 22.7396982,65.1294066 21.4552553,61.9258651 C20.8386336,60.3879431 21.9538952,58.6990049 23.6145441,58.6990049 L35.4839544,58.6990049 Z" id="Fill-45" fill="#473A4F"></path>
                                    <path d="M44.4962026,49.754628 C44.4962026,50.5652295 43.1783686,51.222594 41.5533369,51.222594 C39.9283051,51.222594 38.6115841,50.5652295 38.6115841,49.754628 C38.6115841,48.9440265 39.9283051,48.286662 41.5533369,48.286662 C43.1783686,48.286662 44.4962026,48.9440265 44.4962026,49.754628" id="Fill-47" fill="#FBC39C"></path>
                                    <path d="M19.5591994,49.754628 C19.5591994,50.5652295 18.2413654,51.222594 16.6163336,51.222594 C14.9913018,51.222594 13.6745808,50.5652295 13.6745808,49.754628 C13.6745808,48.9440265 14.9913018,48.286662 16.6163336,48.286662 C18.2413654,48.286662 19.5591994,48.9440265 19.5591994,49.754628" id="Fill-49" fill="#FBC39C"></path>
                                    <path d="M33.474035,61.6740234 L25.6738824,61.6740234 C24.343805,61.6740234 23.2652736,60.5980332 23.2652736,59.2722001 L23.2652736,58.6992269 L35.8815307,58.6992269 L35.8815307,59.2722001 C35.8815307,60.5980332 34.8041123,61.6740234 33.474035,61.6740234" id="Fill-51" fill="#FEFEFE"></path>
                                    <path d="M29.5504736,64.1724527 C27.8542075,64.1724527 26.3582879,65.0518998 25.4856681,66.3732913 C26.7011028,67.01511 28.0790407,67.3926504 29.5504736,67.3926504 C31.0219065,67.3926504 32.3998444,67.01511 33.6152792,66.3732913 C32.7426593,65.0518998 31.2467397,64.1724527 29.5504736,64.1724527" id="Fill-53" fill="#F3795D"></path>
                                    <g id="Group-4-Copy" transform="translate(29.978547, 18.867137) scale(-1, 1) translate(-29.978547, -18.867137) translate(6.279033, 0.000000)">
                                        <path d="M24.7899752,33.8455814 C7.89409668,33.8455814 2.00832957,25.898394 2.00832957,15.4727262 C2.00832957,6.4717183 13.206615,-5.60073057 27.4746167,7.33891231 C39.092481,17.874511 46.1012654,6.57827939 46.1012654,17.0039472 C46.1012654,27.429615 37.6243872,33.8455814 24.7899752,33.8455814 Z" id="Fill-57" fill="#6C5338" transform="translate(24.054797, 17.762092) scale(1, -1) translate(-24.054797, -17.762092) "></path>
                                        <path d="M25.5998597,37.1203333 C8.70398124,37.1203333 0.368458577,29.3185714 0.368458577,18.8929036 C0.368458577,-7.30602597 14.0164996,-2.32597869 28.2845013,10.6136642 C39.9023656,21.1492629 46.91115,9.85303127 46.91115,20.2786991 C46.91115,30.7043669 38.4342718,37.1203333 25.5998597,37.1203333 Z" id="Fill-57" fill="#8F6C47" transform="translate(23.639804, 18.585179) scale(1, -1) translate(-23.639804, -18.585179) "></path>
                                    </g>
                                    <path d="M53.415494,53.5243071 C49.5933845,63.459293 44.40031,68.4267859 37.8362705,68.4267859 C31.2722309,68.4267859 28.4939909,68.9993081 29.5015505,70.1443526 L29.0851135,75.5544082 C38.1447191,75.5441897 44.346615,73.1683156 47.6908011,68.4267859 C51.0349872,63.6852563 52.9432182,58.7177633 53.415494,53.5243071 Z" id="Path-3" fill="#8F6C47"></path>
                                    <path d="M4.76851587,53.5243071 C8.56688093,63.4652817 13.93338,68.5769226 20.4974195,68.5769226 C27.0614591,68.5769226 30.8926365,68.905786 29.7316664,69.863786 L29.2758704,75.5537419 C20.177705,74.9194015 13.51748,72.9150974 10.6428889,68.5769226 C7.76829788,64.2387478 5.41763156,59.5662933 4.76851587,53.5243071 Z" id="Path-3" fill="#8F6C47"></path>
                                </g>
                            </g>
                        </g>
                    </g>
                    <ellipse id="Oval-Copy" fill="#E9EAEC" cx="57.6095378" cy="139.416079" rx="22.6485724" ry="2.40648705"></ellipse>
                    <ellipse id="Oval" fill="#E9EAEC" cx="138.201495" cy="139.408331" rx="23.0067359" ry="2.41423456"></ellipse>
                </g>
                <ellipse id="Oval" fill="#E9EAEC" cx="97.0813191" cy="146.010729" rx="25.218922" ry="2.66539298"></ellipse>
            </g>
        </g>
    </g>
</svg>