<?xml version="1.0" encoding="UTF-8"?>
<svg width="92px" height="168px" viewBox="0 0 92 168" version="1.1" xmlns="http://www.w3.org/2000/svg" xmlns:xlink="http://www.w3.org/1999/xlink">
    <!-- Generator: Sketch 55.2 (78181) - https://sketchapp.com -->
    <title>Group 79</title>
    <desc>Created with Sketch.</desc>
    <defs>
        <polygon id="path-1" points="43.7580918 0.742282955 0.627627876 0.742282955 0.627627876 30.2884118 43.7580918 30.2884118 43.7580918 0.742282955"></polygon>
    </defs>
    <g id="Website-" stroke="none" stroke-width="1" fill="none" fill-rule="evenodd">
        <g id="Desktop-HD" transform="translate(-317.000000, -3579.000000)">
            <g id="Group-55" transform="translate(272.000000, 3578.000000)">
                <g id="Group-80">
                    <g id="Group-83">
                        <g id="Group-79" transform="translate(45.000000, 0.000000)">
                            <g id="boy_1" transform="translate(17.000000, 0.000000)">
                                <path d="M11.0997821,100.220962 C10.2447229,100.220962 9.55263036,100.907088 9.55263036,101.752495 L9.55263036,107.878626 L12.6469338,107.878626 L12.6469338,101.752495 C12.6469338,100.907088 11.9548412,100.220962 11.0997821,100.220962 L11.0997821,100.220962 Z" id="Fill-1" fill="#BBBDBF"></path>
                                <path d="M45.1421737,100.231887 C44.2943345,100.231887 43.6053363,100.912908 43.6053363,101.752188 L43.6053363,107.87832 L46.6779796,107.87832 L46.6779796,101.752188 C46.6779796,100.912908 45.9900128,100.231887 45.1421737,100.231887" id="Fill-3" fill="#BBBDBF"></path>
                                <path d="M20.1535076,76.9788265 C20.0493327,77.0043521 19.9513464,77.0380458 19.8471715,77.0645924 C19.9482521,77.0411089 20.052427,77.0237515 20.1535076,77.00231 L20.1535076,76.9788265 Z" id="Fill-5" fill="#D0D2D3"></path>
                                <path d="M36.7780653,77.2233613 L36.7780653,80.5202412 C36.7780653,85.2669722 32.8493313,88.6873957 28.0521296,88.6771855 C23.2538965,88.6873957 19.3251626,85.2669722 19.3251626,80.5202412 L19.3251626,77.210088 C8.67044446,80.1189795 0.995540552,88.1952631 0.995540552,97.725482 L0.995540552,105.939604 C0.995540552,107.010656 1.87225985,107.878524 2.95423461,107.878524 L9.55232093,107.878524 L9.55232093,101.752393 C9.55232093,100.906986 10.2454449,100.22086 11.0994726,100.22086 C11.9545318,100.22086 12.6466243,100.906986 12.6466243,101.752393 L12.6466243,107.878524 L24.7814509,119.344601 C26.6132785,121.076254 29.4951064,121.083401 31.336217,119.359916 L43.60513,107.878524 L43.60513,101.752393 C43.60513,100.913112 44.2941282,100.232091 45.1419674,100.232091 C45.9898065,100.232091 46.6777733,100.913112 46.6777733,101.752393 L46.6777733,107.878524 L53.9256633,107.878524 C54.5527755,107.878524 55.0612727,107.37516 55.0612727,106.753358 L55.0612727,97.725482 C55.0612727,88.2095574 47.4090604,80.142463 36.7780653,77.2233613" id="Fill-7" fill="#D0D2D3"></path>
                                <path d="M35.9038214,76.9788265 L35.9038214,76.9920998 C35.9636446,77.0053731 36.0255307,77.0166043 36.0853539,77.0298776 C36.0234678,77.0145623 35.9657075,76.9941419 35.9038214,76.9788265" id="Fill-9" fill="#D0D2D3"></path>
                                <path d="M28.0516139,88.6768792 C32.8488156,88.6881104 36.7775495,85.2666659 36.7775495,80.5199348 L36.7775495,77.223055 L36.7775495,77.1709829 C36.5516654,77.1158477 36.3144355,77.0811329 36.085457,77.0300818 C36.0256338,77.0157875 35.9637477,77.0055773 35.9039245,76.992304 C35.3005354,76.8605922 34.7012719,76.7217332 34.0834427,76.619631 C32.1371258,76.9953671 30.1320172,77.2087607 28.0743055,77.2087607 L28.0289223,77.2087607 C25.9712106,77.2087607 23.966102,76.9953671 22.0197851,76.619631 C21.3864843,76.7237753 20.7717494,76.8656973 20.1539202,77.0014932 C20.0518081,77.0239557 19.9486647,77.0413131 19.8475841,77.0647966 C19.6753346,77.1035954 19.495865,77.129121 19.3246468,77.1709829 L19.3246468,77.2108027 L19.3246468,80.5199348 C19.3246468,85.2666659 23.2544122,88.6881104 28.0516139,88.6768792" id="Fill-11" fill="#BBBDBF"></path>
                                <path d="M35.5559185,99.4540721 L20.5464841,99.4540721 C18.746631,99.4540721 17.8111199,101.577798 19.036464,102.883685 L25.6097959,109.891979 C26.9279692,111.296906 29.1754649,111.296906 30.4936382,109.891979 L37.06697,102.883685 C38.2912828,101.577798 37.3557717,99.4540721 35.5559185,99.4540721" id="Fill-13" fill="#BBBCBC"></path>
                                <path d="M23.8345941,105.273183 L20.719662,102.189696 C20.2400449,101.714921 20.5793869,100.903209 21.2580708,100.903209 L23.5911755,100.903209 C24.4431404,100.903209 25.1342015,101.587293 25.1342015,102.430657 L25.1342015,104.740209 C25.1342015,105.412041 24.3142111,105.747958 23.8345941,105.273183" id="Fill-15" fill="#9A9D9E"></path>
                                <path d="M28.0286129,59.6531051 C24.5856846,59.6531051 21.7688371,62.4415161 21.7688371,65.8496873 L21.7688371,66.3428409 C21.7688371,62.9346697 24.5856846,60.1462587 28.0286129,60.1462587 C31.4715412,60.1462587 34.2883887,62.9346697 34.2883887,66.3428409 L34.2883887,65.8496873 C34.2883887,62.4415161 31.4715412,59.6531051 28.0286129,59.6531051" id="Fill-17" fill="#231F20"></path>
                                <path d="M21.7686308,75.4529092 L21.7686308,76.6199373 L21.7686308,77.1130909 L21.7686308,79.8759763 C21.7686308,83.2841476 24.5854784,86.0725585 28.0284066,86.0725585 C31.4713349,86.0725585 34.2892139,83.2841476 34.2892139,79.8759763 L34.2892139,77.1130909 L34.2892139,76.6199373 L34.2892139,75.4529092 C32.2995768,76.0185554 30.2016391,76.326904 28.0284066,76.326904 C25.8562056,76.326904 23.7572365,76.0185554 21.7686308,75.4529092" id="Fill-19" fill="#FFE1AD"></path>
                                <path d="M21.7686308,72.3560476 L21.7686308,75.4528071 C23.7572365,76.0184533 25.8562056,76.3268019 28.0284066,76.3268019 C30.2016391,76.3268019 32.2995768,76.0184533 34.2892139,75.4528071 L34.2892139,72.1140654 C32.1737418,72.7603723 29.9272775,73.1095618 27.5993299,73.1095618 C25.5828755,73.1095618 23.6293386,72.8451171 21.7686308,72.3560476" id="Fill-21" fill="#D7B48A"></path>
                                <path d="M50.2552006,35.9405851 L50.2552006,45.6790925 C50.3820671,45.6790925 50.5037763,45.6974709 50.6316742,45.6882817 C53.3536298,45.4820352 55.3917443,43.1306217 55.1833945,40.4371658 C54.9843277,37.8692956 52.8141896,35.9405851 50.2552006,35.9405851" id="Fill-23" fill="#FCCA80"></path>
                                <path d="M4.56564469,35.931498 C1.84368912,36.1377445 -0.193393963,38.488137 0.0149557998,41.1826139 C0.212991218,43.7504841 2.38416078,45.6791946 4.94211827,45.6791946 L4.94211827,35.9406872 C4.81628327,35.9406872 4.69354256,35.9212878 4.56564469,35.931498" id="Fill-25" fill="#FCCA80"></path>
                                <path d="M50.2552006,35.6609272 C54.719249,30.8049468 55.7269605,23.4689042 52.233492,17.4795894 C51.1876174,15.6866749 48.8710156,15.0720197 47.0598166,16.1073359 L44.252252,17.7123824 C47.9767619,21.7086623 50.2552006,27.0475861 50.2552006,32.9143782 L50.2552006,35.6609272 Z" id="Fill-27" fill="#CD7C4F"></path>
                                <path d="M12.6647776,16.0560806 L11.9664965,15.656861 C10.1552975,14.6215448 7.8386957,15.2362 6.79282114,17.0291145 L6.79282114,17.0291145 C4.59173998,20.8028116 4.18432337,25.1094822 5.29414686,28.9954917 C6.20696636,23.8709826 8.87528734,19.3488764 12.6647776,16.0560806" id="Fill-29" fill="#CD7C4F"></path>
                                <path d="M50.2552006,35.6609272 L50.2552006,32.9143782 C50.2552006,27.0475861 47.9767619,21.7086623 44.252252,17.7123824 C40.112074,13.270937 34.1844201,10.4866101 27.598711,10.4866101 C21.8763126,10.4866101 16.6531284,12.5919574 12.6645713,16.0562848 C8.87508106,19.3490806 6.20676008,23.8711868 5.29394057,28.995696 C5.06702499,30.2689103 4.94222142,31.5768394 4.94222142,32.9143782 L4.94222142,35.9406872 L4.94222142,45.6791946 L4.94222142,50.4514511 L4.94841002,50.4514511 C4.94737859,50.5290488 4.94222142,50.6046044 4.94222142,50.6811811 C4.94222142,61.0721214 12.0818108,69.8090062 21.7690434,72.356456 C23.6297512,72.8455255 25.5822566,73.1089492 27.598711,73.1089492 C29.9276901,73.1089492 32.1741543,72.7607807 34.288595,72.1144738 C43.5354051,69.289306 50.2552006,60.7627518 50.2552006,50.6811811 C50.2552006,50.6046044 50.2500435,50.5290488 50.249012,50.4514511 L50.2552006,50.4514511 L50.2552006,45.6791946 L50.2552006,35.9406872 L50.2552006,35.6609272 Z" id="Fill-31" fill="#FFE1AD"></path>
                                <path d="M13.2543455,41.147695 C12.6942766,41.147695 12.1795908,40.7842111 12.0155927,40.2257121 C11.8185888,39.5477536 12.2136282,38.8401854 12.8974692,38.6451702 C15.2450141,37.9774218 17.8101916,37.9753798 20.1556736,38.6421071 C20.8395146,38.8361013 21.2355855,39.5436695 21.0385815,40.221628 C20.8415775,40.8985656 20.1247306,41.289617 19.4429524,41.0946018 C17.559553,40.5595863 15.4946212,40.5606073 13.6122533,41.0976649 C13.4926069,41.1313586 13.3729605,41.147695 13.2543455,41.147695" id="Fill-33" fill="#BC7455"></path>
                                <path d="M30.4804358,50.9846288 C29.7006713,51.2072116 28.8765552,51.3266711 28.0245903,51.3266711 C27.1746883,51.3266711 26.3536665,51.2082326 25.5769963,50.9876919" id="Fill-35" fill="#FCCA80"></path>
                                <path d="M28.0242809,52.3479994 C27.0959899,52.3479994 26.1769817,52.2203717 25.292011,51.9681792 C24.7443193,51.8129839 24.4276689,51.2473377 24.5854784,50.7051751 C24.7422564,50.1630124 25.3136711,49.8526218 25.8613628,50.0057751 C27.2630822,50.4049946 28.7896053,50.4049946 30.194419,50.003733 C30.7431422,49.8495587 31.3145569,50.1599494 31.4713349,50.703133 C31.6291444,51.2442747 31.3135254,51.8109419 30.7658337,51.9661372 C29.8767372,52.2193506 28.9546348,52.3479994 28.0242809,52.3479994" id="Fill-37" fill="#FCCA80"></path>
                                <path d="M35.7449805,41.147695 C35.1849116,41.147695 34.6702258,40.7842111 34.5062277,40.2257121 C34.3092237,39.5477536 34.7042631,38.8401854 35.3881042,38.6451702 C37.7335861,37.9764008 40.2987637,37.9733377 42.6463085,38.6421071 C43.331181,38.8361013 43.7262204,39.5436695 43.5292164,40.221628 C43.3332439,40.8985656 42.6163969,41.289617 41.9346187,41.0946018 C40.0491565,40.5595863 37.9842247,40.5606073 36.1028882,41.0976649 C35.9832418,41.1313586 35.8635954,41.147695 35.7449805,41.147695" id="Fill-39" fill="#BC7455"></path>
                                <path d="M37.4757275,44.9543711 C37.0445879,44.9543711 36.7547548,44.5194157 36.9146272,44.1222382 C37.2488119,43.2962314 38.0646766,42.7122069 39.0177221,42.7122069 C39.9717989,42.7122069 40.7876636,43.2962314 41.1218484,44.1222382 C41.2817207,44.5194157 40.9918876,44.9543711 40.560748,44.9543711 L37.4757275,44.9543711 Z" id="Fill-41" fill="#473A4F"></path>
                                <path d="M15.1296997,44.9543711 C14.629454,44.9543711 14.266389,44.437734 14.4819588,43.9915474 C14.8460552,43.2349701 15.6247882,42.7122069 16.5272934,42.7122069 C17.4297986,42.7122069 18.2085316,43.2349701 18.572628,43.9915474 C18.7881978,44.437734 18.4251328,44.9543711 17.9248871,44.9543711 L15.1296997,44.9543711 Z" id="Fill-43" fill="#473A4F"></path>
                                <path d="M33.5284278,57.6110612 C35.067328,57.6110612 36.1008254,59.1640356 35.5294107,60.578151 C34.3391353,63.5237993 31.4294587,65.604642 28.0288192,65.604642 C24.6281797,65.604642 21.7185031,63.5237993 20.5282277,60.578151 C19.956813,59.1640356 20.9903104,57.6110612 22.5292106,57.6110612 L33.5284278,57.6110612 Z" id="Fill-45" fill="#473A4F"></path>
                                <path d="M41.8799527,49.3867295 C41.8799527,50.1320755 40.6587343,50.7365205 39.15284,50.7365205 C37.6469457,50.7365205 36.4267587,50.1320755 36.4267587,49.3867295 C36.4267587,48.6413834 37.6469457,48.0369384 39.15284,48.0369384 C40.6587343,48.0369384 41.8799527,48.6413834 41.8799527,49.3867295" id="Fill-47" fill="#FBC39C"></path>
                                <path d="M18.7711791,49.3867295 C18.7711791,50.1320755 17.5499607,50.7365205 16.0440664,50.7365205 C14.538172,50.7365205 13.317985,50.1320755 13.317985,49.3867295 C13.317985,48.6413834 14.538172,48.0369384 16.0440664,48.0369384 C17.5499607,48.0369384 18.7711791,48.6413834 18.7711791,49.3867295" id="Fill-49" fill="#FBC39C"></path>
                                <path d="M31.6658634,60.3465832 L24.4375707,60.3465832 C23.2050065,60.3465832 22.2055465,59.357213 22.2055465,58.1381128 L22.2055465,57.6112654 L33.8968562,57.6112654 L33.8968562,58.1381128 C33.8968562,59.357213 32.8984276,60.3465832 31.6658634,60.3465832" id="Fill-51" fill="#FEFEFE"></path>
                                <path d="M28.0299538,62.6438826 C26.4580476,62.6438826 25.0717997,63.452532 24.2631551,64.6675481 C25.3894815,65.2576988 26.6663974,65.6048463 28.0299538,65.6048463 C29.3935101,65.6048463 30.670426,65.2576988 31.7967525,64.6675481 C30.9881078,63.452532 29.6018599,62.6438826 28.0299538,62.6438826" id="Fill-53" fill="#F3795D"></path>
                                <path d="M51.416699,21.0785897 C50.8793216,26.2020778 44.2482294,32.5211826 29.6317715,32.5211826 C15.016345,32.5211826 7.84787547,24.6858602 7.84787547,15.976543 C7.84787547,15.976543 12.8493012,15.1270528 27.4657591,15.1270528 C42.0811856,15.1270528 52.3243613,12.4162395 51.416699,21.0785897" id="Fill-55" fill="#BD7857"></path>
                                <g id="Group-59" transform="translate(7.220041, 0.278739)">
                                    <mask id="mask-2" fill="white">
                                        <use xlink:href="#path-1"></use>
                                    </mask>
                                    <g id="Clip-58"></g>
                                    <path d="M43.7580918,14.802572 C43.7580918,24.388947 35.9026868,30.2884118 24.0092159,30.2884118 C8.35204064,30.2884118 0.627627876,23.1147116 0.627627876,13.5283366 C0.627627876,5.25193269 13.2750774,-5.98237179 26.4970359,5.91559695 C37.2631489,15.6030532 43.7580918,5.21619692 43.7580918,14.802572" id="Fill-57" fill="#CD7C4F" mask="url(#mask-2)"></path>
                                </g>
                            </g>
                            <g id="responsive-2" transform="translate(0.000000, 81.000000)" fill-rule="nonzero">
                                <g id="responsive">
                                    <rect id="Rectangle" fill="#282828" x="38" y="66" width="16" height="16"></rect>
                                    <path d="M90,12 L2,12 C0.894,12 0,12.894 0,14 L0,72 C0,73.106 0.894,74 2,74 L90,74 C91.106,74 92,73.106 92,72 L92,14 C92,12.894 91.106,12 90,12 Z" id="Path" fill="#444444"></path>
                                    <path d="M62,84 L30,84 C28.894,84 28,83.106 28,82 C28,80.894 28.894,80 30,80 L62,80 C63.106,80 64,80.894 64,82 C64,83.106 63.106,84 62,84 Z" id="Path" fill="#444444"></path>
                                    <path d="M84,68 L8,68 C6.896,68 6,67.104 6,66 L6,20 C6,18.896 6.896,18 8,18 L84,18 C85.104,18 86,18.896 86,20 L86,66 C86,67.104 85.104,68 84,68 Z" id="Path" fill="#FFD240"></path>
                                    <path d="M78,0 L48,0 C45.794,0 44,1.794 44,4 L44,40 C44,42.206 45.794,44 48,44 L78,44 C80.206,44 82,42.206 82,40 L82,4 C82,1.794 80.206,0 78,0 Z" id="Path" fill="#B3B3B3"></path>
                                    <path d="M30,52 L14,52 C11.79,52 10,53.79 10,56 L10,84 C10,86.21 11.79,88 14,88 L30,88 C32.21,88 34,86.21 34,84 L34,56 C34,53.79 32.21,52 30,52 Z" id="Path" fill="#B3B3B3"></path>
                                    <path d="M28,82 L16,82 C14.896,82 14,81.104 14,80 L14,58 C14,56.896 14.896,56 16,56 L28,56 C29.104,56 30,56.896 30,58 L30,80 C30,81.104 29.104,82 28,82 Z" id="Path" fill="#8E8E8E"></path>
                                    <path d="M74,36 L52,36 C50.896,36 50,35.104 50,34 L50,8 C50,6.896 50.896,6 52,6 L74,6 C75.104,6 76,6.896 76,8 L76,34 C76,35.104 75.104,36 74,36 Z" id="Path" fill="#8E8E8E"></path>
                                </g>
                            </g>
                        </g>
                    </g>
                </g>
            </g>
        </g>
    </g>
</svg>